<svg xmlns="http://www.w3.org/2000/svg" width="30.912" height="34.713" viewBox="0 0 30.912 34.713"><g id="icon" transform="translate(-0.5 -0.001)"><path id="Path_1719" data-name="Path 1719" d="M16.456,34.831l-1.733,1.808L1.056,50.894A3.181,3.181,0,0,1,.5,49.085v-28.3a3.175,3.175,0,0,1,.64-1.926L14.723,33.023Zm0,0" transform="translate(0 -17.576)" fill="#6aa9ff"></path><path id="Path_1720" data-name="Path 1720" d="M55.136,10.573l-5,5.211L47,12.506,35.121.12a3.159,3.159,0,0,1,2.453.315L47,5.874Zm0,0" transform="translate(-32.274 0)" fill="#a8ebfa"></path><path id="Path_1721" data-name="Path 1721" d="M53.179,281.522l-8.265,4.772-9.422,5.44a3.193,3.193,0,0,1-1.6.434,3.151,3.151,0,0,1-1-.166l12.027-12.544,3.143-3.278Zm0,0" transform="translate(-30.191 -257.454)" fill="#ff5b5b"></path><path id="Path_1722" data-name="Path 1722" d="M287.965,174.359l-5.134-2.964-5.4,5.633,5.528,5.765,5.008-2.891a3.2,3.2,0,0,0,0-5.543Zm0,0" transform="translate(-258.154 -159.773)" fill="#ff9f00"></path><path id="Path_1723" data-name="Path 1723" d="M212.007,229.627l-1.733,1.808V227.82Zm0,0" transform="translate(-195.551 -212.373)" fill="#2682ff"></path><path id="Path_1724" data-name="Path 1724" d="M213.417,96.535l-3.143-3.278V86.625l8.139,4.7Zm0,0" transform="translate(-195.551 -80.751)" fill="#76e2f8"></path><path id="Path_1725" data-name="Path 1725" d="M218.539,281.522l-8.265,4.772v-6.836l3.143-3.278Zm0,0" transform="translate(-195.551 -257.453)" fill="#ff3636"></path></g></svg>