<svg xmlns="http://www.w3.org/2000/svg" width="156.517" height="124.288" viewBox="0 0 156.517 124.288"><g id="Group_1132" data-name="Group 1132" transform="translate(-265.403 -1175.589)"><path id="Path_1766" data-name="Path 1766" d="M241.753,30.909l-70,70h140Z" transform="matrix(0.899, -0.438, 0.438, 0.899, 97.482, 1284.472)" fill="#27ae60" opacity="0.08"></path><g id="icon" transform="translate(261.418 1167.652)"><path id="Path_1728" data-name="Path 1728" d="M57.04,113.085A23.462,23.462,0,0,0,37.267,149.17l-3.142,8.806a1.113,1.113,0,0,0,1.422,1.422l8.786-3.135A23.459,23.459,0,1,0,57.04,113.085Zm0,44.691a21.12,21.12,0,0,1-11.93-3.668,1.11,1.11,0,0,0-1-.128l-7.1,2.533,2.54-7.117a1.112,1.112,0,0,0-.126-1,21.235,21.235,0,1,1,17.616,9.376Z" transform="translate(0 -41.945)" fill="#716f84"></path><path id="Path_1729" data-name="Path 1729" d="M160.234,73.585a23.458,23.458,0,1,0-7.066,7.094l8.786,3.135a1.113,1.113,0,0,0,1.422-1.422ZM153.391,78.4a1.111,1.111,0,0,0-1,.128,21.221,21.221,0,1,1,5.686-5.708,1.112,1.112,0,0,0-.126,1l2.54,7.117Z" transform="translate(-46.293)" fill="#716f84"></path><path id="Path_1730" data-name="Path 1730" d="M150.133,85.771a3.828,3.828,0,0,1-2.259-.748,3.785,3.785,0,0,1-1.4-4.3l.644-1.984a1.614,1.614,0,0,0-.587-1.808l-1.688-1.226a3.843,3.843,0,0,1,2.259-6.952h2.086a1.613,1.613,0,0,0,1.539-1.118l.645-1.984a3.842,3.842,0,0,1,7.309,0h0l.645,1.984a1.613,1.613,0,0,0,1.539,1.118h2.086a3.843,3.843,0,0,1,2.259,6.952l-1.687,1.226a1.612,1.612,0,0,0-.588,1.808l.644,1.984a3.843,3.843,0,0,1-5.913,4.3L155.981,83.8a1.614,1.614,0,0,0-1.9,0l-1.688,1.226A3.828,3.828,0,0,1,150.133,85.771Zm-3.026-14.789a1.618,1.618,0,0,0-.951,2.926l1.687,1.226a3.833,3.833,0,0,1,1.4,4.3l-.645,1.984a1.618,1.618,0,0,0,2.489,1.808L152.771,82a3.833,3.833,0,0,1,4.517,0l1.688,1.226a1.617,1.617,0,0,0,2.489-1.808l-.644-1.984a3.833,3.833,0,0,1,1.4-4.3l1.687-1.226a1.618,1.618,0,0,0-.951-2.926h-2.086a3.833,3.833,0,0,1-3.655-2.655l-.645-1.984a1.618,1.618,0,0,0-3.077,0l-.644,1.984a3.833,3.833,0,0,1-3.655,2.655Z" transform="translate(-60.862 -14.151)" fill="#27ae60"></path><path id="Path_1731" data-name="Path 1731" d="M84.093,153.688H77.541a1.113,1.113,0,0,1-1.113-1.113V139.028a1.113,1.113,0,0,1,1.113-1.113h6.552a1.113,1.113,0,0,1,1.113,1.113v13.547A1.113,1.113,0,0,1,84.093,153.688Zm-5.44-2.225H82.98V140.14H78.653Z" transform="translate(-23.777 -55.724)" fill="#27ae60"></path><path id="Path_1732" data-name="Path 1732" d="M80.817,187.329a4.388,4.388,0,1,1,4.389-4.388A4.393,4.393,0,0,1,80.817,187.329Zm0-6.551a2.163,2.163,0,1,0,2.163,2.163A2.166,2.166,0,0,0,80.817,180.777Z" transform="translate(-23.777 -78.275)" fill="#27ae60"></path></g></g></svg>