<svg xmlns="http://www.w3.org/2000/svg" width="106" height="97" viewBox="0 0 106 97"><g id="Group_1130" data-name="Group 1130" transform="translate(-269 -1189)"><path id="Path_1764" data-name="Path 1764" d="M411.824,296.848,337.265,222.29a52.721,52.721,0,1,1,74.559,74.558Z" transform="translate(62.152 1616.265) rotate(-90)" fill="#fe7c54" opacity="0.06"></path><g id="icon" transform="translate(234.862 1168.436)"><path id="Path_1733" data-name="Path 1733" d="M151.657,185.412c-.285,0-5.208,1-5.426.783l-.221-5.968a1.116,1.116,0,1,1,1.578-1.578l4.858,4.858a1.116,1.116,0,0,1-.789,1.9Z" transform="translate(-47.38 -78.662)" fill="#fe7c54" opacity="0.5"></path><g id="Group_1115" data-name="Group 1115" transform="translate(60.138 37.564)"><path id="Path_1734" data-name="Path 1734" d="M119.57,103.542a1.111,1.111,0,0,0-1.115,1.106v9.6a1.112,1.112,0,0,1-1.115,1.106H63.484a1.112,1.112,0,0,1-1.115-1.106V58.508H80.146A1.11,1.11,0,0,0,81.262,57.4V39.776H117.34a1.112,1.112,0,0,1,1.115,1.106V66.949a1.115,1.115,0,0,0,2.231,0V40.881a3.335,3.335,0,0,0-3.346-3.317H81.07a3.339,3.339,0,0,0-2.366.972L61.118,55.972a3.324,3.324,0,0,0-.98,2.346v55.929a3.335,3.335,0,0,0,3.346,3.317H117.34a3.335,3.335,0,0,0,3.346-3.317v-9.6A1.111,1.111,0,0,0,119.57,103.542Zm-40.539-62.2V56.3H63.946Z" transform="translate(-60.138 -37.564)" fill="#716f84"></path><path id="Path_1735" data-name="Path 1735" d="M183.643,104.474l-2.027-2.027a6.856,6.856,0,0,0-9.685,0l-24.394,24.394a6.44,6.44,0,0,0-1.573,2.574L142.4,140.483a2.551,2.551,0,0,0,2.422,3.332,2.573,2.573,0,0,0,.786-.124l11.067-3.564a6.465,6.465,0,0,0,2.574-1.573L179.7,118.1h0l3.938-3.938A6.857,6.857,0,0,0,183.643,104.474Zm-25.184,31.712-8.557-8.556,18.878-18.877,8.557,8.556ZM155.99,138l-11.067,3.564a.317.317,0,0,1-.4-.4l3.564-11.068a4.155,4.155,0,0,1,.349-.779l8.333,8.333A4.226,4.226,0,0,1,155.99,138Zm26.075-25.421-3.15,3.15-8.557-8.557,3.15-3.15a4.622,4.622,0,0,1,6.529,0l2.027,2.027A4.623,4.623,0,0,1,182.065,112.582Z" transform="translate(-105.645 -73.107)" fill="#716f84"></path><path id="Path_1736" data-name="Path 1736" d="M107.454,124.432v-2.952a2.42,2.42,0,0,0-1.811-2.341h0l-2.537-.653,1.332-2.257a2.417,2.417,0,0,0-.374-2.936l-2.088-2.088a2.42,2.42,0,0,0-2.937-.373l-2.255,1.332-.654-2.538a2.417,2.417,0,0,0-2.341-1.812H90.834a2.418,2.418,0,0,0-2.341,1.813l-.653,2.536-2.258-1.333a2.419,2.419,0,0,0-2.936.374l-2.087,2.088a2.417,2.417,0,0,0-.374,2.937l1.331,2.256-2.538.653a2.419,2.419,0,0,0-1.811,2.341v2.952a2.417,2.417,0,0,0,1.813,2.341l2.536.654-1.332,2.256a2.419,2.419,0,0,0,.374,2.937l2.088,2.088a2.423,2.423,0,0,0,2.937.373l2.256-1.331.654,2.537a2.418,2.418,0,0,0,2.341,1.813h2.952a2.418,2.418,0,0,0,2.341-1.813l.654-2.536,2.257,1.332a2.419,2.419,0,0,0,2.936-.374l2.088-2.088a2.418,2.418,0,0,0,.374-2.937l-1.332-2.256,2.538-.654A2.417,2.417,0,0,0,107.454,124.432Zm-2.232,0a.186.186,0,0,1-.138.18l-3.974,1.024a1.116,1.116,0,0,0-.682,1.648l2.085,3.532a.186.186,0,0,1-.029.226l-2.087,2.088a.186.186,0,0,1-.226.03l-3.533-2.086a1.116,1.116,0,0,0-1.648.682l-1.023,3.971a.187.187,0,0,1-.181.14H90.834a.186.186,0,0,1-.18-.139l-1.024-3.973a1.116,1.116,0,0,0-1.648-.682l-3.531,2.085a.188.188,0,0,1-.227-.029l-2.088-2.088a.186.186,0,0,1-.029-.225l2.085-3.533a1.116,1.116,0,0,0-.682-1.648l-3.972-1.023a.186.186,0,0,1-.139-.18v-2.952a.187.187,0,0,1,.138-.181l3.973-1.023a1.115,1.115,0,0,0,.682-1.647L82.107,115.1a.187.187,0,0,1,.029-.226l2.087-2.087a.187.187,0,0,1,.225-.029l3.533,2.086a1.116,1.116,0,0,0,1.648-.683l1.024-3.972a.186.186,0,0,1,.18-.139h2.952a.186.186,0,0,1,.18.138l1.023,3.973a1.116,1.116,0,0,0,1.648.683l3.532-2.085a.186.186,0,0,1,.227.028l2.088,2.088a.186.186,0,0,1,.029.225l-2.086,3.534a1.116,1.116,0,0,0,.682,1.647l3.973,1.023a.187.187,0,0,1,.139.181Z" transform="translate(-69.566 -76.911)" fill="#fe7c54"></path><path id="Path_1737" data-name="Path 1737" d="M104.1,129.1a5.642,5.642,0,1,0,5.642,5.642A5.648,5.648,0,0,0,104.1,129.1Zm0,9.052a3.41,3.41,0,1,1,3.41-3.41A3.414,3.414,0,0,1,104.1,138.153Z" transform="translate(-81.361 -88.674)" fill="#fe7c54"></path></g><path id="Path_1738" data-name="Path 1738" d="M146.873,75.878H131.616a1.116,1.116,0,0,1,0-2.232h15.257a1.116,1.116,0,0,1,0,2.232Z" transform="translate(-38.972 -20.127)" fill="#fe7c54"></path><path id="Path_1739" data-name="Path 1739" d="M146.873,91.232H131.616a1.116,1.116,0,0,1,0-2.232h15.257a1.116,1.116,0,0,1,0,2.232Z" transform="translate(-38.972 -28.692)" fill="#fe7c54"></path></g></g></svg>