<svg xmlns="http://www.w3.org/2000/svg" width="81" height="110" viewBox="0 0 81 110" fill="none"><path d="M58.3826 32.0223C55.0695 30.0255 52.5079 26.9109 51.2148 23.2017L38.748 21.4829L28.9165 23.2017C27.6234 26.9109 25.0618 30.0255 21.7487 32.0223C18.8898 33.7454 18.0736 37.5124 20.0471 40.2046L36.0391 62.0197C38.0339 64.7409 42.0977 64.7409 44.0927 62.0197L60.0846 40.2046C62.0578 37.5124 61.2416 33.7454 58.3826 32.0223Z" fill="#FEDF30"></path><path d="M26.6447 13.8568L29.1569 0.887306C29.2568 0.37211 29.7077 0 30.2326 0H49.8984C50.4232 0 50.8742 0.37211 50.9741 0.887306L53.4865 13.857L39.5876 15.7906L26.6447 13.8568Z" fill="#01C0FA"></path><path d="M50.9741 0.887306C50.8742 0.37211 50.4233 0 49.8984 0H44.6395C45.1643 0 45.6153 0.37211 45.7152 0.887306L48.2276 13.857H53.4865L50.9741 0.887306Z" fill="#0290CF"></path><path d="M68.4404 105.878C67.5326 105.878 66.797 105.143 66.797 104.235C66.797 89.4952 54.8053 77.5037 40.0655 77.5037C25.3256 77.5037 13.3341 89.4954 13.3341 104.235C13.3341 105.143 12.5983 105.878 11.6908 105.878C10.7833 105.878 10.0474 105.143 10.0474 104.235C10.0474 87.683 23.5136 74.2168 40.0657 74.2168C56.6179 74.2168 70.0841 87.683 70.0841 104.235C70.0839 105.143 69.3481 105.878 68.4404 105.878Z" fill="#465A61"></path><path d="M20.5803 18.5294C20.5803 21.1099 22.6723 23.2018 25.2528 23.2018H54.8781C57.4585 23.2018 59.5505 21.1099 59.5505 18.5294C59.5505 15.9489 57.4585 13.8569 54.8781 13.8569H25.2528C22.6723 13.8569 20.5803 15.9489 20.5803 18.5294Z" fill="#596C76"></path><path d="M54.878 13.8569H49.6191C52.1996 13.8569 54.2915 15.9489 54.2915 18.5294C54.2915 21.1099 52.1996 23.2018 49.6191 23.2018H54.878C57.4585 23.2018 59.5505 21.1099 59.5505 18.5294C59.5505 15.9489 57.4587 13.8569 54.878 13.8569Z" fill="#465A61"></path><path d="M58.3825 32.0223C54.9427 29.9491 52.4479 26.7391 51.2147 23.2017H28.9162C28.2393 25.1434 27.2119 26.9198 25.914 28.4606H46.5786C47.9907 28.4606 49.3492 28.9967 50.3839 29.9577C51.2216 30.7356 52.1387 31.4289 53.1236 32.0223C55.9825 33.7454 56.7987 37.5124 54.8252 40.2046L38.8332 62.0197C38.4381 62.5585 37.9612 62.9891 37.4359 63.3146C39.5626 64.6326 42.4922 64.2021 44.0922 62.0197L60.0841 40.2046C62.0577 37.5124 61.2415 33.7454 58.3825 32.0223Z" fill="#E8B800"></path><path d="M40.0655 40.3481C39.1577 40.3481 38.4221 41.084 38.4221 41.9915V63.7844C39.4837 64.1516 40.6475 64.1516 41.709 63.7844V41.9915C41.709 41.084 40.9732 40.3481 40.0655 40.3481Z" fill="#465A61"></path><path d="M41.709 58.0972L38.8335 62.0198C38.7055 62.1945 38.5662 62.3534 38.4223 62.5053V63.7783C38.4853 63.8002 38.5482 63.8219 38.6118 63.8412C38.6571 63.855 38.7022 63.8696 38.7478 63.8821C38.8483 63.9094 38.95 63.9319 39.0516 63.9527C39.0941 63.9616 39.1364 63.9719 39.1792 63.9796C39.2901 63.9994 39.4016 64.0135 39.5133 64.026C39.5477 64.0299 39.5818 64.0357 39.6162 64.0389C39.7591 64.0518 39.9024 64.0587 40.0457 64.0593C40.0491 64.0593 40.0525 64.0597 40.056 64.0597C40.2038 64.0602 40.3516 64.0535 40.499 64.0408C40.5372 64.0376 40.575 64.0307 40.6131 64.0267C40.7192 64.0151 40.8251 64.0026 40.9304 63.9843C40.988 63.9742 41.0449 63.9603 41.1023 63.9482C41.1871 63.9304 41.2722 63.9128 41.3562 63.8904C41.4202 63.8735 41.4832 63.8531 41.5466 63.8335C41.6011 63.8168 41.6553 63.7991 41.7094 63.7804V58.0972H41.709Z" fill="#465A61"></path><path d="M35.3071 74.2168H8.4589C7.55118 74.2168 6.81555 74.9526 6.81555 75.8601C6.81555 76.7676 7.55139 77.5035 8.4589 77.5035H35.3073C36.215 77.5035 36.9507 76.7676 36.9507 75.8601C36.9507 74.9526 36.2148 74.2168 35.3071 74.2168Z" fill="#596C76"></path><path d="M71.5831 74.2168H44.7349C43.8272 74.2168 43.0916 74.9526 43.0916 75.8601C43.0916 76.7676 43.8274 77.5035 44.7349 77.5035H71.5833C72.491 77.5035 73.2267 76.7676 73.2267 75.8601C73.2267 74.9526 72.4908 74.2168 71.5831 74.2168Z" fill="#596C76"></path><path d="M43.6392 70.0957H36.492C35.2837 70.0957 34.3008 71.0786 34.3008 72.2869V79.4343C34.3008 80.6426 35.2837 81.6255 36.492 81.6255H43.6392C44.8475 81.6255 45.8304 80.6426 45.8304 79.4343V72.2869C45.8304 71.0786 44.8475 70.0957 43.6392 70.0957Z" fill="#01C0FA"></path><path d="M40.021 32.3857C37.0705 32.3857 34.67 34.7862 34.67 37.7366C34.67 40.6871 37.0705 43.0873 40.021 43.0873C42.9714 43.0873 45.3719 40.6871 45.3719 37.7366C45.3719 34.7862 42.9714 32.3857 40.021 32.3857Z" fill="#465A61"></path><path d="M75.2646 80.638C77.903 80.638 80.0419 78.4992 80.0419 75.8608C80.0419 73.2224 77.903 71.0835 75.2646 71.0835C72.6262 71.0835 70.4873 73.2224 70.4873 75.8608C70.4873 78.4992 72.6262 80.638 75.2646 80.638Z" fill="#FE9738"></path><path d="M4.77728 80.638C7.41569 80.638 9.55455 78.4992 9.55455 75.8608C9.55455 73.2224 7.41569 71.0835 4.77728 71.0835C2.13886 71.0835 0 73.2224 0 75.8608C0 78.4992 2.13886 80.638 4.77728 80.638Z" fill="#FE9738"></path><path d="M72.0141 98.4707H64.8669C63.6586 98.4707 62.6757 99.4536 62.6757 100.662V107.809C62.6757 109.017 63.6586 110 64.8669 110H72.0141C73.2224 110 74.2053 109.017 74.2053 107.809V100.662C74.2053 99.4536 73.2224 98.4707 72.0141 98.4707Z" fill="#0ED2B3"></path><path d="M15.2643 98.4707H8.1171C6.90881 98.4707 5.9259 99.4536 5.9259 100.662V107.809C5.9259 109.017 6.90881 110 8.1171 110H15.2643C16.4726 110 17.4555 109.017 17.4555 107.809V100.662C17.4555 99.4536 16.4726 98.4707 15.2643 98.4707Z" fill="#0ED2B3"></path></svg>