<svg xmlns="http://www.w3.org/2000/svg" width="30" height="32" viewBox="0 0 30 32" fill="none"><path d="M26.4341 4.48837L17.3488 0.44186C16.0155 -0.147287 14 -0.147287 12.6666 0.44186L3.58137 4.48837C1.28679 5.51163 0.945709 6.90698 0.945709 7.65116C0.945709 8.39535 1.28679 9.7907 3.58137 10.814L12.6666 14.8605C13.3333 15.155 14.1705 15.3101 15.0077 15.3101C15.8449 15.3101 16.6821 15.155 17.3488 14.8605L26.4341 10.814C28.7287 9.7907 29.0697 8.39535 29.0697 7.65116C29.0697 6.90698 28.7442 5.51163 26.4341 4.48837Z" fill="#E93469"></path><path opacity="0.4" d="M15.0078 23.3255C14.4186 23.3255 13.8295 23.2014 13.2868 22.9689L2.83721 18.3177C1.24031 17.6045 0 15.6976 0 13.9456C0 13.31 0.511628 12.7983 1.14729 12.7983C1.78295 12.7983 2.29457 13.31 2.29457 13.9456C2.29457 14.7828 2.99225 15.8681 3.76744 16.2092L14.2171 20.8604C14.7132 21.0774 15.2868 21.0774 15.7829 20.8604L26.2326 16.2092C27.0078 15.8681 27.7054 14.7983 27.7054 13.9456C27.7054 13.31 28.2171 12.7983 28.8527 12.7983C29.4884 12.7983 30 13.31 30 13.9456C30 15.6821 28.7597 17.6045 27.1628 18.3177L16.7132 22.9689C16.186 23.2014 15.5969 23.3255 15.0078 23.3255Z" fill="#E93469"></path><path opacity="0.4" d="M15.0078 31.0154C14.4186 31.0154 13.8295 30.8914 13.2868 30.6588L2.83721 26.0077C1.11628 25.248 0 23.527 0 21.6356C0 20.9999 0.511628 20.4883 1.14729 20.4883C1.78295 20.4883 2.29457 20.9999 2.29457 21.6356C2.29457 22.6123 2.86822 23.496 3.76744 23.8991L14.2171 28.5503C14.7132 28.7674 15.2868 28.7674 15.7829 28.5503L26.2326 23.8991C27.1163 23.5115 27.7054 22.6123 27.7054 21.6356C27.7054 20.9999 28.2171 20.4883 28.8527 20.4883C29.4884 20.4883 30 20.9999 30 21.6356C30 23.527 28.8837 25.2325 27.1628 26.0077L16.7132 30.6588C16.186 30.8914 15.5969 31.0154 15.0078 31.0154Z" fill="#E93469"></path></svg>