<svg xmlns="http://www.w3.org/2000/svg" width="30" height="29" viewBox="0 0 30 29" fill="none"><path opacity="0.4" d="M0 15.4706V12.8319C0 11.2727 1.27436 9.98336 2.84858 9.98336C5.56222 9.98336 6.67166 8.06432 5.30735 5.7105C4.52774 4.36117 4.9925 2.60705 6.35682 1.82744L8.95052 0.34318C10.1349 -0.361467 11.6642 0.0583229 12.3688 1.24273L12.5337 1.52759C13.8831 3.88141 16.1019 3.88141 17.4663 1.52759L17.6312 1.24273C18.3358 0.0583229 19.8651 -0.361467 21.0495 0.34318L23.6432 1.82744C25.0075 2.60705 25.4723 4.36117 24.6927 5.7105C23.3283 8.06432 24.4378 9.98336 27.1514 9.98336C28.7106 9.98336 30 11.2577 30 12.8319V15.4706C30 17.0298 28.7256 18.3192 27.1514 18.3192C24.4378 18.3192 23.3283 20.2382 24.6927 22.5921C25.4723 23.9564 25.0075 25.6955 23.6432 26.4751L21.0495 27.9594C19.8651 28.664 18.3358 28.2442 17.6312 27.0598L17.4663 26.775C16.1169 24.4211 13.8981 24.4211 12.5337 26.775L12.3688 27.0598C11.6642 28.2442 10.1349 28.664 8.95052 27.9594L6.35682 26.4751C4.9925 25.6955 4.52774 23.9414 5.30735 22.5921C6.67166 20.2382 5.56222 18.3192 2.84858 18.3192C1.27436 18.3192 0 17.0298 0 15.4706Z" fill="#E93469"></path><path d="M14.9925 19.0249C17.6835 19.0249 19.865 16.8434 19.865 14.1523C19.865 11.4613 17.6835 9.27979 14.9925 9.27979C12.3014 9.27979 10.1199 11.4613 10.1199 14.1523C10.1199 16.8434 12.3014 19.0249 14.9925 19.0249Z" fill="#E93469"></path></svg>