<svg xmlns="http://www.w3.org/2000/svg" width="50" height="50" viewBox="0 0 50 50" fill="none"><path d="M36.5667 29.2031C36.5667 27.9232 36.4221 26.6771 36.1494 25.4798L38.9196 23.8511C39.7112 23.3857 39.9756 22.3669 39.5102 21.5754L36.0858 15.7507C35.6204 14.9591 34.6016 14.6947 33.81 15.1601L31.0365 16.7907C29.2888 15.2174 27.2072 14.0081 24.9109 13.2816V10.0688C24.9109 9.15056 24.1666 8.40625 23.2483 8.40625H16.4916C15.5733 8.40625 14.829 9.15056 14.829 10.0688V13.2816C12.5327 14.008 10.4511 15.2173 8.70345 16.7907L5.92992 15.1601C5.13835 14.6947 4.11953 14.9592 3.65414 15.7507L0.229632 21.5754C-0.23576 22.3669 0.0287494 23.3857 0.820219 23.8511L3.59041 25.4798C3.31767 26.6771 3.17316 27.9232 3.17316 29.2031C3.17316 30.483 3.31767 31.7291 3.59041 32.9264L0.820219 34.555C0.0286513 35.0204 -0.23576 36.0393 0.229632 36.8308L3.65404 42.6555C4.11943 43.4471 5.13825 43.7115 5.92982 43.2461L8.70335 41.6155C10.451 43.1888 12.5326 44.3981 14.8289 45.1245V48.3374C14.8289 49.2556 15.5732 49.9999 16.4915 49.9999H23.2482C24.1665 49.9999 24.9108 49.2556 24.9108 48.3374V45.1245C27.2071 44.3982 29.2887 43.1889 31.0364 41.6155L33.8099 43.2461C34.6015 43.7115 35.6203 43.447 36.0857 42.6555L39.5101 36.8308C39.9755 36.0393 39.711 35.0204 38.9195 34.555L36.1493 32.9264C36.4221 31.7291 36.5667 30.483 36.5667 29.2031ZM20.0381 38.0667C15.0088 38.1599 10.913 34.0642 11.0063 29.0348C11.0941 24.295 14.9618 20.4273 19.7016 20.3395C24.7309 20.2462 28.8268 24.342 28.7334 29.3714C28.6456 34.1112 24.7779 37.9788 20.0381 38.0667Z" fill="url(#icon_cog_2_paint_0)"></path><path d="M21.9542 45.1245C21.3978 45.1245 20.9468 45.5755 20.9468 46.1319V48.3374C20.9468 49.2555 20.2025 49.9999 19.2843 49.9999H23.2482C24.1665 49.9999 24.9108 49.2556 24.9108 48.3374V45.1245H21.9542Z" fill="url(#icon_cog_2_paint_1)"></path><path d="M38.9196 34.555L36.1494 32.9264C36.4221 31.7291 36.5667 30.483 36.5667 29.2031C36.5667 27.9232 36.4221 26.6771 36.1494 25.4798L38.9196 23.8511C39.7112 23.3857 39.9756 22.3669 39.5102 21.5754L36.0858 15.7507C35.6204 14.9591 34.6016 14.6947 33.81 15.1601L31.0365 16.7907C30.5026 16.3101 28.1495 14.2157 24.9109 13.2816V10.0688C24.9109 9.15056 24.1666 8.40625 23.2483 8.40625H19.2844C20.2027 8.40625 20.947 9.15056 20.947 10.0688V12.0562C20.947 12.7675 21.3795 13.4089 22.041 13.6705C22.4683 13.8395 22.8872 14.0257 23.2964 14.2281C24.4436 14.7957 25.2372 15.8785 25.491 17.133C25.5073 17.2136 25.5245 17.2938 25.5428 17.3737L23.8554 18.3657C23.3732 18.6492 23.2122 19.2699 23.4956 19.752L24.6698 21.7493C25.4976 22.2834 26.2306 22.9512 26.8382 23.7228L28.6573 22.6665C29.3117 23.2556 30.0428 23.7609 30.834 24.1656C31.7968 24.6581 32.4356 25.6135 32.4928 26.6934C32.5473 27.722 32.6028 28.8547 32.6028 29.2032C32.6028 30.0917 32.5332 30.964 32.3993 31.8149C32.2921 32.497 32.609 33.1755 33.2042 33.5254L34.9558 34.5551C35.7473 35.0205 36.0118 36.0394 35.5464 36.8309L32.2975 42.357L33.8101 43.2462C34.6017 43.7116 35.6205 43.4471 36.0859 42.6556L39.5103 36.8309C39.9756 36.0393 39.7111 35.0203 38.9196 34.555Z" fill="url(#icon_cog_2_paint_2)"></path><path d="M37.779 6.47155C34.4656 6.53302 31.7617 9.23674 31.7004 12.5502C31.6352 16.066 34.4984 18.9293 38.0143 18.8642C41.3277 18.8027 44.0315 16.099 44.093 12.7856C44.1581 9.26969 41.2949 6.40635 37.779 6.47155ZM37.9549 15.7379C36.2129 15.7702 34.7943 14.3515 34.8265 12.6096C34.8569 10.9679 36.1966 9.62831 37.8383 9.59782C39.5803 9.56557 40.9989 10.9842 40.9666 12.7262C40.9362 14.3678 39.5966 15.7075 37.9549 15.7379Z" fill="url(#icon_cog_2_paint_3)"></path><path d="M48.0672 12.668C48.0672 11.8884 47.9791 11.1294 47.813 10.4L49.5004 9.40793C49.9825 9.1245 50.1436 8.50381 49.8602 8.02166L47.7743 4.47362C47.4909 3.99147 46.8702 3.83039 46.388 4.11382L44.6986 5.10705C43.634 4.14872 42.3662 3.41206 40.9674 2.9696V1.01274C40.9674 0.453431 40.5139 0 39.9546 0H35.8388C35.2795 0 34.8262 0.453431 34.8262 1.01274V2.9698C33.4274 3.41225 32.1594 4.14892 31.0949 5.10725L29.4055 4.11402C28.9233 3.83058 28.3027 3.99166 28.0192 4.47382L25.9334 8.02185C25.6499 8.50401 25.811 9.1246 26.2932 9.40813L27.9805 10.4002C27.8144 11.1295 27.7264 11.8885 27.7264 12.6682C27.7264 13.4479 27.8144 14.2068 27.9805 14.9363L26.2932 15.9283C25.811 16.2117 25.6499 16.8324 25.9334 17.3146L28.0192 20.8626C28.3027 21.3448 28.9233 21.5059 29.4055 21.2224L31.0949 20.2292C32.1595 21.1875 33.4274 21.9242 34.8262 22.3666V24.3237C34.8262 24.883 35.2796 25.3364 35.8388 25.3364H39.9546C40.5139 25.3364 40.9674 24.883 40.9674 24.3237V22.3666C42.3662 21.9242 43.6341 21.1875 44.6986 20.2292L46.388 21.2224C46.8702 21.5059 47.4909 21.3448 47.7743 20.8626L49.8602 17.3146C50.1436 16.8324 49.9825 16.2118 49.5004 15.9283L47.813 14.9363C47.9791 14.2067 48.0672 13.4476 48.0672 12.668ZM37.9991 18.067C34.9356 18.1238 32.4407 15.6289 32.4976 12.5655C32.5511 9.67832 34.907 7.32244 37.7941 7.26891C40.8576 7.21215 43.3525 9.70705 43.2957 12.7705C43.2423 15.6576 40.8863 18.0135 37.9991 18.067Z" fill="url(#icon_cog_2_paint_4)"></path><path d="M39.9545 0H37.5168C38.0762 0 38.5295 0.453431 38.5295 1.01274V2.18431C38.5295 2.61813 38.8812 2.9697 39.3149 2.9697H40.9671V1.01274C40.9672 0.453431 40.5138 0 39.9545 0V0Z" fill="url(#icon_cog_2_paint_5)"></path><path d="M38.5296 23.1517V24.3234C38.5296 24.8827 38.0762 25.336 37.517 25.336H39.9546C40.5139 25.336 40.9674 24.8826 40.9674 24.3233V22.3662H39.3151C38.8812 22.3662 38.5296 22.7179 38.5296 23.1517Z" fill="url(#icon_cog_2_paint_6)"></path><path d="M49.5004 15.928L47.813 14.936C47.9791 14.2066 48.0671 13.4476 48.0671 12.6679C48.0671 11.8883 47.9791 11.1293 47.813 10.3999L49.5004 9.40782C49.9825 9.12439 50.1436 8.50371 49.8602 8.02155L47.7743 4.47351C47.4908 3.99136 46.8702 3.83028 46.388 4.11371L44.6986 5.10695C44.38 4.82008 44.0427 4.55361 43.6896 4.30842C43.7345 4.35832 43.7751 4.41332 43.8104 4.47342L45.8962 8.02145C46.1797 8.50361 46.0186 9.12429 45.5364 9.40772L43.8491 10.3998C44.0152 11.1291 44.1032 11.8881 44.1032 12.6678C44.1032 13.4474 44.0152 14.2064 43.8491 14.9359L45.5364 15.9279C46.0186 16.2113 46.1797 16.832 45.8962 17.3142L43.8104 20.8622C43.7751 20.9223 43.7345 20.9773 43.6896 21.0272C44.0427 20.782 44.3799 20.5156 44.6986 20.2287L46.388 21.2219C46.8702 21.5054 47.4907 21.3443 47.7743 20.8622L49.8602 17.3142C50.1436 16.8321 49.9825 16.2114 49.5004 15.928Z" fill="url(#icon_cog_2_paint_7)"></path><path d="M11.0063 29.0347C11.0877 24.6467 14.4093 21.0087 18.6626 20.4227C18.2066 20.3594 17.7395 20.3306 17.2639 20.3395C12.5241 20.4273 8.65648 24.2949 8.56864 29.0347C8.4754 34.064 12.5712 38.1599 17.6005 38.0667C17.9523 38.0601 18.2985 38.0304 18.6395 37.9835C14.2719 37.3769 10.9219 33.5886 11.0063 29.0347Z" fill="url(#icon_cog_2_paint_8)"></path><defs><linearGradient id="icon_cog_2_paint_0" x1="0.922376" y1="29.2031" x2="42.638" y2="29.2031" gradientUnits="userSpaceOnUse"><stop stop-color="#B5ADB6"></stop><stop offset="0.5106" stop-color="#918291"></stop><stop offset="1" stop-color="#554E56"></stop></linearGradient><linearGradient id="icon_cog_2_paint_1" x1="12.1569" y1="47.5622" x2="25.6015" y2="47.5622" gradientUnits="userSpaceOnUse"><stop stop-color="#B5ADB6"></stop><stop offset="0.5106" stop-color="#918291"></stop><stop offset="1" stop-color="#554E56"></stop></linearGradient><linearGradient id="icon_cog_2_paint_2" x1="-2.4183" y1="25.9409" x2="38.17" y2="25.9409" gradientUnits="userSpaceOnUse"><stop stop-color="#B5ADB6"></stop><stop offset="0.5106" stop-color="#918291"></stop><stop offset="1" stop-color="#554E56"></stop></linearGradient><linearGradient id="icon_cog_2_paint_3" x1="21.2419" y1="12.6679" x2="45.7027" y2="12.6679" gradientUnits="userSpaceOnUse"><stop stop-color="#B5ADB6"></stop><stop offset="0.5106" stop-color="#918291"></stop><stop offset="1" stop-color="#554E56"></stop></linearGradient><linearGradient id="icon_cog_2_paint_4" x1="20.4902" y1="12.668" x2="51.462" y2="12.668" gradientUnits="userSpaceOnUse"><stop stop-color="#B5ADB6"></stop><stop offset="0.5106" stop-color="#918291"></stop><stop offset="1" stop-color="#554E56"></stop></linearGradient><linearGradient id="icon_cog_2_paint_5" x1="23.9216" y1="1.4849" x2="45.3839" y2="1.4849" gradientUnits="userSpaceOnUse"><stop stop-color="#B5ADB6"></stop><stop offset="0.5106" stop-color="#918291"></stop><stop offset="1" stop-color="#554E56"></stop></linearGradient><linearGradient id="icon_cog_2_paint_6" x1="23.9216" y1="23.8511" x2="45.3839" y2="23.8511" gradientUnits="userSpaceOnUse"><stop stop-color="#B5ADB6"></stop><stop offset="0.5106" stop-color="#918291"></stop><stop offset="1" stop-color="#554E56"></stop></linearGradient><linearGradient id="icon_cog_2_paint_7" x1="24.2157" y1="12.668" x2="46.77" y2="12.668" gradientUnits="userSpaceOnUse"><stop stop-color="#B5ADB6"></stop><stop offset="0.5106" stop-color="#918291"></stop><stop offset="1" stop-color="#554E56"></stop></linearGradient><linearGradient id="icon_cog_2_paint_8" x1="-3.8235" y1="29.2031" x2="24.9903" y2="29.2031" gradientUnits="userSpaceOnUse"><stop stop-color="#B5ADB6"></stop><stop offset="0.5106" stop-color="#918291"></stop><stop offset="1" stop-color="#554E56"></stop></linearGradient></defs></svg>