<svg xmlns="http://www.w3.org/2000/svg" width="52" height="52" viewBox="0 0 52 52" fill="none"><path d="M13.0704 51.9959C10.6727 51.9959 8.27501 51.0832 6.44961 49.2579V49.2578L2.73804 45.5463C-0.912662 41.8956 -0.912662 35.9554 2.73794 32.3046L11.1632 23.8793C14.8139 20.2287 20.7542 20.2287 24.4049 23.8792L28.1164 27.5908C29.8849 29.3593 30.8588 31.7106 30.8588 34.2116C30.8588 36.7126 29.8848 39.0639 28.1164 40.8324L19.6911 49.2577C17.8659 51.0832 15.4681 51.9959 13.0704 51.9959ZM10.5374 45.17C11.9342 46.5668 14.2069 46.5669 15.6035 45.17L24.0288 36.7448C24.7055 36.0682 25.0781 35.1686 25.0781 34.2117C25.0781 33.2549 24.7055 32.3553 24.0288 31.6787L20.3173 27.9671C18.9205 26.5705 16.6479 26.5705 15.2512 27.9672L6.82584 36.3924C5.42919 37.7892 5.42919 40.0618 6.82594 41.4585L10.5374 45.17Z" fill="url(#icon_link_paint_0)"></path><path d="M28.0294 27.503L24.4049 23.8785C22.053 21.5264 18.7511 20.6922 15.723 21.3708C17.395 21.7455 18.9839 22.5798 20.2825 23.8785L23.994 27.59C24.7149 28.3109 25.3012 29.1297 25.7458 30.0149L24.0547 31.706C24.7145 32.3794 25.0781 33.2676 25.0781 34.2118C25.0781 34.231 25.0769 34.2501 25.0766 34.2693L25.6085 33.7374C26.0216 33.3243 26.7355 33.6113 26.7365 34.1957V34.2107C26.7365 36.7118 25.7624 39.063 23.994 40.8316L15.5688 49.2568C14.2701 50.5554 12.6813 51.3897 11.0093 51.7644C11.6874 51.9163 12.3788 51.9948 13.0706 51.9948C15.4683 51.9948 17.866 51.0822 19.6913 49.2568L28.1165 40.8316C29.8884 39.0596 30.8627 36.7026 30.8589 34.1961C30.8551 31.6816 29.8074 29.2809 28.0294 27.503Z" fill="url(#icon_link_paint_1)"></path><path d="M6.82574 36.3914C5.42664 37.7905 5.42664 40.0588 6.82574 41.4578L10.5371 45.1692C10.6329 45.265 9.40432 45.7585 8.18589 45.7585C7.52009 45.7585 6.85633 45.6107 6.41484 45.1692L4.25307 43.007C1.99842 40.752 1.99862 37.0963 4.25338 34.8415L11.1285 27.9664C11.8269 27.2679 12.7446 26.9182 13.6612 26.9182C14.3841 26.9182 15.107 27.1364 15.7228 27.5697C15.5576 27.687 15.3986 27.8185 15.2507 27.9664L6.82574 36.3914Z" fill="url(#icon_link_paint_2)"></path><path d="M34.2117 30.8547C31.8138 30.8547 29.4161 29.942 27.5908 28.1166L23.8793 24.4051C20.2286 20.7544 20.2286 14.8143 23.8792 11.1635L32.3045 2.73814C35.9553 -0.912764 41.8954 -0.912662 45.546 2.73814L49.2576 6.44971C51.026 8.21822 52 10.5695 52 13.0705C52 15.5716 51.026 17.9228 49.2576 19.6914L40.8324 28.1166C39.007 29.942 36.6093 30.8547 34.2117 30.8547ZM38.9252 5.7784C38.008 5.7784 37.0906 6.12762 36.3922 6.82594L27.967 15.2513C26.5703 16.648 26.5703 18.9206 27.967 20.3174L31.6785 24.0288V24.0289C33.0753 25.4256 35.3478 25.4258 36.7446 24.0289L45.1698 15.6036C45.8464 14.927 46.219 14.0274 46.219 13.0705C46.219 12.1137 45.8465 11.2141 45.1698 10.5375L41.4583 6.82594C40.7599 6.12762 39.8425 5.7784 38.9252 5.7784Z" fill="url(#icon_link_paint_3)"></path><path d="M34.2707 25.075C33.3455 25.0901 32.4158 24.7502 31.7057 24.0547L27.618 28.1424C28.2419 28.7614 28.9326 29.2725 29.6661 29.6795L34.2707 25.075Z" fill="url(#icon_link_paint_4)"></path><path d="M49.2575 6.44989L45.546 2.73833C43.194 0.386298 39.8922 -0.447943 36.864 0.230707C38.5361 0.605412 40.1249 1.43965 41.4235 2.73833L45.1351 6.44989C46.9036 8.2184 47.8775 10.5696 47.8775 13.0707C47.8775 15.5718 46.9035 17.923 45.1351 19.6915L36.7099 28.1167C35.4112 29.4154 33.8223 30.2496 32.1504 30.6243C32.8284 30.7763 33.5198 30.8548 34.2116 30.8548C36.6093 30.8548 39.007 29.9421 40.8323 28.1167L49.2575 19.6915C51.0259 17.9229 52 15.5717 52 13.0706C52 10.5696 51.0259 8.2183 49.2575 6.44989Z" fill="url(#icon_link_paint_5)"></path><path d="M27.9669 15.2512C26.5679 16.6503 26.5679 18.9186 27.9669 20.3177L31.6782 24.029C31.7741 24.1249 30.5454 24.6184 29.327 24.6184C28.6612 24.6184 27.9974 24.4705 27.556 24.029L25.3942 21.8668C23.1395 19.6119 23.1397 15.9562 25.3945 13.7013L32.2696 6.82623C32.968 6.1278 33.8857 5.77808 34.8023 5.77808C35.5252 5.77808 36.2481 5.99627 36.8639 6.4296C36.6988 6.54686 36.5397 6.67839 36.3919 6.82623L27.9669 15.2512Z" fill="url(#icon_link_paint_6)"></path><path d="M20.7932 34.0932C20.0535 34.0932 19.3138 33.811 18.7493 33.2466C17.6205 32.1178 17.6205 30.2876 18.7493 29.1589L29.1586 18.7497C30.2873 17.6209 32.1177 17.6209 33.2463 18.7497C34.3751 19.8785 34.3751 21.7087 33.2463 22.8374L22.8371 33.2466C22.2727 33.811 21.5329 34.0932 20.7932 34.0932Z" fill="url(#icon_link_paint_7)"></path><defs><linearGradient id="icon_link_paint_0" x1="-1.67166" y1="36.5687" x2="33.0132" y2="36.5687" gradientUnits="userSpaceOnUse"><stop stop-color="#99E6FC"></stop><stop offset="0.4296" stop-color="#01D0FB"></stop><stop offset="0.5256" stop-color="#08C6F7"></stop><stop offset="0.692" stop-color="#1DA9EB"></stop><stop offset="0.9074" stop-color="#3F7CD9"></stop><stop offset="1" stop-color="#4F66D0"></stop></linearGradient><linearGradient id="icon_link_paint_1" x1="-8.95679" y1="36.5687" x2="28.5648" y2="36.5687" gradientUnits="userSpaceOnUse"><stop stop-color="#99E6FC"></stop><stop offset="0.4296" stop-color="#01D0FB"></stop><stop offset="0.5256" stop-color="#08C6F7"></stop><stop offset="0.692" stop-color="#1DA9EB"></stop><stop offset="0.9074" stop-color="#3F7CD9"></stop><stop offset="1" stop-color="#4F66D0"></stop></linearGradient><linearGradient id="icon_link_paint_2" x1="-9.22683" y1="36.3384" x2="21.8641" y2="36.3384" gradientUnits="userSpaceOnUse"><stop stop-color="#99E6FC"></stop><stop offset="0.4296" stop-color="#01D0FB"></stop><stop offset="0.5256" stop-color="#08C6F7"></stop><stop offset="0.692" stop-color="#1DA9EB"></stop><stop offset="0.9074" stop-color="#3F7CD9"></stop><stop offset="1" stop-color="#4F66D0"></stop></linearGradient><linearGradient id="icon_link_paint_3" x1="18.5155" y1="15.4273" x2="54.3702" y2="15.4273" gradientUnits="userSpaceOnUse"><stop stop-color="#99E6FC"></stop><stop offset="0.4296" stop-color="#01D0FB"></stop><stop offset="0.5256" stop-color="#08C6F7"></stop><stop offset="0.692" stop-color="#1DA9EB"></stop><stop offset="0.9074" stop-color="#3F7CD9"></stop><stop offset="1" stop-color="#4F66D0"></stop></linearGradient><linearGradient id="icon_link_paint_4" x1="21.4373" y1="26.8672" x2="38.784" y2="26.8672" gradientUnits="userSpaceOnUse"><stop stop-color="#99E6FC"></stop><stop offset="0.4296" stop-color="#01D0FB"></stop><stop offset="0.5256" stop-color="#08C6F7"></stop><stop offset="0.692" stop-color="#1DA9EB"></stop><stop offset="0.9074" stop-color="#3F7CD9"></stop><stop offset="1" stop-color="#4F66D0"></stop></linearGradient><linearGradient id="icon_link_paint_5" x1="12.1844" y1="15.4285" x2="49.706" y2="15.4285" gradientUnits="userSpaceOnUse"><stop stop-color="#99E6FC"></stop><stop offset="0.4296" stop-color="#01D0FB"></stop><stop offset="0.5256" stop-color="#08C6F7"></stop><stop offset="0.692" stop-color="#1DA9EB"></stop><stop offset="0.9074" stop-color="#3F7CD9"></stop><stop offset="1" stop-color="#4F66D0"></stop></linearGradient><linearGradient id="icon_link_paint_6" x1="11.9143" y1="15.1982" x2="43.0052" y2="15.1982" gradientUnits="userSpaceOnUse"><stop stop-color="#99E6FC"></stop><stop offset="0.4296" stop-color="#01D0FB"></stop><stop offset="0.5256" stop-color="#08C6F7"></stop><stop offset="0.692" stop-color="#1DA9EB"></stop><stop offset="0.9074" stop-color="#3F7CD9"></stop><stop offset="1" stop-color="#4F66D0"></stop></linearGradient><linearGradient id="icon_link_paint_7" x1="17.598" y1="25.9982" x2="35.4145" y2="25.9982" gradientUnits="userSpaceOnUse"><stop stop-color="#FE93BB"></stop><stop offset="0.5595" stop-color="#925CB4"></stop><stop offset="1" stop-color="#5B3374"></stop></linearGradient></defs></svg>