<svg xmlns="http://www.w3.org/2000/svg" width="120" height="94" viewBox="0 0 120 94" fill="none"><path d="M87.5123 79.3682H76.0874V14.4656H87.5123C88.4976 14.4656 89.2961 13.6671 89.2961 12.6818C89.2961 11.6965 88.4976 10.898 87.5123 10.898H76.0874V1.78383C76.0874 0.798515 75.2889 0 74.3034 0C73.3178 0 72.5195 0.798515 72.5195 1.78383V10.8977H16.7768V1.78383C16.7768 0.798515 15.978 0 14.993 0C14.0079 0 13.2091 0.798515 13.2091 1.78383V10.8977H1.78383C0.798515 10.8977 0 11.6962 0 12.6816C0 13.6669 0.798749 14.4654 1.78383 14.4654H13.2089V79.368H1.78383C0.798515 79.368 0 80.1665 0 81.152C0 82.1376 0.798749 82.9361 1.78383 82.9361H13.2089V92.05C13.2089 93.0353 14.0076 93.8338 14.9927 93.8338C15.9778 93.8338 16.7765 93.0353 16.7765 92.05V82.9361H72.5191V92.05C72.5191 93.0353 73.3176 93.8338 74.3029 93.8338C75.2882 93.8338 76.087 93.0353 76.087 92.05V82.9361H87.5118C88.4971 82.9361 89.2956 82.1376 89.2956 81.152C89.2956 80.1665 88.4976 79.3682 87.5123 79.3682ZM16.7768 79.3682V14.4656H72.5193V79.3682H16.7768Z" fill="#B3DAFE"></path><path d="M72.4698 26.6906L48.2795 12.7118C46.048 11.4225 43.2749 11.4216 41.0425 12.709L16.8417 26.6695C14.6093 27.9572 13.2164 30.3581 13.2154 32.9353V60.874C13.2145 63.4509 14.5947 65.853 16.8262 67.1428L41.0163 81.1214C42.1331 81.7664 43.3851 82.0891 44.6373 82.0891C45.8875 82.0891 47.1379 81.7673 48.2533 81.1242L72.4544 67.1639C74.6868 65.876 76.0797 63.4751 76.0806 60.8981V32.9597C76.0815 30.3825 74.7013 27.9804 72.4698 26.6906ZM61.0851 39.5512V54.2946C61.0846 55.6015 60.3782 56.8188 59.2464 57.4715L46.4758 64.8382C45.3438 65.4914 43.9377 65.4904 42.8066 64.8368L30.0417 57.4603C28.9101 56.8064 28.2105 55.5886 28.2112 54.2819V39.5386C28.2117 38.232 28.9181 37.0146 30.0499 36.3619L42.8205 28.9952C43.386 28.669 44.02 28.5059 44.654 28.5059C45.2887 28.5059 45.9236 28.6697 46.4896 28.9966L59.2548 36.3731C60.3859 37.0268 61.0855 38.2446 61.0851 39.5512Z" fill="#01C0FA"></path><path d="M72.4699 26.6915L48.2796 12.7127C46.3158 11.5781 43.9331 11.4421 41.868 12.3032C42.1512 12.4214 42.4287 12.5571 42.6977 12.7127L66.888 26.6915C69.1195 27.981 70.4997 30.3834 70.4986 32.9606V60.899C70.4976 63.4759 69.105 65.8771 66.8723 67.1647L42.6712 81.1251C42.4034 81.2795 42.1275 81.4143 41.846 81.5317C42.7371 81.9032 43.687 82.09 44.6372 82.09C45.8873 82.09 47.1377 81.7682 48.2531 81.1251L72.4542 67.1647C74.6866 65.8769 76.0795 63.4759 76.0804 60.899V32.9606C76.0816 30.3834 74.7014 27.9813 72.4699 26.6915Z" fill="#0290CF"></path><path d="M117.184 16.1863C120.939 19.9415 120.939 26.0296 117.184 29.7847L114.328 32.6404L100.73 19.0419L103.585 16.1863C107.34 12.4314 113.428 12.4314 117.184 16.1863Z" fill="#FE7AB6"></path><path d="M117.184 16.1863C116.815 15.8181 116.424 15.4874 116.016 15.1914C117.849 18.0611 116.838 22.6656 113.451 26.0523L110.596 28.908L114.328 32.6401L117.184 29.7845C120.939 26.0296 120.939 19.9415 117.184 16.1863Z" fill="#FE3D97"></path><path d="M96.2932 23.4785L65.0628 54.709L59.2599 70.995C58.5699 72.9314 60.4388 74.8003 62.3752 74.1103L78.6612 68.3074L109.892 37.0769L96.2932 23.4785Z" fill="#FFDFCF"></path><path d="M105.826 33.0864L74.5959 64.3169L59.8481 71.6579C59.5647 71.799 59.2945 71.8773 59.0411 71.9113C59.0974 73.465 60.6747 74.6896 62.3006 74.1104L78.5866 68.3076L109.817 37.0771L105.826 33.0864Z" fill="#FFCEBF"></path><path d="M65.0626 54.709C70.5812 53.7232 72.8476 55.9896 71.8618 61.5082C77.3804 60.5224 79.6468 62.7888 78.661 68.3074L109.891 37.0769L96.2931 23.4785L65.0626 54.709Z" fill="#FE9738"></path><path d="M78.6756 68.218L109.817 37.0769L105.826 33.0864L76.9886 61.9241C78.6714 62.9015 79.2332 65.0001 78.6756 68.218Z" fill="#FE7701"></path><path d="M61.2797 65.3262L59.2599 70.9948C58.5699 72.9312 60.4388 74.8001 62.3752 74.1101L68.0438 72.0902L61.2797 65.3262Z" fill="#596C76"></path><path d="M59.115 71.8976C59.1537 73.1581 60.1938 74.2041 61.4519 74.2533C61.728 74.2554 62.0133 74.2121 62.3004 74.1096L68.024 72.0701L65.0311 69.0771L59.8479 71.6571C59.5917 71.7849 59.347 71.8592 59.115 71.8976Z" fill="#465A61"></path><path d="M96.2931 23.4785L65.0626 54.709C70.5812 53.7232 72.8476 55.9896 71.8618 61.5082L103.092 30.2777L96.2931 23.4785Z" fill="#FDB97E"></path><path d="M116.454 30.6247L102.745 16.9166C100.948 15.1196 98.0352 15.1196 96.2382 16.9166C94.4413 18.7135 94.4413 21.6268 96.2382 23.4237L109.946 37.1319C111.743 38.9288 114.657 38.9288 116.454 37.1319C118.25 35.3349 118.25 32.4214 116.454 30.6247Z" fill="#D8ECFE"></path><path d="M116.454 30.625L112.574 26.7456C113.96 28.1317 113.627 30.7117 111.83 32.5086C110.033 34.3056 107.453 34.6386 106.067 33.2528L109.946 37.1322C111.743 38.9291 114.657 38.9291 116.454 37.1322C118.251 35.3352 118.251 32.4217 116.454 30.625Z" fill="#B3DAFE"></path></svg>