<svg xmlns="http://www.w3.org/2000/svg" width="743" height="614" viewBox="0 0 743 614" fill="none"><path d="M743 363.5C743 501.571 555.071 500 417 500C278.929 500 167 388.071 167 250C167 111.929 278.929 0 417 0C555.071 0 743 225.429 743 363.5Z" fill="url(#paint0_linear_16_710)" fill-opacity="0.14"></path><path d="M18.9444 200.68C18.3652 201.128 18.0597 201.782 18.1589 202.515C18.1906 202.757 18.2739 202.975 18.3691 203.189C18.3691 203.193 18.3731 203.197 18.3731 203.205L18.389 203.32C18.4405 203.53 18.5357 203.716 18.6786 203.871C18.8848 204.14 19.1824 204.374 19.5236 204.453C19.8092 204.517 20.1028 204.517 20.3884 204.453C20.7177 204.378 20.9835 204.164 21.1977 203.914C21.1659 203.954 21.1342 203.994 21.1064 204.033C21.1699 203.97 21.2413 203.922 21.3088 203.863C21.3683 203.811 21.4238 203.756 21.4754 203.696C21.6539 203.566 21.8086 203.403 21.9395 203.209C22.4315 202.472 22.1895 201.457 21.5904 200.863C21.3167 200.593 20.9835 200.379 20.6145 200.26C20.0115 200.062 19.4085 200.32 18.9444 200.68Z" fill="#BCA28E"></path><path d="M16.1132 194.259C15.4744 194.37 14.8714 195.166 14.9309 195.812C15.0143 196.728 15.4427 197.552 16.2877 197.984C16.5376 198.111 16.8074 198.198 17.0811 198.238C17.4263 198.404 17.8031 198.511 18.2157 198.559C18.5529 198.599 19.0369 198.369 19.2591 198.127C19.5249 197.838 19.6915 197.485 19.6915 197.085C19.6915 196.272 19.3186 195.491 18.7077 194.956C17.9579 194.298 17.0851 194.092 16.1132 194.259Z" fill="#ECC889"></path><path d="M23.2325 194.107C23.05 194.151 22.8675 194.234 22.7009 194.321C22.5343 194.408 22.3796 194.535 22.2407 194.658C22.1058 194.777 21.9987 194.931 21.8995 195.078C21.7964 195.229 21.721 195.415 21.6694 195.581C21.6417 195.677 21.6377 195.764 21.6258 195.867C21.6099 195.99 21.5941 196.041 21.598 196.14C21.602 196.469 21.6972 196.786 21.8599 197.068C21.9352 197.198 22.0542 197.337 22.1614 197.448C22.2645 197.555 22.4153 197.662 22.5541 197.745C22.689 197.825 22.8635 197.888 23.0103 197.94C23.054 197.956 23.1016 197.967 23.1492 197.975C23.2999 198.023 23.4467 198.039 23.5975 198.031C23.9267 198.13 24.2877 198.134 24.6329 198.051C24.7281 198.027 24.7995 197.991 24.8987 197.948C25.1129 197.856 25.2994 197.741 25.466 197.575C25.5731 197.464 25.6842 197.317 25.7675 197.183C25.8548 197.044 25.9182 196.881 25.9619 196.723C26.0491 196.382 26.0452 196.053 25.9698 195.708C25.9222 195.502 25.8389 195.296 25.7159 195.122C25.4858 194.785 25.3152 194.626 24.9899 194.392C24.8233 194.273 24.617 194.198 24.4306 194.131C24.4028 194.123 24.375 194.115 24.3472 194.107C24.1925 194.071 23.9981 194.048 23.8395 194.04C23.8117 194.04 23.7839 194.04 23.7561 194.04C23.5816 194.044 23.3912 194.067 23.2325 194.107Z" fill="#DC8C73"></path><path d="M20.6901 188.393C19.8015 188.421 19.2024 189.087 19.135 189.947C19.0398 191.183 20.1704 192.361 21.4161 192.293C22.3444 192.242 23.1656 191.619 23.2132 190.64C23.2251 190.379 23.1497 190.141 23.0188 189.931C22.7213 188.984 21.7097 188.361 20.6901 188.393Z" fill="#D9AD99"></path><path d="M27.9336 199.495C27.3266 199.578 26.7831 199.911 26.4498 200.434C26.307 200.66 26.2277 200.898 26.1999 201.144C26.196 201.164 26.1841 201.18 26.1801 201.199C26.0293 201.802 26.2277 202.464 26.6958 202.88C27.1282 203.264 27.6678 203.486 28.2509 203.49C29.3498 203.49 30.4051 202.658 30.3813 201.505C30.3535 200.244 29.1316 199.333 27.9336 199.495Z" fill="#D9AD99"></path><path d="M29.8018 193.414C29.4844 193.569 29.1869 193.866 29.0124 194.171C28.7743 194.587 28.6831 195.13 28.8219 195.594C28.9052 195.876 29.0322 196.09 29.1869 196.296C29.3218 196.613 29.6074 196.934 29.8772 197.077C30.2104 197.251 30.5556 197.322 30.9324 197.271C31.4918 197.195 32.0155 196.811 32.2456 196.292C32.3011 196.22 32.3566 196.153 32.4122 196.078C32.6224 195.773 32.7177 195.42 32.7296 195.055C32.7534 194.449 32.3527 193.795 31.8171 193.521C31.6148 193.418 31.4085 193.351 31.1943 193.307C31.1427 193.287 31.0951 193.268 31.0435 193.248C30.623 193.117 30.1787 193.232 29.8018 193.414Z" fill="#D9AD99"></path><path d="M27.9849 185.908C27.2709 186.07 26.5687 186.677 26.406 187.41C26.402 187.434 26.3981 187.458 26.3941 187.481C26.3148 187.755 26.3068 188.052 26.3901 188.345C26.6044 189.099 27.1875 189.582 27.9016 189.832C28.4531 190.026 29.1076 189.971 29.6115 189.669C30.389 189.198 30.6389 188.306 30.4525 187.458C30.2026 186.324 29.0997 185.658 27.9849 185.908Z" fill="#DC8C73"></path><path d="M20.7855 182.441C19.8731 183.344 19.8572 184.918 20.9005 185.722C21.2616 186 21.7217 186.19 22.1899 186.178C22.4001 186.174 22.6382 186.143 22.8444 186.075C23.134 185.98 23.38 185.853 23.5982 185.627C23.6815 185.54 23.8124 185.362 23.8997 185.231C23.8997 185.227 23.9037 185.227 23.9037 185.223C23.9949 185.132 24.0782 185.033 24.1417 184.914C24.3401 184.537 24.4551 184.058 24.3083 183.642C24.0862 183.011 23.7608 182.429 23.1539 182.096C22.3724 181.668 21.4083 181.822 20.7855 182.441Z" fill="#D9AD99"></path><path d="M15.1993 184.706C14.4495 184.917 13.8902 185.594 13.8783 186.383C13.8624 187.576 15.0565 188.563 16.207 188.523C16.4886 188.511 16.7703 188.444 17.0282 188.333C17.1075 188.321 17.1908 188.309 17.2741 188.293C17.6232 188.234 18.0438 187.881 18.2064 187.576C18.3929 187.219 18.5039 186.767 18.3651 186.375C18.0636 185.527 17.3614 184.909 16.4767 184.714C16.0602 184.623 15.6198 184.588 15.1993 184.706Z" fill="#BCA28E"></path><path d="M10.4155 189.221C10.1061 189.4 9.87596 189.685 9.74108 190.01C9.6062 190.327 9.53479 190.751 9.65777 191.084C9.74108 191.302 9.82042 191.536 9.95134 191.73C10.1656 192.043 10.3719 192.261 10.6892 192.471C10.8558 192.578 11.0542 192.661 11.2486 192.713C11.5779 192.796 11.9468 192.8 12.2721 192.709C12.5855 192.626 12.887 192.451 13.1171 192.225C13.256 192.095 13.3829 191.932 13.4702 191.762C13.6328 191.449 13.736 191.112 13.7161 190.755C13.7042 190.493 13.6606 190.283 13.5654 190.05C13.4702 189.828 13.3591 189.621 13.1726 189.459C12.8791 189.201 12.5617 189.047 12.2007 189.015C11.6096 188.789 10.9669 188.904 10.4155 189.221Z" fill="#D9AD99"></path><path d="M10.6604 196.261C10.3549 196.34 9.99787 196.522 9.77967 196.764C9.29568 197.295 9.11716 197.977 9.27585 198.679C9.39486 199.202 9.75984 199.661 10.22 199.923C10.5255 200.097 10.8905 200.189 11.2396 200.177C11.672 200.161 11.9616 200.054 12.3504 199.868C12.8463 199.626 13.1954 198.98 13.1676 198.441C13.1597 198.239 13.1319 198.036 13.0922 197.838C13.0883 197.818 13.0843 197.799 13.0764 197.779C13.0367 197.656 12.9613 197.466 12.8978 197.355C12.7828 197.157 12.636 196.982 12.4615 196.836C12.4257 196.792 12.3861 196.752 12.3424 196.713C12.2234 196.61 12.0965 196.503 11.9576 196.423C11.5609 196.197 11.1007 196.146 10.6604 196.261Z" fill="#DC8C73"></path><path d="M12.906 201.856C12.5212 201.963 12.1086 202.256 11.9182 202.613C11.7159 202.997 11.6127 203.461 11.7516 203.885C11.8269 204.115 11.9341 204.321 12.0808 204.499C12.1364 204.705 12.2276 204.899 12.3665 205.082C12.3903 205.11 12.4141 205.137 12.4379 205.165C12.4101 205.173 12.4617 205.224 12.6005 205.328C12.66 205.379 12.7195 205.427 12.783 205.466C12.8029 205.478 12.8187 205.49 12.8386 205.502C13.0726 205.645 13.3424 205.732 13.6201 205.708C13.6201 205.708 13.6161 205.708 13.6161 205.704C13.6241 205.704 13.632 205.704 13.6439 205.704C14.1041 205.68 14.4968 205.53 14.842 205.213C15.0641 205.01 15.2109 204.705 15.2982 204.416C15.3894 204.111 15.3736 203.762 15.3021 203.461C15.1554 202.842 14.711 202.339 14.1795 202.018C13.8145 201.8 13.3146 201.745 12.906 201.856Z" fill="#D9AD99"></path><path d="M25.0736 206.969C24.8396 207.227 24.6531 207.587 24.669 207.944C24.6848 208.067 24.7007 208.19 24.7166 208.313C24.7523 208.443 24.8078 208.562 24.8753 208.669C24.8515 208.982 24.9189 209.303 25.0816 209.577C25.3196 209.981 25.6687 210.243 26.113 210.386C26.8985 210.635 27.803 210.164 28.1719 209.458C28.3703 209.078 28.525 208.622 28.4973 208.186C28.4854 208.015 28.4695 207.845 28.4258 207.678C28.4219 207.659 28.4139 207.639 28.406 207.619C28.3584 207.488 28.3029 207.33 28.2315 207.207C28.0648 206.929 27.8347 206.688 27.5451 206.533C26.7517 206.109 25.6846 206.307 25.0736 206.969Z" fill="#BCA28E"></path><path d="M33.6275 204.156C33.0325 204.314 32.5366 204.849 32.3858 205.44C32.2271 206.042 32.4176 206.76 32.9016 207.176C33.0523 207.302 33.207 207.413 33.3776 207.493C33.814 207.838 34.4051 208.052 34.9407 207.984C35.3731 207.929 35.7976 207.842 36.111 207.501C36.4164 207.168 36.5672 206.787 36.5949 206.331C36.6584 205.333 36.0038 204.334 35.0002 204.112C34.536 204.013 34.0798 204.033 33.6275 204.156Z" fill="#D9AD99"></path><path d="M36.9393 196.641C36.491 196.895 36.1419 197.45 36.1736 197.973C36.1816 198.084 36.1935 198.191 36.2133 198.298C36.1974 198.643 36.2887 198.968 36.4474 199.273C36.6497 199.666 36.9909 200.034 37.3717 200.26C38.4508 200.902 39.9384 200.474 40.4343 199.305C41.2754 197.315 38.5777 195.722 36.9393 196.641Z" fill="#ECC889"></path><path d="M35.4558 189.268C34.9956 189.514 34.6147 190.121 34.6624 190.656C34.7219 191.329 34.952 191.983 35.5391 192.372C35.8287 192.808 36.3325 192.998 36.8482 192.998C37.2132 192.998 37.5822 192.895 37.8876 192.701C38.4589 192.336 38.7683 191.746 38.7842 191.076C38.804 190.343 38.4272 189.574 37.7686 189.209C37.0149 188.793 36.1937 188.88 35.4558 189.268Z" fill="#D9AD99"></path><path d="M19.1818 207.667C18.9041 207.846 18.674 208.08 18.5074 208.365C18.3011 208.726 18.2733 209.007 18.2257 209.415C18.2059 209.582 18.2495 209.776 18.3249 209.966C18.3249 209.99 18.3209 210.018 18.3209 210.042C18.3209 210.862 18.9795 211.5 19.7332 211.698C21.0106 212.039 22.2286 211.056 22.3991 209.812C22.542 208.738 21.8358 207.691 20.7766 207.426C20.241 207.295 19.642 207.366 19.1818 207.667Z" fill="#DC8C73"></path><path d="M32.0112 211.521C31.6542 211.715 31.3566 212.119 31.2535 212.508C31.186 212.726 31.1741 212.947 31.2257 213.165C31.2297 213.284 31.2535 213.395 31.2892 213.506C31.2733 213.637 31.2773 213.772 31.3169 213.903C31.4399 214.331 31.67 214.687 32.0231 214.961C32.0985 215.02 32.1619 215.076 32.2453 215.123C32.3008 215.155 32.6618 215.298 32.4515 215.211C32.519 215.238 32.5825 215.266 32.6499 215.294C32.8681 215.361 33.0903 215.373 33.3084 215.322C33.2608 215.329 33.4711 215.31 33.5425 215.29C33.6377 215.262 33.8757 215.163 33.9551 215.112C34.2606 214.921 34.4788 214.707 34.6731 214.406C34.7287 214.319 34.7604 214.228 34.8001 214.129C34.8398 214.033 34.8874 213.942 34.9112 213.843C34.9508 213.681 34.9746 213.494 34.9826 213.328C34.9826 213.292 34.9826 213.261 34.9786 213.225C34.9469 212.836 34.8993 212.591 34.7088 212.242C34.6176 212.072 34.4946 211.913 34.3558 211.782C33.9987 211.457 33.5425 211.239 33.0506 211.243C32.6539 211.251 32.3484 211.338 32.0112 211.521Z" fill="#D9AD99"></path><path d="M12.7356 209.835C12.5095 209.827 12.2953 209.875 12.1009 209.978C11.8946 210.045 11.7201 210.16 11.5693 210.319C11.4067 210.469 11.2956 210.644 11.2281 210.85C11.125 211.048 11.0774 211.258 11.0853 211.484C11.1052 211.631 11.125 211.777 11.1448 211.924C11.2242 212.205 11.367 212.447 11.5693 212.653C11.6804 212.741 11.7915 212.824 11.9026 212.911C12.0017 212.966 12.1009 213.01 12.2041 213.046C12.4699 213.228 12.7912 213.331 13.1125 213.331C13.3982 213.331 13.6679 213.26 13.9179 213.113C14.1559 212.97 14.3463 212.78 14.4891 212.542C14.5486 212.4 14.624 212.257 14.6676 212.106C14.7152 211.948 14.7232 211.781 14.7351 211.615C14.7549 211.333 14.6359 210.985 14.4931 210.747C14.4137 210.612 14.3106 210.477 14.1956 210.37C14.0845 210.283 13.9734 210.2 13.8623 210.113C13.8583 210.109 13.8504 210.105 13.8464 210.101C13.8345 210.097 13.8266 210.089 13.8147 210.085C13.6719 210.01 13.5211 209.938 13.3625 209.899C13.3466 209.895 13.3307 209.891 13.3148 209.891C13.1681 209.867 12.9975 209.835 12.8507 209.831C12.8071 209.831 12.7714 209.831 12.7356 209.835Z" fill="#D9AD99"></path><path d="M25.7832 214.238C25.6165 214.278 25.4539 214.353 25.3071 214.44C24.9501 214.658 24.6605 215.019 24.5494 215.427C24.4819 215.645 24.47 215.867 24.5216 216.085C24.5335 216.303 24.597 216.509 24.716 216.7C24.9183 217.013 25.2119 217.294 25.5689 217.417C25.6245 217.461 25.684 217.5 25.7474 217.536C25.8823 217.599 26.0172 217.659 26.1561 217.706C26.2989 217.726 26.4457 217.746 26.5885 217.766C26.8146 217.774 27.0209 217.726 27.2153 217.627C27.3541 217.587 27.4731 217.52 27.5763 217.417C27.7548 217.302 27.8937 217.151 27.9968 216.961C28.0444 216.898 28.0762 216.826 28.092 216.747C28.1952 216.549 28.2428 216.339 28.2348 216.113C28.215 215.966 28.1952 215.82 28.1753 215.673C28.1714 215.661 28.1674 215.649 28.1634 215.637C28.1119 215.491 28.0404 215.297 27.9492 215.146C27.8619 215.003 27.7588 214.861 27.6437 214.746C27.6318 214.734 27.616 214.722 27.6041 214.706C27.5168 214.623 27.3502 214.492 27.247 214.432C27.2351 214.425 27.2232 214.421 27.2113 214.413C27.1002 214.353 26.9138 214.274 26.7948 214.238C26.6321 214.187 26.4576 214.163 26.287 214.171C26.1283 214.175 25.9379 214.203 25.7832 214.238Z" fill="#D9AD99"></path><path d="M5.62722 202.614C5.25828 202.82 5.09959 203.046 4.84569 203.375C4.79412 203.498 4.74255 203.621 4.68701 203.748L4.63147 204.16C4.63147 204.505 4.75445 204.83 4.96471 205.103C5.1353 205.321 5.32968 205.476 5.58755 205.583C5.79384 205.67 5.98426 205.702 6.18658 205.702C6.5714 205.955 7.03555 206.046 7.49574 205.939C8.0432 205.816 8.45975 205.305 8.5986 204.782C8.73348 204.287 8.60653 203.787 8.3566 203.351C8.01543 202.749 7.31722 202.364 6.6309 202.356C6.28973 202.348 5.93269 202.444 5.62722 202.614Z" fill="#D9AD99"></path><path d="M4.59057 191.187C4.22957 191.425 3.9479 191.75 3.83285 192.174C3.74558 192.487 3.76144 192.88 3.88046 193.201C3.88443 193.221 3.88839 193.241 3.89236 193.264C3.93997 193.605 4.07882 193.966 4.34461 194.204C4.35255 194.212 4.36445 194.219 4.37238 194.227L4.70562 194.485C4.89604 194.604 5.09837 194.671 5.32053 194.679C5.46731 194.719 5.61409 194.719 5.76088 194.679C5.97907 194.667 6.18536 194.604 6.37578 194.485C6.67728 194.334 6.98672 194.16 7.20095 193.894L7.45881 193.562C7.57782 193.371 7.64526 193.169 7.6532 192.947C7.69287 192.801 7.69287 192.654 7.6532 192.507C7.6413 192.289 7.57782 192.083 7.45881 191.893C7.3517 191.687 7.20491 191.485 7.03829 191.322C6.70902 190.997 6.22503 190.771 5.75691 190.787C5.31656 190.803 4.94762 190.95 4.59057 191.187Z" fill="#D9AD99"></path><path d="M3.64279 196.621C3.42857 196.673 3.24211 196.772 3.07946 196.918C2.95251 197.002 2.8454 197.101 2.75812 197.223C2.72242 197.251 2.68671 197.279 2.66688 197.299C2.46852 197.481 2.37331 197.715 2.28603 197.965C2.16305 198.325 2.12338 198.745 2.22653 199.118C2.35744 199.59 2.71448 200.018 3.13897 200.263C3.1469 200.267 3.15484 200.271 3.16674 200.275C3.23021 200.311 3.49998 200.422 3.57138 200.446C3.58725 200.45 3.60312 200.458 3.61899 200.462C3.78958 200.505 3.9681 200.533 4.14662 200.525C4.49969 200.505 4.84087 200.434 5.1384 200.232C5.45974 200.014 5.64223 199.839 5.84852 199.51C5.93976 199.368 5.9953 199.197 6.05481 199.043C6.06671 199.011 6.07861 198.979 6.08258 198.944C6.15795 198.583 6.17779 198.27 6.06671 197.909C6.08654 197.973 5.95563 197.596 5.88025 197.481C5.80091 197.362 5.6938 197.223 5.59462 197.116C5.37643 196.883 5.09079 196.744 4.79326 196.645C4.38861 196.502 4.05537 196.562 3.64279 196.621Z" fill="#D9AD99"></path><path d="M7.69037 184.271C7.55549 184.358 7.43251 184.465 7.32143 184.58C7.0477 184.79 6.84538 185.099 6.75016 185.424C6.63908 185.813 6.69462 186.193 6.84934 186.554C7.01993 186.958 7.28969 187.303 7.69434 187.505C8.05535 187.687 8.45603 187.802 8.86464 187.763C9.16218 187.763 9.43988 187.687 9.69774 187.537C9.94767 187.39 10.1421 187.192 10.2888 186.946C10.515 186.562 10.5586 186.13 10.4555 185.722C10.4237 185.539 10.3642 185.361 10.2611 185.202C10.2412 185.171 10.2174 185.139 10.1936 185.107C10.1143 184.964 10.031 184.838 9.90006 184.711C9.83262 184.647 9.76121 184.592 9.68981 184.532C9.40814 184.287 9.11457 184.128 8.74166 184.077C8.39256 184.029 7.99981 184.073 7.69037 184.271Z" fill="#DC8C73"></path><path d="M14.7845 177.696C14.3719 177.791 14.0665 178.096 13.8324 178.429C13.642 178.699 13.5587 179.139 13.5706 179.46C13.5825 179.821 13.6817 180.201 13.8879 180.498C14.3362 181.14 14.9868 181.497 15.7723 181.525C16.1532 181.537 16.6372 181.343 16.895 181.061C17.1886 180.744 17.3433 180.375 17.3592 179.939C17.3631 179.821 17.3671 179.706 17.3552 179.591C17.3155 179.163 17.1965 178.774 16.8792 178.461C16.7165 178.303 16.5062 178.164 16.2841 178.073C16.1016 177.898 15.8794 177.756 15.6335 177.7C15.3518 177.633 15.0662 177.633 14.7845 177.696Z" fill="#D9AD99"></path><path d="M30.1682 177.687C29.7358 177.699 29.3074 177.861 28.9979 178.17C28.7123 178.456 28.4941 178.927 28.5139 179.34C28.5338 179.768 28.6726 180.208 28.9979 180.509C29.0376 180.545 29.0773 180.58 29.1209 180.612C29.1289 180.632 29.1408 180.652 29.1527 180.671C29.2717 180.889 29.4978 181.107 29.712 181.234C29.962 181.381 30.2754 181.448 30.565 181.452C30.6562 181.452 30.7554 181.432 30.8387 181.42C31.0569 181.393 31.279 181.329 31.4734 181.214L31.8027 180.961C31.9614 180.814 32.0725 180.64 32.1359 180.441C32.1954 180.303 32.2113 180.283 32.2272 180.172C32.255 179.986 32.2946 179.795 32.2986 179.605C32.3026 179.47 32.2629 179.272 32.2391 179.137C32.2351 179.114 32.2312 179.09 32.2232 179.066C32.1835 178.904 32.1121 178.745 32.0288 178.598C31.8582 178.309 31.6361 178.103 31.3544 177.929C30.9894 177.707 30.5729 177.675 30.1682 177.687Z" fill="#DC8C73"></path><path d="M25.212 174.033C25.1207 174.049 25.0374 174.08 24.9541 174.116C24.3947 174.14 23.9465 174.445 23.641 174.901C23.272 175.456 23.2998 176.217 23.6291 176.783C23.9385 177.318 24.5495 177.703 25.1763 177.687C26.0094 177.663 26.6679 177.156 27.0765 176.458L27.2431 176.066L27.3026 175.626C27.2828 175.479 27.263 175.333 27.2431 175.186C27.1916 174.972 27.0924 174.786 26.9496 174.623C26.8782 174.5 26.779 174.401 26.652 174.326C26.5489 174.223 26.4259 174.152 26.2871 174.112C26.1601 174.037 26.0213 174.001 25.8705 174.001C25.6523 173.953 25.4341 173.965 25.212 174.033Z" fill="#DC8C73"></path><path d="M35.6023 181.295C35.5586 181.303 35.519 181.311 35.4753 181.327C35.1302 181.442 34.8763 181.572 34.6105 181.822C34.1305 182.278 33.94 182.983 34.1186 183.621C34.1622 183.776 34.2217 183.931 34.309 184.065C34.3487 184.129 34.4201 184.212 34.4518 184.252C34.4597 184.264 34.547 184.39 34.6026 184.442C34.8842 184.704 35.0865 184.803 35.4357 184.937C35.8284 185.088 36.3045 185.048 36.7012 184.957C36.9154 184.906 37.1018 184.807 37.2645 184.66C37.443 184.545 37.5858 184.39 37.689 184.196C37.808 184.006 37.8754 183.804 37.8834 183.582C37.931 183.364 37.923 183.142 37.8556 182.924C37.8318 182.845 37.8001 182.769 37.7644 182.69C37.7644 182.682 37.7604 182.67 37.7604 182.662C37.7604 182.516 37.7207 182.377 37.6493 182.246C37.6096 182.107 37.5382 181.985 37.4391 181.886C37.3676 181.763 37.2685 181.664 37.1455 181.592C36.9868 181.446 36.8003 181.35 36.5861 181.299C36.2211 181.196 35.9553 181.232 35.6023 181.295Z" fill="#D9AD99"></path><path d="M17.2121 174.369C17.2279 174.845 17.347 175.305 17.5929 175.701C17.5969 175.721 17.6009 175.741 17.6048 175.756C17.7357 176.157 17.9817 176.541 18.3625 176.743C18.7474 176.946 19.2075 177.045 19.636 176.91C19.7431 176.874 19.8463 176.835 19.9454 176.787C19.997 176.779 20.0446 176.775 20.0962 176.767C20.2271 176.712 20.358 176.656 20.4929 176.601C20.8023 176.418 21.0324 176.137 21.1673 175.812C21.4212 175.21 21.3022 174.476 20.8261 174.009C20.8023 173.985 20.7746 173.965 20.7468 173.941C20.723 173.882 20.6992 173.822 20.6675 173.767C20.5762 173.604 20.4493 173.438 20.3223 173.307C19.9296 172.899 19.4178 172.74 18.8624 172.72C17.9936 172.685 17.1803 173.501 17.2121 174.369Z" fill="#D9AD99"></path><path d="M7.10335 178.706C6.67093 179.039 6.32183 179.495 6.19884 180.038C5.97272 181.045 6.53605 182.083 7.57147 182.325C8.30142 182.495 9.22576 182.178 9.60661 181.496C9.8486 181.322 10.0351 181.068 10.1144 180.787C10.3604 179.943 10.0708 178.924 9.26543 178.476C8.55532 178.084 7.72619 178.227 7.10335 178.706Z" fill="#ECC889"></path><path d="M10.2169 173.578C10.0344 174.24 10.2248 174.981 10.7167 175.464C10.9706 175.714 11.2483 175.857 11.5855 175.96C12.1687 176.138 12.8352 175.92 13.2597 175.504C13.4897 175.274 13.6326 174.981 13.6841 174.676C13.8349 174.426 13.938 174.137 13.9063 173.859C13.8825 173.677 13.8785 173.495 13.823 173.32C13.7238 173.015 13.5929 172.773 13.3628 172.543C13.0216 172.202 12.5297 171.996 12.0457 172C11.1452 172.008 10.447 172.757 10.2169 173.578Z" fill="#BCA28E"></path><path d="M0.263735 185.039C-0.152813 185.733 -0.0377665 186.557 0.343078 187.235C0.545401 187.592 0.93418 187.885 1.33089 187.992C1.7276 188.099 2.25127 188.052 2.60434 187.826C2.62021 187.814 2.64004 187.802 2.65591 187.79C2.86617 187.703 3.06056 187.572 3.23115 187.398C3.37 187.255 3.50488 187.093 3.60406 186.922C3.6834 186.787 3.74687 186.621 3.79844 186.474C3.81431 186.431 3.82225 186.391 3.83018 186.347C3.85795 186.185 3.89762 186.003 3.88969 185.836C3.88175 185.646 3.85002 185.456 3.81431 185.269C3.75877 185.139 3.70323 185.008 3.64769 184.873C3.54455 184.679 3.40173 184.524 3.22321 184.409C2.93361 184.187 2.59641 184.057 2.2235 184.057C1.44594 184.045 0.672349 184.354 0.263735 185.039Z" fill="#D9AD99"></path><path d="M16.0646 217.282C15.8503 218.023 16.1518 218.836 16.7152 219.339C16.8937 219.501 17.0921 219.668 17.3142 219.775C17.7665 219.997 18.2901 220.136 18.794 219.973C19.3017 219.807 19.7024 219.454 19.9167 218.998C20.0436 218.832 20.1348 218.649 20.1824 218.455C20.3015 217.98 20.2816 217.456 20.0198 217.028C19.8214 216.703 19.5874 216.454 19.2621 216.251C18.1711 215.57 16.4454 215.966 16.0646 217.282Z" fill="#ECC889"></path><path d="M5.71074 211.325C5.69487 211.325 5.28626 211.381 5.26642 211.385C5.25452 211.389 5.24659 211.389 5.23469 211.393C5.076 211.432 4.92525 211.504 4.7864 211.587C4.71499 211.627 4.48887 211.801 4.43333 211.861C4.42539 211.868 4.42143 211.872 4.41349 211.88C4.35002 211.944 4.18737 212.154 4.13976 212.233C4.13183 212.245 4.12786 212.257 4.11992 212.269C4.04058 212.403 3.97711 212.566 3.93347 212.721C3.91363 212.796 3.90173 212.935 3.89776 212.97C3.8938 213.01 3.86603 213.145 3.86603 213.224C3.86603 213.236 3.86603 213.252 3.86603 213.264C3.86999 213.398 3.90173 213.6 3.9295 213.731C3.93744 213.763 3.94537 213.795 3.95727 213.822C4.01281 213.981 4.07629 214.147 4.16356 214.29C4.2072 214.357 4.27464 214.437 4.31431 214.488C4.47697 214.698 4.43729 214.655 4.64358 214.817C4.73086 214.885 4.81417 214.96 4.91732 215.011C5.05617 215.079 5.20692 215.154 5.3537 215.198C5.44494 215.225 5.39337 215.21 5.59173 215.237C5.73455 215.277 5.87736 215.277 6.01621 215.237C6.11936 215.237 6.21853 215.218 6.30978 215.182C6.34548 215.174 6.38515 215.166 6.42879 215.154C6.57954 215.114 6.72633 215.051 6.86121 214.972C7.02783 214.877 7.19842 214.742 7.32933 214.595L7.58719 214.262C7.70621 214.072 7.77365 213.87 7.78158 213.648C7.82125 213.501 7.82125 213.355 7.78158 213.208C7.76968 212.99 7.70621 212.784 7.58719 212.594C7.48802 212.372 7.3333 212.186 7.17858 211.995C7.15081 211.964 7.12701 211.932 7.09527 211.904C7.0318 211.849 6.95245 211.793 6.89295 211.746C6.84137 211.706 6.75806 211.631 6.68666 211.591C6.67475 211.583 6.66285 211.579 6.64698 211.571C6.51607 211.508 6.36135 211.44 6.22647 211.397C6.06778 211.345 5.89323 211.321 5.72661 211.329C5.72264 211.321 5.71471 211.325 5.71074 211.325Z" fill="#BCA28E"></path><path d="M11.0023 218.352C11.0063 218.352 11.0103 218.352 11.0182 218.352C11.0103 218.348 11.0063 218.348 11.0023 218.352C10.324 218.07 9.57021 218.201 9.10209 218.804C8.64587 219.39 8.64587 220.326 9.22507 220.853C9.54244 221.142 9.89155 221.388 10.316 221.495C10.8635 221.634 11.4149 221.602 11.9227 221.344C12.7082 220.94 13.0097 219.921 12.5773 219.156C12.371 218.792 12.014 218.538 11.6212 218.411C11.4189 218.344 11.2126 218.34 11.0063 218.356C11.0063 218.352 11.0063 218.352 11.0023 218.352Z" fill="#D9AD99"></path><path d="M42.1171 205.344C41.9704 205.364 41.8236 205.384 41.6768 205.404C41.4626 205.455 41.2761 205.554 41.1135 205.701C40.9905 205.776 40.8913 205.872 40.8159 205.998C40.7128 206.101 40.6414 206.224 40.6017 206.363C40.5263 206.49 40.4906 206.632 40.4906 206.779C40.443 206.997 40.451 207.219 40.5184 207.437C40.562 207.738 40.7604 208.063 40.9706 208.289C40.9865 208.325 41.0024 208.361 41.0143 208.396L41.2682 208.725C41.2801 208.745 41.296 208.761 41.3118 208.773C41.7403 209.177 42.3274 209.351 42.9026 209.193C43.4382 209.046 43.9143 208.598 44.0452 208.051C44.1364 207.671 44.188 207.156 44.0809 206.771C44.0055 206.502 43.8428 206.204 43.6366 206.01C43.5294 205.911 43.3827 205.788 43.2557 205.717C43.0693 205.61 42.8392 205.535 42.6487 205.455C42.613 205.439 42.5773 205.424 42.5416 205.412C42.4107 205.384 42.2639 205.364 42.1171 205.344Z" fill="#DC8C73"></path><path d="M39.2256 211.56C38.9082 211.738 38.8091 211.897 38.5948 212.178C38.456 212.416 38.3885 212.67 38.3885 212.943C38.3885 213.217 38.46 213.471 38.5948 213.708C38.7932 214.093 39.0431 214.43 39.416 214.66C39.7731 214.882 40.2253 214.977 40.6419 214.933C40.9315 214.933 41.2012 214.858 41.4512 214.715C41.6376 214.616 41.7884 214.477 41.8995 214.303C42.2089 213.903 42.3239 213.403 42.1851 212.904C42.1296 212.702 42.0304 212.511 41.9471 212.321C41.8677 212.139 41.7487 211.976 41.6059 211.838C41.352 211.588 41.0307 211.441 40.6816 211.394C40.5943 211.382 40.503 211.378 40.4118 211.378C40.2967 211.346 40.1738 211.33 40.0508 211.33C39.8088 211.303 39.4319 211.441 39.2256 211.56Z" fill="#BCA28E"></path><path d="M33.1868 218.471C32.7068 218.634 32.3577 218.919 32.1594 219.387C31.9729 219.827 31.961 220.382 32.2387 220.798C32.5878 221.313 33.0163 221.658 33.6034 221.872C34.1548 222.07 34.8332 222.05 35.3331 221.725C36.0947 221.234 36.4835 220.235 35.8766 219.45C35.702 219.229 35.4878 219.074 35.2498 218.971C35.1664 218.872 35.0792 218.777 34.9681 218.693C34.4524 218.293 33.7938 218.265 33.1868 218.471Z" fill="#DC8C73"></path><path fill-rule="evenodd" clip-rule="evenodd" d="M471.441 513.447C490.908 511.945 510.016 488.977 526.148 499.967C541.898 510.696 534.727 535.796 531.896 554.632C529.575 570.079 524.172 585.393 511.862 595.021C500.673 603.772 485.522 600.011 471.441 601.915C453.11 604.393 428.685 623.005 418.37 607.662C407.321 591.227 438.424 574.392 439.653 554.632C440.71 537.62 414.162 521.303 424.58 507.806C434.568 494.865 455.134 514.706 471.441 513.447Z" fill="#EADACD"></path><path fill-rule="evenodd" clip-rule="evenodd" d="M701.863 465.566C702.765 470.618 699.054 475.557 695.33 479.092C691.972 482.278 687.178 484.691 682.629 483.821C678.386 483.009 677.874 475.796 673.64 474.941C668.335 473.87 663.215 481.183 658.305 478.908C653.895 476.864 652.219 470.274 653.408 465.566C654.582 460.919 660.94 460.048 664.001 456.358C666.74 453.057 666.386 447.499 670.133 445.408C674.021 443.237 679.129 443.78 683.166 445.658C686.99 447.437 688.169 452.069 691.055 455.142C694.567 458.882 700.962 460.518 701.863 465.566Z" fill="#A8B1FE"></path><defs><linearGradient id="paint0_linear_16_710" x1="518.352" y1="21.6216" x2="417" y2="500" gradientUnits="userSpaceOnUse"><stop stop-color="#954CF4"></stop><stop offset="1" stop-color="#954CF4" stop-opacity="0"></stop></linearGradient></defs></svg>