<svg xmlns="http://www.w3.org/2000/svg" width="30.502" height="35.71" viewBox="0 0 30.502 35.71"><g id="icon" transform="translate(-37.336)"><path id="Path_1717" data-name="Path 1717" d="M254.807,0a8.379,8.379,0,0,0-5.426,2.937A7.278,7.278,0,0,0,247.6,8.593a7.073,7.073,0,0,0,5.475-2.8A7.857,7.857,0,0,0,254.807,0Z" transform="translate(-195.526)" fill="#333"></path><path id="Path_1718" data-name="Path 1718" d="M66.8,123.462a9.04,9.04,0,0,0-6.823-3.622c-3.2,0-4.557,1.533-6.783,1.533-2.294,0-4.037-1.529-6.807-1.529a9.262,9.262,0,0,0-7.454,4.506c-2.582,4-2.14,11.532,2.044,17.944,1.5,2.294,3.5,4.874,6.113,4.9,2.328.022,2.984-1.493,6.138-1.509s3.752,1.529,6.075,1.5c2.618-.02,4.727-2.879,6.225-5.173a25.729,25.729,0,0,0,2.305-4.33A7.873,7.873,0,0,1,66.8,123.462Z" transform="translate(0 -111.482)" fill="#333"></path></g></svg>