<svg xmlns="http://www.w3.org/2000/svg" width="104.257" height="85.147" viewBox="0 0 104.257 85.147"><g id="Group_1131" data-name="Group 1131" transform="translate(-295 -1200.257)"><path id="Path_1765" data-name="Path 1765" d="M162.567,211.216a35,35,0,1,1-35-35A35,35,0,0,1,162.567,211.216Z" transform="translate(236.69 1024.042)" fill="#7a70f3" opacity="0.08"></path><g id="icon" transform="translate(273.5 1168)"><path id="Path_1740" data-name="Path 1740" d="M98.723,157.113a4.056,4.056,0,1,1,4.056-4.057A4.061,4.061,0,0,1,98.723,157.113Zm0-5.94a1.883,1.883,0,1,0,1.883,1.883A1.885,1.885,0,0,0,98.723,151.173Z" transform="translate(-41.369 -57.671)" fill="#7a70f3"></path><path id="Path_1741" data-name="Path 1741" d="M184.723,188.707a4.056,4.056,0,1,1,4.056-4.056A4.061,4.061,0,0,1,184.723,188.707Zm0-5.94a1.883,1.883,0,1,0,1.883,1.884A1.885,1.885,0,0,0,184.723,182.767Z" transform="translate(-89.994 -75.535)" fill="#7a70f3"></path><path id="Path_1742" data-name="Path 1742" d="M186.4,125.452H171.582a1.086,1.086,0,0,1-1.086-1.086V109.547a1.087,1.087,0,0,1,1.086-1.086H186.4a1.087,1.087,0,0,1,1.086,1.086v14.818A1.086,1.086,0,0,1,186.4,125.452Zm-13.731-2.173h12.645V110.634H172.669Z" transform="translate(-84.243 -34.75)" fill="#7a70f3"></path><g id="Group_1116" data-name="Group 1116" transform="translate(21.5 47)"><path id="Path_1743" data-name="Path 1743" d="M181.2,79H153.066a3.516,3.516,0,0,0-3.512,3.512v49.474a3.516,3.516,0,0,0,3.512,3.512H181.2a3.516,3.516,0,0,0,3.512-3.512V82.512A3.516,3.516,0,0,0,181.2,79Zm1.339,52.985a1.34,1.34,0,0,1-1.339,1.339H153.066a1.34,1.34,0,0,1-1.339-1.339V82.512a1.34,1.34,0,0,1,1.339-1.339H181.2a1.34,1.34,0,0,1,1.339,1.339Z" transform="translate(-93.902 -65.093)" fill="#716f84"></path><path id="Path_1744" data-name="Path 1744" d="M73.892,101.759H24.759a1.088,1.088,0,0,1-1.086-1.086V50.259a1.088,1.088,0,0,1,1.086-1.086H89.949a1.088,1.088,0,0,1,1.086,1.086V57.1a1.086,1.086,0,0,0,2.173,0V50.259A3.263,3.263,0,0,0,89.949,47H24.759A3.263,3.263,0,0,0,21.5,50.259v50.413a3.263,3.263,0,0,0,3.259,3.259H73.892a1.086,1.086,0,0,0,0-2.173Z" transform="translate(-21.5 -47)" fill="#716f84"></path><path id="Path_1745" data-name="Path 1745" d="M186.889,122.015l-3.505,3.505-1.714-1.714a1.086,1.086,0,0,0-1.536,1.537l2.482,2.482a1.086,1.086,0,0,0,1.536,0l4.273-4.273a1.086,1.086,0,1,0-1.536-1.536Z" transform="translate(-111.012 -89.234)" fill="#716f84"></path><path id="Path_1746" data-name="Path 1746" d="M99.512,85.28v-2.91a2.37,2.37,0,0,0-1.776-2.294h0l-2.516-.648,1.321-2.239a2.37,2.37,0,0,0-.366-2.878l-2.057-2.057a2.371,2.371,0,0,0-2.879-.366L89,73.209l-.649-2.518a2.37,2.37,0,0,0-2.294-1.775h-2.91a2.37,2.37,0,0,0-2.294,1.777L80.2,73.209l-2.239-1.322a2.37,2.37,0,0,0-2.877.366L73.03,74.312a2.371,2.371,0,0,0-.365,2.879l1.321,2.238-2.518.649a2.37,2.37,0,0,0-1.776,2.294v2.91a2.37,2.37,0,0,0,1.777,2.294l2.516.648-1.321,2.239a2.37,2.37,0,0,0,.366,2.878L75.088,95.4a2.37,2.37,0,0,0,2.879.366L80.2,94.442l.649,2.518a2.37,2.37,0,0,0,2.294,1.776h2.91a2.371,2.371,0,0,0,2.294-1.777L89,94.442l2.239,1.322a2.37,2.37,0,0,0,2.877-.366l2.058-2.058a2.371,2.371,0,0,0,.365-2.879l-1.321-2.238,2.518-.649A2.37,2.37,0,0,0,99.512,85.28Zm-2.173,0a.2.2,0,0,1-.146.19l-3.915,1.009a1.086,1.086,0,0,0-.664,1.6l2.054,3.481a.2.2,0,0,1-.03.239L92.579,93.86a.2.2,0,0,1-.237.031L88.86,91.837a1.086,1.086,0,0,0-1.6.664l-1.008,3.913a.2.2,0,0,1-.19.148h-2.91a.2.2,0,0,1-.19-.146L81.948,92.5a1.087,1.087,0,0,0-1.6-.664l-3.48,2.054a.2.2,0,0,1-.239-.03L74.567,91.8a.2.2,0,0,1-.031-.239l2.055-3.482a1.086,1.086,0,0,0-.665-1.6l-3.914-1.009a.2.2,0,0,1-.148-.19v-2.91a.2.2,0,0,1,.146-.19l3.915-1.009a1.087,1.087,0,0,0,.665-1.6l-2.054-3.48a.2.2,0,0,1,.03-.239l2.058-2.058a.2.2,0,0,1,.237-.03l3.482,2.055a1.086,1.086,0,0,0,1.6-.665l1.008-3.914a.2.2,0,0,1,.19-.147h2.91a.2.2,0,0,1,.19.146l1.009,3.915a1.086,1.086,0,0,0,1.6.665l3.48-2.054a.2.2,0,0,1,.239.03l2.057,2.057a.2.2,0,0,1,.031.238l-2.055,3.482a1.087,1.087,0,0,0,.664,1.6l3.915,1.009a.2.2,0,0,1,.146.19Z" transform="translate(-48.748 -59.391)" fill="#716f84"></path><path id="Path_1747" data-name="Path 1747" d="M96.784,90.46a5.547,5.547,0,1,0,5.547,5.547A5.553,5.553,0,0,0,96.784,90.46Zm0,8.92a3.374,3.374,0,1,1,3.374-3.373A3.378,3.378,0,0,1,96.784,99.38Z" transform="translate(-60.93 -71.572)" fill="#716f84"></path></g><path id="Path_1748" data-name="Path 1748" d="M94.389,60.923H39.919a1.086,1.086,0,1,1,0-2.173h54.47a1.086,1.086,0,0,1,0,2.173Z" transform="translate(-9.8 -6.643)" fill="#7a70f3" opacity="0.5"></path><path id="Path_1749" data-name="Path 1749" d="M185.388,93.173H163.549a1.086,1.086,0,0,1,0-2.173h21.838a1.086,1.086,0,0,1,0,2.173Z" transform="translate(-79.701 -24.878)" fill="#7a70f3" opacity="0.5"></path></g></g></svg>