<svg xmlns="http://www.w3.org/2000/svg" width="30" height="31" viewBox="0 0 30 31" fill="none"><path opacity="0.4" d="M28.8462 30.7598H1.15385C0.523077 30.7598 0 30.2368 0 29.606C0 28.9752 0.523077 28.4521 1.15385 28.4521H28.8462C29.4769 28.4521 30 28.9752 30 29.606C30 30.2368 29.4769 30.7598 28.8462 30.7598Z" fill="#E93469"></path><path opacity="0.4" d="M25.8 2.2674C22.8154 -0.717216 19.8923 -0.794139 16.8307 2.2674L14.9692 4.12894C14.8154 4.28278 14.7538 4.52894 14.8154 4.74432C15.9846 8.82125 19.2461 12.0828 23.3231 13.252C23.3846 13.2674 23.4461 13.2828 23.5077 13.2828C23.6769 13.2828 23.8307 13.2212 23.9538 13.0982L25.8 11.2366C27.3231 9.72894 28.0615 8.2674 28.0615 6.79048C28.0769 5.2674 27.3384 3.79048 25.8 2.2674Z" fill="#E93469"></path><path d="M20.5539 14.6515C20.1077 14.4361 19.677 14.2207 19.2616 13.9745C18.9231 13.7745 18.6 13.5592 18.277 13.3284C18.0154 13.1592 17.7077 12.913 17.4154 12.6669C17.3846 12.6515 17.277 12.5592 17.1539 12.4361C16.6462 12.0053 16.077 11.4515 15.5693 10.8361C15.5231 10.8053 15.4462 10.6976 15.3385 10.5592C15.1846 10.3745 14.9231 10.0669 14.6923 9.71301C14.5077 9.48224 14.2923 9.14378 14.0923 8.80532C13.8462 8.38993 13.6308 7.97455 13.4154 7.54378C13.2 7.08224 13.0308 6.63609 12.877 6.2207L3.21542 15.8822C3.01542 16.0822 2.8308 16.4669 2.78465 16.7284L1.95388 22.6207C1.80003 23.6669 2.09234 24.6515 2.73849 25.313C3.29234 25.8515 4.06157 26.1438 4.89234 26.1438C5.07696 26.1438 5.26157 26.1284 5.44619 26.0976L11.3539 25.2669C11.6308 25.2207 12.0154 25.0361 12.2 24.8361L21.8616 15.1745C21.4308 15.0207 21.0154 14.8515 20.5539 14.6515Z" fill="#E93469"></path></svg>