<svg xmlns="http://www.w3.org/2000/svg" width="50" height="50" viewBox="0 0 50 50" fill="none"><path d="M18.9255 21.8188L1.67808 32.1155C-0.559361 33.4513 -0.559361 36.6922 1.67808 38.028L18.9256 48.3246C22.6671 50.5584 27.3327 50.5584 31.0742 48.3246L48.3217 38.028C50.5592 36.6922 50.5592 33.4513 48.3217 32.1155L31.0742 21.8188C27.3327 19.5851 22.667 19.5851 18.9255 21.8188Z" fill="url(#icon_layer_paint_0)"></path><path d="M48.3213 38.0282L31.0743 48.3242C28.6126 49.7938 25.7528 50.2968 23.0175 49.833C24.44 49.5919 25.8292 49.0889 27.1106 48.3242L44.3576 38.0282C44.4006 38.0026 44.4426 37.9762 44.4839 37.9492C46.9309 36.3476 44.5578 32.6405 42.0467 34.1396L31.0743 40.6899C27.3322 42.9242 22.6675 42.9242 18.9254 40.6899L3.12051 31.2547L18.9254 21.8184C20.2057 21.0537 21.595 20.5508 23.0175 20.3096C25.7528 19.8469 28.6126 20.3498 31.0743 21.8184L46.8792 31.2547L48.3213 32.1155C50.5595 33.4507 50.5595 36.6919 48.3213 38.0282Z" fill="url(#icon_layer_paint_1)"></path><path d="M18.9255 11.747L1.67808 22.0437C-0.55936 23.3795 -0.55936 26.6205 1.67808 27.9562L18.9255 38.2528C22.667 40.4865 27.3326 40.4865 31.0741 38.2528L48.3216 27.9561C50.5591 26.6204 50.5591 23.3794 48.3216 22.0436L31.0742 11.747C27.3327 9.51337 22.667 9.51337 18.9255 11.747Z" fill="url(#icon_layer_paint_2)"></path><path d="M48.3213 27.9566L31.0743 38.2527C28.6126 39.7223 25.7528 40.2252 23.0175 39.7615C24.44 39.5203 25.8292 39.0174 27.1106 38.2527L44.3576 27.9566C44.4006 27.9311 44.4426 27.9047 44.4839 27.8776C46.9309 26.2761 44.5578 22.5689 42.0467 24.068L31.0743 30.6184C27.3322 32.8527 22.6675 32.8527 18.9254 30.6184L3.12051 21.1831L18.9254 11.7469C20.2057 10.9822 21.595 10.4793 23.0175 10.2381C25.7528 9.77534 28.6126 10.2783 31.0743 11.7469L46.8792 21.1831L48.3213 22.0439C50.5595 23.3792 50.5595 26.6204 48.3213 27.9566Z" fill="url(#icon_layer_paint_3)"></path><path d="M18.9255 1.67529L1.67808 11.9719C-0.559361 13.3077 -0.559361 16.5487 1.67808 17.8844L18.9256 28.1811C22.6671 30.4148 27.3327 30.4148 31.0742 28.1811L48.3217 17.8844C50.5592 16.5487 50.5592 13.3077 48.3217 11.9719L31.0742 1.67529C27.3327 -0.558429 22.667 -0.558429 18.9255 1.67529Z" fill="url(#icon_layer_paint_4)"></path><path d="M48.3216 11.9719L31.0743 1.67527C28.6133 0.206058 25.7525 -0.296489 23.0179 0.167038C24.4408 0.408214 25.8298 0.910761 27.1103 1.67527L44.3578 11.9719C46.5954 13.3077 46.5954 16.5486 44.3578 17.8844L27.1103 28.181C25.8298 28.9456 24.4409 29.4481 23.0179 29.6893C25.7525 30.1528 28.6133 29.6503 31.0743 28.181L48.3217 17.8844C50.5592 16.5486 50.5592 13.3077 48.3216 11.9719Z" fill="url(#icon_layer_paint_5)"></path><defs><linearGradient id="icon_layer_paint_0" x1="-4.90194e-05" y1="35.0718" x2="49.9998" y2="35.0718" gradientUnits="userSpaceOnUse"><stop stop-color="#FE646F"></stop><stop offset="0.1209" stop-color="#FE556D"></stop><stop offset="0.3524" stop-color="#FE2E69"></stop><stop offset="0.5725" stop-color="#FE0364"></stop><stop offset="1" stop-color="#D2024E"></stop></linearGradient><linearGradient id="icon_layer_paint_1" x1="-5.72494" y1="35.0716" x2="33.299" y2="35.0716" gradientUnits="userSpaceOnUse"><stop stop-color="#FE646F"></stop><stop offset="0.1209" stop-color="#FE556D"></stop><stop offset="0.3524" stop-color="#FE2E69"></stop><stop offset="0.5725" stop-color="#FE0364"></stop><stop offset="1" stop-color="#D2024E"></stop></linearGradient><linearGradient id="icon_layer_paint_2" x1="-4.90194e-05" y1="24.9999" x2="49.9998" y2="24.9999" gradientUnits="userSpaceOnUse"><stop stop-color="#FE93BB"></stop><stop offset="0.5595" stop-color="#925CB4"></stop><stop offset="1" stop-color="#5B3374"></stop></linearGradient><linearGradient id="icon_layer_paint_3" x1="-5.72494" y1="25" x2="33.299" y2="25" gradientUnits="userSpaceOnUse"><stop stop-color="#FE93BB"></stop><stop offset="0.5595" stop-color="#925CB4"></stop><stop offset="1" stop-color="#5B3374"></stop></linearGradient><linearGradient id="icon_layer_paint_4" x1="-4.90194e-05" y1="14.9282" x2="49.9998" y2="14.9282" gradientUnits="userSpaceOnUse"><stop stop-color="#99E6FC"></stop><stop offset="0.4296" stop-color="#01D0FB"></stop><stop offset="0.5256" stop-color="#08C6F7"></stop><stop offset="0.692" stop-color="#1DA9EB"></stop><stop offset="0.9074" stop-color="#3F7CD9"></stop><stop offset="1" stop-color="#4F66D0"></stop></linearGradient><linearGradient id="icon_layer_paint_5" x1="-4.98962" y1="14.9282" x2="44.6571" y2="14.9282" gradientUnits="userSpaceOnUse"><stop stop-color="#99E6FC"></stop><stop offset="0.4296" stop-color="#01D0FB"></stop><stop offset="0.5256" stop-color="#08C6F7"></stop><stop offset="0.692" stop-color="#1DA9EB"></stop><stop offset="0.9074" stop-color="#3F7CD9"></stop><stop offset="1" stop-color="#4F66D0"></stop></linearGradient></defs></svg>