<svg xmlns="http://www.w3.org/2000/svg" width="54" height="48" viewBox="0 0 54 48" fill="none"><path d="M40.6849 6.52881L39.6407 12.3223C45.2362 13.3307 48.9557 18.6842 47.9472 24.2808C46.9387 29.8774 41.5839 33.5968 35.9884 32.5884L34.9445 38.3808C43.74 39.9658 52.1556 34.1204 53.7407 25.3249C55.3257 16.5295 49.4803 8.11387 40.6849 6.52881Z" fill="url(#icon_tea_paint_0)"></path><path d="M40.6849 6.52881L40.4517 7.82248C46.9077 10.8701 50.7863 17.964 49.4597 25.3249C48.1818 32.4156 42.4644 37.5878 35.6879 38.4965C44.2093 39.6328 52.2002 33.8722 53.7407 25.3249C55.3258 16.5295 49.4803 8.11387 40.6849 6.52881Z" fill="url(#icon_tea_paint_1)"></path><path d="M30.4661 47.2217H11.8851C10.6932 47.2217 9.72699 46.2555 9.72699 45.0636V43.2305H32.6242V45.0636C32.6242 46.2554 31.658 47.2217 30.4661 47.2217Z" fill="url(#icon_tea_paint_2)"></path><path d="M0 6.58093V14.4003C0 22.9694 2.25995 31.3868 6.55189 38.8035L8.20874 41.6666C9.39176 43.711 11.5748 44.97 13.9369 44.97H28.4142C30.7762 44.97 32.9592 43.711 34.1423 41.6666L35.7991 38.8035C40.0911 31.3868 42.351 22.9693 42.351 14.4003V6.58093C42.351 3.77018 40.0724 1.4917 37.2618 1.4917H5.08923C2.27859 1.4917 0 3.77018 0 6.58093H0Z" fill="url(#icon_tea_paint_3)"></path><path d="M23.0438 1.4917V11.7637C22.9642 11.8207 22.8864 11.8815 22.8131 11.95L17.3532 17.0574C16.9577 17.4273 16.7332 17.9446 16.7332 18.4862V32.9898C16.7332 34.1691 17.6893 35.1252 18.8687 35.1252H29.866C31.0454 35.1252 32.0014 34.1691 32.0014 32.9898V18.4862C32.0014 17.9446 31.777 17.4273 31.3815 17.0574L25.9216 11.95C25.8482 11.8814 25.7704 11.8207 25.6909 11.7637V1.4917H23.0438Z" fill="url(#icon_tea_paint_4)"></path><path d="M37.262 1.4917H32.9809C35.7917 1.4917 38.0702 3.77029 38.0702 6.58093V14.4003C38.0702 22.9694 35.8102 31.3868 31.5183 38.8035L29.8614 41.6666C28.6784 43.711 26.4953 44.97 24.1333 44.97H28.4143C30.7764 44.97 32.9593 43.7111 34.1425 41.6666L35.7993 38.8035C40.0913 31.3867 42.3512 22.9693 42.3512 14.4003V6.58093C42.3512 3.77018 40.0726 1.4917 37.262 1.4917Z" fill="url(#icon_tea_paint_5)"></path><path d="M25.4457 11.9498L19.9858 17.0571C19.5903 17.4271 19.3658 17.9444 19.3658 18.486V32.9896C19.3658 34.169 20.322 35.125 21.5013 35.125H32.4986C33.6781 35.125 34.6341 34.1689 34.6341 32.9896V18.486C34.6341 17.9444 34.4096 17.4271 34.0141 17.0571L28.5542 11.9498C27.6795 11.1316 26.3203 11.1316 25.4457 11.9498Z" fill="url(#icon_tea_paint_6)"></path><path d="M27.0086 21.8585C28.4725 21.8585 29.9192 22.6335 29.9192 24.2008V27.1459C30.0225 27.7831 30.1431 27.9554 30.4015 27.9554C31.2626 27.9554 31.3316 26.3537 31.3316 25.5959C31.3316 22.5129 30.0399 20.8424 27.1119 20.8424C23.6674 20.8424 22.6857 23.1158 22.6857 25.7337C22.6857 28.1793 23.5469 30.315 26.5953 30.315C27.9387 30.315 28.421 29.9017 28.8171 29.9017C29.2476 29.9017 29.4543 30.4012 29.4543 30.6595C29.4543 31.5035 27.2842 31.7617 26.268 31.7617C23.5468 31.7617 21.015 29.7984 21.015 25.751C21.015 22.1687 22.9956 19.3958 27.0947 19.3958C30.7976 19.3958 32.9849 21.6519 32.9849 25.1654C32.9849 27.4044 32.1065 29.23 30.2465 29.23C29.2132 29.23 28.5242 28.6789 28.3864 27.9211C27.8353 28.6617 27.1463 29.1783 26.2164 29.1783C25.2002 29.1783 24.0636 28.5412 24.0636 27.1461C24.0636 25.5099 25.5964 24.9588 27.5598 24.9588H28.0248V24.735C28.0248 23.9943 27.6287 23.6327 26.7503 23.6327C25.7342 23.6327 25.3553 24.1149 25.0453 24.1149C24.7009 24.1149 24.4425 23.4605 24.4425 23.1333C24.4424 22.4268 25.7686 21.8585 27.0086 21.8585ZM28.1281 26.0264H27.8181C26.7331 26.0264 26.1647 26.4053 26.1647 27.1114C26.1647 27.5592 26.3886 27.8175 26.7503 27.8175C27.3875 27.8175 28.1282 27.1287 28.1282 26.4053V26.0264H28.1281Z" fill="url(#icon_tea_paint_7)"></path><path d="M26.9768 0.000195619C26.2476 0.0125839 25.6765 0.637925 25.6765 1.36724V14.2364C25.6765 14.9674 26.269 15.5599 27 15.5599C27.731 15.5599 28.3235 14.9674 28.3235 14.2364V1.32351C28.3235 0.585301 27.7191 -0.0124044 26.9768 0.000195619Z" fill="url(#icon_tea_paint_8)"></path><defs><linearGradient id="icon_tea_paint_0" x1="36.1833" y1="22.5845" x2="54.0001" y2="22.5845" gradientUnits="userSpaceOnUse"><stop stop-color="#FFE177"></stop><stop offset="1" stop-color="#FEB237"></stop></linearGradient><linearGradient id="icon_tea_paint_1" x1="17.7882" y1="22.5841" x2="50.6871" y2="22.5841" gradientUnits="userSpaceOnUse"><stop stop-color="#FFE177"></stop><stop offset="1" stop-color="#FEB237"></stop></linearGradient><linearGradient id="icon_tea_paint_2" x1="5.2631" y1="45.226" x2="28.1171" y2="45.226" gradientUnits="userSpaceOnUse"><stop stop-color="#FFE177"></stop><stop offset="1" stop-color="#FEB237"></stop></linearGradient><linearGradient id="icon_tea_paint_3" x1="17.6775" y1="23.2308" x2="44.9025" y2="23.2308" gradientUnits="userSpaceOnUse"><stop stop-color="#FFE177"></stop><stop offset="1" stop-color="#FEB237"></stop></linearGradient><linearGradient id="icon_tea_paint_4" x1="3.59999" y1="18.3085" x2="37.9193" y2="18.3085" gradientUnits="userSpaceOnUse"><stop stop-color="#FFE177"></stop><stop offset="1" stop-color="#FEB237"></stop></linearGradient><linearGradient id="icon_tea_paint_5" x1="-7.83523" y1="23.2308" x2="24.1204" y2="23.2308" gradientUnits="userSpaceOnUse"><stop stop-color="#FFE177"></stop><stop offset="1" stop-color="#FEB237"></stop></linearGradient><linearGradient id="icon_tea_paint_6" x1="13.8279" y1="23.2306" x2="37.3888" y2="23.2306" gradientUnits="userSpaceOnUse"><stop stop-color="#99E6FC"></stop><stop offset="0.4296" stop-color="#01D0FB"></stop><stop offset="0.5256" stop-color="#08C6F7"></stop><stop offset="0.692" stop-color="#1DA9EB"></stop><stop offset="0.9074" stop-color="#3F7CD9"></stop><stop offset="1" stop-color="#4F66D0"></stop></linearGradient><linearGradient id="icon_tea_paint_7" x1="21.0151" y1="25.5786" x2="32.9849" y2="25.5786" gradientUnits="userSpaceOnUse"><stop stop-color="#F8F6F7"></stop><stop offset="0.1788" stop-color="#F8F6F7"></stop><stop offset="1" stop-color="#E7E6F5"></stop></linearGradient><linearGradient id="icon_tea_paint_8" x1="24.0353" y1="7.78001" x2="30.8785" y2="7.78001" gradientUnits="userSpaceOnUse"><stop stop-color="#B5ADB6"></stop><stop offset="0.5106" stop-color="#918291"></stop><stop offset="1" stop-color="#554E56"></stop></linearGradient></defs></svg>