<svg xmlns="http://www.w3.org/2000/svg" width="54" height="48" viewBox="0 0 54 48" fill="none"><path d="M27 33.9448C27 41.4006 20.9558 47.4448 13.5 47.4448C6.04419 47.4448 0 41.4006 0 33.9448C0 29.0756 5.75778 20.9506 9.75293 15.8991C11.6651 13.4812 15.3349 13.4812 17.2472 15.8991C21.2422 20.9505 27 29.0756 27 33.9448Z" fill="url(#icon_water_drop_paint_0)"></path><path d="M54 33.9448C54 41.4006 47.9558 47.4448 40.5 47.4448C33.0442 47.4448 27 41.4006 27 33.9448C27 29.0756 32.7578 20.9506 36.7529 15.8991C38.6651 13.4812 42.3349 13.4812 44.2472 15.8991C48.2422 20.9505 54 29.0756 54 33.9448Z" fill="url(#icon_water_drop_paint_1)"></path><path d="M44.2471 15.9C42.9326 14.2379 40.7879 13.7198 38.9542 14.3432C38.9542 14.3432 39.5137 15.3279 39.9661 15.9C43.9611 20.9515 49.719 29.0765 49.719 33.9457C49.719 40.6731 44.798 46.2503 38.3595 47.2761C39.0567 47.3872 39.7715 47.4456 40.5 47.4456C47.9558 47.4456 54 41.4014 54 33.9456C54 29.0765 48.2422 20.9514 44.2471 15.9Z" fill="url(#icon_water_drop_paint_2)"></path><path d="M17.2471 15.9C15.9326 14.2379 13.7879 13.7198 11.9542 14.3432C11.9542 14.3432 12.5137 15.3279 12.9661 15.9C16.9611 20.9515 22.719 29.0765 22.719 33.9457C22.719 40.6731 17.798 46.2503 11.3595 47.2761C12.0567 47.3872 12.7715 47.4456 13.5 47.4456C20.9558 47.4456 27 41.4014 27 33.9456C27 29.0765 21.2422 20.9514 17.2471 15.9Z" fill="url(#icon_water_drop_paint_3)"></path><path d="M40.1823 19.8591C40.1823 27.3149 34.4558 33.3591 27 33.3591C19.5442 33.3591 13.7117 27.3149 13.7117 19.8591C13.7117 18.2878 14.0995 16.3776 15.046 14.3409C17.0324 10.0662 20.547 5.23474 23.2529 1.81337C25.165 -0.604456 28.8349 -0.604456 30.7471 1.81337C33.4721 5.25888 37.0172 10.1343 38.9958 14.4313C39.918 16.4339 40.1823 18.3111 40.1823 19.8591Z" fill="url(#icon_water_drop_paint_4)"></path><path d="M30.7471 1.81259C29.4325 0.150449 27.2879 -0.367634 25.4542 0.255802C25.4542 0.255802 26.0137 1.24051 26.466 1.81259C30.4611 6.86413 36.219 14.9891 36.219 19.8583C36.219 24.0145 34.3407 27.7317 31.3868 30.2079C29.5594 31.7397 27 33.3583 27 33.3583C34.4558 33.3583 40.5 27.3141 40.5 19.8583C40.5 14.9891 34.7422 6.86403 30.7471 1.81259Z" fill="url(#icon_water_drop_paint_5)"></path><path d="M40.5 19.8593C40.5 18.2881 39.8999 16.3777 38.9537 14.3413C38.12 14.6246 37.3506 15.1441 36.7529 15.8998C32.9141 20.7536 27.4488 28.4447 27.027 33.3589C34.4704 33.3442 40.5 27.3061 40.5 19.8593Z" fill="url(#icon_water_drop_paint_6)"></path><path d="M17.2471 15.8998C16.6494 15.1441 15.88 14.6246 15.0463 14.3413C14.1 16.3777 13.5 18.2882 13.5 19.8593C13.5 27.3061 19.5296 33.3443 26.973 33.3589C26.5512 28.4447 21.0858 20.7536 17.2471 15.8998Z" fill="url(#icon_water_drop_paint_7)"></path><path d="M15.0463 14.3413C14.5918 15.3193 14.2184 16.2677 13.9518 17.164C17.4801 21.7547 21.8171 28.1331 22.5956 32.6236C23.968 33.0971 25.4404 33.356 26.973 33.3589C26.5511 28.4447 21.0858 20.7537 17.2471 15.8998C16.6495 15.1441 15.8801 14.6246 15.0463 14.3413Z" fill="url(#icon_water_drop_paint_8)"></path><path d="M40.4999 19.8593C40.4999 18.2881 39.8999 16.3777 38.9536 14.3413C38.1199 14.6246 37.3506 15.1441 36.7529 15.8998C36.4345 16.3024 36.1048 16.7248 35.7678 17.1632C36.0564 18.1333 36.219 19.0419 36.219 19.8586C36.219 24.0148 34.3405 27.7318 31.3865 30.2079C30.1378 31.2546 27.027 33.3589 27.027 33.3589C34.4704 33.3442 40.4999 27.3061 40.4999 19.8593Z" fill="url(#icon_water_drop_paint_9)"></path><defs><linearGradient id="icon_water_drop_paint_0" x1="0" y1="30.7653" x2="27" y2="30.7653" gradientUnits="userSpaceOnUse"><stop stop-color="#FE646F"></stop><stop offset="0.1209" stop-color="#FE556D"></stop><stop offset="0.3524" stop-color="#FE2E69"></stop><stop offset="0.5725" stop-color="#FE0364"></stop><stop offset="1" stop-color="#D2024E"></stop></linearGradient><linearGradient id="icon_water_drop_paint_1" x1="27" y1="30.7653" x2="54" y2="30.7653" gradientUnits="userSpaceOnUse"><stop stop-color="#99E6FC"></stop><stop offset="0.4296" stop-color="#01D0FB"></stop><stop offset="0.5256" stop-color="#08C6F7"></stop><stop offset="0.692" stop-color="#1DA9EB"></stop><stop offset="0.9074" stop-color="#3F7CD9"></stop><stop offset="1" stop-color="#4F66D0"></stop></linearGradient><linearGradient id="icon_water_drop_paint_2" x1="21.0332" y1="30.7667" x2="52.8027" y2="30.7667" gradientUnits="userSpaceOnUse"><stop stop-color="#99E6FC"></stop><stop offset="0.4296" stop-color="#01D0FB"></stop><stop offset="0.5256" stop-color="#08C6F7"></stop><stop offset="0.692" stop-color="#1DA9EB"></stop><stop offset="0.9074" stop-color="#3F7CD9"></stop><stop offset="1" stop-color="#4F66D0"></stop></linearGradient><linearGradient id="icon_water_drop_paint_3" x1="-6.35293" y1="30.7667" x2="13.9834" y2="30.7667" gradientUnits="userSpaceOnUse"><stop stop-color="#FE646F"></stop><stop offset="0.1209" stop-color="#FE556D"></stop><stop offset="0.3524" stop-color="#FE2E69"></stop><stop offset="0.5725" stop-color="#FE0364"></stop><stop offset="1" stop-color="#D2024E"></stop></linearGradient><linearGradient id="icon_water_drop_paint_4" x1="13.7117" y1="16.6796" x2="40.1823" y2="16.6796" gradientUnits="userSpaceOnUse"><stop stop-color="#FFF3BE"></stop><stop offset="0.5725" stop-color="#FFD15B"></stop><stop offset="1" stop-color="#ECA026"></stop></linearGradient><linearGradient id="icon_water_drop_paint_5" x1="10.5033" y1="16.6794" x2="35.0175" y2="16.6794" gradientUnits="userSpaceOnUse"><stop stop-color="#FFF3BE"></stop><stop offset="0.5725" stop-color="#FFD15B"></stop><stop offset="1" stop-color="#ECA026"></stop></linearGradient><linearGradient id="icon_water_drop_paint_6" x1="24.9882" y1="23.8501" x2="43.0677" y2="23.8501" gradientUnits="userSpaceOnUse"><stop stop-color="#FFF3BE"></stop><stop offset="0.5725" stop-color="#BBEC6C"></stop><stop offset="1" stop-color="#81B823"></stop></linearGradient><linearGradient id="icon_water_drop_paint_7" x1="8.04706" y1="23.8501" x2="34.2272" y2="23.8501" gradientUnits="userSpaceOnUse"><stop stop-color="#FFD15B"></stop><stop offset="1" stop-color="#FE0364"></stop></linearGradient><linearGradient id="icon_water_drop_paint_8" x1="6.98822" y1="23.8502" x2="30.2194" y2="23.8502" gradientUnits="userSpaceOnUse"><stop stop-color="#FFD15B"></stop><stop offset="1" stop-color="#FE0364"></stop></linearGradient><linearGradient id="icon_water_drop_paint_9" x1="19.094" y1="23.8501" x2="42.061" y2="23.8501" gradientUnits="userSpaceOnUse"><stop stop-color="#FFF3BE"></stop><stop offset="0.5725" stop-color="#BBEC6C"></stop><stop offset="1" stop-color="#81B823"></stop></linearGradient></defs></svg>