<svg xmlns="http://www.w3.org/2000/svg" width="28" height="28" viewBox="0 0 28 28" fill="none"><path d="M26.7821 3.5238C24.7793 8.51192 19.7594 15.2926 15.5588 18.657L12.9968 20.7094C12.6717 20.9433 12.3466 21.1511 11.9825 21.294C11.9825 21.0602 11.9694 20.8004 11.9304 20.5536C11.7874 19.4624 11.2932 18.4492 10.4219 17.5789C9.53752 16.6956 8.45811 16.176 7.35269 16.0331C7.09259 16.0201 6.83249 15.9941 6.57239 16.0201C6.71544 15.6174 6.93653 15.2407 7.20963 14.9289L9.23841 12.3699C12.5937 8.17418 19.4083 3.1341 24.3892 1.14665C25.1565 0.860868 25.8978 1.06871 26.3659 1.54933C26.8601 2.02996 27.0942 2.77038 26.7821 3.5238Z" stroke="#292D32" stroke-width="2" stroke-linecap="round" stroke-linejoin="round"></path><path d="M11.9826 21.293C11.9826 22.7218 11.4364 24.0858 10.409 25.125C9.61569 25.9174 8.53628 26.4629 7.24879 26.6318L4.04956 26.9825C2.3069 27.1774 0.811327 25.6965 1.01941 23.9299L1.37054 20.7344C1.68266 17.8896 4.06257 16.071 6.58553 16.0191C6.84563 16.0061 7.11874 16.0191 7.36583 16.032C8.47125 16.1749 9.55066 16.6815 10.435 17.5778C11.3063 18.4482 11.8005 19.4614 11.9436 20.5525C11.9566 20.7993 11.9826 21.0461 11.9826 21.293Z" stroke="#292D32" stroke-width="2" stroke-linecap="round" stroke-linejoin="round"></path><path d="M16.9376 17.2023C16.9376 13.812 14.1806 11.0581 10.7863 11.0581" stroke="#292D32" stroke-width="2" stroke-linecap="round" stroke-linejoin="round"></path><path d="M24.5843 14.9424L25.5467 15.8906C27.4844 17.8261 27.4844 19.7357 25.5467 21.6712L21.6972 25.5162C19.7855 27.4257 17.8478 27.4257 15.936 25.5162" stroke="#292D32" stroke-width="2" stroke-linecap="round"></path><path d="M2.46297 12.0577C0.551242 10.1222 0.551242 8.21264 2.46297 6.27715L6.31244 2.43214C8.22417 0.522621 10.1619 0.522621 12.0736 2.43214L13.036 3.39339" stroke="#292D32" stroke-width="2" stroke-linecap="round"></path><path d="M13.0491 3.40576L8.2373 8.21203" stroke="#292D32" stroke-width="2" stroke-linecap="round"></path><path d="M24.5845 14.9424L20.735 18.7744" stroke="#292D32" stroke-width="2" stroke-linecap="round"></path></svg>