<svg xmlns="http://www.w3.org/2000/svg" width="85" height="100" viewBox="0 0 85 100" fill="none"><path d="M27.3553 72.4069V76.5175C27.3553 77.311 27.9985 77.9542 28.7921 77.9542H81.9663C82.7596 77.9542 83.403 77.311 83.403 76.5175V72.4069C83.403 71.6134 82.7598 70.9702 81.9663 70.9702H28.7921C27.9987 70.9704 27.3553 71.6136 27.3553 72.4069Z" fill="#C5D3DD"></path><path d="M27.3553 72.4069V76.5175C27.3553 77.311 27.9985 77.9542 28.7921 77.9542H68.5735C69.3671 77.9542 70.0102 77.311 70.0102 76.5175V72.4069C70.0102 71.6134 69.3671 70.9702 68.5735 70.9702H28.7921C27.9987 70.9704 27.3553 71.6136 27.3553 72.4069Z" fill="#FE7AB6"></path><path d="M1.46509 72.3373V76.5879C1.46509 77.3428 2.077 77.9545 2.83169 77.9545H17.3739C18.1288 77.9545 18.7405 77.3426 18.7405 76.5879V72.3373C18.7405 71.5824 18.1286 70.9707 17.3739 70.9707H2.83169C2.077 70.9707 1.46509 71.5824 1.46509 72.3373Z" fill="#0ED2B3"></path><path d="M27.3553 86.3166V90.4271C27.3553 91.2205 27.9985 91.8639 28.7921 91.8639H81.9663C82.7596 91.8639 83.403 91.2207 83.403 90.4271V86.3166C83.403 85.5232 82.7598 84.8799 81.9663 84.8799H28.7921C27.9987 84.8801 27.3553 85.5232 27.3553 86.3166Z" fill="#C5D3DD"></path><path d="M27.3553 86.3166V90.4271C27.3553 91.2205 27.9985 91.8639 28.7921 91.8639H59.7413C60.5348 91.8639 61.178 91.2207 61.178 90.4271V86.3166C61.178 85.5232 60.5348 84.8799 59.7413 84.8799H28.7921C27.9987 84.8801 27.3553 85.5232 27.3553 86.3166Z" fill="#FE7AB6"></path><path d="M1.46509 86.2465V90.4971C1.46509 91.252 2.077 91.8637 2.83169 91.8637H17.3739C18.1288 91.8637 18.7405 91.2518 18.7405 90.4971V86.2465C18.7405 85.4916 18.1286 84.8799 17.3739 84.8799H2.83169C2.077 84.8799 1.46509 85.4916 1.46509 86.2465Z" fill="#FE9738"></path><path d="M46.1082 99.9995C45.299 99.9995 44.6433 99.3438 44.6433 98.5347V62.6294C44.6433 61.8202 45.299 61.1646 46.1082 61.1646C46.9173 61.1646 47.573 61.8202 47.573 62.6294V98.5347C47.573 99.3438 46.9171 99.9995 46.1082 99.9995Z" fill="#596C76"></path><path d="M48.9848 55.5977H43.2315C42.0403 55.5977 41.0712 56.5668 41.0712 57.758V63.1555C41.0712 63.7967 41.3532 64.4006 41.845 64.8119L43.9637 66.5852C44.585 67.1053 45.3466 67.3652 46.1081 67.3652C46.8696 67.3652 47.6315 67.1051 48.2526 66.5852L50.3712 64.8121C50.863 64.4006 51.145 63.7967 51.145 63.1555V57.758C51.1452 56.5668 50.1761 55.5977 48.9848 55.5977Z" fill="#01C0FA"></path><path d="M77.8986 49.59H6.96914C3.9293 49.59 1.46484 47.1258 1.46484 44.0857V6.96914C1.46504 3.9293 3.9293 1.46484 6.96934 1.46484H77.8988C80.9387 1.46484 83.4031 3.9293 83.4031 6.96914V44.0859C83.4029 47.1258 80.9387 49.59 77.8986 49.59Z" fill="#E8EDF2"></path><path d="M77.8986 1.46484H73.2111C76.2509 1.46484 78.7154 3.9293 78.7154 6.96914V44.0859C78.7154 47.1258 76.2511 49.5902 73.2111 49.5902H77.8986C80.9384 49.5902 83.4029 47.126 83.4029 44.0859V6.96914C83.4029 3.9293 80.9386 1.46484 77.8986 1.46484Z" fill="#C5D3DD"></path><path d="M77.8986 51.0549H6.96934C3.12637 51.0549 0 47.9285 0 44.0857V6.96914C0 3.12637 3.12637 0 6.96934 0H77.8986C81.7416 0 84.868 3.12637 84.868 6.96914V44.0859C84.868 47.9287 81.7416 51.0549 77.8986 51.0549ZM6.96934 2.92969C4.74199 2.92969 2.92969 4.7416 2.92969 6.96914V44.0859C2.92969 46.3133 4.7418 48.1254 6.96934 48.1254H77.8986C80.126 48.1254 81.9383 46.3135 81.9383 44.0859V6.96914C81.9383 4.7418 80.1262 2.92969 77.8986 2.92969H6.96934Z" fill="#0ED2B3"></path><path d="M64.5828 30.7678C68.3193 30.6257 71.2331 27.4814 71.0909 23.7449C70.9488 20.0085 67.8046 17.0947 64.0681 17.2368C60.3316 17.3789 57.4178 20.5232 57.56 24.2596C57.7021 27.9961 60.8463 30.9099 64.5828 30.7678Z" fill="#01C0FA"></path><path d="M67.9855 18.2632C68.3423 19.0874 68.5411 19.996 68.5411 20.9513C68.5411 24.6915 65.5091 27.7235 61.7689 27.7235C60.4323 27.7235 59.1874 27.3349 58.1378 26.6665C59.1782 29.0692 61.5695 30.7509 64.3544 30.7509C68.0946 30.7509 71.1267 27.7188 71.1267 23.9786C71.1267 21.5747 69.8734 19.4649 67.9855 18.2632Z" fill="#0290CF"></path><path d="M51.3488 23.8837C52.158 23.8837 52.8137 23.228 52.8137 22.4188C52.8137 21.6097 52.158 20.954 51.3488 20.954C45.8426 20.954 40.5582 23.2837 36.815 27.2759C34.6709 23.5938 31.6852 20.4604 28.0766 18.1364C23.723 15.3323 18.6729 13.8501 13.4717 13.8501C12.6625 13.8501 12.0068 14.5058 12.0068 15.3149C12.0068 16.1241 12.6625 16.7798 13.4717 16.7798C18.109 16.7798 22.6107 18.1007 26.4902 20.5995C30.3148 23.0632 33.3285 26.5593 35.2225 30.519C35.6918 31.4929 37.041 31.646 37.7061 30.7696C41.1281 26.2374 46.224 23.8837 51.3488 23.8837Z" fill="#596C76"></path><path d="M51.3488 27.0586C48.5867 27.0586 45.9187 27.8734 43.632 29.416C40.8889 31.2709 38.9012 34.0418 38.0355 37.2176C37.8228 37.998 38.2832 38.8033 39.0637 39.0162C39.1926 39.0514 39.3223 39.0682 39.45 39.0682C40.0943 39.0682 40.6846 38.6398 40.8623 37.9883C41.5437 35.4879 43.1103 33.3055 45.2719 31.8439C47.0715 30.6299 49.1728 29.9883 51.3488 29.9883C52.158 29.9883 52.8137 29.3326 52.8137 28.5234C52.8137 27.7143 52.1578 27.0586 51.3488 27.0586Z" fill="#596C76"></path><path d="M27.0257 24.9571C23.247 21.7312 18.4333 19.9546 13.4714 19.9546C12.6623 19.9546 12.0066 20.6103 12.0066 21.4194C12.0066 22.2286 12.6623 22.8843 13.4714 22.8843C17.7367 22.8843 21.8748 24.4116 25.1236 27.1853C28.3373 29.9288 30.4921 33.7153 31.1916 37.8474C31.3125 38.5622 31.9324 39.0679 32.6341 39.0679C32.7152 39.0679 32.7976 39.0612 32.8804 39.0472C33.6781 38.9122 34.2152 38.156 34.0802 37.3585C33.2666 32.5503 30.7611 28.146 27.0257 24.9571Z" fill="#596C76"></path></svg>