<svg xmlns="http://www.w3.org/2000/svg" width="56" height="56" viewBox="0 0 56 56"><path id="pattern" d="M735.578,13.982a2.16,2.16,0,1,1,2.161-2.161A2.16,2.16,0,0,1,735.578,13.982Zm2.161,10.759a2.16,2.16,0,1,0-2.161,2.161A2.161,2.161,0,0,0,737.739,24.741Zm0,12.92a2.16,2.16,0,1,0-2.161,2.16A2.161,2.161,0,0,0,737.739,37.661Zm0,12.92a2.16,2.16,0,1,0-2.161,2.16A2.161,2.161,0,0,0,737.739,50.581Zm0,12.919a2.16,2.16,0,1,0-2.161,2.161A2.161,2.161,0,0,0,737.739,63.5Zm-12.92-51.679a2.16,2.16,0,1,0-2.161,2.161A2.161,2.161,0,0,0,724.819,11.821Zm0,12.92a2.16,2.16,0,1,0-2.161,2.161A2.161,2.161,0,0,0,724.819,24.741Zm0,12.92a2.16,2.16,0,1,0-2.161,2.16A2.161,2.161,0,0,0,724.819,37.661Zm0,12.92a2.16,2.16,0,1,0-2.161,2.16A2.161,2.161,0,0,0,724.819,50.581Zm0,12.919a2.16,2.16,0,1,0-2.161,2.161A2.161,2.161,0,0,0,724.819,63.5ZM711.9,11.821a2.16,2.16,0,1,0-2.16,2.161A2.161,2.161,0,0,0,711.9,11.821Zm0,12.92a2.16,2.16,0,1,0-2.16,2.161A2.161,2.161,0,0,0,711.9,24.741Zm0,12.92a2.16,2.16,0,1,0-2.16,2.16A2.161,2.161,0,0,0,711.9,37.661Zm0,12.92a2.16,2.16,0,1,0-2.16,2.16A2.161,2.161,0,0,0,711.9,50.581Zm0,12.919a2.16,2.16,0,1,0-2.16,2.161A2.161,2.161,0,0,0,711.9,63.5Zm-12.92-51.679a2.16,2.16,0,1,0-2.16,2.161A2.16,2.16,0,0,0,698.979,11.821Zm0,12.92a2.16,2.16,0,1,0-2.16,2.161A2.16,2.16,0,0,0,698.979,24.741Zm0,12.92a2.16,2.16,0,1,0-2.16,2.16A2.16,2.16,0,0,0,698.979,37.661Zm0,12.92a2.16,2.16,0,1,0-2.16,2.16A2.16,2.16,0,0,0,698.979,50.581Zm0,12.919a2.16,2.16,0,1,0-2.16,2.161A2.16,2.16,0,0,0,698.979,63.5Zm-12.92-51.679a2.16,2.16,0,1,0-2.16,2.161A2.16,2.16,0,0,0,686.059,11.821Zm0,12.92A2.16,2.16,0,1,0,683.9,26.9,2.16,2.16,0,0,0,686.059,24.741Zm0,12.92a2.16,2.16,0,1,0-2.16,2.16A2.16,2.16,0,0,0,686.059,37.661Zm0,12.92a2.16,2.16,0,1,0-2.16,2.16A2.16,2.16,0,0,0,686.059,50.581Zm0,12.919a2.16,2.16,0,1,0-2.16,2.161A2.16,2.16,0,0,0,686.059,63.5Z" transform="translate(-681.739 -9.661)" fill="#fff" opacity="0.3"></path></svg>