<svg xmlns="http://www.w3.org/2000/svg" width="60" height="107" viewBox="0 0 60 107" fill="none"><g style="mix-blend-mode:multiply" opacity="0.14"><path d="M0.436096 105.394C0.436096 105.947 13.2137 106.395 28.9764 106.395C44.7391 106.395 57.5168 105.947 57.5168 105.394C57.5168 104.841 44.7391 104.394 28.9764 104.394C13.2137 104.394 0.436096 104.842 0.436096 105.394Z" fill="#021343"></path></g><path d="M28.9322 15.043C29.1755 14.4621 30.4451 9.8691 29.8366 9.70652L25.5712 8.57084C25.1564 8.45966 23.8581 10.095 23.7236 10.4973C23.7141 10.5272 23.3991 11.6229 23.4015 11.6539C23.2701 12.7037 23.0052 13.7323 22.613 14.7149C22.4393 15.0096 22.204 15.2635 21.9233 15.4591C21.4749 15.7851 20.993 16.0622 20.4857 16.2857C20.4489 16.3022 20.4172 16.3283 20.3938 16.3612C20.3705 16.3941 20.3563 16.4326 20.3529 16.4728C20.3495 16.513 20.3569 16.5534 20.3744 16.5898C20.3919 16.6261 20.4187 16.6572 20.4523 16.6796C21.8904 17.6569 27.4726 21.3419 29.2419 20.9498C31.2168 20.5141 27.4558 18.584 28.9322 15.043Z" fill="#DB928D"></path><path d="M33.4319 7.61337C33.4319 12.3474 33.1456 17.9906 30.2221 16.7276C27.2849 15.4598 21.9764 13.7222 21.9764 8.98816C21.9764 4.25415 22.6788 0.415527 27.7415 0.415527C30.9256 0.415527 33.4319 2.87876 33.4319 7.61337Z" fill="#F8B7B0"></path><path d="M44.2974 98.5209L41.2579 99.5032C41.1916 99.5246 41.1552 99.5957 41.1767 99.662L41.9711 102.12C41.9925 102.186 42.0636 102.223 42.1299 102.201L45.1694 101.219C45.2357 101.198 45.272 101.127 45.2506 101.06L44.4562 98.6021C44.4347 98.5358 44.3636 98.4995 44.2974 98.5209Z" fill="#FFA272"></path><path d="M41.472 101.668C41.472 101.668 42.09 104.848 42.579 105.097C43.0679 105.346 45.3781 104.601 46.5515 103.814C47.7248 103.026 48.8964 103.362 51.298 102.586C52.0955 102.326 52.8582 101.969 53.5694 101.524C53.5694 101.524 53.7965 100.03 51.46 100.379C49.1235 100.728 46.3309 100.609 45.7218 100.295C45.1127 99.9821 44.093 101.331 41.472 101.668Z" fill="#FF3C88"></path><path d="M10.2486 96.9757L7.56136 95.2488C7.50276 95.2112 7.42473 95.2282 7.38708 95.2868L5.99044 97.4601C5.95279 97.5187 5.96976 97.5967 6.02836 97.6344L8.71558 99.3613C8.77418 99.3989 8.85221 99.3819 8.88987 99.3233L10.2865 97.15C10.3242 97.0914 10.3072 97.0134 10.2486 96.9757Z" fill="#FFA272"></path><path d="M6.01958 96.7822C6.01958 96.7822 3.95503 99.2777 4.07219 99.8133C4.18934 100.349 6.2306 101.662 7.58326 102.07C8.93592 102.479 9.59999 105.129 12.1188 105.298C15.3376 105.511 15.0316 105.298 15.0316 105.298C15.0316 105.298 15.6891 104.342 12.8929 103.254C10.6616 102.385 9.92335 99.8689 9.77631 99.1976C9.62927 98.5264 7.94606 98.5993 6.01958 96.7822Z" fill="#FF3C88"></path><path d="M17.1654 50.9535C16.9861 56.5022 15.3124 69.5513 15.4547 71.3152C15.5969 73.0791 23.579 77.8967 24.469 74.6027C25.359 71.3086 30.3549 52.8997 32.5934 45.8979C34.8318 38.8961 20.7637 39.984 20.7637 39.984C20.7637 39.984 17.5282 39.6744 17.1654 50.9535Z" fill="#1876AA"></path><path d="M11.5784 81.0075C9.69139 85.8742 6.55749 92.0201 6.11218 93.57C5.66687 95.1199 10.3561 99.5114 12.0895 96.6369C13.8229 93.7624 22.4081 81.1898 24.5766 74.2562C26.2676 68.8569 16.4338 68.1719 16.4338 68.1719C16.4338 68.1719 15.4152 71.1181 11.5784 81.0075Z" fill="#1876AA"></path><path d="M21.3195 54.1319C23.9346 59.0291 28.9926 71.1749 29.9967 72.631C31.0009 74.0871 40.3219 74.2813 39.448 70.9806C38.5742 67.68 33.72 49.2347 32.1677 42.0506C30.6154 34.8665 18.9645 42.8276 18.9645 42.8276C18.9645 42.8276 16.0093 44.1743 21.3195 54.1319Z" fill="#1E8FDC"></path><path d="M34.7517 34.818C39.6328 34.9256 47.1492 33.9322 48.5592 33.1283C49.9693 32.3243 49.7021 29.5096 48.0595 29.5861C46.417 29.6626 38.1886 29.0667 35.6573 29.885" fill="#FFA272"></path><path d="M33.5019 84.3643C35.0607 89.344 37.9472 97.3255 38.5682 98.8138C39.1892 100.302 45.5921 100.81 45.151 97.4832C44.7099 94.1569 42.0805 77.7516 39.4505 70.9806C37.4032 65.7044 29.2891 71.3027 29.2891 71.3027C29.2891 71.3027 30.3315 74.2418 33.5019 84.3643Z" fill="#1E8FDC"></path><path d="M18.1468 27.4881C16.0548 31.8043 15.4463 35.7732 14.6962 36.8073C12.4021 39.9753 12.0327 38.4463 10.5419 37.1062C10.2578 36.8697 10.0455 36.5583 9.92933 36.2073C9.81312 35.8564 9.79756 35.4799 9.88444 35.1205C11.047 31.3375 13.3017 21.6818 15.6639 19.1414C18.2532 16.3584 19.6089 16.0769 21.9209 15.4624C21.9209 15.4624 25.7422 18.2717 28.5993 17.1223C29.6243 17.558 30.4399 18.375 30.8737 19.4008C33.2048 25.42 33.1385 28.1378 33.0088 31.6328C32.851 35.9191 32.2264 39.7744 32.5557 41.4702C33.0608 44.0655 33.1654 44.8605 32.1026 45.0063C31.0267 45.1546 18.4463 45.5479 18.2526 44.5126C18.2216 44.3446 17.7057 44.1904 17.7021 43.7033C17.6836 41.3261 19.31 35.4236 18.3596 30.6196C18.1987 29.7927 18.1234 28.9515 18.1349 28.1091L18.1468 27.4881Z" fill="#FFA272"></path><path d="M29.5491 4.35466C29.5491 4.35466 33.4283 5.71748 34.1414 5.11497C34.5287 4.75856 34.858 4.34394 35.1175 3.88604C35.1308 3.86351 35.1362 3.83726 35.1331 3.81131C35.13 3.78536 35.1185 3.76114 35.1004 3.74236C35.0822 3.72357 35.0583 3.71127 35.0325 3.70731C35.0067 3.70336 34.9803 3.70798 34.9573 3.72047C34.8359 3.79098 34.7029 3.83954 34.5646 3.86392C34.1366 3.93445 33.3166 2.46583 31.9346 1.68161C31.9154 1.67042 31.8997 1.65412 31.8893 1.63453C31.8789 1.61493 31.8741 1.59282 31.8756 1.57066C31.877 1.54851 31.8845 1.52719 31.8974 1.5091C31.9102 1.49101 31.9279 1.47686 31.9484 1.46822C32.1754 1.38818 32.3849 1.26498 32.5652 1.1054C32.781 0.860932 30.5784 1.14843 29.2131 0.442517C27.8479 -0.263401 22.9167 -0.207801 22.4534 1.21958" fill="#1C1E38"></path><path d="M27.3375 10.1754C27.3375 10.1754 31.0572 6.68046 30.365 4.9847C29.6728 3.28894 26.2407 0.853804 23.108 1.10545C19.9753 1.35709 19.8498 5.34454 20.7769 7.70856C21.3273 9.11453 21.9637 10.4853 22.6824 11.8131C22.6824 11.8131 25.4272 9.94704 27.3375 10.1754Z" fill="#1C1E38"></path><path d="M28.2711 9.07706C28.4971 10.0161 28.081 10.9223 27.3404 11.101C26.5999 11.2797 25.8163 10.6628 25.5903 9.72619C25.3644 8.78955 25.7804 7.881 26.5198 7.70348C27.2592 7.52595 28.044 8.13803 28.2711 9.07706Z" fill="#F8B7B0"></path><path d="M-3.0634e-05 43.2992L4.87427 53.2788L60 26.3541L55.1257 16.3744L-3.0634e-05 43.2992Z" fill="#FF3C88"></path><path d="M50.0804 32.2569C48.8497 32.8086 46.8999 33.7883 46.4654 32.817C46.0308 31.8457 47.0577 31.0005 48.2897 30.45C49.5216 29.8995 51.2753 29.7536 51.7093 30.7238C52.1432 31.6939 51.3124 31.707 50.0804 32.2569Z" fill="#F8B7B0"></path><path d="M20.383 41.6173C20.1517 41.9919 19.8593 42.3253 19.5181 42.6035C20.4754 43.3321 21.4919 43.9795 22.5569 44.539C23.3895 44.9412 24.2995 45.1575 25.224 45.1732C26.5115 45.267 27.7452 45.2252 28.2467 43.5593C28.6514 42.2126 26.9042 41.3005 25.9156 41.3513C24.9269 41.4021 23.2742 41.949 22.524 41.6573C21.903 41.3937 21.2998 41.0898 20.7183 40.7476C20.6459 41.0511 20.5331 41.3437 20.383 41.6173Z" fill="#F8B7B0"></path><path d="M12.7547 32.4707C16.573 35.5155 21.1767 39.4498 21.7446 40.9704C22.3124 42.491 19.8647 45.4097 18.6519 44.2992C17.4391 43.1886 11.7111 39.09 10.2915 36.8413" fill="#FFA272"></path></svg>