<svg xmlns="http://www.w3.org/2000/svg" viewBox="0 0 50 50" width="50px" height="50px"><path d="M 41.087891 0 L 19 22 L 26 22 L 17 33 L 22 33 L 11.087891 50 L 33 28 L 27 28 L 36 17 L 30 17 L 41.087891 0 z M 25 2 C 12.318 2 2 12.318 2 25 C 2 33.038 6.1461563 40.120375 12.410156 44.234375 L 13.494141 42.548828 C 7.7841406 38.790828 4 32.332 4 25 C 4 13.42 13.42 4 25 4 C 27.733 4 30.339328 4.5401406 32.736328 5.4941406 L 34.275391 3.9609375 C 31.436391 2.7039375 28.3 2 25 2 z M 39.039062 6.8007812 L 37.935547 8.4921875 C 42.835547 12.340187 46 18.301 46 25 C 46 36.58 36.58 46 25 46 C 22.85 46 20.774312 45.671359 18.820312 45.068359 L 17.244141 46.650391 C 19.668141 47.521391 22.28 48 25 48 C 37.682 48 48 37.682 48 25 C 48 17.601 44.484063 11.010781 39.039062 6.8007812 z"></path></svg>