<svg xmlns="http://www.w3.org/2000/svg" xmlns:xlink="http://www.w3.org/1999/xlink" viewBox="0,0,256,256" width="48px" height="48px"><defs><linearGradient x1="7.773" y1="6.952" x2="29.818" y2="27.783" gradientUnits="userSpaceOnUse" id="color-1"><stop offset="0" stop-color="#000000"></stop><stop offset="1" stop-color="#000000"></stop></linearGradient><linearGradient x1="25.124" y1="14.251" x2="32.304" y2="35.285" gradientUnits="userSpaceOnUse" id="color-2"><stop offset="0.003" stop-color="#000000"></stop><stop offset="1" stop-color="#000000"></stop></linearGradient></defs><g fill="none" fill-rule="nonzero" stroke="none" stroke-width="1" stroke-linecap="butt" stroke-linejoin="miter" stroke-miterlimit="10" stroke-dasharray="" stroke-dashoffset="0" font-family="none" font-weight="none" font-size="none" text-anchor="none" style="mix-blend-mode: normal"><g transform="scale(5.33333,5.33333)"><path d="M24,6c-13.255,0 -24,7.291 -24,16.286c0,8.995 10.745,16.286 24,16.286c13.255,0 24,-7.291 24,-16.286c0,-8.995 -10.745,-16.286 -24,-16.286zM26.5,35c-10.217,0 -18.5,-5.373 -18.5,-12c0,-6.627 8.283,-12 18.5,-12c10.217,0 18.5,5.373 18.5,12c0,6.627 -8.283,12 -18.5,12z" fill="url(#color-1)"></path><path d="M39.051,33.469c-0.578,-0.945 -1.437,-1.669 -2.442,-2.105c3.401,-0.841 5.926,-3.904 5.926,-7.564c0,-4.307 -3.493,-7.8 -7.8,-7.8h-14.734v26h6.933v-10.4h1.955c0.967,0 1.856,0.525 2.321,1.373l4.965,9.027h8.093zM26.935,21.2h6.067c1.435,0 2.6,1.165 2.6,2.6c0,1.435 -1.165,2.6 -2.6,2.6h-6.067z" fill="url(#color-2)"></path></g></g></svg>