<svg xmlns="http://www.w3.org/2000/svg" viewBox="0 0 50 50" width="50px" height="50px"><path d="M 25 2 C 12.308594 2 2 12.308594 2 25 C 2 37.691406 12.308594 48 25 48 C 37.691406 48 48 37.691406 48 25 C 48 12.308594 37.691406 2 25 2 Z M 25 4 C 36.609375 4 46 13.390625 46 25 C 46 36.609375 36.609375 46 25 46 C 13.390625 46 4 36.609375 4 25 C 4 13.390625 13.390625 4 25 4 Z M 22.28125 19.125 L 17.3125 23.03125 C 16.710938 21.519531 15.105469 20.09375 12.875 20.09375 L 8.625 20.09375 L 8.625 29.5625 L 12.875 29.5625 C 14.875 29.5625 16.597656 28.347656 17.3125 26.625 L 22.28125 30.53125 L 27.71875 26.28125 L 27.71875 29.5625 L 34.3125 29.5625 L 34.3125 26.78125 L 31 26.78125 L 31 20.09375 L 27.71875 20.09375 L 27.71875 23.375 L 23.15625 26.96875 L 22.28125 26.28125 L 26.84375 22.6875 L 25 21.25 L 20.4375 24.8125 L 19.5625 24.125 L 24.125 20.5625 Z M 35.1875 20.09375 L 35.1875 29.5625 L 41.78125 29.5625 L 41.78125 26.78125 L 38.46875 26.78125 L 38.46875 20.09375 Z M 11.8125 22.8125 L 12.53125 22.8125 C 13.730469 22.8125 14.59375 23.527344 14.59375 24.8125 C 14.59375 26.214844 13.648438 26.84375 12.53125 26.84375 L 11.8125 26.84375 Z"></path></svg>