<svg xmlns="http://www.w3.org/2000/svg" xmlns:xlink="http://www.w3.org/1999/xlink" width="48px" height="48px" viewBox="0,0,256,256"><g fill="none" fill-rule="nonzero" stroke="none" stroke-width="1" stroke-linecap="butt" stroke-linejoin="miter" stroke-miterlimit="10" stroke-dasharray="" stroke-dashoffset="0" font-family="none" font-weight="none" font-size="none" text-anchor="none" style="mix-blend-mode: normal"><g transform="scale(5.33333,5.33333)"><path d="M24,4.004c-0.588,-0.012 -9.196,-0.135 -15.023,2.953l0.049,21.354c0,0 -0.344,3.739 6.003,8.611l8.971,7.078z" fill="#000000"></path><path d="M24,4.004c0.588,-0.012 9.196,-0.135 15.023,2.953l-0.049,21.354c0,0 0.344,3.739 -6.003,8.611l-8.971,7.078z" fill="#000000"></path><path d="M24.022,15.788l-7.339,-6.772h-4.713v16.081c0,0 -0.147,1.547 0.457,3.342c0.314,0.933 0.889,1.911 1.671,2.822c0.691,0.805 2.902,2.68 2.902,2.68v-17.736l4.008,4.369v7.426l3.007,-0.003h0.016" fill="#ffffff"></path><path d="M24.038,15.788l7.339,-6.772h4.607v16.081c0,0 0.147,1.547 -0.457,3.342c-0.314,0.933 -0.783,1.911 -1.564,2.822c-0.691,0.805 -2.935,2.751 -2.935,2.751v-17.737l-4.078,4.299v7.426l-2.903,-0.003h-0.017" fill="#ffffff"></path></g></g></svg>