<svg xmlns="http://www.w3.org/2000/svg" viewBox="0 0 64 64"><path d="M 49.215 14.871 C 42.355 14.904 37.141 19.441 35.189 26.671 C 31.914 21.631 29.359 15.866 27.894 10.999 L 20.674 11.033 L 20.774 30.171 C 20.799 35.453 15.097 38.781 10.511 36.162 C 8.382 34.946 7.064 32.687 7.052 30.236 L 6.952 11.098 L -0.272 11.133 L -0.172 30.272 C -0.144 38.214 6.202 44.507 13.968 44.467 C 21.734 44.427 28.023 38.081 27.988 30.137 L 27.973 26.887 C 29.429 29.767 31.249 32.827 33.249 35.527 L 28.834 56.671 L 36.234 56.637 L 39.414 41.275 C 42.31 43.068 45.564 44.135 49.354 44.117 C 57.298 44.082 63.768 37.554 63.728 29.247 C 63.692 21.301 57.16 14.834 49.216 14.87 L 49.215 14.871 Z M 49.318 36.717 C 46.43 36.73 43.536 35.481 41.18 33.504 L 41.888 30.604 L 41.888 30.422 C 42.416 27.348 44.014 22.106 49.43 22.082 C 53.414 22.075 56.657 25.286 56.687 29.27 C 56.524 33.423 53.11 36.69 49.317 36.707 L 49.318 36.717 Z" style="fill: rgb(79, 79, 79);"></path></svg>