<svg xmlns="http://www.w3.org/2000/svg" xmlns:xlink="http://www.w3.org/1999/xlink" width="1000" viewBox="0 0 750 74.999997" height="100" preserveAspectRatio="xMidYMid meet"><defs><clipPath id="846cd68e15"><path d="M 440 5 L 749.988281 5 L 749.988281 64 L 440 64 Z M 440 5 " clip-rule="nonzero"></path></clipPath><clipPath id="47e0185028"><path d="M 440 16 L 749.988281 16 L 749.988281 75 L 440 75 Z M 440 16 " clip-rule="nonzero"></path></clipPath></defs><path fill="#111111" d="M 309.585938 16.011719 L 309.585938 63.300781 L 0.507812 63.300781 L 0.507812 19.082031 C 9.644531 14.824219 22.203125 12.84375 36.839844 20.164062 C 66.53125 35.011719 90.824219 11.617188 111.96875 6.667969 C 133.113281 1.71875 145.710938 5.320312 175.402344 19.714844 C 205.097656 34.109375 235.6875 54.355469 263.582031 41.757812 C 285.710938 31.761719 294.535156 18.09375 309.585938 16.011719 " fill-opacity="1" fill-rule="evenodd"></path><path fill="#111111" d="M 309.585938 27.710938 L 309.585938 75 L 0.507812 75 L 0.507812 30.78125 C 9.644531 26.519531 22.203125 24.542969 36.839844 31.863281 C 66.53125 46.707031 90.824219 23.3125 111.96875 18.367188 C 133.113281 13.417969 145.710938 17.015625 175.402344 31.410156 C 205.097656 45.808594 235.6875 66.054688 263.582031 53.457031 C 285.710938 43.460938 294.535156 29.789062 309.585938 27.710938 " fill-opacity="1" fill-rule="evenodd"></path><path fill="#111111" d="M 607.828125 16.488281 L 607.828125 63.714844 L 299.144531 63.714844 L 299.144531 19.550781 C 308.269531 15.296875 320.8125 13.324219 335.429688 20.632812 C 365.082031 35.460938 389.347656 12.097656 410.464844 7.152344 C 431.582031 2.210938 444.160156 5.804688 473.816406 20.183594 C 503.46875 34.5625 534.023438 54.78125 561.878906 42.199219 C 583.980469 32.21875 592.792969 18.566406 607.828125 16.488281 " fill-opacity="1" fill-rule="evenodd"></path><path fill="#111111" d="M 607.828125 28.167969 L 607.828125 75.398438 L 299.144531 75.398438 L 299.144531 31.234375 C 308.269531 26.980469 320.8125 25.003906 335.429688 32.316406 C 365.082031 47.140625 389.347656 23.777344 410.464844 18.835938 C 431.582031 13.894531 444.160156 17.488281 473.816406 31.867188 C 503.46875 46.242188 534.023438 66.460938 561.878906 53.882812 C 583.980469 43.898438 592.792969 30.246094 607.828125 28.167969 " fill-opacity="1" fill-rule="evenodd"></path><g clip-path="url(#846cd68e15)"><path fill="#111111" d="M 440.402344 16.503906 L 440.402344 63.792969 L 749.484375 63.792969 L 749.484375 19.574219 C 740.34375 15.3125 727.785156 13.335938 713.148438 20.65625 C 683.457031 35.503906 659.164062 12.109375 638.019531 7.160156 C 616.875 2.210938 604.277344 5.8125 574.585938 20.207031 C 544.894531 34.601562 514.300781 54.847656 486.410156 42.25 C 464.28125 32.253906 455.457031 18.585938 440.402344 16.503906 " fill-opacity="1" fill-rule="evenodd"></path></g><g clip-path="url(#47e0185028)"><path fill="#111111" d="M 440.402344 28.203125 L 440.402344 75.492188 L 749.484375 75.492188 L 749.484375 31.269531 C 740.34375 27.011719 727.785156 25.035156 713.148438 32.355469 C 683.457031 47.199219 659.164062 23.804688 638.019531 18.855469 C 616.875 13.910156 604.277344 17.507812 574.585938 31.902344 C 544.894531 46.300781 514.300781 66.542969 486.410156 53.949219 C 464.28125 43.953125 455.457031 30.28125 440.402344 28.203125 " fill-opacity="1" fill-rule="evenodd"></path></g><path fill="#111111" d="M 820.734375 29.386719 L 820.734375 84.242188 L 462.191406 84.242188 L 462.191406 32.945312 C 472.792969 28.003906 487.363281 25.710938 504.339844 34.203125 C 538.785156 51.425781 566.964844 24.285156 591.492188 18.546875 C 616.023438 12.804688 630.632812 16.980469 665.078125 33.679688 C 699.523438 50.378906 735.007812 73.863281 767.367188 59.253906 C 793.035156 47.65625 803.273438 31.800781 820.734375 29.386719 " fill-opacity="1" fill-rule="evenodd"></path><path fill="#111111" d="M 820.734375 42.953125 L 820.734375 97.8125 L 462.191406 97.8125 L 462.191406 46.515625 C 472.792969 41.574219 487.363281 39.28125 504.339844 47.769531 C 538.785156 64.992188 566.964844 37.855469 591.492188 32.113281 C 616.023438 26.375 630.632812 30.550781 665.078125 47.25 C 699.523438 63.949219 735.007812 87.433594 767.367188 72.820312 C 793.035156 61.226562 803.273438 45.367188 820.734375 42.953125 " fill-opacity="1" fill-rule="evenodd"></path></svg>