<svg xmlns="http://www.w3.org/2000/svg" xmlns:xlink="http://www.w3.org/1999/xlink" width="50" viewBox="0 0 37.5 37.499999" height="50" preserveAspectRatio="xMidYMid meet"><defs><clipPath id="d99cbf91c3"><path d="M 0 4.664062 L 37.007812 4.664062 L 37.007812 26.867188 L 0 26.867188 Z M 0 4.664062 " clip-rule="nonzero"></path></clipPath><clipPath id="b4614b831d"><path d="M 11.101562 18.503906 L 25.90625 18.503906 L 25.90625 33.304688 L 11.101562 33.304688 Z M 11.101562 18.503906 " clip-rule="nonzero"></path></clipPath></defs><g clip-path="url(#d99cbf91c3)"><path fill="#000000" d="M 18.371094 26.894531 C 17.363281 26.894531 16.398438 26.691406 15.476562 26.28125 C 14.554688 25.875 13.757812 25.296875 13.082031 24.550781 C 12.183594 25.367188 11.132812 25.773438 9.917969 25.769531 C 9.269531 25.769531 8.648438 25.640625 8.050781 25.382812 C 7.453125 25.125 6.933594 24.761719 6.488281 24.289062 C 6.320312 24.304688 6.152344 24.308594 5.992188 24.308594 C 2.691406 24.308594 0.00390625 21.625 0.00390625 18.324219 C 0.00390625 17.675781 0.101562 17.050781 0.304688 16.4375 C 0.507812 15.824219 0.800781 15.261719 1.1875 14.742188 C 1.570312 14.226562 2.027344 13.785156 2.558594 13.414062 C 3.085938 13.046875 3.65625 12.769531 4.277344 12.585938 C 4.289062 12.351562 4.320312 12.121094 4.363281 11.890625 C 4.402344 11.660156 4.460938 11.4375 4.53125 11.214844 C 4.601562 10.992188 4.6875 10.773438 4.785156 10.5625 C 4.882812 10.351562 4.992188 10.144531 5.113281 9.949219 C 5.238281 9.75 5.371094 9.558594 5.519531 9.378906 C 5.664062 9.199219 5.820312 9.027344 5.988281 8.863281 C 6.15625 8.703125 6.332031 8.550781 6.519531 8.410156 C 6.707031 8.269531 6.902344 8.140625 7.101562 8.027344 C 7.304688 7.910156 7.515625 7.804688 7.730469 7.714844 C 7.945312 7.625 8.164062 7.550781 8.386719 7.484375 C 8.613281 7.421875 8.839844 7.375 9.070312 7.339844 C 9.300781 7.304688 9.53125 7.28125 9.765625 7.277344 C 10 7.269531 10.230469 7.277344 10.464844 7.300781 C 10.695312 7.324219 10.925781 7.359375 11.152344 7.410156 C 11.378906 7.460938 11.605469 7.527344 11.824219 7.605469 C 12.042969 7.683594 12.257812 7.777344 12.464844 7.882812 C 13.761719 5.898438 15.996094 4.679688 18.371094 4.679688 C 18.972656 4.679688 19.5625 4.753906 20.144531 4.90625 C 20.722656 5.058594 21.277344 5.277344 21.800781 5.570312 C 22.324219 5.863281 22.804688 6.214844 23.238281 6.628906 C 23.671875 7.042969 24.046875 7.503906 24.367188 8.015625 C 25.207031 7.519531 26.117188 7.273438 27.089844 7.277344 C 29.953125 7.277344 32.300781 9.515625 32.472656 12.335938 L 32.484375 12.335938 C 34.976562 12.335938 37.007812 14.363281 37.007812 16.859375 C 37.007812 17.367188 36.921875 17.863281 36.753906 18.34375 C 36.585938 18.824219 36.34375 19.265625 36.03125 19.664062 C 35.714844 20.0625 35.339844 20.398438 34.910156 20.671875 C 34.480469 20.945312 34.019531 21.140625 33.523438 21.257812 C 32.371094 24.230469 29.484375 26.21875 26.285156 26.21875 C 25.046875 26.21875 23.875 25.9375 22.769531 25.378906 C 21.476562 26.386719 20.011719 26.890625 18.371094 26.894531 Z M 13.101562 23.738281 L 13.113281 23.738281 C 13.210938 23.742188 13.292969 23.78125 13.355469 23.859375 C 13.628906 24.1875 13.929688 24.488281 14.257812 24.761719 C 14.589844 25.03125 14.945312 25.269531 15.320312 25.46875 C 15.699219 25.671875 16.09375 25.832031 16.503906 25.957031 C 16.914062 26.078125 17.332031 26.160156 17.757812 26.203125 C 18.183594 26.242188 18.609375 26.242188 19.035156 26.195312 C 19.460938 26.152344 19.875 26.070312 20.285156 25.941406 C 20.695312 25.816406 21.085938 25.652344 21.460938 25.445312 C 21.839844 25.242188 22.191406 25.003906 22.519531 24.730469 C 22.632812 24.632812 22.757812 24.621094 22.890625 24.695312 C 23.945312 25.269531 25.078125 25.554688 26.28125 25.554688 C 29.265625 25.554688 31.953125 23.667969 32.964844 20.863281 C 33.007812 20.742188 33.089844 20.671875 33.210938 20.648438 C 33.652344 20.566406 34.066406 20.40625 34.453125 20.179688 C 34.839844 19.949219 35.175781 19.664062 35.460938 19.316406 C 35.746094 18.972656 35.964844 18.585938 36.117188 18.164062 C 36.269531 17.742188 36.34375 17.308594 36.34375 16.859375 C 36.34375 14.730469 34.613281 12.996094 32.484375 12.996094 C 32.378906 12.996094 32.269531 13.003906 32.175781 13.011719 C 32.082031 13.019531 31.996094 12.992188 31.925781 12.925781 C 31.855469 12.859375 31.820312 12.777344 31.820312 12.683594 C 31.820312 12.679688 31.820312 12.667969 31.820312 12.664062 C 31.820312 10.058594 29.699219 7.9375 27.089844 7.9375 C 26.125 7.9375 25.238281 8.207031 24.4375 8.75 C 24.359375 8.804688 24.269531 8.820312 24.175781 8.800781 C 24.082031 8.777344 24.011719 8.722656 23.964844 8.636719 C 23.6875 8.140625 23.351562 7.683594 22.953125 7.277344 C 22.554688 6.867188 22.109375 6.515625 21.617188 6.226562 C 21.125 5.9375 20.605469 5.71875 20.054688 5.566406 C 19.503906 5.417969 18.941406 5.339844 18.371094 5.339844 C 16.121094 5.339844 14.011719 6.546875 12.863281 8.488281 C 12.820312 8.566406 12.75 8.617188 12.664062 8.640625 C 12.574219 8.664062 12.492188 8.652344 12.414062 8.605469 C 11.640625 8.160156 10.808594 7.9375 9.917969 7.9375 C 7.210938 7.9375 4.972656 10.136719 4.925781 12.84375 C 4.921875 13.011719 4.839844 13.117188 4.675781 13.160156 C 4.101562 13.304688 3.566406 13.539062 3.074219 13.863281 C 2.578125 14.1875 2.148438 14.582031 1.785156 15.050781 C 1.421875 15.519531 1.144531 16.03125 0.949219 16.59375 C 0.757812 17.152344 0.664062 17.730469 0.664062 18.324219 C 0.664062 21.257812 3.054688 23.648438 5.992188 23.648438 C 6.191406 23.648438 6.386719 23.636719 6.585938 23.617188 C 6.699219 23.601562 6.792969 23.640625 6.871094 23.726562 C 7.054688 23.9375 7.261719 24.128906 7.488281 24.296875 C 7.714844 24.464844 7.953125 24.609375 8.210938 24.730469 C 8.464844 24.847656 8.730469 24.9375 9.003906 25.003906 C 9.28125 25.066406 9.558594 25.101562 9.839844 25.105469 C 10.121094 25.113281 10.402344 25.089844 10.679688 25.035156 C 10.957031 24.980469 11.222656 24.902344 11.484375 24.792969 C 11.746094 24.683594 11.992188 24.546875 12.222656 24.386719 C 12.453125 24.226562 12.667969 24.042969 12.863281 23.839844 C 12.925781 23.773438 13.007812 23.738281 13.101562 23.738281 Z M 13.101562 23.738281 " fill-opacity="1" fill-rule="nonzero"></path></g><g clip-path="url(#b4614b831d)"><path fill="#000000" d="M 18.503906 19.710938 C 21.917969 19.710938 24.695312 22.488281 24.695312 25.90625 C 24.695312 29.320312 21.917969 32.097656 18.503906 32.097656 C 15.089844 32.097656 12.308594 29.320312 12.308594 25.90625 C 12.308594 22.488281 15.089844 19.710938 18.503906 19.710938 Z M 18.503906 33.304688 C 22.589844 33.304688 25.90625 29.992188 25.90625 25.90625 C 25.90625 21.816406 22.589844 18.503906 18.503906 18.503906 C 14.414062 18.503906 11.101562 21.816406 11.101562 25.90625 C 11.101562 29.992188 14.414062 33.304688 18.503906 33.304688 " fill-opacity="1" fill-rule="nonzero"></path></g><path fill="#000000" d="M 18.382812 28.007812 C 17.917969 28.007812 17.457031 27.832031 16.863281 27.390625 L 16.046875 28.667969 C 16.597656 29.164062 17.378906 29.429688 18.007812 29.503906 L 18.007812 30.605469 L 19.242188 30.605469 L 19.242188 29.441406 C 20.398438 29.164062 20.960938 28.328125 20.960938 27.257812 C 20.960938 25.253906 18.117188 25.210938 18.117188 24.375 C 18.117188 23.933594 18.347656 23.800781 18.824219 23.800781 C 19.230469 23.800781 19.570312 23.976562 19.96875 24.328125 L 20.902344 23.25 C 20.464844 22.789062 19.933594 22.4375 19.242188 22.324219 L 19.242188 21.203125 L 18.007812 21.203125 L 18.007812 22.347656 C 16.941406 22.578125 16.3125 23.351562 16.3125 24.460938 C 16.3125 26.390625 19.152344 26.511719 19.152344 27.390625 C 19.152344 27.820312 18.933594 28.007812 18.382812 28.007812 " fill-opacity="1" fill-rule="nonzero"></path></svg>