<svg xmlns="http://www.w3.org/2000/svg" xmlns:xlink="http://www.w3.org/1999/xlink" width="50" viewBox="0 0 37.5 37.499999" height="50" preserveAspectRatio="xMidYMid meet"><defs><clipPath id="bc9e34de1d"><path d="M 0 0.0742188 L 37.007812 0.0742188 L 37.007812 36.933594 L 0 36.933594 Z M 0 0.0742188 " clip-rule="nonzero"></path></clipPath></defs><g clip-path="url(#bc9e34de1d)"><path fill="#000000" d="M 18.503906 35.507812 C 9.175781 35.507812 1.617188 27.949219 1.617188 18.625 C 1.609375 9.285156 9.167969 1.726562 18.503906 1.726562 C 27.828125 1.726562 35.386719 9.285156 35.386719 18.613281 C 35.386719 27.9375 27.828125 35.507812 18.503906 35.507812 Z M 18.492188 0.0742188 C 8.289062 0.0742188 -0.0117188 8.339844 -0.0117188 18.5 C -0.0117188 28.667969 8.289062 36.933594 18.492188 36.933594 C 28.695312 36.933594 37.007812 28.667969 37.007812 18.507812 C 37.007812 8.339844 28.707031 0.0742188 18.492188 0.0742188 Z M 18.492188 0.0742188 " fill-opacity="1" fill-rule="nonzero"></path></g><path fill="#000000" d="M 13.804688 26.773438 C 11.015625 25.460938 9.074219 22.5 9.074219 19.066406 C 9.074219 17.253906 9.609375 15.578125 10.535156 14.210938 L 16.621094 23.285156 L 20.304688 23.285156 L 26.394531 14.210938 C 27.316406 15.578125 27.855469 17.265625 27.855469 19.066406 C 27.855469 22.269531 26.167969 25.050781 23.683594 26.488281 L 24.855469 30.980469 C 29.324219 28.679688 32.367188 24.027344 32.367188 18.65625 C 32.367188 13.585938 29.644531 9.160156 25.585938 6.742188 L 18.515625 17.65625 L 11.515625 6.699219 C 7.410156 9.105469 4.652344 13.5625 4.652344 18.65625 C 4.652344 24.222656 7.925781 29.019531 12.65625 31.222656 Z M 13.804688 26.773438 " fill-opacity="1" fill-rule="nonzero"></path></svg>