<svg xmlns="http://www.w3.org/2000/svg" xmlns:xlink="http://www.w3.org/1999/xlink" width="1900" viewBox="0 0 1425 540.000001" height="720" preserveAspectRatio="xMidYMid meet"><defs><clipPath id="655d1c02d7"><path d="M 1.316406 0 L 1423.683594 0 L 1423.683594 539 L 1.316406 539 Z M 1.316406 0 " clip-rule="nonzero"></path></clipPath><clipPath id="1967cba4b2"><path d="M 510 0 L 1423.683594 0 L 1423.683594 539 L 510 539 Z M 510 0 " clip-rule="nonzero"></path></clipPath><clipPath id="fee565c340"><path d="M 1303.144531 -249.46875 L 2228.445312 675.832031 L 1436.007812 1468.269531 L 510.707031 542.964844 Z M 1303.144531 -249.46875 " clip-rule="nonzero"></path></clipPath></defs><g clip-path="url(#655d1c02d7)"><path fill="#ffffff" d="M 1.316406 0 L 1423.683594 0 L 1423.683594 539 L 1.316406 539 Z M 1.316406 0 " fill-opacity="1" fill-rule="nonzero"></path><path fill="#fc2626" d="M 1.316406 0 L 1423.683594 0 L 1423.683594 539 L 1.316406 539 Z M 1.316406 0 " fill-opacity="1" fill-rule="nonzero"></path></g><g clip-path="url(#1967cba4b2)"><g clip-path="url(#fee565c340)"><path fill="#ffffff" d="M 1303.144531 -249.46875 L 2228.445312 675.832031 L 1436.007812 1468.269531 L 510.707031 542.964844 Z M 1303.144531 -249.46875 " fill-opacity="1" fill-rule="nonzero"></path></g></g></svg>