<svg xmlns="http://www.w3.org/2000/svg" xmlns:xlink="http://www.w3.org/1999/xlink" width="50" viewBox="0 0 37.5 37.499999" height="50" preserveAspectRatio="xMidYMid meet"><path fill="#2962a1" d="M 17.96875 10.46875 C 16.636719 10.46875 15.316406 10.710938 14.039062 11.1875 C 11 12.453125 8.6875 14.832031 7.539062 17.878906 C 6.292969 21.191406 6.519531 25.007812 8.164062 28.351562 C 10.71875 33.066406 15.503906 35.894531 20.960938 35.894531 C 23.617188 35.894531 26.289062 35.199219 28.683594 33.886719 C 32.753906 31.480469 35.539062 27.621094 36.515625 23.023438 C 37.542969 18.195312 36.4375 13.054688 33.484375 8.917969 C 29.875 4.105469 24.28125 1.339844 18.144531 1.339844 C 11.238281 1.339844 4.988281 4.761719 1.417969 10.5 C 1.066406 11.070312 0.628906 11.78125 0.394531 12.503906 C 0.355469 12.609375 0.289062 12.941406 0.421875 13.101562 C 0.535156 13.234375 0.773438 13.269531 0.886719 13.269531 C 1.175781 13.269531 1.484375 12.980469 1.917969 12.332031 C 4.035156 9.351562 6.453125 7.183594 9.304688 5.695312 C 11.835938 4.417969 14.65625 3.742188 17.46875 3.742188 C 24.144531 3.742188 29.90625 7.382812 32.511719 13.242188 C 34.039062 16.941406 34.023438 21.078125 32.476562 24.59375 C 31.0625 27.800781 28.476562 30.234375 25.1875 31.441406 C 23.957031 31.851562 22.6875 32.058594 21.402344 32.058594 C 16.414062 32.058594 12.335938 29.023438 11.25 24.511719 C 10.757812 22.070312 11.363281 19.429688 12.828125 17.613281 C 13.699219 16.535156 15.253906 15.242188 17.734375 15.199219 C 19.289062 15.230469 20.851562 15.957031 21.726562 17.054688 C 22.386719 17.882812 22.625 18.847656 22.414062 19.851562 C 22.210938 20.621094 21.425781 21.53125 20.746094 21.53125 C 20.546875 21.53125 20.355469 21.460938 20.199219 21.324219 C 20.054688 21.171875 20.03125 21.007812 20 20.777344 C 19.949219 20.371094 19.867188 19.746094 18.96875 19.414062 C 18.800781 19.363281 18.605469 19.335938 18.410156 19.335938 C 17.148438 19.335938 16.265625 20.53125 16.042969 21.714844 C 15.890625 22.863281 16.21875 23.945312 16.988281 24.824219 C 17.941406 25.902344 19.519531 26.570312 21.109375 26.570312 C 21.238281 26.570312 21.367188 26.570312 21.527344 26.554688 C 23.46875 26.335938 25.148438 25.320312 26.242188 23.703125 C 27.519531 21.816406 27.890625 19.285156 27.230469 16.933594 C 25.953125 13.011719 22.3125 10.46875 17.96875 10.46875 Z M 17.96875 10.46875 " fill-opacity="1" fill-rule="nonzero"></path></svg>