<svg xmlns="http://www.w3.org/2000/svg" xmlns:xlink="http://www.w3.org/1999/xlink" width="1000" viewBox="0 0 750 74.999997" height="100" preserveAspectRatio="xMidYMid meet"><defs><clipPath id="d5542988b2"><path d="M 597.058594 1 L 750 1 L 750 75 L 597.058594 75 Z M 597.058594 1 " clip-rule="nonzero"></path></clipPath><clipPath id="8832e9dd88"><path d="M 597.058594 16 L 750 16 L 750 75 L 597.058594 75 Z M 597.058594 16 " clip-rule="nonzero"></path></clipPath></defs><path fill="#111111" d="M 309.585938 16.011719 L 309.585938 63.300781 L 0.507812 63.300781 L 0.507812 19.082031 C 9.644531 14.824219 22.203125 12.84375 36.839844 20.164062 C 66.53125 35.011719 90.824219 11.617188 111.96875 6.667969 C 133.113281 1.71875 145.710938 5.320312 175.402344 19.714844 C 205.097656 34.109375 235.6875 54.355469 263.582031 41.757812 C 285.710938 31.761719 294.535156 18.09375 309.585938 16.011719 " fill-opacity="1" fill-rule="evenodd"></path><path fill="#111111" d="M 309.585938 27.710938 L 309.585938 75 L 0.507812 75 L 0.507812 30.78125 C 9.644531 26.519531 22.203125 24.542969 36.839844 31.863281 C 66.53125 46.707031 90.824219 23.3125 111.96875 18.367188 C 133.113281 13.417969 145.710938 17.015625 175.402344 31.410156 C 205.097656 45.808594 235.6875 66.054688 263.582031 53.457031 C 285.710938 43.460938 294.535156 29.789062 309.585938 27.710938 " fill-opacity="1" fill-rule="evenodd"></path><path fill="#111111" d="M 607.828125 16.488281 L 607.828125 63.714844 L 299.144531 63.714844 L 299.144531 19.550781 C 308.269531 15.296875 320.8125 13.324219 335.429688 20.632812 C 365.082031 35.460938 389.347656 12.097656 410.464844 7.152344 C 431.582031 2.210938 444.160156 5.804688 473.816406 20.183594 C 503.46875 34.5625 534.023438 54.78125 561.878906 42.199219 C 583.980469 32.21875 592.792969 18.566406 607.828125 16.488281 " fill-opacity="1" fill-rule="evenodd"></path><path fill="#111111" d="M 607.828125 28.167969 L 607.828125 75.398438 L 299.144531 75.398438 L 299.144531 31.234375 C 308.269531 26.980469 320.8125 25.003906 335.429688 32.316406 C 365.082031 47.140625 389.347656 23.777344 410.464844 18.835938 C 431.582031 13.894531 444.160156 17.488281 473.816406 31.867188 C 503.46875 46.242188 534.023438 66.460938 561.878906 53.882812 C 583.980469 43.898438 592.792969 30.246094 607.828125 28.167969 " fill-opacity="1" fill-rule="evenodd"></path><g clip-path="url(#d5542988b2)"><path fill="#111111" d="M 981.394531 15.972656 L 981.394531 74.679688 L 597.703125 74.679688 L 597.703125 19.785156 C 609.046875 14.496094 624.636719 12.042969 642.804688 21.128906 C 679.667969 39.558594 709.824219 10.515625 736.074219 4.375 C 762.324219 -1.769531 777.960938 2.699219 814.820312 20.570312 C 851.679688 38.441406 889.65625 63.574219 924.285156 47.9375 C 951.753906 35.527344 962.707031 18.558594 981.394531 15.972656 " fill-opacity="1" fill-rule="evenodd"></path></g><g clip-path="url(#8832e9dd88)"><path fill="#111111" d="M 981.394531 30.496094 L 981.394531 89.199219 L 597.703125 89.199219 L 597.703125 34.304688 C 609.046875 29.015625 624.636719 26.5625 642.804688 35.648438 C 679.667969 54.078125 709.824219 25.039062 736.074219 18.894531 C 762.324219 12.75 777.960938 17.21875 814.820312 35.089844 C 851.679688 52.960938 889.65625 78.09375 924.285156 62.457031 C 951.753906 50.046875 962.707031 33.078125 981.394531 30.496094 " fill-opacity="1" fill-rule="evenodd"></path></g></svg>