<svg xmlns="http://www.w3.org/2000/svg" width="1200.000000pt" height="1200.000000pt" viewBox="0 0 1200.000000 1200.000000" preserveAspectRatio="xMidYMid meet"><g transform="translate(0.000000,1200.000000) scale(0.100000,-0.100000)" fill="#000000" stroke="none"><path d="M140 6000 l0 -5860 5860 0 5860 0 0 5860 0 5860 -5860 0 -5860 0 0 -5860z m11695 0 l0 -5835 -5835 0 -5835 0 -3 5825 c-1 3204 0 5831 3 5838 3 10 1176 12 5837 10 l5833 -3 0 -5835z"></path><path d="M1350 11380 c-25 -25 -25 -32 -2 -60 25 -31 69 -21 78 17 5 20 2 31 -16 45 -28 23 -35 23 -60 -2z"></path><path d="M1797 11382 c-32 -35 -15 -82 28 -82 23 0 55 28 55 48 0 16 -37 52 -53 52 -8 0 -21 -8 -30 -18z"></path><path d="M2264 11387 c-2 -7 -3 -118 -2 -247 l3 -235 38 -3 37 -3 0 130 0 130 30 16 c37 19 60 19 88 -1 21 -14 22 -22 22 -145 l0 -129 40 0 40 0 0 125 c0 86 -4 136 -14 160 -26 61 -115 85 -166 45 -14 -11 -28 -20 -32 -20 -5 0 -8 43 -8 95 l0 95 -35 0 c-20 0 -38 -6 -41 -13z"></path><path d="M5849 11384 c-15 -18 -53 -72 -154 -219 -27 -38 -67 -97 -90 -130 -23 -33 -75 -109 -117 -170 -41 -60 -165 -240 -276 -400 -110 -159 -225 -325 -254 -368 -29 -44 -57 -84 -63 -91 -13 -15 -34 -45 -127 -181 -41 -60 -124 -181 -184 -267 -60 -87 -174 -253 -254 -369 -80 -116 -150 -217 -155 -223 -6 -6 -33 -45 -60 -86 -27 -41 -53 -79 -58 -85 -4 -5 -26 -37 -49 -70 -23 -33 -142 -206 -266 -385 -124 -179 -261 -378 -306 -443 -44 -65 -116 -167 -158 -227 -43 -61 -115 -165 -161 -233 -46 -67 -113 -165 -150 -217 -36 -52 -109 -158 -162 -235 -53 -77 -120 -174 -149 -215 -29 -41 -117 -169 -197 -285 -160 -232 -254 -368 -278 -402 -9 -12 -19 -23 -23 -23 -5 0 -8 538 -8 1195 l0 1195 -775 0 -775 0 0 -2325 0 -2325 838 0 c786 0 840 1 854 18 9 9 60 82 114 162 53 80 150 222 214 315 132 192 224 327 384 563 263 385 336 494 416 612 46 69 87 127 90 130 3 3 28 39 55 80 28 41 118 174 201 295 199 292 303 444 446 655 66 96 165 243 222 325 56 83 140 206 186 275 46 69 87 127 90 130 3 3 27 39 55 80 27 41 122 181 211 310 261 382 311 456 436 640 66 96 167 245 225 330 58 85 133 196 167 245 l61 90 3 840 c1 462 1 990 0 1174 -3 304 -4 332 -19 315z"></path><path d="M625 11379 c-3 -8 -4 -118 -3 -244 l3 -230 89 -3 c165 -5 246 30 262 113 9 52 -5 86 -49 114 l-37 24 38 32 c33 29 37 37 36 79 -1 51 -19 78 -69 104 -43 22 -262 31 -270 11z m235 -79 c25 -25 26 -74 1 -99 -20 -20 -92 -36 -127 -29 -16 3 -19 14 -22 76 l-3 72 66 0 c52 0 69 -4 85 -20z m8 -199 c18 -9 22 -21 22 -56 0 -60 -23 -75 -112 -75 l-68 0 0 76 0 77 68 -5 c37 -3 78 -10 90 -17z"></path><path d="M6350 7970 l0 -3410 2670 0 2670 0 -2 3408 -3 3407 -2667 3 -2668 2 0 -3410z m5200 2380 l0 -900 -195 0 -195 0 0 -30 0 -30 195 0 196 0 -3 -82 -3 -83 -97 -3 -98 -3 0 -29 0 -30 100 0 100 0 0 -80 0 -80 -100 0 -100 0 0 -35 0 -35 100 0 100 0 0 -80 0 -80 -100 0 -100 0 0 -35 0 -35 100 0 100 0 0 -80 0 -80 -100 0 -100 0 0 -35 0 -35 100 0 100 0 0 -80 0 -80 -206 0 -205 0 3 -32 3 -33 203 -3 202 -2 0 -80 0 -80 -101 0 -100 0 3 -32 3 -33 98 -3 97 -3 0 -79 0 -80 -100 0 -100 0 0 -30 0 -30 100 0 100 0 0 -85 0 -85 -100 0 -100 0 0 -30 0 -30 100 0 100 0 0 -85 0 -85 -100 0 -100 0 0 -30 0 -30 100 0 100 0 0 -80 0 -80 -202 -2 -203 -3 -3 -32 -3 -33 205 0 206 0 0 -1205 0 -1205 -2532 0 -2533 0 2 1202 3 1203 195 3 195 2 0 36 0 35 -187 -1 c-104 0 -192 -1 -198 0 -6 0 -10 32 -9 77 l1 78 102 3 102 3 -3 30 -3 31 -99 2 -99 1 0 80 1 80 101 3 101 3 0 29 0 30 -98 0 c-54 0 -101 2 -103 4 -2 2 -3 41 -1 85 l4 81 99 0 99 0 0 30 0 29 -101 3 -101 3 -1 78 -2 77 88 1 c48 1 93 2 100 3 6 0 13 16 15 34 l3 32 -100 0 -101 0 0 80 0 80 203 2 202 3 0 30 0 30 -205 5 -205 5 0 78 0 77 103 0 102 0 0 35 0 34 -101 3 -101 3 0 75 0 75 102 3 101 3 -3 32 -3 32 -99 5 -98 5 0 75 0 75 102 3 101 3 -3 32 -3 32 -99 5 -98 5 0 75 0 75 102 3 101 3 -3 31 -3 31 -97 0 -98 -1 0 74 c0 41 0 77 0 82 0 4 91 9 202 12 l203 5 3 28 3 27 -205 0 -206 0 -2 896 c-2 493 -1 898 1 900 2 2 1142 4 2533 4 l2528 0 0 -900z"></path><path d="M8960 11105 c0 -3 6 -16 14 -28 8 -12 17 -32 21 -44 5 -19 2 -23 -15 -23 -11 0 -34 7 -50 15 l-30 16 0 -56 c0 -59 4 -63 34 -40 11 8 31 15 44 15 19 0 22 -4 17 -22 -4 -13 -25 -50 -48 -83 -37 -52 -42 -67 -42 -113 0 -48 4 -57 32 -82 l32 -29 -20 -24 c-10 -14 -19 -30 -19 -35 0 -6 -6 -12 -12 -14 -19 -7 -126 18 -201 46 -158 60 -316 6 -383 -132 -28 -58 -30 -165 -5 -232 12 -30 21 -64 21 -76 0 -21 -30 -59 -62 -79 -14 -9 -6 -37 70 -227 48 -119 90 -219 94 -223 3 -4 39 5 80 18 154 53 339 86 484 87 145 0 359 -38 507 -92 31 -11 60 -18 64 -15 7 8 37 80 103 247 27 69 56 141 64 162 l16 36 -35 21 c-47 27 -53 59 -26 135 23 67 28 154 9 207 -11 34 -58 102 -88 127 -8 7 -37 24 -65 37 -73 36 -145 34 -270 -9 -130 -44 -174 -51 -182 -28 -3 9 -15 27 -26 39 -19 21 -19 21 13 50 26 24 33 39 37 79 4 44 1 53 -30 94 -36 48 -67 102 -67 120 0 15 43 12 66 -5 30 -23 34 -19 34 40 0 59 -4 63 -34 40 -23 -17 -66 -20 -66 -5 0 6 9 29 20 50 l20 40 -60 0 c-33 0 -60 -2 -60 -5z m-275 -564 c34 -15 119 -38 213 -57 21 -4 22 -8 22 -137 1 -132 1 -132 30 -167 30 -34 40 -70 20 -70 -24 0 -82 31 -112 59 l-33 31 -3 -60 c-2 -33 -2 -87 0 -120 l3 -60 30 28 c33 31 111 66 126 57 16 -10 -30 -83 -68 -110 -44 -29 -126 -34 -172 -10 -45 23 -81 72 -81 110 0 58 54 67 72 13 7 -21 38 10 38 38 0 50 -71 84 -100 49 -19 -23 -30 -18 -30 12 0 40 -38 113 -60 113 -40 0 -50 -55 -25 -137 6 -19 3 -21 -28 -20 -43 1 -67 -17 -67 -52 0 -32 8 -44 37 -60 20 -10 22 -9 25 21 3 36 28 49 53 28 21 -17 19 -105 -1 -140 -19 -31 -92 -82 -112 -78 -8 2 -32 46 -53 98 -52 127 -52 123 -31 146 46 50 52 107 22 184 -47 120 -2 250 104 296 44 19 134 17 181 -5z m848 5 c109 -47 155 -174 107 -296 -31 -77 -24 -134 22 -186 18 -21 18 -23 -26 -130 -39 -95 -48 -109 -67 -106 -71 8 -140 103 -123 170 15 59 74 73 74 17 0 -29 20 -33 44 -9 21 20 20 68 0 85 -9 7 -30 13 -48 12 l-32 -1 1 77 c0 70 -2 76 -21 79 -17 2 -26 -7 -43 -41 -11 -24 -21 -53 -21 -65 0 -27 -15 -36 -30 -17 -29 35 -100 4 -100 -44 0 -44 33 -68 43 -30 4 16 12 20 34 17 24 -3 28 -8 31 -40 2 -29 -3 -43 -27 -71 -17 -19 -44 -40 -61 -47 -44 -18 -130 -8 -169 19 -36 26 -77 96 -60 106 14 9 117 -43 132 -66 6 -10 15 -19 19 -19 5 0 8 54 8 121 l0 121 -37 -32 c-34 -31 -90 -60 -113 -60 -20 0 -9 40 20 73 l30 35 0 131 0 131 28 5 c85 18 153 37 197 54 59 24 143 27 188 7z"></path><path d="M8554 10725 c-12 -49 36 -73 70 -36 25 27 6 61 -34 61 -23 0 -31 -5 -36 -25z"></path><path d="M9412 10733 c-16 -31 4 -63 41 -63 25 0 44 45 27 65 -17 20 -57 19 -68 -2z"></path><path d="M8434 10716 c-15 -40 21 -80 54 -60 37 24 21 74 -25 74 -13 0 -26 -6 -29 -14z"></path><path d="M8684 10716 c-3 -8 -4 -25 -2 -38 2 -18 9 -23 32 -23 36 0 56 27 40 53 -14 22 -62 28 -70 8z"></path><path d="M9292 10718 c-29 -29 -2 -72 40 -66 17 2 24 11 26 32 5 41 -37 63 -66 34z"></path><path d="M9543 10723 c-16 -6 -17 -45 -1 -61 22 -22 57 -14 64 13 12 47 -16 68 -63 48z"></path><path d="M8813 10683 c-12 -8 -16 -26 -14 -56 1 -14 8 -18 32 -15 39 4 59 30 43 56 -12 19 -43 26 -61 15z"></path><path d="M9170 10670 c-17 -33 -3 -60 30 -60 40 0 59 34 34 61 -22 25 -50 24 -64 -1z"></path><path d="M8333 10663 c-22 -8 -16 -61 7 -68 32 -10 60 4 60 29 0 37 -30 55 -67 39z"></path><path d="M9652 10658 c-22 -22 -14 -57 13 -64 35 -9 55 2 55 29 0 27 -17 47 -40 47 -9 0 -21 -5 -28 -12z"></path><path d="M8241 10552 c-14 -26 13 -64 41 -60 29 4 46 33 32 56 -16 25 -60 28 -73 4z"></path><path d="M9724 10544 c-7 -27 14 -54 42 -54 19 0 36 27 32 52 -2 18 -10 24 -35 26 -28 3 -33 0 -39 -24z"></path><path d="M8206 10444 c-9 -8 -16 -22 -16 -29 0 -15 27 -45 40 -45 4 0 18 8 31 19 22 18 22 19 6 45 -20 30 -39 33 -61 10z"></path><path d="M9782 10444 c-12 -8 -22 -21 -22 -29 0 -17 27 -45 45 -45 7 0 21 7 29 16 9 8 16 22 16 29 0 14 -26 45 -38 45 -4 0 -18 -7 -30 -16z"></path><path d="M8202 10318 c-27 -27 -6 -68 35 -68 29 0 48 33 33 60 -12 22 -49 27 -68 8z"></path><path d="M9770 10311 c-16 -31 4 -63 37 -59 34 4 52 32 37 56 -16 26 -60 28 -74 3z"></path><path d="M8242 10198 c-27 -27 -6 -68 35 -68 29 0 48 33 33 60 -12 22 -49 27 -68 8z"></path><path d="M9730 10191 c-16 -31 4 -63 37 -59 34 4 52 32 37 56 -16 26 -60 28 -74 3z"></path><path d="M8885 9580 c-444 -39 -855 -329 -1049 -741 -94 -197 -126 -342 -126 -559 0 -213 34 -372 115 -547 135 -289 357 -511 646 -647 175 -82 343 -118 556 -118 493 1 938 275 1165 719 94 183 128 320 135 544 6 192 -9 307 -59 454 -127 370 -391 653 -748 802 -205 86 -397 114 -635 93z m224 -130 c518 -46 928 -392 1059 -893 24 -93 26 -119 26 -282 -1 -161 -3 -190 -26 -276 -126 -470 -484 -804 -949 -885 -138 -24 -360 -15 -490 20 -461 123 -796 487 -875 950 -23 140 -15 345 19 476 58 220 153 387 306 540 92 91 114 110 200 165 160 103 296 153 491 180 122 17 107 16 239 5z"></path><path d="M9670 8844 c-303 -165 -662 -458 -903 -739 -33 -38 -64 -71 -69 -73 -4 -2 -39 19 -76 46 -97 70 -216 144 -310 191 -45 23 -84 41 -87 41 -3 0 -5 -81 -5 -180 l0 -180 29 -18 c109 -66 322 -267 442 -416 60 -75 58 -75 108 16 35 64 161 253 230 343 182 242 442 500 674 670 l67 49 0 148 c0 81 -3 148 -7 148 -5 0 -46 -21 -93 -46z"></path><path d="M7192 6478 l3 -263 30 -55 c61 -112 145 -145 345 -138 92 3 124 8 161 26 63 30 103 77 128 147 20 56 21 76 19 300 l-3 240 -80 0 -80 0 -5 -245 c-6 -275 -11 -297 -80 -333 -48 -25 -158 -20 -197 9 -59 43 -63 65 -63 332 l0 242 -91 0 -91 0 4 -262z"></path><path d="M8215 6728 c-3 -7 -4 -168 -3 -358 l3 -345 85 0 85 0 3 153 3 152 37 0 c24 0 43 -7 52 -18 8 -10 53 -65 99 -122 46 -58 98 -120 115 -137 l30 -33 107 0 c59 0 110 3 112 8 3 4 -65 85 -149 180 -85 94 -154 178 -154 185 1 6 59 84 130 171 72 87 130 163 130 167 0 5 -42 9 -94 9 l-93 0 -39 -42 c-22 -24 -77 -91 -123 -150 -81 -104 -85 -108 -122 -108 l-38 0 -3 148 -3 147 -83 3 c-60 2 -84 -1 -87 -10z"></path><path d="M9404 6701 c-9 -20 -36 -83 -59 -141 -24 -58 -84 -201 -133 -318 -50 -116 -87 -214 -83 -216 10 -7 122 -6 152 0 23 4 31 17 56 82 l29 77 176 3 175 2 22 -57 c43 -113 35 -107 130 -109 47 -2 88 -1 92 2 4 2 -18 64 -48 137 -31 72 -68 165 -84 205 -16 40 -41 99 -55 130 -14 31 -42 96 -61 143 l-34 87 -44 6 c-24 4 -83 6 -130 5 l-86 -2 -15 -36z m211 -236 c32 -83 50 -142 44 -146 -16 -9 -213 -10 -227 -1 -10 7 -3 36 33 131 55 149 62 163 81 159 9 -2 37 -59 69 -143z"></path><path d="M10345 6720 c-104 -35 -145 -88 -145 -187 0 -79 20 -122 73 -155 55 -34 92 -45 227 -68 116 -20 159 -38 161 -68 4 -58 -11 -77 -73 -91 -73 -17 -145 -12 -360 25 l-38 7 0 -61 c0 -35 5 -64 12 -68 31 -19 147 -33 279 -34 152 0 214 12 289 57 39 23 80 104 80 157 -1 49 -21 110 -47 138 -39 43 -77 56 -288 94 -49 9 -100 22 -112 30 -26 16 -30 59 -9 86 30 40 177 46 349 13 l67 -13 0 63 0 63 -42 12 c-24 6 -115 13 -203 16 -141 4 -167 2 -220 -16z"></path><path d="M7026 5788 c-7 -55 -25 -295 -26 -335 0 -18 6 -23 24 -23 26 0 23 -14 42 243 4 48 10 87 13 87 3 0 32 -64 65 -141 79 -189 82 -189 172 29 26 61 50 112 54 112 4 0 11 -57 14 -127 10 -189 13 -203 42 -203 28 0 28 -20 3 265 -5 61 -9 118 -9 128 0 15 -7 18 -37 15 -35 -3 -37 -6 -65 -73 -68 -165 -92 -215 -99 -208 -4 5 -32 69 -61 143 l-54 135 -36 3 -36 3 -6 -53z"></path><path d="M7636 5773 c-14 -38 -47 -130 -74 -205 l-49 -138 27 0 c23 0 30 7 43 43 9 23 17 51 19 62 3 18 11 20 88 20 l85 0 21 -60 c18 -51 25 -60 48 -63 14 -2 26 1 26 6 0 5 -17 56 -38 113 -22 57 -54 146 -72 197 -32 91 -33 92 -65 92 -32 0 -34 -3 -59 -67z m94 -80 c16 -45 26 -83 23 -87 -10 -9 -123 -7 -123 3 0 5 11 40 25 77 14 38 28 75 31 83 7 20 11 12 44 -76z"></path><path d="M7950 5636 l0 -206 25 0 25 0 2 163 3 162 56 -100 c31 -55 72 -128 90 -163 31 -58 36 -63 64 -60 l30 3 3 203 2 203 -27 -3 -28 -3 -5 -160 -5 -160 -22 45 c-13 25 -51 97 -86 160 -58 107 -64 115 -95 118 l-32 3 0 -205z"></path><path d="M8459 5813 c-6 -16 -35 -95 -64 -178 -29 -82 -58 -162 -64 -177 -10 -27 -9 -28 18 -28 26 0 30 5 48 63 l20 62 83 0 83 0 22 -60 c19 -50 27 -61 49 -63 14 -2 26 -1 26 1 0 4 -53 156 -116 330 -27 75 -28 77 -61 77 -27 0 -36 -5 -44 -27z m75 -111 c14 -42 26 -83 26 -90 0 -8 -19 -12 -60 -12 -33 0 -60 3 -60 7 0 18 55 173 61 173 4 0 19 -35 33 -78z"></path><path d="M8831 5826 c-18 -6 -44 -24 -57 -40 -22 -25 -24 -35 -24 -152 l0 -124 34 -38 34 -37 95 0 c62 0 103 5 120 14 26 14 27 18 27 98 l0 83 -66 0 c-62 0 -65 -1 -62 -22 2 -19 9 -23 43 -23 l40 -1 0 -49 0 -49 -40 -9 c-60 -13 -122 -3 -151 24 -23 21 -24 29 -24 131 0 102 1 110 25 133 22 23 32 25 120 25 86 0 95 2 95 19 0 13 -10 20 -31 25 -49 10 -141 6 -178 -8z"></path><path d="M9160 5635 l0 -205 126 0 c122 0 125 1 122 21 -3 20 -9 21 -98 23 l-95 1 0 65 0 65 88 3 c78 2 87 5 87 22 0 17 -9 20 -87 22 l-88 3 -3 68 -3 67 101 0 c99 0 101 0 98 23 -3 21 -7 22 -125 25 l-123 3 0 -206z"></path><path d="M9525 5828 c-2 -7 -10 -100 -17 -205 l-13 -193 26 0 c26 0 26 0 33 103 10 154 18 227 25 227 3 0 18 -34 34 -74 15 -41 41 -104 58 -141 49 -109 68 -90 171 175 10 23 21 39 26 36 5 -3 13 -70 16 -148 9 -172 10 -178 43 -178 24 0 25 2 19 48 -3 26 -11 115 -17 197 -6 83 -13 153 -16 158 -2 4 -18 7 -34 7 -27 0 -33 -6 -55 -57 -14 -32 -34 -76 -44 -98 -9 -22 -25 -62 -35 -89 -17 -44 -20 -47 -32 -30 -7 10 -22 43 -34 73 -11 31 -34 89 -51 129 -29 70 -31 72 -64 72 -19 0 -36 -6 -39 -12z"></path><path d="M10050 5635 l0 -205 126 0 c121 0 125 1 122 21 -3 19 -10 21 -98 22 l-95 2 -3 67 -3 67 88 3 c73 3 88 6 91 20 3 15 -8 18 -85 20 l-88 3 -3 67 -3 67 98 3 c90 3 98 5 98 23 0 19 -8 20 -122 23 l-123 3 0 -206z"></path><path d="M10395 5758 c-3 -46 -5 -137 -3 -203 l3 -120 27 -3 27 -3 3 161 3 161 86 -158 c80 -149 87 -158 117 -161 l32 -3 0 205 0 206 -25 0 -25 0 0 -161 c0 -94 -4 -158 -9 -155 -5 4 -27 41 -49 84 -118 226 -118 227 -150 230 l-30 3 -7 -83z"></path><path d="M10770 5815 c0 -24 3 -25 60 -25 l60 0 0 -180 0 -180 25 0 25 0 0 180 0 180 65 0 c63 0 65 1 65 25 l0 25 -150 0 -150 0 0 -25z"></path><path d="M7804 5280 c-54 -22 -72 -105 -33 -154 12 -15 51 -42 88 -61 77 -38 94 -55 94 -92 0 -43 -28 -55 -108 -50 -38 3 -78 8 -87 12 -14 6 -18 2 -18 -18 0 -31 32 -40 135 -39 82 2 115 21 129 74 15 60 -12 98 -105 149 -86 46 -104 66 -95 105 9 35 49 47 129 39 62 -7 67 -6 67 13 0 14 -9 21 -31 26 -44 9 -140 6 -165 -4z"></path><path d="M8060 5281 c0 -6 32 -68 72 -138 65 -116 72 -134 76 -195 4 -64 6 -68 28 -68 23 0 24 3 24 68 0 64 3 72 70 191 39 68 70 130 70 138 0 14 -28 17 -46 5 -6 -4 -35 -53 -63 -109 -28 -57 -55 -103 -59 -103 -4 0 -32 49 -62 108 -48 93 -59 107 -82 110 -16 2 -28 -1 -28 -7z"></path><path d="M8508 5279 c-46 -17 -64 -106 -29 -151 11 -13 55 -43 99 -67 58 -31 82 -50 86 -67 9 -33 -9 -62 -40 -70 -22 -6 -113 -1 -156 8 -7 2 -14 -7 -16 -19 -3 -22 17 -30 83 -34 100 -5 126 1 157 31 27 28 30 36 25 77 -6 55 -20 69 -115 119 -80 42 -96 60 -86 98 9 36 50 49 128 41 62 -7 66 -6 66 13 0 12 -9 22 -22 26 -35 9 -150 6 -180 -5z"></path><path d="M8778 5283 c-15 -29 -1 -38 60 -41 l62 -3 0 -179 0 -180 25 0 25 0 0 180 0 179 63 3 c54 3 62 5 62 23 0 19 -8 20 -147 23 -80 1 -148 -1 -150 -5z"></path><path d="M9157 5284 c-4 -4 -7 -97 -7 -206 l0 -198 131 0 c119 0 130 2 127 18 -3 14 -18 18 -103 22 l-100 5 -3 68 -3 67 91 0 c83 0 90 2 90 20 0 17 -8 19 -87 22 l-88 3 -3 68 -3 67 101 0 c99 0 101 0 98 23 -3 21 -7 22 -119 25 -63 1 -118 -1 -122 -4z"></path><path d="M9516 5268 c-5 -26 -26 -318 -26 -360 0 -23 4 -28 24 -28 23 0 24 3 30 88 4 48 10 123 14 167 l8 80 31 -67 c17 -36 44 -98 59 -137 27 -68 54 -95 74 -74 8 7 95 204 113 256 15 40 25 1 31 -120 10 -180 13 -193 43 -193 23 0 24 2 19 58 -3 31 -11 120 -17 197 -6 77 -14 144 -19 148 -4 5 -20 7 -36 5 -27 -3 -33 -13 -88 -146 -32 -78 -62 -140 -65 -136 -3 3 -31 67 -63 142 l-56 137 -36 3 c-30 3 -36 0 -40 -20z"></path><path d="M10083 5280 c-37 -16 -56 -55 -50 -106 5 -52 14 -60 109 -109 80 -41 106 -74 90 -110 -16 -35 -96 -45 -192 -23 -9 2 -16 -6 -18 -19 -3 -19 3 -22 43 -28 25 -4 75 -5 110 -3 87 5 110 27 109 100 -1 59 -7 66 -121 128 -79 43 -91 58 -78 96 13 35 51 47 133 39 62 -7 70 -3 52 25 -11 18 -152 25 -187 10z"></path><path d="M1566 11342 c-3 -5 -8 -28 -12 -52 -6 -35 -12 -45 -36 -54 -36 -13 -39 -46 -4 -46 24 0 24 0 28 -126 3 -120 4 -126 28 -144 49 -38 160 -16 134 26 -6 11 -23 18 -45 18 l-34 1 0 110 0 110 80 0 80 0 3 -143 3 -143 37 3 37 3 0 165 0 165 -122 3 -123 3 0 54 c0 52 -2 55 -24 55 -14 0 -27 -4 -30 -8z"></path><path d="M1175 11221 c-36 -37 -43 -38 -47 -8 -2 17 -11 23 -35 25 l-33 3 0 -171 0 -171 38 3 37 3 5 110 c3 61 10 119 16 129 8 14 27 22 60 25 48 6 49 7 49 41 0 32 -3 35 -30 38 -23 2 -38 -4 -60 -27z"></path><path d="M2025 11243 c-39 -9 -75 -54 -75 -93 0 -51 22 -75 87 -100 90 -34 105 -55 57 -86 -22 -15 -32 -16 -75 -5 -39 10 -53 10 -64 1 -23 -19 -18 -30 20 -46 44 -18 118 -18 154 0 57 30 78 99 43 143 -9 12 -44 32 -76 45 -33 13 -64 31 -69 40 -25 38 44 62 107 38 21 -8 27 -6 36 10 14 26 14 26 -30 44 -40 16 -75 18 -115 9z"></path><path d="M1340 11070 l0 -170 40 0 40 0 0 170 0 170 -40 0 -40 0 0 -170z"></path><path d="M706 10382 c-38 -97 -77 -195 -87 -217 -9 -23 -21 -53 -25 -68 -6 -28 -6 -28 36 -25 42 3 43 4 63 61 l21 57 107 0 107 0 18 -51 c23 -62 33 -71 78 -67 l35 3 -61 155 c-33 85 -66 169 -73 185 -8 17 -23 56 -35 88 l-21 57 -47 0 -47 0 -69 -178z m158 -15 c20 -57 36 -106 36 -110 0 -4 -36 -7 -80 -7 -44 0 -80 2 -80 4 0 2 16 46 35 96 19 50 35 98 35 106 0 38 21 4 54 -89z"></path><path d="M4053 10468 c-7 -48 -11 -53 -36 -56 -21 -3 -27 -9 -27 -28 0 -19 5 -24 25 -24 l25 0 0 -115 c0 -65 5 -125 12 -140 19 -42 105 -53 158 -20 20 13 -18 49 -52 49 l-33 1 -3 113 -3 112 46 0 c41 0 45 2 45 25 0 23 -4 25 -45 25 l-45 0 0 55 c0 54 0 55 -29 55 -28 0 -30 -3 -38 -52z"></path><path d="M1148 10404 c-35 -19 -48 -43 -48 -92 0 -48 17 -65 95 -95 66 -25 86 -47 69 -74 -12 -19 -66 -22 -130 -8 -24 5 -33 3 -38 -10 -10 -26 10 -42 63 -54 106 -23 181 22 181 109 0 37 -31 69 -86 89 -58 20 -84 39 -84 61 0 30 42 43 92 29 45 -12 68 -7 68 15 0 40 -126 61 -182 30z"></path><path d="M1460 10409 c-32 -12 -60 -57 -60 -97 0 -43 29 -72 95 -96 65 -24 86 -46 69 -73 -14 -23 -58 -28 -108 -13 -32 10 -41 9 -54 -4 -22 -22 -1 -42 56 -55 100 -21 182 24 182 100 0 49 -25 77 -89 99 -87 31 -102 56 -55 87 24 16 30 16 70 1 30 -10 46 -12 53 -5 44 44 -77 86 -159 56z"></path><path d="M1790 10407 c-74 -35 -107 -111 -88 -202 21 -97 68 -135 170 -135 45 0 72 6 96 20 65 40 25 72 -55 44 -43 -15 -52 -15 -78 -3 -28 13 -74 84 -62 95 3 3 56 6 118 7 l114 2 0 54 c-1 49 -4 56 -43 92 -37 35 -46 39 -94 38 -29 0 -64 -6 -78 -12z m133 -68 c9 -12 17 -30 17 -40 0 -17 -8 -19 -80 -19 -71 0 -80 2 -80 18 0 63 100 92 143 41z"></path><path d="M2131 10409 c-38 -15 -61 -48 -61 -89 0 -50 23 -76 94 -103 67 -25 87 -47 70 -74 -14 -23 -58 -28 -107 -12 -33 11 -40 10 -54 -4 -23 -23 -3 -43 55 -56 103 -22 182 23 182 103 0 52 -15 68 -95 99 -69 27 -88 49 -63 73 9 10 30 16 45 15 96 -6 97 -6 101 12 7 36 -107 60 -167 36z"></path><path d="M2429 10407 c-53 -21 -77 -104 -41 -145 9 -12 44 -31 76 -44 67 -26 87 -48 70 -75 -14 -23 -59 -28 -107 -12 -36 12 -41 11 -53 -6 -13 -17 -12 -21 8 -36 29 -23 82 -29 140 -17 59 12 88 47 88 106 0 48 -25 72 -100 97 -60 20 -75 36 -61 64 15 27 43 34 91 21 31 -8 45 -8 55 0 49 41 -86 79 -166 47z"></path><path d="M2697 10413 c-4 -3 -7 -82 -7 -175 l0 -168 40 0 40 0 0 128 c0 114 2 131 19 146 12 11 31 16 52 14 49 -5 59 -32 59 -170 l0 -118 40 0 40 0 0 128 c0 142 8 162 63 162 50 0 57 -19 57 -161 l0 -129 40 0 40 0 0 131 c0 180 -21 219 -118 219 -39 0 -102 -32 -102 -52 0 -6 -14 3 -32 21 -29 30 -37 33 -76 28 -23 -2 -51 -12 -61 -21 -22 -20 -31 -20 -31 -2 0 21 -47 35 -63 19z"></path><path d="M3330 10398 c-49 -34 -72 -71 -77 -125 -14 -141 83 -230 218 -202 26 6 56 19 68 31 21 19 21 21 5 39 -14 16 -19 17 -43 5 -71 -36 -141 -23 -161 30 -20 52 -18 53 103 56 l112 3 3 43 c4 54 -28 109 -74 128 -51 21 -116 18 -154 -8z m135 -53 c14 -13 25 -33 25 -45 0 -18 -6 -20 -80 -20 -86 0 -91 4 -63 51 26 43 82 51 118 14z"></path><path d="M3647 10413 c-4 -3 -7 -82 -7 -175 l0 -168 40 0 40 0 0 129 c0 126 1 129 25 145 32 21 84 21 101 -1 9 -13 13 -55 14 -145 l0 -128 40 0 40 0 0 131 c0 98 -4 139 -15 164 -28 57 -98 71 -170 35 -47 -24 -45 -24 -45 -6 0 21 -47 35 -63 19z"></path><path d="M630 9485 l0 -245 118 0 c94 0 125 4 159 20 99 45 114 187 22 219 -29 10 -40 31 -16 31 23 0 58 45 63 81 7 47 -22 100 -66 121 -27 13 -63 17 -157 18 l-123 0 0 -245z m217 174 c34 -13 43 -25 43 -65 0 -53 -19 -68 -99 -72 l-71 -4 0 76 0 76 49 0 c27 0 62 -5 78 -11z m38 -219 c8 -9 17 -30 21 -47 5 -26 1 -37 -19 -57 -23 -23 -34 -26 -97 -26 l-70 0 0 76 0 76 75 -4 c49 -2 80 -9 90 -18z"></path><path d="M1624 9592 c-12 -2 -32 -14 -45 -28 -28 -30 -47 -31 -51 -1 -2 17 -11 23 -35 25 l-33 3 0 -175 0 -176 40 0 40 0 0 111 c0 110 0 111 30 141 23 22 37 29 60 26 33 -3 50 13 50 48 0 23 -20 32 -56 26z"></path><path d="M2197 9586 c-26 -7 -56 -21 -67 -31 -19 -17 -19 -20 -4 -36 15 -17 19 -17 51 -4 72 30 123 11 123 -45 0 -26 -3 -28 -61 -39 -34 -6 -75 -19 -93 -29 -59 -34 -70 -99 -24 -142 31 -29 115 -28 153 2 l28 22 15 -22 c8 -12 25 -22 38 -22 l24 0 0 136 c0 122 -2 139 -21 166 -34 48 -91 63 -162 44z m104 -203 c0 -5 2 -16 4 -27 6 -29 -38 -66 -78 -66 -67 0 -79 66 -17 87 40 14 90 17 91 6z"></path><path d="M1067 9583 c-11 -10 -8 -197 4 -252 14 -65 44 -91 108 -91 28 0 59 8 78 20 32 19 33 19 43 0 7 -13 21 -20 40 -20 l30 0 0 175 0 175 -40 0 -40 0 0 -129 c0 -126 -1 -129 -25 -145 -32 -21 -89 -21 -106 1 -10 11 -15 55 -18 145 l-3 128 -32 0 c-18 0 -36 -3 -39 -7z"></path><path d="M1803 9569 c-109 -54 -111 -234 -4 -306 45 -30 135 -32 191 -3 44 22 48 31 24 51 -12 10 -22 10 -48 1 -42 -15 -107 -15 -127 1 -21 16 -39 51 -39 76 0 20 5 21 115 21 125 0 120 -2 115 60 -9 101 -123 151 -227 99z m115 -40 c29 -10 59 -59 45 -73 -11 -11 -152 -6 -159 5 -9 16 28 62 57 70 13 4 24 7 25 8 1 1 15 -4 32 -10z"></path><path d="M2460 9473 c0 -137 11 -184 47 -213 35 -27 104 -27 150 1 l34 21 6 -21 c4 -15 13 -21 34 -21 l29 0 0 176 0 175 -37 -3 -38 -3 -2 -128 c-2 -146 -7 -156 -79 -157 -56 0 -64 21 -64 170 l0 120 -40 0 -40 0 0 -117z"></path><path d="M5830 6507 c-14 -17 -74 -104 -133 -192 -60 -88 -167 -245 -238 -350 -71 -104 -156 -228 -187 -275 -31 -47 -60 -89 -65 -95 -4 -5 -46 -66 -93 -135 -182 -268 -280 -412 -395 -580 -66 -96 -167 -245 -225 -330 -58 -85 -164 -240 -235 -345 -71 -104 -155 -228 -187 -275 -31 -47 -62 -91 -69 -98 -7 -7 -13 -18 -13 -23 0 -5 366 -9 935 -9 741 0 935 3 935 13 0 6 1 623 2 1370 2 746 1 1357 -2 1357 -3 0 -16 -15 -30 -33z"></path><path d="M8470 4199 c-50 -14 -80 -51 -80 -101 0 -33 7 -47 36 -76 l36 -36 -24 -18 c-13 -9 -26 -18 -29 -18 -3 0 -14 -15 -24 -33 -40 -76 6 -141 108 -153 45 -5 64 -3 100 15 79 38 90 108 27 171 -22 22 -45 40 -50 40 -6 0 8 16 30 36 35 31 40 42 40 78 0 51 -24 81 -77 95 -44 12 -46 12 -93 0z m102 -56 c23 -20 23 -51 1 -83 -34 -50 -62 -53 -104 -11 -33 33 -37 66 -12 93 21 23 89 24 115 1z m3 -214 c29 -26 34 -73 8 -101 -22 -24 -109 -25 -135 -1 -30 27 -23 77 14 108 37 31 72 29 113 -6z"></path><path d="M9141 4200 c-53 -13 -86 -52 -85 -102 1 -35 8 -48 39 -76 l38 -35 -24 -18 c-13 -10 -27 -19 -31 -19 -14 0 -38 -59 -38 -90 0 -92 166 -134 250 -63 26 21 30 32 30 75 0 45 -4 54 -36 84 -19 19 -39 34 -44 34 -4 0 10 17 31 39 30 30 39 46 39 73 0 46 -31 85 -78 98 -41 11 -44 11 -91 0z m99 -56 c23 -27 16 -75 -14 -101 -35 -29 -47 -29 -85 3 -35 29 -41 72 -15 98 21 21 97 21 114 0z m-20 -200 c54 -36 67 -86 30 -119 -26 -23 -116 -24 -139 -1 -26 27 -19 80 15 109 34 31 60 33 94 11z"></path><path d="M9470 4200 c-97 -23 -134 -171 -59 -234 25 -21 41 -26 85 -26 31 0 64 5 76 11 27 14 31 8 22 -37 -4 -24 -20 -52 -40 -72 -33 -33 -36 -34 -101 -30 -55 2 -68 0 -68 -12 0 -23 46 -41 95 -37 118 10 170 86 170 248 0 103 -32 170 -89 187 -43 13 -42 13 -91 2z m102 -70 c10 -14 21 -48 24 -76 6 -47 5 -50 -20 -62 -42 -19 -99 -15 -124 8 -30 28 -30 97 -1 134 18 23 28 27 62 24 29 -2 45 -10 59 -28z"></path><path d="M8761 4187 c-28 -14 -48 -43 -38 -54 4 -4 22 -1 40 6 77 32 128 20 141 -34 14 -55 -19 -114 -128 -229 -94 -99 -89 -106 75 -106 122 0 129 1 129 20 0 19 -7 20 -95 20 -52 0 -95 3 -95 6 0 4 29 39 64 78 81 91 106 137 106 199 0 40 -5 54 -29 78 -26 25 -37 29 -88 29 -32 0 -69 -6 -82 -13z"></path><path d="M3873 2786 c-106 -34 -171 -114 -180 -225 -5 -62 -3 -76 20 -123 38 -77 76 -109 222 -183 173 -88 205 -120 205 -205 0 -53 -21 -92 -67 -127 -34 -26 -43 -28 -132 -28 -90 0 -101 2 -175 38 -47 22 -83 34 -88 29 -5 -5 -8 -31 -6 -58 3 -45 6 -50 43 -71 74 -42 141 -56 250 -51 82 4 109 9 150 31 110 55 160 137 160 257 -1 128 -49 185 -237 280 -156 79 -182 99 -204 155 -15 39 -15 52 -4 88 32 106 164 135 304 65 32 -16 64 -27 72 -24 21 8 18 89 -3 108 -10 9 -44 25 -76 37 -67 24 -186 28 -254 7z"></path><path d="M4695 2786 c-22 -7 -62 -24 -90 -39 -173 -89 -258 -336 -210 -612 45 -255 189 -365 462 -353 93 4 109 8 177 42 164 80 236 227 236 477 -1 248 -65 381 -220 457 -72 35 -80 37 -195 39 -79 2 -134 -2 -160 -11z m291 -129 c91 -57 128 -131 144 -286 16 -154 -9 -293 -67 -370 -36 -48 -49 -58 -111 -88 -48 -23 -63 -25 -145 -21 -108 4 -162 28 -212 94 -53 69 -70 140 -70 294 0 177 22 255 93 328 65 67 112 83 232 78 82 -2 101 -6 136 -29z"></path><path d="M5904 2779 c-114 -44 -182 -140 -192 -272 -14 -199 76 -314 258 -325 84 -5 169 9 223 37 20 10 38 16 41 14 2 -2 2 -23 -1 -46 -14 -116 -66 -220 -132 -264 -70 -47 -162 -55 -279 -24 -39 10 -74 16 -77 13 -12 -13 -4 -80 13 -95 29 -27 106 -40 209 -35 82 3 108 9 157 33 162 77 236 242 236 523 -1 250 -54 377 -182 437 -69 32 -196 34 -274 4z m211 -99 c70 -34 115 -144 115 -280 0 -68 -7 -75 -99 -105 -73 -24 -176 -17 -220 14 -51 37 -66 75 -66 171 0 90 15 135 59 174 55 49 142 59 211 26z"></path><path d="M6707 2786 c-125 -45 -189 -138 -221 -322 -41 -231 0 -502 90 -597 61 -64 124 -88 231 -88 104 0 168 24 229 86 104 107 144 316 113 592 -18 166 -71 261 -173 313 -53 27 -69 30 -145 30 -47 -1 -103 -7 -124 -14z m212 -115 c69 -50 100 -146 108 -341 9 -221 -29 -365 -111 -419 -54 -36 -155 -37 -203 -3 -79 56 -104 147 -105 377 0 258 32 353 137 401 42 20 136 12 174 -15z"></path><path d="M7475 2788 c-70 -26 -141 -92 -174 -164 -44 -94 -55 -161 -55 -344 0 -153 2 -185 23 -258 28 -97 74 -167 141 -208 43 -27 51 -29 160 -29 103 0 120 3 164 25 27 14 66 44 86 68 93 106 133 356 96 603 -17 112 -42 173 -92 229 -60 67 -103 83 -219 87 -57 1 -113 -2 -130 -9z m192 -107 c51 -24 86 -75 108 -156 22 -84 23 -386 1 -468 -32 -116 -100 -177 -200 -177 -110 0 -164 68 -192 240 -36 224 1 465 84 537 51 45 131 54 199 24z"></path><path d="M8353 2790 c-29 -12 -246 -152 -255 -165 -4 -5 -8 -27 -8 -47 0 -52 21 -50 122 13 45 27 90 54 100 60 17 9 18 -5 18 -376 l0 -385 -114 0 c-112 0 -114 0 -120 -24 -3 -14 -2 -36 4 -50 l10 -26 269 0 c263 0 271 1 281 21 6 11 8 33 5 49 l-6 29 -97 3 -97 3 -3 440 c-2 399 -4 441 -19 453 -19 14 -58 15 -90 2z"></path><path d="M3385 2778 c-3 -7 -4 -231 -3 -498 l3 -485 60 0 60 0 0 495 0 495 -58 3 c-40 2 -59 -1 -62 -10z"></path><path d="M2104 1157 c-90 -43 -128 -118 -128 -252 0 -180 73 -265 225 -265 35 0 77 5 95 12 29 10 36 9 66 -14 42 -32 112 -68 133 -68 9 0 15 9 15 25 0 18 -9 29 -32 41 -18 9 -47 27 -65 40 l-32 24 24 43 c73 130 45 330 -57 401 -35 25 -53 30 -117 33 -65 3 -84 0 -127 -20z m220 -78 c61 -66 70 -222 19 -313 -22 -37 -94 -76 -141 -76 -33 0 -85 21 -108 44 -59 60 -68 243 -15 325 30 46 69 62 145 59 63 -4 71 -6 100 -39z"></path><path d="M2561 1166 c-20 -24 -11 -391 11 -431 38 -71 97 -99 197 -93 60 3 75 8 108 34 64 52 68 66 71 290 3 175 1 202 -12 207 -41 16 -44 4 -48 -196 -3 -167 -5 -196 -22 -223 -37 -62 -108 -81 -176 -46 -62 31 -70 61 -70 275 0 107 -4 187 -9 187 -5 0 -16 2 -24 5 -7 3 -19 -1 -26 -9z"></path><path d="M3193 1168 c-6 -7 -20 -40 -31 -73 -11 -33 -50 -141 -86 -239 -36 -99 -66 -188 -66 -198 0 -13 8 -18 28 -18 25 0 30 6 52 70 l24 70 116 0 116 0 23 -70 c22 -69 23 -70 57 -70 19 0 34 3 34 6 0 5 -181 516 -185 522 -2 2 -18 5 -37 8 -22 4 -38 1 -45 -8z m86 -202 c23 -65 39 -121 37 -124 -7 -6 -167 -4 -174 2 -3 3 7 41 22 83 15 43 34 100 42 127 9 27 19 45 24 40 5 -5 27 -63 49 -128z"></path><path d="M3543 1173 c-10 -3 -13 -66 -13 -263 0 -226 2 -259 16 -264 9 -3 69 -6 135 -6 l119 0 0 30 0 30 -100 0 -100 0 0 235 c0 136 -4 235 -9 235 -5 0 -15 2 -23 4 -7 3 -19 2 -25 -1z"></path><path d="M3883 1173 c-10 -3 -13 -67 -13 -269 l0 -264 30 0 30 0 -2 267 c-3 280 -4 284 -45 266z"></path><path d="M4408 1174 c-4 -3 -97 -5 -207 -4 l-201 1 0 -26 c0 -25 1 -25 80 -25 l80 0 2 -237 3 -238 33 -3 32 -3 0 240 0 241 80 0 c64 0 80 3 80 15 0 36 21 5 93 -139 l77 -155 0 -100 0 -101 30 0 30 0 0 101 0 101 80 161 c49 97 77 164 71 170 -5 5 -19 7 -32 5 -23 -3 -59 -64 -122 -208 l-24 -55 -57 120 c-31 66 -64 126 -73 133 -18 13 -46 16 -55 6z"></path><path d="M5860 1160 c-11 -11 -20 -26 -20 -32 0 -7 -11 -42 -24 -78 -49 -131 -146 -400 -146 -405 0 -3 13 -5 30 -5 33 0 43 14 66 91 l15 50 116 -3 116 -3 25 -67 c24 -66 26 -68 58 -68 19 0 34 2 34 5 0 3 -20 60 -44 128 -25 67 -65 181 -91 252 -25 72 -53 136 -62 143 -24 18 -50 15 -73 -8z m88 -194 c23 -65 40 -121 38 -125 -7 -10 -170 -3 -174 8 -5 16 80 253 88 244 4 -4 26 -61 48 -127z"></path><path d="M6867 1168 c-9 -7 -46 -96 -83 -198 -118 -330 -115 -320 -99 -326 34 -13 50 2 74 69 l24 68 115 -3 115 -3 25 -67 c24 -66 26 -68 58 -68 19 0 34 2 34 5 0 6 -87 249 -105 295 -8 19 -28 76 -45 125 -30 89 -49 115 -80 115 -9 0 -24 -6 -33 -12z m78 -193 c21 -60 38 -116 39 -123 1 -10 -18 -14 -79 -14 -44 0 -85 1 -92 1 -8 1 3 45 32 128 25 69 45 129 45 132 0 21 23 -30 55 -124z"></path><path d="M7325 1162 c-89 -38 -133 -89 -155 -181 -35 -145 30 -284 153 -330 42 -16 157 -13 210 5 57 19 59 25 55 164 l-3 105 -97 3 -98 3 0 -26 c0 -24 2 -25 65 -25 l65 0 0 -84 0 -84 -49 -11 c-60 -13 -140 5 -176 39 -42 40 -68 116 -62 186 13 163 144 238 300 172 54 -23 65 -19 51 19 -19 54 -174 81 -259 45z"></path><path d="M5030 905 l0 -265 30 0 30 0 2 238 3 237 39 -100 c21 -55 62 -161 91 -235 46 -119 56 -135 77 -138 14 -2 29 3 35 10 6 7 50 113 99 236 l89 223 5 -233 5 -233 33 -3 32 -3 0 265 0 266 -49 0 c-39 0 -53 -5 -64 -21 -8 -11 -49 -105 -92 -210 -42 -104 -80 -189 -84 -189 -3 0 -30 62 -59 138 -113 294 -106 282 -172 282 l-50 0 0 -265z"></path><path d="M6207 1163 c-4 -3 -7 -123 -7 -265 l0 -258 29 0 c18 0 31 6 35 17 4 10 7 107 6 218 -1 241 -3 227 16 190 128 -246 219 -407 234 -415 28 -15 67 -12 74 6 3 9 6 128 6 265 l0 250 -32 -3 -33 -3 0 -208 c0 -114 -3 -207 -6 -207 -3 0 -52 89 -109 198 -56 108 -107 203 -113 210 -10 12 -89 17 -100 5z"></path><path d="M7715 1157 c-3 -7 -4 -125 -3 -262 l3 -250 143 -3 142 -3 0 30 0 30 -112 3 -113 3 0 90 0 90 95 5 c93 5 95 5 95 30 0 25 -2 25 -95 30 l-95 5 0 80 0 80 113 3 c112 3 112 3 112 27 l0 25 -140 0 c-104 0 -142 -3 -145 -13z"></path><path d="M8106 1148 c-8 -30 -8 -472 0 -492 4 -10 18 -16 35 -16 l29 0 0 237 c0 130 2 234 5 232 2 -3 44 -108 93 -235 87 -223 90 -229 118 -232 l30 -3 89 223 c49 123 92 227 97 233 4 5 8 -88 8 -207 0 -119 3 -223 6 -232 4 -10 18 -16 35 -16 l29 0 -2 263 -3 262 -45 3 c-25 1 -50 -1 -55 -5 -6 -5 -49 -99 -95 -210 -46 -112 -86 -203 -89 -203 -3 0 -30 62 -59 138 -63 162 -101 252 -115 270 -5 6 -31 12 -57 12 -41 0 -49 -3 -54 -22z"></path><path d="M8810 910 l0 -260 23 -5 c12 -3 76 -4 142 -3 l120 3 0 25 c0 25 -1 25 -110 30 l-110 5 0 90 0 90 95 5 c93 5 95 5 95 30 0 25 -2 25 -95 30 l-95 5 -3 60 c-6 106 -8 104 116 107 99 3 107 4 107 23 0 19 -8 20 -142 23 l-143 3 0 -261z"></path><path d="M9205 1157 c-3 -7 -4 -125 -3 -262 l3 -250 32 -3 33 -3 2 228 c3 189 5 223 15 201 30 -67 207 -385 226 -406 15 -16 30 -22 52 -20 l30 3 3 263 2 262 -30 0 -30 0 0 -210 c0 -116 -4 -210 -8 -210 -4 0 -15 15 -23 33 -32 68 -173 333 -191 360 -16 23 -27 27 -64 27 -27 0 -47 -5 -49 -13z"></path><path d="M9670 1145 c0 -25 1 -25 80 -25 l80 0 0 -241 0 -240 33 3 32 3 3 238 2 237 80 0 c79 0 80 0 80 25 l0 25 -195 0 -195 0 0 -25z"></path></g></svg>