<svg xmlns="http://www.w3.org/2000/svg" viewBox="0 0 50 50" width="50px" height="50px"><path d="M 39.0625 2 C 38.464844 2.136719 37.871094 2.269531 37.3125 2.40625 C 37.25 2.421875 37.15625 2.503906 37.15625 2.5625 C 37.144531 3.148438 37.15625 3.742188 37.15625 4.375 C 37.78125 4.242188 38.367188 4.125 38.9375 4 C 38.984375 3.988281 39.03125 3.917969 39.03125 3.875 C 39.039063 3.253906 39.0625 2.632813 39.0625 2 Z M 36.6875 2.53125 C 36.265625 2.617188 35.875 2.695313 35.46875 2.78125 C 34.824219 2.917969 34.8125 2.929688 34.8125 3.59375 L 34.8125 4.8125 C 35.46875 4.691406 36.074219 4.582031 36.6875 4.46875 Z M 34.34375 3 C 33.722656 3.109375 33.148438 3.203125 32.5625 3.3125 C 32.523438 3.320313 32.46875 3.421875 32.46875 3.46875 C 32.460938 4.035156 32.46875 4.585938 32.46875 5.1875 C 33.070313 5.089844 33.636719 5.003906 34.1875 4.90625 C 34.253906 4.894531 34.34375 4.835938 34.34375 4.78125 C 34.355469 4.203125 34.34375 3.609375 34.34375 3 Z M 29.625 3.78125 C 28.988281 3.867188 28.363281 3.949219 27.75 4.03125 L 27.75 5.84375 C 28.386719 5.769531 29.007813 5.667969 29.625 5.59375 Z M 41.375 3.90625 C 40.792969 4.039063 40.226563 4.148438 39.65625 4.28125 C 39.609375 4.292969 39.53125 4.367188 39.53125 4.40625 C 39.523438 4.957031 39.53125 5.496094 39.53125 6.0625 C 40.167969 5.929688 40.765625 5.816406 41.375 5.6875 C 41.375 5.097656 41.375 4.527344 41.375 3.90625 Z M 27.28125 4.09375 C 26.617188 4.164063 25.996094 4.214844 25.375 4.28125 L 25.375 6.0625 C 25.980469 6.003906 26.566406 5.96875 27.15625 5.90625 C 27.199219 5.902344 27.28125 5.820313 27.28125 5.78125 C 27.289063 5.226563 27.28125 4.671875 27.28125 4.09375 Z M 24.875 4.34375 C 24.226563 4.398438 23.617188 4.445313 23 4.5 L 23 6.25 C 23.632813 6.203125 24.246094 6.171875 24.875 6.125 Z M 22.5 4.53125 C 21.867188 4.566406 21.230469 4.589844 20.59375 4.625 L 20.59375 6.40625 C 21.238281 6.371094 21.882813 6.316406 22.5 6.28125 Z M 13.4375 4.75 L 13.4375 6.46875 L 15.3125 6.46875 L 15.3125 4.75 Z M 15.84375 4.78125 L 15.84375 6.46875 L 17.71875 6.46875 L 17.71875 4.78125 Z M 36.6875 4.90625 C 36.105469 5.011719 35.535156 5.109375 34.96875 5.21875 C 34.910156 5.230469 34.8125 5.296875 34.8125 5.34375 C 34.800781 5.855469 34.8125 6.363281 34.8125 6.90625 C 35.464844 6.796875 36.070313 6.699219 36.6875 6.59375 Z M 34.34375 5.34375 C 32.136719 5.652344 29.933594 5.972656 27.71875 6.28125 L 27.71875 10.25 C 26.332031 10.3125 24.980469 10.375 23.59375 10.4375 L 23.59375 8.84375 C 24.1875 8.808594 24.769531 8.78125 25.34375 8.75 L 25.34375 6.5 C 22.957031 6.632813 20.574219 6.773438 18.1875 6.90625 L 18.1875 10.71875 L 13.4375 10.71875 L 13.4375 12.6875 L 15.28125 12.6875 L 15.28125 14.1875 L 13.4375 14.1875 L 13.4375 16.125 L 15.84375 16.125 L 15.84375 22.34375 L 17.65625 22.34375 L 17.65625 23.84375 L 15.84375 23.84375 L 15.84375 26.1875 L 17.65625 26.1875 L 17.65625 27.6875 L 15.8125 27.6875 L 15.8125 33.875 L 13.4375 33.875 L 13.4375 37.78125 L 15.28125 37.78125 L 15.28125 39.28125 L 18.21875 39.28125 L 18.21875 43.125 C 19.832031 43.195313 21.414063 43.273438 23.03125 43.34375 L 23.03125 41.84375 C 23.664063 41.898438 24.253906 41.945313 24.875 42 L 24.875 39.5625 C 25.84375 39.636719 26.789063 39.707031 27.75 39.78125 L 27.75 43.71875 C 29.96875 44.027344 32.160156 44.347656 34.375 44.65625 L 34.375 40.5 C 34.769531 40.527344 35.117188 40.539063 35.46875 40.5625 C 36.683594 40.648438 37.871094 40.632813 39.0625 40.3125 C 41.257813 39.726563 42.773438 38.421875 43.375 36.1875 C 43.746094 34.808594 43.796875 33.414063 43.65625 32 C 43.539063 30.835938 43.214844 29.742188 42.625 28.71875 C 42.441406 28.398438 42.242188 28.210938 41.84375 28.25 C 41.515625 28.28125 41.179688 28.203125 40.84375 28.1875 C 40.414063 28.167969 39.976563 28.144531 39.53125 28.125 C 39.53125 27.480469 39.515625 26.894531 39.53125 26.28125 C 39.535156 26.089844 39.480469 25.988281 39.3125 25.9375 C 38.570313 25.71875 37.84375 25.480469 37.09375 25.28125 C 36.660156 25.167969 36.203125 25.113281 35.75 25.03125 L 35.75 24.40625 C 35.75 23.695313 35.757813 23.707031 36.4375 23.46875 C 37.621094 23.058594 38.777344 22.625 39.78125 21.84375 C 40.902344 20.96875 41.710938 19.867188 42.1875 18.53125 C 42.617188 17.324219 42.652344 16.042969 42.5625 14.78125 C 42.492188 13.8125 42.269531 12.898438 41.8125 12.03125 C 41.453125 11.351563 40.9375 10.804688 40.28125 10.40625 C 38.890625 9.5625 37.375 9.316406 35.78125 9.40625 C 35.316406 9.433594 34.847656 9.472656 34.375 9.5 C 34.367188 9.34375 34.351563 9.199219 34.34375 9.0625 C 33.722656 9.140625 33.136719 9.238281 32.53125 9.3125 L 32.53125 7.6875 C 33.144531 7.597656 33.738281 7.527344 34.34375 7.4375 Z M 41.375 6.125 C 40.753906 6.253906 40.136719 6.375 39.53125 6.5 L 39.53125 8.28125 C 40.15625 8.164063 40.777344 8.050781 41.375 7.9375 Z M 39.03125 6.59375 C 38.386719 6.710938 37.785156 6.828125 37.1875 6.9375 L 37.1875 8.65625 C 37.824219 8.550781 38.417969 8.445313 39.03125 8.34375 Z M 15.84375 6.90625 L 15.84375 8.40625 L 17.71875 8.40625 L 17.71875 6.90625 Z M 36.6875 7.03125 C 36.054688 7.132813 35.429688 7.242188 34.8125 7.34375 L 34.8125 9.03125 C 35.457031 8.9375 36.078125 8.839844 36.6875 8.75 Z M 13.4375 8.8125 L 13.4375 10.34375 L 15.3125 10.34375 L 15.3125 8.8125 Z M 15.84375 8.8125 L 15.84375 10.34375 L 17.71875 10.34375 L 17.71875 8.8125 Z M 6.3125 10.4375 L 6.3125 12 C 6.945313 12.035156 7.5625 12.089844 8.1875 12.125 L 8.1875 10.5625 C 7.554688 10.527344 6.941406 10.472656 6.3125 10.4375 Z M 8.6875 10.625 L 8.6875 12.15625 L 10.53125 12.15625 L 10.53125 10.625 Z M 11.0625 10.71875 L 11.0625 12.25 L 12.9375 12.25 L 12.9375 10.71875 Z M 22.5 12.4375 L 22.5 13.96875 C 21.878906 13.996094 21.253906 14.035156 20.625 14.0625 L 20.625 12.53125 C 21.253906 12.5 21.875 12.46875 22.5 12.4375 Z M 8.6875 12.5625 L 8.6875 14.09375 L 10.53125 14.09375 L 10.53125 12.5625 Z M 41.375 12.5625 L 41.375 14.375 C 40.78125 14.449219 40.179688 14.519531 39.5625 14.59375 L 39.5625 12.8125 C 40.148438 12.726563 40.746094 12.65625 41.375 12.5625 Z M 18.25 12.59375 L 20.09375 12.59375 L 20.09375 14.09375 L 18.25 14.09375 Z M 6.28125 14.4375 C 6.28125 14.890625 6.269531 15.367188 6.28125 15.84375 C 6.28125 15.886719 6.386719 15.9375 6.4375 15.9375 C 7.011719 15.945313 7.597656 15.96875 8.1875 15.96875 L 8.1875 14.4375 Z M 11.0625 14.59375 L 11.0625 16.09375 L 12.9375 16.09375 L 12.9375 14.59375 Z M 29.875 14.9375 C 33.78125 14.839844 33.691406 16.527344 33.71875 17.75 C 33.769531 19.992188 32.820313 22.011719 28.125 22.375 C 27.964844 22.386719 24.179688 22.53125 24.125 22.53125 C 24.125 20.085938 24.125 17.664063 24.125 15.21875 C 24.28125 15.207031 29.273438 14.953125 29.875 14.9375 Z M 6.3125 16.375 L 6.3125 17.9375 L 8.1875 17.9375 L 8.1875 16.375 Z M 11.0625 16.5 L 11.0625 18.03125 L 12.9375 18.03125 L 12.9375 16.5 Z M 13.4375 16.53125 L 13.4375 18.03125 L 15.3125 18.03125 L 15.3125 16.53125 Z M 17.25 16.53125 L 19.09375 16.53125 L 19.09375 18.03125 L 17.25 18.03125 Z M 41.34375 17.15625 L 41.34375 18.96875 C 40.75 19.007813 40.179688 19.054688 39.5625 19.09375 L 39.5625 17.34375 C 40.164063 17.289063 40.730469 17.214844 41.34375 17.15625 Z M 8.6875 18.40625 L 8.6875 19.9375 L 10.53125 19.9375 L 10.53125 18.40625 Z M 13.4375 18.46875 L 13.4375 19.96875 L 15.3125 19.96875 L 15.3125 18.46875 Z M 19.90625 18.46875 L 21.75 18.46875 L 21.75 19.9375 L 19.90625 19.9375 Z M 6.3125 20.3125 L 6.3125 21.84375 L 8.1875 21.84375 L 8.1875 20.3125 Z M 8.6875 20.34375 L 8.6875 21.875 L 10.53125 21.875 L 10.53125 20.34375 Z M 11.0625 20.375 L 11.0625 21.875 L 12.9375 21.875 L 12.9375 20.375 Z M 11.0625 22.3125 L 11.0625 23.8125 L 12.9375 23.8125 L 12.9375 22.3125 Z M 13.4375 22.3125 L 13.4375 23.8125 L 15.3125 23.8125 L 15.3125 22.3125 Z M 8.6875 24.25 L 8.6875 25.78125 L 10.53125 25.78125 L 10.53125 24.25 Z M 13.4375 24.25 L 13.4375 25.75 L 15.3125 25.75 L 15.3125 24.25 Z M 19.6875 24.25 L 21.53125 24.25 L 21.53125 25.75 L 19.6875 25.75 Z M 11.0625 26.1875 L 11.0625 27.6875 L 12.9375 27.6875 L 12.9375 26.1875 Z M 13.4375 26.1875 L 13.4375 27.6875 L 15.34375 27.6875 L 15.34375 26.1875 Z M 24.125 27.53125 C 24.242188 27.53125 27.570313 27.59375 28.125 27.625 C 34 27.9375 34.152344 29.078125 34.75 31.1875 C 34.921875 31.792969 34.789063 32.417969 34.625 33.03125 C 34.511719 33.457031 34.207031 35.066406 30.4375 35.0625 C 29.515625 35.0625 24.261719 34.84375 24.125 34.84375 Z M 8.6875 28.125 L 8.6875 29.65625 L 10.5625 29.65625 L 10.5625 28.125 Z M 11.0625 28.125 L 11.0625 29.625 L 12.9375 29.625 L 12.9375 28.125 Z M 6.3125 28.15625 L 6.3125 29.6875 L 8.1875 29.6875 L 8.1875 28.15625 Z M 13.4375 30.03125 L 13.4375 31.53125 L 15.3125 31.53125 L 15.3125 30.03125 Z M 17.78125 30.0625 L 19.625 30.0625 L 19.625 31.53125 L 17.78125 31.53125 Z M 8.6875 30.09375 L 8.6875 31.59375 L 10.53125 31.59375 L 10.53125 30.09375 Z M 6.3125 30.125 L 6.3125 31.65625 L 8.1875 31.65625 L 8.1875 30.125 Z M 11.0625 31.96875 L 11.0625 33.5 L 12.9375 33.5 L 12.9375 31.96875 Z M 13.4375 31.96875 L 13.4375 33.46875 L 15.3125 33.46875 L 15.3125 31.96875 Z M 17.78125 31.96875 L 19.625 31.96875 L 19.625 33.46875 L 17.78125 33.46875 Z M 8.6875 32 L 8.6875 33.53125 L 10.53125 33.53125 L 10.53125 32 Z M 39.5625 33.15625 C 40.15625 33.214844 40.757813 33.253906 41.375 33.3125 L 41.375 35.125 C 40.769531 35.054688 40.171875 35.007813 39.5625 34.9375 Z M 8.6875 33.96875 L 8.6875 35.46875 L 10.53125 35.46875 L 10.53125 33.96875 Z M 11.0625 35.84375 L 11.0625 37.34375 L 12.9375 37.34375 L 12.9375 35.84375 Z M 15.875 35.84375 L 17.71875 35.84375 L 17.71875 37.34375 L 15.875 37.34375 Z M 8.6875 35.90625 L 8.6875 37.4375 L 10.53125 37.4375 L 10.53125 35.90625 Z M 25.46875 36 L 27.3125 36 L 27.3125 37.5625 C 27.003906 37.546875 25.78125 37.484375 25.46875 37.46875 Z M 30.21875 36.1875 C 30.6875 36.21875 31.136719 36.25 31.59375 36.28125 C 31.746094 36.292969 31.910156 36.300781 32.0625 36.3125 L 32.0625 37.90625 C 31.605469 37.871094 30.375 37.761719 30.21875 37.75 Z M 11.0625 37.78125 L 11.0625 39.28125 L 12.9375 39.28125 L 12.9375 37.78125 Z M 8.1875 37.875 C 7.542969 37.910156 6.929688 37.964844 6.3125 38 L 6.3125 39.5625 C 6.949219 39.523438 7.558594 39.476563 8.1875 39.4375 Z M 13.4375 39.65625 L 13.4375 41.1875 L 15.34375 41.1875 L 15.34375 39.65625 Z M 15.84375 39.65625 L 15.84375 41.1875 L 17.71875 41.1875 L 17.71875 39.65625 Z M 20.625 39.6875 L 22.5 39.6875 L 22.5 41.15625 L 20.625 41.15625 Z M 10.53125 39.71875 C 9.898438 39.746094 9.304688 39.785156 8.6875 39.8125 L 8.6875 41.375 C 9.320313 41.347656 9.914063 41.308594 10.53125 41.28125 Z M 11.0625 39.71875 L 11.0625 41.21875 L 12.9375 41.21875 L 12.9375 39.71875 Z M 8.1875 39.84375 C 7.554688 39.882813 6.941406 39.929688 6.3125 39.96875 L 6.3125 41.53125 C 6.953125 41.488281 7.5625 41.449219 8.1875 41.40625 Z M 25.34375 40 L 25.34375 41.5625 C 25.992188 41.617188 26.636719 41.667969 27.25 41.71875 C 27.265625 41.667969 27.28125 41.640625 27.28125 41.625 C 27.285156 41.316406 27.28125 41.027344 27.28125 40.71875 C 27.28125 40.15625 27.265625 40.144531 26.71875 40.09375 C 26.664063 40.089844 26.617188 40.066406 26.5625 40.0625 C 26.164063 40.035156 25.753906 40.027344 25.34375 40 Z M 34.8125 40.96875 L 34.8125 42.65625 C 35.433594 42.757813 36.054688 42.867188 36.6875 42.96875 L 36.6875 41.25 C 36.058594 41.15625 35.4375 41.0625 34.8125 40.96875 Z M 37.15625 41.34375 C 37.15625 41.511719 37.15625 41.664063 37.15625 41.8125 C 37.15625 41.960938 37.152344 42.105469 37.15625 42.25 C 37.160156 42.445313 37.125 42.667969 37.15625 42.84375 C 37.167969 42.902344 37.1875 42.957031 37.21875 43 C 37.335938 43.152344 37.691406 43.140625 37.9375 43.1875 C 38.304688 43.257813 38.660156 43.308594 39.03125 43.375 L 39.03125 41.65625 C 38.410156 41.554688 37.804688 41.449219 37.15625 41.34375 Z M 15.84375 41.59375 L 15.84375 43.09375 L 17.71875 43.09375 L 17.71875 41.59375 Z M 11.0625 41.625 L 11.0625 43.15625 L 12.9375 43.15625 L 12.9375 41.625 Z M 39.53125 41.75 L 39.53125 43.5 C 40.144531 43.625 40.757813 43.75 41.375 43.875 L 41.375 42.0625 C 40.757813 41.949219 40.148438 41.863281 39.53125 41.75 Z M 25.375 41.96875 L 25.375 43.53125 C 26.007813 43.589844 26.605469 43.65625 27.25 43.71875 L 27.25 42.125 C 26.609375 42.070313 26.003906 42.023438 25.375 41.96875 Z M 34.8125 43.09375 L 34.8125 44.75 C 35.433594 44.863281 36.054688 44.980469 36.6875 45.09375 L 36.6875 43.40625 C 36.0625 43.300781 35.441406 43.199219 34.8125 43.09375 Z M 15.84375 43.5 L 15.84375 45.21875 L 17.71875 45.21875 L 17.71875 43.5 Z M 18.21875 43.5625 L 18.21875 45.28125 L 20.09375 45.28125 L 20.09375 43.5625 Z M 20.59375 43.625 C 20.59375 44.183594 20.578125 44.699219 20.59375 45.21875 C 20.59375 45.273438 20.710938 45.367188 20.78125 45.375 C 21.058594 45.40625 21.34375 45.390625 21.625 45.40625 C 21.917969 45.421875 22.203125 45.453125 22.5 45.46875 L 22.5 43.71875 C 21.851563 43.6875 21.238281 43.65625 20.59375 43.625 Z M 23 43.75 L 23 45.5 C 23.628906 45.550781 24.226563 45.601563 24.875 45.65625 L 24.875 44.5 C 24.875 43.90625 24.875 43.898438 24.28125 43.84375 C 23.851563 43.804688 23.445313 43.785156 23 43.75 Z M 27.75 44.15625 L 27.75 45.96875 C 28.382813 46.050781 28.996094 46.136719 29.625 46.21875 L 29.625 44.40625 C 28.996094 44.332031 28.382813 44.230469 27.75 44.15625 Z M 30.125 44.46875 L 30.125 46.28125 C 30.757813 46.378906 31.371094 46.496094 32 46.59375 L 32 44.71875 C 31.367188 44.628906 30.75 44.558594 30.125 44.46875 Z M 34.8125 45.1875 C 34.8125 45.816406 34.804688 46.398438 34.8125 46.96875 C 34.8125 47.019531 34.890625 47.082031 34.9375 47.09375 C 35.519531 47.21875 36.085938 47.347656 36.6875 47.46875 L 36.6875 45.53125 C 36.066406 45.417969 35.460938 45.308594 34.8125 45.1875 Z M 37.15625 45.65625 C 37.15625 46.277344 37.148438 46.828125 37.15625 47.40625 C 37.15625 47.46875 37.230469 47.582031 37.28125 47.59375 C 37.859375 47.734375 38.453125 47.863281 39.0625 48 C 39.0625 47.367188 39.042969 46.769531 39.03125 46.15625 C 39.03125 46.101563 38.945313 46.015625 38.875 46 C 38.515625 45.914063 38.144531 45.824219 37.78125 45.75 C 37.582031 45.710938 37.378906 45.699219 37.15625 45.65625 Z"></path></svg>