<svg xmlns="http://www.w3.org/2000/svg" xmlns:xlink="http://www.w3.org/1999/xlink" width="650" viewBox="0 0 487.5 74.999997" height="100" preserveAspectRatio="xMidYMid meet"><defs><g></g><clipPath id="d06d2399a1"><path d="M 1 1 L 73 1 L 73 73 L 1 73 Z M 1 1 " clip-rule="nonzero"></path></clipPath><clipPath id="c0e419cf6e"><path d="M -20.007812 -5.585938 L 79.402344 -19.613281 L 93.433594 79.796875 L -5.980469 93.828125 Z M -20.007812 -5.585938 " clip-rule="nonzero"></path></clipPath><clipPath id="9d50a06e10"><path d="M -10.695312 1.425781 L 80.554688 -11.453125 L 93.433594 79.796875 L 2.179688 92.675781 Z M -10.695312 1.425781 " clip-rule="nonzero"></path></clipPath><clipPath id="6594d8c90f"><path d="M -20.035156 -5.605469 L 79.375 -19.636719 L 93.40625 79.777344 L -6.007812 93.808594 Z M -20.035156 -5.605469 " clip-rule="nonzero"></path></clipPath><clipPath id="6a234323e7"><path d="M 28 12 L 57 12 L 57 42 L 28 42 Z M 28 12 " clip-rule="nonzero"></path></clipPath><clipPath id="cce9fd2ffa"><path d="M -20.007812 -5.585938 L 79.402344 -19.613281 L 93.433594 79.796875 L -5.980469 93.828125 Z M -20.007812 -5.585938 " clip-rule="nonzero"></path></clipPath><clipPath id="9b097c6c18"><path d="M -10.695312 1.425781 L 80.554688 -11.453125 L 93.433594 79.796875 L 2.179688 92.675781 Z M -10.695312 1.425781 " clip-rule="nonzero"></path></clipPath><clipPath id="0818324875"><path d="M -20.035156 -5.605469 L 79.375 -19.636719 L 93.40625 79.777344 L -6.007812 93.808594 Z M -20.035156 -5.605469 " clip-rule="nonzero"></path></clipPath><clipPath id="7d4c7e9b86"><path d="M 16 32 L 45 32 L 45 62 L 16 62 Z M 16 32 " clip-rule="nonzero"></path></clipPath><clipPath id="8b43675691"><path d="M -20.007812 -5.585938 L 79.402344 -19.613281 L 93.433594 79.796875 L -5.980469 93.828125 Z M -20.007812 -5.585938 " clip-rule="nonzero"></path></clipPath><clipPath id="81b4bb6200"><path d="M -10.695312 1.425781 L 80.554688 -11.453125 L 93.433594 79.796875 L 2.179688 92.675781 Z M -10.695312 1.425781 " clip-rule="nonzero"></path></clipPath><clipPath id="e38f10c10e"><path d="M -20.035156 -5.605469 L 79.375 -19.636719 L 93.40625 79.777344 L -6.007812 93.808594 Z M -20.035156 -5.605469 " clip-rule="nonzero"></path></clipPath></defs><g clip-path="url(#d06d2399a1)"><g clip-path="url(#c0e419cf6e)"><g clip-path="url(#9d50a06e10)"><g clip-path="url(#6594d8c90f)"><path fill="#039be5" d="M 58.039062 8.730469 C 58.96875 9.429688 59.859375 10.171875 60.714844 10.957031 C 61.570312 11.746094 62.386719 12.570312 63.160156 13.4375 C 63.9375 14.304688 64.667969 15.207031 65.351562 16.144531 C 66.039062 17.085938 66.675781 18.054688 67.269531 19.054688 C 67.859375 20.058594 68.398438 21.085938 68.886719 22.140625 C 69.378906 23.195312 69.816406 24.269531 70.199219 25.367188 C 70.582031 26.464844 70.910156 27.578125 71.1875 28.707031 C 71.460938 29.839844 71.679688 30.976562 71.84375 32.128906 C 72.003906 33.28125 72.109375 34.4375 72.160156 35.597656 C 72.207031 36.761719 72.199219 37.921875 72.132812 39.082031 C 72.070312 40.242188 71.949219 41.398438 71.769531 42.546875 C 71.589844 43.695312 71.355469 44.832031 71.066406 45.957031 C 70.773438 47.082031 70.429688 48.191406 70.03125 49.285156 C 69.632812 50.375 69.179688 51.445312 68.675781 52.492188 C 68.171875 53.539062 67.617188 54.5625 67.011719 55.554688 C 66.40625 56.546875 65.753906 57.507812 65.054688 58.4375 C 64.355469 59.363281 63.613281 60.257812 62.828125 61.113281 C 62.039062 61.96875 61.214844 62.785156 60.347656 63.558594 C 59.480469 64.332031 58.578125 65.0625 57.636719 65.75 C 56.699219 66.4375 55.730469 67.074219 54.726562 67.664062 C 53.726562 68.253906 52.699219 68.796875 51.644531 69.285156 C 50.589844 69.773438 49.515625 70.210938 48.417969 70.597656 C 47.320312 70.980469 46.207031 71.308594 45.074219 71.582031 C 43.945312 71.859375 42.804688 72.078125 41.65625 72.238281 C 40.503906 72.402344 39.347656 72.507812 38.1875 72.554688 C 37.023438 72.605469 35.863281 72.597656 34.703125 72.53125 C 33.542969 72.464844 32.386719 72.34375 31.238281 72.164062 C 30.089844 71.988281 28.953125 71.753906 27.828125 71.460938 C 26.699219 71.171875 25.59375 70.828125 24.5 70.425781 C 23.40625 70.027344 22.339844 69.578125 21.292969 69.070312 C 20.242188 68.566406 19.222656 68.011719 18.230469 67.410156 C 17.238281 66.804688 16.277344 66.152344 15.347656 65.453125 C 14.417969 64.753906 13.527344 64.011719 12.671875 63.222656 C 11.816406 62.4375 11 61.609375 10.226562 60.742188 C 9.449219 59.875 8.71875 58.972656 8.035156 58.035156 C 7.347656 57.097656 6.710938 56.125 6.117188 55.125 C 5.527344 54.125 4.988281 53.097656 4.5 52.042969 C 4.007812 50.988281 3.570312 49.910156 3.1875 48.8125 C 2.804688 47.714844 2.476562 46.601562 2.199219 45.472656 C 1.925781 44.34375 1.707031 43.203125 1.546875 42.050781 C 1.382812 40.902344 1.277344 39.746094 1.226562 38.582031 C 1.179688 37.421875 1.1875 36.261719 1.253906 35.097656 C 1.316406 33.9375 1.441406 32.785156 1.617188 31.636719 C 1.796875 30.488281 2.03125 29.347656 2.320312 28.222656 C 2.613281 27.097656 2.957031 25.988281 3.355469 24.898438 C 3.757812 23.804688 4.207031 22.734375 4.710938 21.6875 C 5.214844 20.640625 5.769531 19.621094 6.375 18.628906 C 6.980469 17.636719 7.632812 16.675781 8.332031 15.746094 C 9.03125 14.816406 9.773438 13.925781 10.558594 13.066406 C 11.347656 12.210938 12.175781 11.398438 13.039062 10.621094 C 13.90625 9.847656 14.8125 9.117188 15.75 8.429688 C 16.6875 7.746094 17.65625 7.105469 18.660156 6.515625 C 19.660156 5.925781 20.6875 5.386719 21.742188 4.894531 C 22.796875 4.40625 23.875 3.96875 24.96875 3.585938 C 26.066406 3.203125 27.179688 2.871094 28.3125 2.597656 C 29.441406 2.324219 30.582031 2.105469 31.730469 1.941406 C 32.882812 1.78125 34.039062 1.675781 35.203125 1.625 C 36.363281 1.578125 37.523438 1.585938 38.683594 1.648438 C 39.84375 1.714844 41 1.835938 42.148438 2.015625 C 43.296875 2.195312 44.433594 2.429688 45.5625 2.71875 C 46.6875 3.007812 47.796875 3.355469 48.886719 3.753906 C 49.980469 4.152344 51.046875 4.605469 52.097656 5.109375 C 53.144531 5.613281 54.164062 6.167969 55.15625 6.773438 C 56.148438 7.378906 57.109375 8.03125 58.039062 8.730469 Z M 58.039062 8.730469 " fill-opacity="1" fill-rule="nonzero"></path></g></g></g></g><g clip-path="url(#6a234323e7)"><g clip-path="url(#cce9fd2ffa)"><g clip-path="url(#9b097c6c18)"><g clip-path="url(#0818324875)"><path fill="#fffffe" d="M 32.5 41.261719 C 30.480469 39.742188 29.164062 37.492188 28.808594 34.984375 C 28.457031 32.480469 29.097656 29.953125 30.621094 27.933594 L 39.445312 16.207031 C 40.96875 14.183594 43.21875 12.867188 45.722656 12.515625 C 48.226562 12.160156 50.753906 12.804688 52.773438 14.324219 C 54.796875 15.847656 56.113281 18.097656 56.46875 20.601562 C 56.820312 23.105469 56.179688 25.632812 54.65625 27.65625 L 47.820312 36.738281 L 44.519531 34.253906 L 51.355469 25.171875 C 52.214844 24.027344 52.574219 22.597656 52.375 21.179688 C 52.175781 19.765625 51.433594 18.488281 50.289062 17.628906 C 49.144531 16.765625 47.71875 16.40625 46.300781 16.605469 C 44.882812 16.804688 43.609375 17.546875 42.746094 18.691406 L 33.921875 30.417969 C 33.0625 31.5625 32.703125 32.988281 32.902344 34.40625 C 33.101562 35.824219 33.84375 37.097656 34.988281 37.957031 L 35.703125 38.496094 L 33.21875 41.800781 Z M 32.5 41.261719 " fill-opacity="1" fill-rule="evenodd"></path></g></g></g></g><g clip-path="url(#7d4c7e9b86)"><g clip-path="url(#8b43675691)"><g clip-path="url(#81b4bb6200)"><g clip-path="url(#e38f10c10e)"><path fill="#fffffe" d="M 40.886719 32.917969 C 42.910156 34.441406 44.226562 36.691406 44.578125 39.195312 C 44.933594 41.699219 44.289062 44.226562 42.769531 46.25 L 33.941406 57.972656 C 32.421875 59.996094 30.171875 61.3125 27.667969 61.667969 C 25.160156 62.019531 22.636719 61.378906 20.613281 59.855469 C 18.589844 58.332031 17.273438 56.082031 16.921875 53.578125 C 16.566406 51.074219 17.210938 48.546875 18.730469 46.523438 L 25.566406 37.441406 L 28.871094 39.925781 L 22.035156 49.011719 C 21.171875 50.15625 20.8125 51.582031 21.011719 53 C 21.214844 54.417969 21.953125 55.691406 23.097656 56.554688 C 24.242188 57.414062 25.671875 57.773438 27.089844 57.574219 C 28.503906 57.375 29.777344 56.632812 30.640625 55.488281 L 39.464844 43.765625 C 40.328125 42.621094 40.6875 41.191406 40.484375 39.773438 C 40.285156 38.359375 39.542969 37.085938 38.398438 36.222656 L 37.683594 35.683594 L 40.167969 32.382812 Z M 40.886719 32.917969 " fill-opacity="1" fill-rule="evenodd"></path></g></g></g></g><g fill="#ffffff" fill-opacity="1"><g transform="translate(53.382053, 55.070857)"><g><path d="M 31.625 -23.890625 C 31.28125 -21.847656 30.488281 -19.984375 29.25 -18.296875 C 28.019531 -16.609375 26.34375 -15.242188 24.21875 -14.203125 C 22.09375 -13.160156 19.59375 -12.640625 16.71875 -12.640625 L 11.390625 -12.640625 L 9.140625 0 L 0.546875 0 L 6.78125 -35.234375 L 20.671875 -35.234375 C 24.359375 -35.234375 27.132812 -34.421875 29 -32.796875 C 30.875 -31.171875 31.8125 -28.972656 31.8125 -26.203125 C 31.8125 -25.359375 31.75 -24.585938 31.625 -23.890625 Z M 17.21875 -19.375 C 20.425781 -19.375 22.316406 -20.878906 22.890625 -23.890625 C 22.953125 -24.421875 22.984375 -24.804688 22.984375 -25.046875 C 22.984375 -26.117188 22.640625 -26.945312 21.953125 -27.53125 C 21.265625 -28.113281 20.222656 -28.40625 18.828125 -28.40625 L 14.15625 -28.40625 L 12.59375 -19.375 Z M 17.21875 -19.375 "></path></g></g></g><g fill="#ffffff" fill-opacity="1"><g transform="translate(84.688166, 55.070857)"><g><path d="M 13.15625 -22.9375 C 14.457031 -24.601562 15.953125 -25.914062 17.640625 -26.875 C 19.328125 -27.832031 21.09375 -28.3125 22.9375 -28.3125 L 21.328125 -19.21875 L 18.96875 -19.21875 C 16.832031 -19.21875 15.144531 -18.757812 13.90625 -17.84375 C 12.664062 -16.925781 11.84375 -15.3125 11.4375 -13 L 9.140625 0 L 0.546875 0 L 5.46875 -28 L 14.046875 -28 Z M 13.15625 -22.9375 "></path></g></g></g><g fill="#ffffff" fill-opacity="1"><g transform="translate(106.160948, 55.070857)"><g><path d="M 13.34375 0.40625 C 10.9375 0.40625 8.796875 -0.078125 6.921875 -1.046875 C 5.046875 -2.023438 3.597656 -3.398438 2.578125 -5.171875 C 1.554688 -6.941406 1.046875 -9 1.046875 -11.34375 C 1.046875 -14.519531 1.800781 -17.410156 3.3125 -20.015625 C 4.820312 -22.628906 6.894531 -24.679688 9.53125 -26.171875 C 12.175781 -27.660156 15.125 -28.40625 18.375 -28.40625 C 20.78125 -28.40625 22.925781 -27.910156 24.8125 -26.921875 C 26.707031 -25.929688 28.171875 -24.550781 29.203125 -22.78125 C 30.242188 -21.007812 30.765625 -18.953125 30.765625 -16.609375 C 30.765625 -13.398438 30.003906 -10.5 28.484375 -7.90625 C 26.960938 -5.3125 24.867188 -3.273438 22.203125 -1.796875 C 19.546875 -0.328125 16.59375 0.40625 13.34375 0.40625 Z M 14.546875 -6.96875 C 15.953125 -6.96875 17.21875 -7.394531 18.34375 -8.25 C 19.46875 -9.101562 20.335938 -10.207031 20.953125 -11.5625 C 21.566406 -12.914062 21.875 -14.332031 21.875 -15.8125 C 21.875 -17.476562 21.421875 -18.765625 20.515625 -19.671875 C 19.617188 -20.578125 18.484375 -21.03125 17.109375 -21.03125 C 15.671875 -21.03125 14.40625 -20.601562 13.3125 -19.75 C 12.226562 -18.894531 11.382812 -17.78125 10.78125 -16.40625 C 10.1875 -15.039062 9.890625 -13.601562 9.890625 -12.09375 C 9.890625 -10.457031 10.320312 -9.191406 11.1875 -8.296875 C 12.0625 -7.410156 13.179688 -6.96875 14.546875 -6.96875 Z M 14.546875 -6.96875 "></path></g></g></g><g fill="#ffffff" fill-opacity="1"><g transform="translate(138.119278, 55.070857)"><g><path d="M 10.28125 -30.921875 C 8.945312 -30.921875 7.882812 -31.28125 7.09375 -32 C 6.3125 -32.71875 5.921875 -33.628906 5.921875 -34.734375 C 5.921875 -36.234375 6.503906 -37.519531 7.671875 -38.59375 C 8.847656 -39.664062 10.269531 -40.203125 11.9375 -40.203125 C 13.25 -40.203125 14.296875 -39.847656 15.078125 -39.140625 C 15.867188 -38.441406 16.265625 -37.539062 16.265625 -36.4375 C 16.265625 -34.925781 15.6875 -33.628906 14.53125 -32.546875 C 13.375 -31.460938 11.957031 -30.921875 10.28125 -30.921875 Z M 8.484375 3.609375 C 7.378906 10.097656 3.515625 13.34375 -3.109375 13.34375 L -6.46875 13.34375 L -5.171875 6.078125 L -3.109375 6.078125 C -2.171875 6.078125 -1.472656 5.890625 -1.015625 5.515625 C -0.566406 5.148438 -0.257812 4.550781 -0.09375 3.71875 L 5.46875 -28 L 14.046875 -28 Z M 8.484375 3.609375 "></path></g></g></g><g fill="#ffffff" fill-opacity="1"><g transform="translate(152.869274, 55.070857)"><g><path d="M 18.015625 -28.40625 C 21.628906 -28.40625 24.5 -27.425781 26.625 -25.46875 C 28.75 -23.507812 29.8125 -20.84375 29.8125 -17.46875 C 29.8125 -16.363281 29.726562 -15.375 29.5625 -14.5 C 29.425781 -13.726562 29.222656 -12.910156 28.953125 -12.046875 L 9.53125 -12.046875 C 9.5 -11.847656 9.484375 -11.53125 9.484375 -11.09375 C 9.484375 -9.625 9.882812 -8.503906 10.6875 -7.734375 C 11.488281 -6.960938 12.5625 -6.578125 13.90625 -6.578125 C 16.039062 -6.578125 17.679688 -7.476562 18.828125 -9.28125 L 27.953125 -9.28125 C 26.742188 -6.4375 24.785156 -4.109375 22.078125 -2.296875 C 19.367188 -0.492188 16.328125 0.40625 12.953125 0.40625 C 9.335938 0.40625 6.445312 -0.597656 4.28125 -2.609375 C 2.125 -4.617188 1.046875 -7.347656 1.046875 -10.796875 C 1.046875 -11.828125 1.148438 -12.894531 1.359375 -14 C 1.859375 -16.914062 2.894531 -19.457031 4.46875 -21.625 C 6.039062 -23.800781 8 -25.472656 10.34375 -26.640625 C 12.6875 -27.816406 15.242188 -28.40625 18.015625 -28.40625 Z M 21.125 -16.40625 C 21.195312 -16.875 21.234375 -17.191406 21.234375 -17.359375 C 21.234375 -18.703125 20.8125 -19.734375 19.96875 -20.453125 C 19.132812 -21.171875 18.03125 -21.53125 16.65625 -21.53125 C 15.1875 -21.53125 13.890625 -21.085938 12.765625 -20.203125 C 11.648438 -19.316406 10.84375 -18.050781 10.34375 -16.40625 Z M 21.125 -16.40625 "></path></g></g></g><g fill="#ffffff" fill-opacity="1"><g transform="translate(183.774026, 55.070857)"><g><path d="M 1.359375 -14 C 1.859375 -16.914062 2.894531 -19.457031 4.46875 -21.625 C 6.039062 -23.800781 7.988281 -25.472656 10.3125 -26.640625 C 12.632812 -27.816406 15.171875 -28.40625 17.921875 -28.40625 C 21.429688 -28.40625 24.207031 -27.484375 26.25 -25.640625 C 28.289062 -23.804688 29.378906 -21.210938 29.515625 -17.859375 L 20.375 -17.859375 C 20.007812 -20.003906 18.707031 -21.078125 16.46875 -21.078125 C 14.894531 -21.078125 13.535156 -20.46875 12.390625 -19.25 C 11.253906 -18.03125 10.488281 -16.28125 10.09375 -14 C 9.957031 -13.300781 9.890625 -12.566406 9.890625 -11.796875 C 9.890625 -10.222656 10.253906 -9.015625 10.984375 -8.171875 C 11.722656 -7.335938 12.726562 -6.921875 14 -6.921875 C 16.207031 -6.921875 17.863281 -7.992188 18.96875 -10.140625 L 28.15625 -10.140625 C 26.851562 -6.859375 24.84375 -4.28125 22.125 -2.40625 C 19.414062 -0.53125 16.320312 0.40625 12.84375 0.40625 C 9.226562 0.40625 6.359375 -0.585938 4.234375 -2.578125 C 2.109375 -4.578125 1.046875 -7.296875 1.046875 -10.734375 C 1.046875 -11.773438 1.148438 -12.863281 1.359375 -14 Z M 1.359375 -14 "></path></g></g></g><g fill="#ffffff" fill-opacity="1"><g transform="translate(214.126914, 55.070857)"><g><path d="M 12.203125 -9.640625 C 12.160156 -9.472656 12.140625 -9.253906 12.140625 -8.984375 C 12.140625 -8.378906 12.316406 -7.941406 12.671875 -7.671875 C 13.023438 -7.410156 13.601562 -7.28125 14.40625 -7.28125 L 17.46875 -7.28125 L 16.15625 0 L 11.796875 0 C 6.171875 0 3.359375 -2.359375 3.359375 -7.078125 C 3.359375 -7.773438 3.441406 -8.660156 3.609375 -9.734375 L 5.625 -20.875 L 2.203125 -20.875 L 3.46875 -28 L 6.875 -28 L 8.078125 -34.828125 L 16.65625 -34.828125 L 15.453125 -28 L 21.078125 -28 L 19.828125 -20.875 L 14.203125 -20.875 Z M 12.203125 -9.640625 "></path></g></g></g><g fill="#ffffff" fill-opacity="1"><g transform="translate(234.499926, 55.070857)"><g></g></g></g><g fill="#ffffff" fill-opacity="1"><g transform="translate(245.142043, 55.070857)"><g><path d="M 22.828125 0 L 8.4375 -15.953125 L 8.4375 0 L 3.859375 0 L 3.859375 -34.984375 L 8.4375 -34.984375 L 8.4375 -18.765625 L 22.890625 -34.984375 L 28.65625 -34.984375 L 12.796875 -17.46875 L 28.8125 0 Z M 22.828125 0 "></path></g></g></g><g fill="#ffffff" fill-opacity="1"><g transform="translate(275.193911, 55.070857)"><g><path d="M 2.15625 -13.859375 C 2.15625 -16.660156 2.722656 -19.125 3.859375 -21.25 C 5.003906 -23.375 6.570312 -25.019531 8.5625 -26.1875 C 10.550781 -27.363281 12.765625 -27.953125 15.203125 -27.953125 C 17.617188 -27.953125 19.710938 -27.429688 21.484375 -26.390625 C 23.253906 -25.359375 24.570312 -24.054688 25.4375 -22.484375 L 25.4375 -27.5 L 30.0625 -27.5 L 30.0625 0 L 25.4375 0 L 25.4375 -5.125 C 24.539062 -3.507812 23.195312 -2.175781 21.40625 -1.125 C 19.613281 -0.0703125 17.53125 0.453125 15.15625 0.453125 C 12.71875 0.453125 10.507812 -0.144531 8.53125 -1.34375 C 6.5625 -2.550781 5.003906 -4.242188 3.859375 -6.421875 C 2.722656 -8.597656 2.15625 -11.078125 2.15625 -13.859375 Z M 25.4375 -13.796875 C 25.4375 -15.867188 25.019531 -17.675781 24.1875 -19.21875 C 23.351562 -20.757812 22.222656 -21.9375 20.796875 -22.75 C 19.378906 -23.570312 17.816406 -23.984375 16.109375 -23.984375 C 14.398438 -23.984375 12.84375 -23.582031 11.4375 -22.78125 C 10.03125 -21.976562 8.910156 -20.804688 8.078125 -19.265625 C 7.242188 -17.734375 6.828125 -15.929688 6.828125 -13.859375 C 6.828125 -11.742188 7.242188 -9.90625 8.078125 -8.34375 C 8.910156 -6.789062 10.03125 -5.601562 11.4375 -4.78125 C 12.84375 -3.96875 14.398438 -3.5625 16.109375 -3.5625 C 17.816406 -3.5625 19.378906 -3.96875 20.796875 -4.78125 C 22.222656 -5.601562 23.351562 -6.789062 24.1875 -8.34375 C 25.019531 -9.90625 25.4375 -11.722656 25.4375 -13.796875 Z M 25.4375 -13.796875 "></path></g></g></g><g fill="#ffffff" fill-opacity="1"><g transform="translate(309.108866, 55.070857)"><g><path d="M 36.9375 -28 C 39.082031 -28 40.988281 -27.554688 42.65625 -26.671875 C 44.332031 -25.785156 45.65625 -24.457031 46.625 -22.6875 C 47.59375 -20.914062 48.078125 -18.753906 48.078125 -16.203125 L 48.078125 0 L 43.5625 0 L 43.5625 -15.5625 C 43.5625 -18.300781 42.882812 -20.398438 41.53125 -21.859375 C 40.175781 -23.316406 38.34375 -24.046875 36.03125 -24.046875 C 33.65625 -24.046875 31.765625 -23.28125 30.359375 -21.75 C 28.953125 -20.226562 28.25 -18.03125 28.25 -15.15625 L 28.25 0 L 23.734375 0 L 23.734375 -15.5625 C 23.734375 -18.300781 23.054688 -20.398438 21.703125 -21.859375 C 20.347656 -23.316406 18.515625 -24.046875 16.203125 -24.046875 C 13.828125 -24.046875 11.9375 -23.28125 10.53125 -21.75 C 9.132812 -20.226562 8.4375 -18.03125 8.4375 -15.15625 L 8.4375 0 L 3.859375 0 L 3.859375 -27.5 L 8.4375 -27.5 L 8.4375 -23.53125 C 9.332031 -24.976562 10.539062 -26.082031 12.0625 -26.84375 C 13.59375 -27.613281 15.273438 -28 17.109375 -28 C 19.421875 -28 21.460938 -27.476562 23.234375 -26.4375 C 25.003906 -25.40625 26.328125 -23.882812 27.203125 -21.875 C 27.972656 -23.820312 29.242188 -25.328125 31.015625 -26.390625 C 32.785156 -27.460938 34.757812 -28 36.9375 -28 Z M 36.9375 -28 "></path></g></g></g><g fill="#ffffff" fill-opacity="1"><g transform="translate(360.78402, 55.070857)"><g><path d="M 6.21875 -31.96875 C 5.351562 -31.96875 4.617188 -32.269531 4.015625 -32.875 C 3.410156 -33.476562 3.109375 -34.210938 3.109375 -35.078125 C 3.109375 -35.953125 3.410156 -36.6875 4.015625 -37.28125 C 4.617188 -37.882812 5.351562 -38.1875 6.21875 -38.1875 C 7.0625 -38.1875 7.773438 -37.882812 8.359375 -37.28125 C 8.941406 -36.6875 9.234375 -35.953125 9.234375 -35.078125 C 9.234375 -34.210938 8.941406 -33.476562 8.359375 -32.875 C 7.773438 -32.269531 7.0625 -31.96875 6.21875 -31.96875 Z M 8.4375 -27.5 L 8.4375 0 L 3.859375 0 L 3.859375 -27.5 Z M 8.4375 -27.5 "></path></g></g></g><g fill="#ffffff" fill-opacity="1"><g transform="translate(373.125853, 55.070857)"><g><path d="M 47.828125 -34.984375 L 37.6875 0 L 32.578125 0 L 24.4375 -28.15625 L 16.015625 0 L 10.9375 0.046875 L 1.15625 -34.984375 L 6.015625 -34.984375 L 13.65625 -5.3125 L 22.078125 -34.984375 L 27.203125 -34.984375 L 35.234375 -5.421875 L 42.90625 -34.984375 Z M 47.828125 -34.984375 "></path></g></g></g><g fill="#ffffff" fill-opacity="1"><g transform="translate(422.091824, 55.070857)"><g><path d="M 28.953125 -14.8125 C 28.953125 -13.9375 28.90625 -13.015625 28.8125 -12.046875 L 6.828125 -12.046875 C 6.992188 -9.335938 7.921875 -7.21875 9.609375 -5.6875 C 11.296875 -4.164062 13.347656 -3.40625 15.765625 -3.40625 C 17.734375 -3.40625 19.378906 -3.863281 20.703125 -4.78125 C 22.023438 -5.707031 22.953125 -6.941406 23.484375 -8.484375 L 28.40625 -8.484375 C 27.664062 -5.835938 26.191406 -3.6875 23.984375 -2.03125 C 21.773438 -0.375 19.035156 0.453125 15.765625 0.453125 C 13.148438 0.453125 10.8125 -0.128906 8.75 -1.296875 C 6.695312 -2.472656 5.082031 -4.140625 3.90625 -6.296875 C 2.738281 -8.453125 2.15625 -10.953125 2.15625 -13.796875 C 2.15625 -16.640625 2.722656 -19.128906 3.859375 -21.265625 C 5.003906 -23.410156 6.601562 -25.0625 8.65625 -26.21875 C 10.71875 -27.375 13.085938 -27.953125 15.765625 -27.953125 C 18.367188 -27.953125 20.675781 -27.382812 22.6875 -26.25 C 24.695312 -25.113281 26.242188 -23.546875 27.328125 -21.546875 C 28.410156 -19.554688 28.953125 -17.3125 28.953125 -14.8125 Z M 24.234375 -15.765625 C 24.234375 -17.503906 23.847656 -19 23.078125 -20.25 C 22.316406 -21.5 21.273438 -22.453125 19.953125 -23.109375 C 18.628906 -23.765625 17.164062 -24.09375 15.5625 -24.09375 C 13.25 -24.09375 11.28125 -23.351562 9.65625 -21.875 C 8.039062 -20.40625 7.113281 -18.367188 6.875 -15.765625 Z M 24.234375 -15.765625 "></path></g></g></g><g fill="#ffffff" fill-opacity="1"><g transform="translate(453.197256, 55.070857)"><g><path d="M 8.4375 -22.390625 C 9.375 -24.023438 10.742188 -25.359375 12.546875 -26.390625 C 14.347656 -27.429688 16.40625 -27.953125 18.71875 -27.953125 C 21.195312 -27.953125 23.421875 -27.363281 25.390625 -26.1875 C 27.367188 -25.019531 28.925781 -23.375 30.0625 -21.25 C 31.195312 -19.125 31.765625 -16.660156 31.765625 -13.859375 C 31.765625 -11.078125 31.195312 -8.597656 30.0625 -6.421875 C 28.925781 -4.242188 27.363281 -2.550781 25.375 -1.34375 C 23.382812 -0.144531 21.164062 0.453125 18.71875 0.453125 C 16.34375 0.453125 14.257812 -0.0625 12.46875 -1.09375 C 10.675781 -2.132812 9.332031 -3.457031 8.4375 -5.0625 L 8.4375 0 L 3.859375 0 L 3.859375 -37.140625 L 8.4375 -37.140625 Z M 27.09375 -13.859375 C 27.09375 -15.929688 26.675781 -17.734375 25.84375 -19.265625 C 25.007812 -20.804688 23.878906 -21.976562 22.453125 -22.78125 C 21.035156 -23.582031 19.472656 -23.984375 17.765625 -23.984375 C 16.085938 -23.984375 14.535156 -23.570312 13.109375 -22.75 C 11.691406 -21.9375 10.554688 -20.75 9.703125 -19.1875 C 8.859375 -17.632812 8.4375 -15.835938 8.4375 -13.796875 C 8.4375 -11.722656 8.859375 -9.90625 9.703125 -8.34375 C 10.554688 -6.789062 11.691406 -5.601562 13.109375 -4.78125 C 14.535156 -3.96875 16.085938 -3.5625 17.765625 -3.5625 C 19.472656 -3.5625 21.035156 -3.96875 22.453125 -4.78125 C 23.878906 -5.601562 25.007812 -6.789062 25.84375 -8.34375 C 26.675781 -9.90625 27.09375 -11.742188 27.09375 -13.859375 Z M 27.09375 -13.859375 "></path></g></g></g></svg>