<svg xmlns="http://www.w3.org/2000/svg" xmlns:xlink="http://www.w3.org/1999/xlink" width="50" viewBox="0 0 37.5 37.499999" height="50" preserveAspectRatio="xMidYMid meet"><defs><clipPath id="405452ebee"><path d="M 0 0 L 37.007812 0 L 37.007812 37 L 0 37 Z M 0 0 " clip-rule="nonzero"></path></clipPath><clipPath id="a137c0a7b9"><path d="M 27 8 L 37.007812 8 L 37.007812 30 L 27 30 Z M 27 8 " clip-rule="nonzero"></path></clipPath><clipPath id="36a5aedf20"><path d="M 35.675781 8.6875 L 43.226562 12.105469 L 35.285156 29.65625 L 27.734375 26.242188 Z M 35.675781 8.6875 " clip-rule="nonzero"></path></clipPath><clipPath id="7b186a488f"><path d="M 35.675781 8.6875 L 43.226562 12.105469 L 35.285156 29.65625 L 27.734375 26.242188 Z M 35.675781 8.6875 " clip-rule="nonzero"></path></clipPath></defs><g clip-path="url(#405452ebee)"><path fill="#e42e16" d="M 95.347656 -0.519531 C 95.84375 -1.398438 96.605469 -2.148438 97.597656 -2.425781 C 98.046875 -2.4375 98.492188 -2.433594 98.941406 -2.429688 C 99.550781 -2.148438 100.085938 -1.707031 100.417969 -1.121094 C 100.679688 -0.527344 100.539062 0.0898438 100.402344 0.691406 C 100.238281 1.058594 100.09375 1.433594 99.972656 1.816406 C 99.867188 2.046875 99.769531 2.28125 99.6875 2.519531 C 99.585938 2.75 99.492188 2.984375 99.40625 3.21875 C 99.304688 3.449219 99.210938 3.683594 99.125 3.921875 C 99.027344 4.152344 98.933594 4.386719 98.84375 4.621094 C 98.746094 4.855469 98.652344 5.085938 98.566406 5.324219 C 98.464844 5.554688 98.371094 5.789062 98.285156 6.023438 C 98.183594 6.253906 98.089844 6.488281 98.003906 6.722656 C 97.90625 6.953125 97.8125 7.1875 97.726562 7.421875 C 97.625 7.652344 97.53125 7.886719 97.445312 8.125 C 97.34375 8.355469 97.25 8.585938 97.167969 8.824219 C 97.066406 9.054688 96.972656 9.289062 96.886719 9.523438 C 96.785156 9.757812 96.691406 9.988281 96.605469 10.226562 C 96.507812 10.457031 96.410156 10.691406 96.324219 10.925781 C 96.226562 11.15625 96.132812 11.390625 96.046875 11.628906 C 95.945312 11.855469 95.851562 12.089844 95.765625 12.324219 C 95.664062 12.558594 95.570312 12.789062 95.484375 13.027344 C 95.386719 13.257812 95.292969 13.492188 95.207031 13.726562 C 95.039062 14.101562 94.894531 14.480469 94.769531 14.871094 C 96.535156 13.542969 98.269531 12.171875 100.089844 10.917969 C 100.277344 10.820312 100.464844 10.71875 100.652344 10.621094 C 101.273438 10.367188 101.949219 10.414062 102.601562 10.457031 C 103.0625 10.722656 103.5 11.039062 103.769531 11.507812 C 103.9375 11.945312 103.992188 12.398438 103.921875 12.859375 C 103.855469 13.324219 103.679688 13.742188 103.394531 14.113281 C 103.039062 14.554688 102.613281 14.929688 102.1875 15.300781 C 101.988281 15.429688 101.800781 15.570312 101.617188 15.71875 C 100.652344 16.382812 99.726562 17.105469 98.792969 17.808594 L 99.261719 18.511719 C 99.355469 18.65625 99.449219 18.796875 99.542969 18.941406 C 99.757812 19.328125 99.996094 19.695312 100.246094 20.058594 C 100.539062 20.59375 100.886719 21.09375 101.226562 21.601562 C 101.359375 21.835938 101.492188 22.066406 101.636719 22.292969 C 101.734375 22.4375 101.832031 22.578125 101.933594 22.71875 C 102.207031 23.226562 102.496094 23.726562 102.65625 24.285156 C 102.757812 24.695312 102.582031 25.097656 102.507812 25.496094 C 102.082031 26.164062 101.527344 26.777344 100.785156 27.09375 C 100.273438 27.261719 99.757812 27.285156 99.253906 27.089844 C 98.941406 26.871094 98.617188 26.65625 98.414062 26.324219 L 96.289062 23.121094 L 96.007812 22.699219 C 95.914062 22.558594 95.824219 22.417969 95.730469 22.277344 C 95.632812 22.136719 95.542969 21.996094 95.449219 21.859375 C 95.355469 21.71875 95.257812 21.574219 95.164062 21.4375 C 94.570312 20.40625 93.84375 19.464844 93.238281 18.441406 L 93.285156 18.621094 C 93.160156 18.847656 93.054688 19.085938 92.960938 19.328125 C 92.863281 19.5625 92.769531 19.796875 92.6875 20.03125 C 92.585938 20.261719 92.492188 20.496094 92.40625 20.730469 C 92.304688 20.960938 92.210938 21.195312 92.128906 21.433594 C 92.023438 21.660156 91.929688 21.894531 91.847656 22.132812 C 91.347656 23.3125 90.949219 24.535156 90.308594 25.652344 C 89.78125 26.238281 89.253906 26.894531 88.453125 27.09375 C 88.097656 27.140625 87.75 27.332031 87.386719 27.230469 C 87.101562 27.164062 86.816406 27.109375 86.523438 27.066406 C 86.101562 26.703125 85.601562 26.355469 85.433594 25.792969 C 85.085938 25.003906 85.554688 24.183594 85.769531 23.425781 C 85.875 23.195312 85.972656 22.960938 86.058594 22.726562 C 86.15625 22.496094 86.253906 22.261719 86.335938 22.027344 C 86.433594 21.792969 86.53125 21.5625 86.621094 21.328125 C 86.714844 21.09375 86.8125 20.863281 86.898438 20.625 C 86.996094 20.394531 87.09375 20.160156 87.179688 19.921875 C 87.277344 19.695312 87.371094 19.460938 87.457031 19.222656 C 87.558594 18.992188 87.652344 18.761719 87.738281 18.523438 C 87.835938 18.292969 87.929688 18.058594 88.019531 17.824219 C 88.117188 17.59375 88.210938 17.359375 88.296875 17.121094 C 88.398438 16.894531 88.492188 16.660156 88.578125 16.421875 C 88.679688 16.191406 88.773438 15.957031 88.859375 15.722656 C 88.957031 15.492188 89.050781 15.257812 89.140625 15.023438 C 89.238281 14.789062 89.332031 14.558594 89.417969 14.320312 C 89.519531 14.089844 89.613281 13.859375 89.699219 13.621094 C 89.796875 13.390625 89.890625 13.15625 89.980469 12.921875 C 90.078125 12.691406 90.171875 12.457031 90.261719 12.21875 C 90.359375 11.988281 90.453125 11.757812 90.539062 11.519531 C 90.640625 11.289062 90.730469 11.054688 90.816406 10.820312 C 90.917969 10.589844 91.011719 10.355469 91.097656 10.117188 C 91.199219 9.890625 91.292969 9.652344 91.378906 9.417969 C 91.480469 9.1875 91.570312 8.953125 91.660156 8.71875 C 91.757812 8.488281 91.851562 8.253906 91.9375 8.019531 C 92.039062 7.789062 92.132812 7.554688 92.21875 7.316406 C 92.316406 7.089844 92.414062 6.851562 92.496094 6.617188 C 92.691406 6.152344 92.882812 5.6875 93.058594 5.214844 C 93.160156 4.984375 93.25 4.75 93.339844 4.515625 C 93.4375 4.285156 93.53125 4.050781 93.617188 3.816406 C 93.71875 3.582031 93.8125 3.351562 93.898438 3.117188 C 94 2.882812 94.09375 2.652344 94.179688 2.414062 C 94.277344 2.183594 94.371094 1.949219 94.457031 1.714844 C 94.558594 1.484375 94.652344 1.25 94.738281 1.015625 C 94.949219 0.507812 95.15625 -0.00390625 95.347656 -0.519531 Z M 8.496094 1.097656 C 10.113281 0.542969 11.839844 0.582031 13.519531 0.664062 C 13.796875 0.71875 14.066406 0.789062 14.347656 0.816406 C 15.273438 1.097656 16.175781 1.457031 17.015625 1.949219 C 18.070312 2.722656 19.019531 3.65625 19.667969 4.804688 C 19.824219 5.222656 19.992188 5.636719 20.152344 6.054688 C 20.382812 7.015625 20.351562 8.007812 20.320312 8.988281 C 20.230469 10.082031 19.898438 11.136719 19.585938 12.179688 C 19.417969 12.546875 19.277344 12.921875 19.160156 13.304688 C 18.9375 13.746094 18.785156 14.214844 18.539062 14.644531 C 18.972656 14.074219 19.519531 13.609375 20 13.078125 C 20.777344 12.136719 21.6875 11.320312 22.515625 10.421875 C 23.488281 9.25 24.664062 8.261719 25.628906 7.082031 C 27.378906 5.371094 28.949219 3.484375 30.75 1.820312 C 31.039062 1.636719 31.328125 1.445312 31.613281 1.253906 C 32.332031 0.847656 33.15625 0.863281 33.957031 0.933594 C 34.585938 1.242188 35.203125 1.695312 35.453125 2.375 C 35.683594 2.902344 35.582031 3.492188 35.582031 4.050781 C 35.375 4.425781 35.1875 4.816406 34.980469 5.191406 C 34.882812 5.332031 34.785156 5.476562 34.691406 5.625 C 34.109375 6.210938 33.621094 6.882812 33.015625 7.453125 C 32.328125 8.167969 31.597656 8.847656 30.96875 9.617188 C 30.019531 10.628906 28.992188 11.566406 28.105469 12.628906 C 27.390625 13.367188 26.664062 14.085938 25.960938 14.828125 C 25.207031 15.738281 24.332031 16.535156 23.523438 17.390625 L 23.785156 17.960938 C 23.949219 18.480469 24.117188 19.003906 24.339844 19.503906 C 24.515625 20.019531 24.675781 20.546875 24.902344 21.046875 C 25.074219 21.5625 25.234375 22.085938 25.460938 22.585938 C 25.636719 23.101562 25.796875 23.628906 26.019531 24.125 C 26.195312 24.644531 26.355469 25.167969 26.582031 25.667969 C 26.753906 26.183594 26.917969 26.707031 27.140625 27.207031 C 27.265625 27.589844 27.394531 27.976562 27.574219 28.339844 L 27.632812 28.59375 C 27.800781 29.015625 27.933594 29.449219 28.109375 29.867188 C 28.1875 30.058594 28.273438 30.242188 28.367188 30.425781 C 28.816406 31.121094 29.675781 31.449219 30.476562 31.460938 L 154.714844 31.460938 C 155.085938 31.453125 155.445312 31.597656 155.816406 31.628906 C 156.109375 31.777344 156.402344 31.925781 156.699219 32.066406 C 156.9375 32.332031 157.121094 32.636719 157.296875 32.945312 C 157.316406 33.488281 157.320312 34.03125 157.289062 34.574219 C 157.226562 34.722656 157.167969 34.871094 157.117188 35.019531 C 156.773438 35.625 156.265625 36.109375 155.675781 36.46875 C 155.082031 36.648438 154.496094 36.90625 153.871094 36.925781 L 28.367188 36.925781 C 27.859375 36.941406 27.378906 36.746094 26.871094 36.765625 C 26.351562 36.570312 25.796875 36.441406 25.335938 36.117188 C 24.742188 35.765625 24.402344 35.144531 24.003906 34.601562 C 23.839844 34.265625 23.667969 33.933594 23.503906 33.597656 C 23.398438 33.316406 23.28125 33.035156 23.152344 32.761719 C 23.140625 32.699219 23.109375 32.574219 23.09375 32.511719 C 22.789062 31.710938 22.511719 30.898438 22.1875 30.105469 C 22.007812 29.585938 21.855469 29.058594 21.613281 28.5625 L 21.550781 28.3125 C 21.386719 27.886719 21.253906 27.445312 21.066406 27.03125 C 20.949219 26.648438 20.808594 26.273438 20.648438 25.90625 C 20.472656 25.390625 20.3125 24.867188 20.085938 24.367188 C 19.910156 23.851562 19.746094 23.328125 19.527344 22.832031 C 19.40625 22.445312 19.261719 22.066406 19.089844 21.699219 L 19.03125 21.445312 C 18.863281 21.019531 18.734375 20.582031 18.546875 20.167969 C 18.425781 19.785156 18.285156 19.410156 18.125 19.042969 C 17.929688 18.433594 17.710938 17.832031 17.460938 17.242188 C 17.429688 17.421875 17.394531 17.605469 17.359375 17.785156 C 17.242188 18.011719 17.140625 18.25 17.050781 18.488281 C 16.953125 18.71875 16.859375 18.953125 16.773438 19.1875 C 16.675781 19.417969 16.578125 19.652344 16.492188 19.886719 C 16.394531 20.121094 16.296875 20.351562 16.210938 20.589844 C 16.113281 20.820312 16.019531 21.054688 15.929688 21.289062 C 15.832031 21.519531 15.738281 21.753906 15.652344 21.992188 C 15.394531 22.539062 15.171875 23.105469 14.957031 23.671875 C 14.855469 23.902344 14.761719 24.136719 14.675781 24.371094 C 14.574219 24.601562 14.480469 24.835938 14.394531 25.074219 C 14.292969 25.304688 14.199219 25.539062 14.113281 25.773438 C 14.011719 26.003906 13.917969 26.234375 13.832031 26.472656 C 13.730469 26.703125 13.636719 26.9375 13.550781 27.171875 C 13.453125 27.402344 13.359375 27.636719 13.273438 27.875 C 13.152344 28.144531 13.046875 28.421875 12.9375 28.699219 L 12.667969 29.265625 C 12.222656 29.980469 11.722656 30.683594 10.996094 31.136719 L 10.722656 31.292969 C 10.175781 31.4375 9.628906 31.679688 9.054688 31.589844 C 8.816406 31.539062 8.582031 31.472656 8.34375 31.433594 C 7.917969 31.203125 7.539062 30.910156 7.203125 30.5625 C 7.101562 30.363281 6.992188 30.160156 6.882812 29.964844 C 6.75 29.015625 6.941406 28.066406 7.339844 27.203125 C 7.441406 26.972656 7.535156 26.742188 7.625 26.503906 C 7.726562 26.273438 7.816406 26.039062 7.90625 25.804688 C 8.003906 25.574219 8.097656 25.339844 8.183594 25.101562 C 8.285156 24.875 8.378906 24.640625 8.464844 24.402344 C 8.566406 24.171875 8.660156 23.941406 8.746094 23.707031 C 8.84375 23.472656 8.941406 23.242188 9.027344 23.003906 C 9.125 22.773438 9.222656 22.539062 9.308594 22.304688 C 9.40625 22.074219 9.5 21.839844 9.589844 21.605469 C 9.6875 21.371094 9.78125 21.140625 9.867188 20.902344 C 10.226562 20.125 10.527344 19.320312 10.84375 18.519531 C 10.945312 18.289062 11.039062 18.054688 11.125 17.820312 C 11.226562 17.589844 11.320312 17.355469 11.40625 17.121094 C 11.503906 16.890625 11.601562 16.65625 11.683594 16.421875 C 11.785156 16.1875 11.882812 15.957031 11.96875 15.722656 C 12.066406 15.488281 12.160156 15.257812 12.246094 15.019531 C 12.347656 14.789062 12.441406 14.558594 12.527344 14.320312 C 12.625 14.089844 12.722656 13.855469 12.808594 13.621094 C 12.910156 13.390625 13.003906 13.15625 13.089844 12.921875 C 13.5 11.957031 13.855469 10.96875 14.121094 9.957031 C 14.320312 9.222656 14.429688 8.40625 14.148438 7.675781 C 13.691406 6.875 13.015625 6.367188 12.117188 6.152344 C 11.222656 6.027344 10.285156 6.09375 9.449219 6.46875 C 9.257812 6.554688 9.074219 6.648438 8.890625 6.746094 C 7.445312 7.65625 6.207031 9.070312 5.84375 10.777344 C 5.71875 11.179688 5.769531 11.609375 5.703125 12.023438 C 5.742188 12.582031 5.773438 13.152344 6.058594 13.652344 C 6.464844 14.335938 7.027344 14.847656 7.746094 15.1875 C 8.035156 15.3125 8.324219 15.445312 8.628906 15.53125 C 9.058594 15.753906 9.453125 16.042969 9.78125 16.394531 L 9.910156 16.699219 C 9.96875 16.847656 10.03125 16.996094 10.09375 17.140625 C 10.296875 18.46875 9.386719 19.714844 8.207031 20.234375 C 7.128906 20.546875 5.949219 20.488281 4.867188 20.222656 C 4.640625 20.113281 4.40625 20.015625 4.167969 19.929688 C 3.933594 19.78125 3.695312 19.640625 3.453125 19.507812 C 2.347656 18.761719 1.550781 17.679688 0.886719 16.546875 C 0.75 16.210938 0.625 15.871094 0.46875 15.542969 C 0.0859375 14.242188 -0.0585938 12.910156 0.0273438 11.554688 C 0.214844 10.507812 0.359375 9.4375 0.753906 8.4375 C 0.902344 8.113281 1.03125 7.777344 1.167969 7.445312 C 1.363281 7.121094 1.5625 6.796875 1.746094 6.464844 C 1.9375 6.1875 2.125 5.910156 2.308594 5.625 C 3.339844 4.285156 4.5625 3.152344 5.980469 2.234375 C 6.535156 1.9375 7.09375 1.652344 7.65625 1.382812 C 7.941406 1.296875 8.21875 1.199219 8.5 1.101562 Z M 151.078125 4.914062 C 151.785156 4.636719 152.546875 4.660156 153.289062 4.710938 C 153.742188 4.925781 154.128906 5.246094 154.460938 5.617188 L 154.589844 5.917969 C 154.644531 6.066406 154.707031 6.21875 154.773438 6.367188 C 154.816406 6.820312 154.722656 7.261719 154.605469 7.699219 C 154.503906 7.980469 154.40625 8.261719 154.320312 8.550781 C 154.082031 9 153.875 9.460938 153.695312 9.9375 L 153.457031 10.351562 C 154.039062 10.453125 154.636719 10.421875 155.222656 10.460938 C 155.371094 10.523438 155.523438 10.582031 155.675781 10.632812 C 156.0625 10.878906 156.480469 11.152344 156.605469 11.628906 C 156.867188 12.214844 156.710938 12.867188 156.570312 13.46875 C 156.222656 14.269531 155.460938 14.71875 154.691406 15.046875 C 153.671875 15.296875 152.621094 15.199219 151.582031 15.214844 L 151.53125 15.53125 C 151.414062 15.765625 151.3125 16.003906 151.222656 16.246094 C 151.121094 16.476562 151.027344 16.710938 150.945312 16.945312 C 150.84375 17.179688 150.75 17.410156 150.664062 17.644531 C 150.5625 17.878906 150.472656 18.113281 150.382812 18.347656 C 150.285156 18.578125 150.191406 18.8125 150.105469 19.046875 C 150.003906 19.277344 149.910156 19.511719 149.824219 19.75 C 149.722656 19.980469 149.628906 20.210938 149.546875 20.449219 C 149.441406 20.679688 149.347656 20.914062 149.261719 21.148438 C 149.15625 21.386719 149.066406 21.632812 148.988281 21.882812 C 148.941406 21.929688 148.847656 22.023438 148.800781 22.070312 C 150.019531 22.121094 151.257812 21.960938 152.453125 22.242188 C 152.738281 22.386719 153.027344 22.53125 153.3125 22.675781 C 153.472656 22.925781 153.632812 23.171875 153.792969 23.417969 C 153.789062 23.980469 153.894531 24.574219 153.664062 25.109375 C 153.550781 25.410156 153.355469 25.667969 153.183594 25.933594 C 152.816406 26.203125 152.449219 26.472656 152.039062 26.671875 C 150.855469 26.988281 149.621094 26.828125 148.414062 26.867188 C 147.195312 26.824219 145.953125 26.996094 144.765625 26.671875 C 144.027344 26.351562 143.382812 25.832031 143.035156 25.089844 C 142.960938 24.503906 142.734375 23.90625 142.964844 23.324219 C 143.082031 22.667969 143.363281 22.070312 143.617188 21.460938 C 143.714844 21.230469 143.808594 20.996094 143.894531 20.761719 C 143.996094 20.53125 144.089844 20.296875 144.175781 20.0625 C 144.273438 19.828125 144.371094 19.597656 144.457031 19.359375 C 144.554688 19.128906 144.648438 18.898438 144.734375 18.660156 C 144.835938 18.429688 144.929688 18.195312 145.015625 17.960938 C 145.402344 17.050781 145.726562 16.113281 146.140625 15.21875 C 145.207031 15.277344 144.070312 15.078125 143.601562 14.160156 C 143.535156 13.792969 143.375 13.4375 143.441406 13.0625 C 143.496094 12.777344 143.566406 12.492188 143.59375 12.199219 C 143.941406 11.460938 144.582031 10.933594 145.324219 10.617188 C 146.136719 10.371094 146.984375 10.441406 147.820312 10.402344 C 148.289062 10.21875 148.28125 9.542969 148.515625 9.136719 C 148.617188 8.90625 148.710938 8.671875 148.796875 8.4375 C 148.894531 8.203125 148.992188 7.972656 149.078125 7.738281 C 149.179688 7.503906 149.273438 7.269531 149.355469 7.03125 C 149.492188 6.746094 149.632812 6.464844 149.773438 6.183594 C 150.167969 5.722656 150.597656 5.289062 151.078125 4.914062 Z M 42.804688 10.183594 C 43.488281 10.117188 44.171875 10.160156 44.855469 10.179688 C 45.445312 10.386719 46.039062 10.59375 46.578125 10.910156 C 47.140625 11.410156 47.671875 11.953125 48.027344 12.625 C 48.1875 13.265625 48.394531 13.917969 48.328125 14.589844 C 48.234375 15.355469 47.980469 16.085938 47.730469 16.808594 C 46.96875 18.542969 46.289062 20.3125 45.601562 22.074219 C 46.863281 22.113281 48.136719 21.964844 49.375 22.238281 C 49.835938 22.441406 50.226562 22.734375 50.546875 23.121094 C 50.835938 23.839844 50.714844 24.625 50.511719 25.347656 C 50.148438 25.804688 49.730469 26.21875 49.230469 26.519531 C 48.933594 26.605469 48.648438 26.710938 48.363281 26.828125 C 46.148438 26.894531 43.921875 26.890625 41.703125 26.828125 C 41.234375 26.582031 40.734375 26.371094 40.339844 26.007812 C 40.054688 25.691406 39.863281 25.308594 39.664062 24.9375 C 39.648438 24.628906 39.605469 24.328125 39.53125 24.03125 C 39.621094 23.738281 39.648438 23.433594 39.664062 23.132812 L 39.75 23.003906 C 39.816406 22.765625 39.894531 22.535156 39.960938 22.300781 C 40.167969 21.84375 40.351562 21.371094 40.53125 20.902344 C 40.632812 20.667969 40.726562 20.4375 40.8125 20.199219 C 40.914062 19.96875 41.007812 19.738281 41.09375 19.5 C 41.195312 19.269531 41.289062 19.039062 41.375 18.804688 C 41.476562 18.570312 41.570312 18.335938 41.65625 18.101562 C 41.757812 17.871094 41.851562 17.636719 41.9375 17.402344 C 42.246094 16.820312 42.371094 16.199219 42.3125 15.542969 C 42.085938 15.308594 41.835938 15.109375 41.554688 14.945312 C 41.363281 14.929688 41.167969 14.914062 40.976562 14.894531 C 39.824219 14.796875 38.9375 15.660156 38.320312 16.53125 C 38.160156 16.796875 38.007812 17.074219 37.863281 17.347656 C 36.761719 19.839844 35.816406 22.398438 34.789062 24.921875 C 34.609375 25.203125 34.433594 25.492188 34.277344 25.789062 C 33.808594 26.347656 33.253906 26.832031 32.566406 27.09375 C 32.316406 27.125 32.070312 27.171875 31.824219 27.230469 C 31.460938 27.328125 31.113281 27.136719 30.753906 27.097656 C 30.300781 26.894531 29.917969 26.597656 29.605469 26.214844 C 29.5625 26.136719 29.472656 25.984375 29.429688 25.90625 C 29.3125 25.09375 29.414062 24.3125 29.742188 23.5625 C 29.847656 23.332031 29.945312 23.097656 30.03125 22.863281 C 30.128906 22.628906 30.226562 22.398438 30.308594 22.160156 C 30.410156 21.929688 30.503906 21.699219 30.589844 21.460938 C 30.6875 21.230469 30.78125 20.996094 30.871094 20.761719 C 30.96875 20.53125 31.0625 20.296875 31.148438 20.0625 C 31.25 19.828125 31.34375 19.597656 31.429688 19.359375 C 31.53125 19.128906 31.621094 18.898438 31.707031 18.660156 C 32.550781 16.558594 33.40625 14.460938 34.226562 12.347656 C 34.320312 12.164062 34.410156 11.976562 34.503906 11.789062 C 34.882812 11.179688 35.453125 10.753906 36.097656 10.457031 C 36.835938 10.429688 37.605469 10.328125 38.308594 10.617188 C 38.769531 10.898438 39.132812 11.296875 39.40625 11.757812 C 39.605469 11.617188 39.808594 11.480469 40.007812 11.339844 C 40.390625 11.128906 40.757812 10.890625 41.144531 10.683594 C 41.6875 10.484375 42.234375 10.289062 42.804688 10.183594 Z M 58.929688 10.339844 C 60.027344 10.09375 61.15625 10.136719 62.269531 10.171875 C 62.890625 10.246094 63.492188 10.429688 64.082031 10.625 C 64.679688 10.894531 65.230469 11.253906 65.773438 11.625 C 66.109375 11.949219 66.441406 12.28125 66.765625 12.617188 C 66.949219 12.90625 67.140625 13.191406 67.335938 13.472656 C 67.480469 13.753906 67.621094 14.035156 67.765625 14.316406 C 67.953125 14.910156 68.09375 15.519531 68.207031 16.136719 C 68.242188 16.691406 68.21875 17.25 68.222656 17.804688 C 68.261719 18.515625 67.980469 19.183594 67.910156 19.878906 C 67.757812 20.300781 67.613281 20.726562 67.480469 21.15625 C 66.785156 22.746094 65.839844 24.246094 64.511719 25.382812 C 63.734375 25.945312 62.890625 26.414062 61.964844 26.671875 C 60.351562 26.960938 58.699219 26.855469 57.066406 26.839844 C 55.945312 26.722656 54.773438 26.519531 53.859375 25.808594 C 52.992188 25.0625 52.328125 24.164062 51.871094 23.117188 C 51.824219 22.972656 51.777344 22.828125 51.726562 22.6875 C 51.21875 20.816406 51.320312 18.832031 51.867188 16.988281 C 51.976562 16.753906 52.070312 16.515625 52.152344 16.273438 C 52.332031 15.890625 52.519531 15.519531 52.714844 15.148438 C 53.519531 13.828125 54.597656 12.695312 55.828125 11.765625 L 56.261719 11.476562 C 56.71875 11.226562 57.1875 10.992188 57.652344 10.765625 C 58.082031 10.632812 58.507812 10.492188 58.933594 10.339844 Z M 74.621094 10.96875 C 75.503906 10.601562 76.414062 10.234375 77.378906 10.167969 C 78.507812 10.136719 79.667969 10.066406 80.746094 10.480469 C 81.597656 10.847656 82.390625 11.359375 83.015625 12.054688 C 84.035156 13.398438 84.308594 15.195312 83.875 16.804688 C 83.765625 17.035156 83.667969 17.265625 83.582031 17.5 C 83.480469 17.648438 83.386719 17.796875 83.292969 17.949219 C 83.105469 18.144531 82.914062 18.335938 82.722656 18.53125 C 82.53125 18.628906 82.339844 18.730469 82.148438 18.832031 C 81.226562 19.191406 80.074219 19.023438 79.4375 18.226562 C 79.140625 17.617188 79.320312 16.925781 79.207031 16.285156 C 79.164062 16.03125 79.136719 15.777344 79.128906 15.523438 C 78.949219 15.1875 78.675781 14.847656 78.273438 14.800781 C 77.738281 14.789062 77.160156 14.710938 76.691406 15.03125 C 76.023438 15.347656 75.570312 15.941406 75.160156 16.53125 C 75.046875 16.710938 74.9375 16.890625 74.828125 17.074219 C 74.597656 17.5625 74.386719 18.078125 74.355469 18.625 C 74.136719 19.492188 74.28125 20.484375 74.832031 21.207031 C 75.417969 21.820312 76.320312 21.925781 77.113281 22.066406 C 78.9375 22.097656 80.761719 22.0625 82.585938 22.078125 C 83.054688 22.132812 83.511719 22.261719 83.96875 22.382812 C 84.222656 22.566406 84.472656 22.757812 84.707031 22.96875 C 84.742188 23.046875 84.820312 23.203125 84.859375 23.285156 C 84.894531 23.5625 84.960938 23.835938 85.011719 24.109375 C 84.941406 24.527344 84.84375 24.941406 84.71875 25.34375 C 84.558594 25.535156 84.40625 25.730469 84.261719 25.933594 C 84.066406 26.074219 83.871094 26.222656 83.683594 26.375 L 83.40625 26.523438 C 82.898438 26.695312 82.382812 26.898438 81.835938 26.859375 C 79.199219 26.855469 76.566406 26.914062 73.933594 26.824219 C 73.746094 26.753906 73.550781 26.699219 73.355469 26.65625 C 73.078125 26.535156 72.796875 26.425781 72.511719 26.324219 C 72.117188 26.078125 71.738281 25.808594 71.375 25.515625 C 70.972656 25.195312 70.710938 24.746094 70.363281 24.378906 C 70.113281 23.914062 69.875 23.449219 69.652344 22.972656 C 68.902344 20.75 69.113281 18.304688 69.9375 16.132812 C 70.121094 15.757812 70.304688 15.378906 70.503906 15.011719 C 70.660156 14.785156 70.796875 14.550781 70.929688 14.3125 C 71.730469 13.226562 72.675781 12.28125 73.765625 11.480469 C 74.054688 11.320312 74.339844 11.144531 74.621094 10.96875 Z M 112.550781 10.1875 C 114.007812 10.109375 115.503906 10.0625 116.882812 10.625 C 118.324219 11.261719 119.4375 12.261719 120.226562 13.625 C 120.289062 13.761719 120.351562 13.898438 120.414062 14.035156 C 120.5 14.277344 120.59375 14.515625 120.707031 14.746094 C 121.277344 16.707031 121.0625 18.808594 120.421875 20.726562 C 120.316406 20.957031 120.214844 21.195312 120.136719 21.4375 C 119.914062 21.910156 119.679688 22.378906 119.4375 22.835938 C 118.679688 24.074219 117.703125 25.1875 116.460938 25.957031 L 115.621094 26.382812 C 115.328125 26.46875 115.039062 26.566406 114.753906 26.675781 C 113.148438 26.957031 111.507812 26.851562 109.882812 26.839844 C 109.421875 26.863281 108.980469 26.671875 108.515625 26.675781 C 108.0625 26.503906 107.578125 26.390625 107.164062 26.136719 C 106.375 25.667969 105.777344 24.960938 105.234375 24.238281 C 105.039062 23.867188 104.851562 23.492188 104.664062 23.117188 C 104.085938 21.472656 104.09375 19.6875 104.378906 17.988281 C 104.441406 17.792969 104.488281 17.597656 104.535156 17.402344 C 104.632812 17.121094 104.722656 16.839844 104.808594 16.554688 C 105.082031 15.992188 105.355469 15.429688 105.65625 14.878906 L 105.953125 14.453125 C 106.097656 14.265625 106.238281 14.074219 106.371094 13.878906 C 107.074219 13.125 107.78125 12.363281 108.628906 11.765625 C 108.773438 11.671875 108.914062 11.574219 109.054688 11.476562 C 110.144531 10.832031 111.308594 10.402344 112.550781 10.1875 Z M 127.546875 10.339844 C 128.410156 10.058594 129.5 9.96875 130.21875 10.628906 C 130.558594 10.902344 130.765625 11.285156 130.960938 11.660156 C 130.996094 12.261719 130.976562 12.863281 130.789062 13.441406 C 130.582031 13.902344 130.394531 14.375 130.21875 14.847656 C 130.113281 15.078125 130.019531 15.3125 129.9375 15.546875 C 129.835938 15.777344 129.742188 16.011719 129.65625 16.246094 C 129.464844 16.710938 129.273438 17.175781 129.097656 17.648438 C 128.996094 17.878906 128.898438 18.113281 128.816406 18.347656 C 128.710938 18.578125 128.621094 18.8125 128.539062 19.054688 C 128.472656 19.203125 128.40625 19.351562 128.339844 19.5 L 128.210938 19.894531 C 128.164062 20.035156 128.121094 20.175781 128.070312 20.3125 C 128.019531 20.453125 127.964844 20.589844 127.910156 20.730469 C 127.789062 21.089844 127.757812 21.476562 127.96875 21.816406 C 128.308594 22.132812 128.78125 22.082031 129.210938 22.082031 C 129.855469 22.117188 130.480469 21.878906 131.050781 21.59375 C 131.695312 21.164062 132.199219 20.539062 132.414062 19.785156 C 132.515625 19.554688 132.605469 19.320312 132.695312 19.082031 C 132.792969 18.851562 132.886719 18.621094 132.972656 18.382812 C 133.074219 18.152344 133.167969 17.917969 133.253906 17.683594 C 133.351562 17.453125 133.445312 17.21875 133.535156 16.980469 C 133.632812 16.75 133.726562 16.519531 133.816406 16.28125 C 133.914062 16.050781 134.007812 15.816406 134.09375 15.582031 C 134.191406 15.347656 134.285156 15.117188 134.375 14.882812 C 134.472656 14.648438 134.566406 14.417969 134.65625 14.179688 C 134.753906 13.949219 134.84375 13.710938 134.929688 13.472656 C 135.148438 12.996094 135.375 12.527344 135.628906 12.070312 C 135.730469 11.925781 135.824219 11.78125 135.917969 11.632812 C 136.351562 11.128906 136.902344 10.75 137.496094 10.457031 C 138.042969 10.417969 138.59375 10.410156 139.144531 10.453125 C 139.59375 10.671875 139.980469 10.988281 140.3125 11.359375 L 140.441406 11.65625 C 140.496094 11.804688 140.558594 11.953125 140.625 12.101562 C 140.707031 13.011719 140.289062 13.855469 140.027344 14.707031 C 139.921875 14.933594 139.824219 15.167969 139.738281 15.40625 C 139.636719 15.636719 139.542969 15.871094 139.457031 16.105469 C 139.359375 16.335938 139.265625 16.570312 139.179688 16.804688 C 139.078125 17.039062 138.984375 17.269531 138.898438 17.503906 C 138.796875 17.738281 138.703125 17.96875 138.617188 18.207031 C 138.515625 18.4375 138.421875 18.671875 138.339844 18.910156 C 137.875 19.949219 137.464844 21.011719 137.0625 22.074219 C 138.464844 22.109375 139.902344 21.9375 141.261719 22.378906 C 141.523438 22.632812 141.832031 22.863281 141.972656 23.214844 C 142.050781 23.476562 142.074219 23.757812 142.148438 24.027344 C 142.050781 24.46875 142.011719 24.921875 141.863281 25.351562 C 141.605469 25.773438 141.261719 26.117188 140.839844 26.378906 C 140.644531 26.472656 140.453125 26.566406 140.261719 26.667969 C 139.359375 26.941406 138.40625 26.851562 137.476562 26.867188 C 136.222656 26.859375 134.964844 26.894531 133.710938 26.832031 C 133.1875 26.597656 132.75 26.21875 132.378906 25.785156 L 132.339844 25.542969 C 132.050781 25.832031 131.753906 26.109375 131.453125 26.378906 C 131.261719 26.46875 131.070312 26.5625 130.882812 26.65625 C 130.734375 26.707031 130.585938 26.765625 130.441406 26.828125 C 128.691406 26.890625 126.9375 26.890625 125.1875 26.824219 C 125.039062 26.765625 124.890625 26.710938 124.738281 26.660156 C 124.175781 26.40625 123.609375 26.117188 123.171875 25.667969 C 122.71875 25.226562 122.441406 24.65625 122.171875 24.097656 C 121.96875 23.417969 121.972656 22.707031 122.015625 22.003906 C 122.148438 21.339844 122.378906 20.703125 122.601562 20.0625 C 122.707031 19.832031 122.800781 19.597656 122.886719 19.363281 C 122.988281 19.128906 123.082031 18.898438 123.167969 18.664062 C 123.265625 18.429688 123.363281 18.199219 123.449219 17.960938 C 123.546875 17.730469 123.644531 17.496094 123.730469 17.261719 C 123.828125 17.03125 123.921875 16.796875 124.007812 16.558594 C 124.109375 16.328125 124.203125 16.097656 124.289062 15.859375 C 124.390625 15.628906 124.484375 15.394531 124.570312 15.160156 C 124.667969 14.929688 124.761719 14.695312 124.847656 14.460938 C 124.949219 14.226562 125.042969 13.996094 125.128906 13.761719 C 125.230469 13.527344 125.324219 13.292969 125.402344 13.050781 C 125.585938 12.675781 125.773438 12.300781 125.960938 11.925781 C 126.375 11.28125 126.902344 10.753906 127.546875 10.339844 Z M 58.890625 15.425781 C 59.390625 15.078125 59.976562 14.875 60.578125 14.800781 C 60.917969 14.792969 61.238281 14.925781 61.574219 14.957031 C 62.136719 15.230469 62.585938 15.695312 62.875 16.246094 C 63.296875 17.714844 62.984375 19.351562 62.117188 20.605469 C 61.78125 21.148438 61.324219 21.5625 60.753906 21.855469 C 59.757812 22.257812 58.761719 22.261719 57.761719 21.863281 C 57.382812 21.59375 56.980469 21.289062 56.820312 20.832031 C 56.457031 19.730469 56.679688 18.519531 57.179688 17.492188 C 57.585938 16.683594 58.148438 15.945312 58.890625 15.425781 Z M 112.226562 15.097656 C 112.804688 14.914062 113.429688 14.671875 114.035156 14.898438 C 114.792969 15.007812 115.347656 15.625 115.679688 16.273438 C 116.015625 17.425781 115.863281 18.675781 115.386719 19.761719 C 115.28125 19.957031 115.171875 20.148438 115.058594 20.339844 C 114.964844 20.476562 114.875 20.617188 114.78125 20.757812 C 114.507812 21.175781 114.144531 21.53125 113.710938 21.78125 C 113.214844 22.054688 112.652344 22.09375 112.105469 22.167969 C 111.253906 22.109375 110.222656 21.964844 109.769531 21.132812 C 109.136719 19.992188 109.453125 18.597656 109.984375 17.480469 C 110.484375 16.496094 111.222656 15.59375 112.226562 15.09375 Z M 158.207031 21.832031 C 158.910156 21.386719 159.730469 21.304688 160.542969 21.386719 C 160.695312 21.445312 160.851562 21.5 161.011719 21.554688 C 161.660156 21.875 162.207031 22.378906 162.585938 22.996094 C 162.9375 23.789062 163.015625 24.671875 162.730469 25.496094 C 162.628906 25.6875 162.53125 25.878906 162.441406 26.074219 C 162.121094 26.433594 161.78125 26.765625 161.429688 27.089844 C 160.574219 27.53125 159.53125 27.542969 158.632812 27.234375 L 158.351562 27.074219 C 157.5625 26.574219 157.074219 25.863281 156.882812 24.945312 C 156.859375 24.542969 156.875 24.136719 156.882812 23.730469 C 156.945312 23.582031 157.003906 23.429688 157.058594 23.277344 C 157.148438 23.085938 157.246094 22.898438 157.335938 22.707031 C 157.621094 22.410156 157.910156 22.117188 158.207031 21.832031 Z M 158.207031 21.832031 " fill-opacity="1" fill-rule="evenodd"></path></g><g clip-path="url(#a137c0a7b9)"><g clip-path="url(#36a5aedf20)"><g clip-path="url(#7b186a488f)"><path fill="#ffffff" d="M 35.675781 8.6875 L 43.226562 12.105469 L 35.285156 29.65625 L 27.734375 26.242188 Z M 35.675781 8.6875 " fill-opacity="1" fill-rule="nonzero"></path></g></g></g></svg>