<svg xmlns="http://www.w3.org/2000/svg" xmlns:xlink="http://www.w3.org/1999/xlink" width="50" viewBox="0 0 37.5 37.499999" height="50" preserveAspectRatio="xMidYMid meet"><defs><clipPath id="9e39a5fb4c"><path d="M 1 1 L 37.007812 1 L 37.007812 37 L 1 37 Z M 1 1 " clip-rule="nonzero"></path></clipPath></defs><g clip-path="url(#9e39a5fb4c)"><path fill="#009848" d="M 37.246094 31.195312 L 32.472656 27.179688 C 34.128906 24.539062 35.109375 21.417969 35.109375 18.078125 C 35.109375 8.667969 27.46875 1.027344 18.058594 1.027344 C 8.648438 1.027344 1.007812 8.667969 1.007812 18.078125 C 1.007812 27.488281 8.648438 35.128906 18.058594 35.128906 C 21.710938 35.128906 25.113281 33.976562 27.890625 32.011719 L 32.976562 36.28125 C 32.976562 36.28125 33.734375 36.925781 34.382812 36.167969 L 37.414062 32.570312 C 37.386719 32.570312 38.003906 31.8125 37.246094 31.195312 Z M 28.539062 18.078125 C 28.539062 23.863281 23.847656 28.554688 18.058594 28.554688 C 12.273438 28.554688 7.582031 23.863281 7.582031 18.078125 C 7.582031 12.289062 12.273438 7.597656 18.058594 7.597656 C 23.847656 7.597656 28.539062 12.289062 28.539062 18.078125 Z M 28.539062 18.078125 " fill-opacity="1" fill-rule="nonzero"></path></g><path fill="#54565b" d="M 11.316406 18.078125 C 11.316406 14.371094 14.324219 11.363281 18.03125 11.363281 C 21.738281 11.363281 24.746094 14.371094 24.746094 18.078125 C 24.746094 21.785156 21.738281 24.789062 18.03125 24.789062 C 14.324219 24.789062 11.316406 21.785156 11.316406 18.078125 Z M 11.316406 18.078125 " fill-opacity="1" fill-rule="nonzero"></path></svg>