<svg xmlns="http://www.w3.org/2000/svg" xmlns:xlink="http://www.w3.org/1999/xlink" width="50" viewBox="0 0 37.5 37.499999" height="50" preserveAspectRatio="xMidYMid meet"><defs><clipPath id="0e02893cb7"><path d="M 2.664062 0 L 37.007812 0 L 37.007812 37.007812 L 2.664062 37.007812 Z M 2.664062 0 " clip-rule="nonzero"></path></clipPath></defs><g clip-path="url(#0e02893cb7)"><path fill="#e42e16" d="M 114.257812 -1.472656 C 114.839844 -2.503906 115.730469 -3.378906 116.890625 -3.707031 C 117.417969 -3.71875 117.941406 -3.714844 118.46875 -3.710938 C 119.179688 -3.382812 119.804688 -2.867188 120.195312 -2.175781 C 120.5 -1.484375 120.335938 -0.757812 120.179688 -0.0546875 C 119.980469 0.371094 119.8125 0.8125 119.671875 1.261719 C 119.546875 1.53125 119.4375 1.804688 119.339844 2.082031 C 119.21875 2.351562 119.109375 2.625 119.007812 2.902344 C 118.890625 3.171875 118.78125 3.445312 118.683594 3.722656 C 118.566406 3.992188 118.457031 4.265625 118.351562 4.542969 C 118.238281 4.8125 118.125 5.085938 118.027344 5.363281 C 117.910156 5.636719 117.800781 5.90625 117.695312 6.183594 C 117.582031 6.453125 117.46875 6.726562 117.371094 7.003906 C 117.253906 7.273438 117.144531 7.546875 117.042969 7.820312 C 116.925781 8.089844 116.816406 8.363281 116.714844 8.640625 C 116.597656 8.914062 116.488281 9.183594 116.386719 9.460938 C 116.269531 9.730469 116.160156 10.003906 116.058594 10.28125 C 115.941406 10.550781 115.832031 10.824219 115.730469 11.101562 C 115.617188 11.371094 115.503906 11.644531 115.402344 11.921875 C 115.285156 12.191406 115.175781 12.464844 115.078125 12.742188 C 114.957031 13.011719 114.847656 13.28125 114.75 13.558594 C 114.632812 13.828125 114.519531 14.101562 114.421875 14.378906 C 114.304688 14.652344 114.195312 14.921875 114.09375 15.199219 C 113.898438 15.636719 113.730469 16.082031 113.582031 16.539062 C 115.648438 14.984375 117.679688 13.378906 119.808594 11.910156 C 120.027344 11.796875 120.25 11.679688 120.46875 11.5625 C 121.195312 11.265625 121.984375 11.320312 122.746094 11.371094 C 123.289062 11.683594 123.800781 12.050781 124.117188 12.605469 C 124.316406 13.117188 124.375 13.644531 124.296875 14.183594 C 124.21875 14.726562 124.011719 15.214844 123.679688 15.652344 C 123.265625 16.167969 122.761719 16.605469 122.265625 17.039062 C 122.035156 17.195312 121.8125 17.355469 121.597656 17.53125 C 120.46875 18.308594 119.386719 19.152344 118.292969 19.976562 L 118.84375 20.800781 C 118.949219 20.964844 119.058594 21.132812 119.171875 21.300781 C 119.421875 21.753906 119.699219 22.183594 119.992188 22.609375 C 120.335938 23.234375 120.742188 23.824219 121.140625 24.417969 C 121.292969 24.691406 121.453125 24.960938 121.621094 25.226562 C 121.734375 25.394531 121.847656 25.558594 121.96875 25.726562 C 122.289062 26.316406 122.625 26.90625 122.8125 27.554688 C 122.933594 28.035156 122.726562 28.507812 122.636719 28.972656 C 122.144531 29.757812 121.492188 30.472656 120.621094 30.847656 C 120.023438 31.042969 119.421875 31.070312 118.828125 30.839844 C 118.464844 30.585938 118.085938 30.332031 117.847656 29.941406 L 115.363281 26.195312 L 115.03125 25.703125 C 114.925781 25.535156 114.816406 25.371094 114.707031 25.210938 C 114.59375 25.042969 114.488281 24.878906 114.378906 24.71875 C 114.269531 24.550781 114.15625 24.382812 114.046875 24.222656 C 113.351562 23.015625 112.5 21.914062 111.792969 20.714844 L 111.847656 20.925781 C 111.699219 21.195312 111.574219 21.472656 111.464844 21.757812 C 111.351562 22.027344 111.242188 22.300781 111.148438 22.578125 C 111.027344 22.847656 110.914062 23.121094 110.816406 23.398438 C 110.699219 23.667969 110.589844 23.941406 110.492188 24.21875 C 110.371094 24.484375 110.261719 24.761719 110.164062 25.035156 C 109.582031 26.417969 109.113281 27.851562 108.363281 29.15625 C 107.746094 29.839844 107.125 30.609375 106.191406 30.847656 C 105.777344 30.898438 105.367188 31.125 104.945312 31.003906 C 104.609375 30.925781 104.273438 30.863281 103.933594 30.8125 C 103.441406 30.386719 102.851562 29.976562 102.65625 29.320312 C 102.246094 28.394531 102.796875 27.4375 103.050781 26.550781 C 103.171875 26.28125 103.285156 26.007812 103.390625 25.734375 C 103.503906 25.460938 103.613281 25.1875 103.714844 24.914062 C 103.828125 24.640625 103.941406 24.371094 104.042969 24.09375 C 104.15625 23.820312 104.269531 23.550781 104.371094 23.273438 C 104.488281 23.003906 104.597656 22.730469 104.699219 22.453125 C 104.816406 22.183594 104.925781 21.910156 105.027344 21.632812 C 105.140625 21.363281 105.253906 21.089844 105.351562 20.8125 C 105.46875 20.542969 105.578125 20.269531 105.683594 19.992188 C 105.796875 19.726562 105.910156 19.449219 106.007812 19.175781 C 106.125 18.90625 106.234375 18.628906 106.335938 18.355469 C 106.453125 18.085938 106.5625 17.8125 106.664062 17.535156 C 106.78125 17.265625 106.890625 16.992188 106.992188 16.714844 C 107.109375 16.445312 107.21875 16.171875 107.320312 15.894531 C 107.4375 15.625 107.546875 15.351562 107.648438 15.078125 C 107.765625 14.804688 107.875 14.53125 107.976562 14.257812 C 108.09375 13.984375 108.203125 13.714844 108.304688 13.4375 C 108.421875 13.164062 108.53125 12.894531 108.632812 12.617188 C 108.75 12.347656 108.859375 12.074219 108.957031 11.796875 C 109.074219 11.527344 109.183594 11.253906 109.285156 10.976562 C 109.402344 10.707031 109.515625 10.433594 109.613281 10.15625 C 109.730469 9.886719 109.839844 9.613281 109.941406 9.335938 C 110.058594 9.070312 110.167969 8.792969 110.269531 8.519531 C 110.386719 8.25 110.496094 7.972656 110.597656 7.699219 C 110.714844 7.429688 110.824219 7.15625 110.921875 6.878906 C 111.148438 6.335938 111.375 5.789062 111.578125 5.238281 C 111.699219 4.96875 111.804688 4.695312 111.910156 4.417969 C 112.023438 4.148438 112.136719 3.875 112.238281 3.597656 C 112.351562 3.328125 112.464844 3.054688 112.5625 2.78125 C 112.679688 2.507812 112.789062 2.238281 112.890625 1.960938 C 113.007812 1.6875 113.117188 1.417969 113.21875 1.140625 C 113.335938 0.871094 113.445312 0.597656 113.546875 0.320312 C 113.792969 -0.273438 114.035156 -0.871094 114.257812 -1.476562 Z M 12.609375 0.417969 C 14.5 -0.230469 16.519531 -0.183594 18.488281 -0.0898438 C 18.8125 -0.0234375 19.128906 0.0585938 19.457031 0.0898438 C 20.542969 0.417969 21.597656 0.839844 22.578125 1.414062 C 23.816406 2.316406 24.925781 3.414062 25.683594 4.753906 C 25.863281 5.246094 26.0625 5.730469 26.25 6.21875 C 26.519531 7.34375 26.480469 8.503906 26.449219 9.652344 C 26.339844 10.933594 25.953125 12.167969 25.585938 13.390625 C 25.390625 13.820312 25.226562 14.257812 25.085938 14.707031 C 24.828125 15.21875 24.648438 15.769531 24.363281 16.273438 C 24.871094 15.605469 25.511719 15.058594 26.070312 14.441406 C 26.984375 13.339844 28.046875 12.382812 29.019531 11.332031 C 30.15625 9.960938 31.53125 8.804688 32.660156 7.421875 C 34.710938 5.417969 36.546875 3.210938 38.65625 1.265625 C 38.996094 1.046875 39.328125 0.824219 39.664062 0.597656 C 40.503906 0.125 41.472656 0.144531 42.410156 0.226562 C 43.140625 0.585938 43.863281 1.121094 44.160156 1.914062 C 44.429688 2.53125 44.308594 3.21875 44.308594 3.871094 C 44.066406 4.3125 43.851562 4.769531 43.605469 5.210938 C 43.492188 5.375 43.378906 5.542969 43.265625 5.714844 C 42.585938 6.402344 42.015625 7.191406 41.304688 7.855469 C 40.5 8.691406 39.648438 9.492188 38.910156 10.390625 C 37.800781 11.574219 36.597656 12.671875 35.558594 13.914062 C 34.722656 14.777344 33.871094 15.617188 33.046875 16.492188 C 32.167969 17.554688 31.144531 18.484375 30.195312 19.488281 L 30.5 20.152344 C 30.695312 20.765625 30.890625 21.375 31.152344 21.960938 C 31.355469 22.566406 31.542969 23.179688 31.808594 23.765625 C 32.011719 24.371094 32.199219 24.984375 32.464844 25.570312 C 32.667969 26.171875 32.855469 26.789062 33.121094 27.371094 C 33.324219 27.976562 33.511719 28.589844 33.773438 29.171875 C 33.976562 29.777344 34.171875 30.390625 34.429688 30.976562 C 34.574219 31.421875 34.726562 31.875 34.9375 32.300781 L 35.007812 32.597656 C 35.199219 33.09375 35.359375 33.601562 35.5625 34.09375 C 35.652344 34.3125 35.757812 34.53125 35.863281 34.742188 C 36.394531 35.554688 37.394531 35.941406 38.332031 35.957031 L 183.742188 35.953125 C 184.179688 35.949219 184.597656 36.113281 185.03125 36.152344 C 185.375 36.324219 185.71875 36.496094 186.066406 36.664062 C 186.347656 36.972656 186.558594 37.332031 186.765625 37.695312 C 186.789062 38.328125 186.792969 38.964844 186.753906 39.601562 C 186.679688 39.773438 186.613281 39.945312 186.554688 40.121094 C 186.152344 40.828125 185.558594 41.394531 184.867188 41.816406 C 184.175781 42.027344 183.488281 42.328125 182.757812 42.351562 L 35.867188 42.351562 C 35.273438 42.371094 34.707031 42.140625 34.113281 42.164062 C 33.507812 41.933594 32.859375 41.78125 32.316406 41.40625 C 31.621094 40.996094 31.222656 40.265625 30.761719 39.628906 C 30.566406 39.238281 30.367188 38.851562 30.175781 38.457031 C 30.050781 38.125 29.914062 37.800781 29.761719 37.480469 C 29.746094 37.40625 29.710938 37.257812 29.695312 37.183594 C 29.339844 36.25 29.011719 35.300781 28.632812 34.371094 C 28.425781 33.761719 28.242188 33.144531 27.960938 32.5625 L 27.890625 32.269531 C 27.695312 31.769531 27.542969 31.257812 27.320312 30.773438 C 27.179688 30.324219 27.015625 29.886719 26.828125 29.457031 C 26.625 28.851562 26.4375 28.238281 26.171875 27.652344 C 25.96875 27.050781 25.777344 26.4375 25.519531 25.855469 C 25.378906 25.402344 25.210938 24.960938 25.007812 24.53125 L 24.9375 24.234375 C 24.742188 23.734375 24.589844 23.222656 24.371094 22.738281 C 24.230469 22.289062 24.066406 21.851562 23.878906 21.421875 C 23.652344 20.707031 23.390625 20.003906 23.101562 19.3125 C 23.0625 19.527344 23.023438 19.738281 22.984375 19.949219 C 22.84375 20.214844 22.726562 20.492188 22.621094 20.773438 C 22.507812 21.042969 22.398438 21.316406 22.296875 21.589844 C 22.179688 21.863281 22.070312 22.136719 21.96875 22.410156 C 21.851562 22.679688 21.742188 22.953125 21.640625 23.230469 C 21.523438 23.5 21.414062 23.773438 21.308594 24.050781 C 21.195312 24.320312 21.082031 24.59375 20.984375 24.871094 C 20.683594 25.515625 20.421875 26.175781 20.171875 26.839844 C 20.050781 27.109375 19.941406 27.382812 19.84375 27.660156 C 19.722656 27.929688 19.609375 28.203125 19.511719 28.480469 C 19.394531 28.746094 19.285156 29.023438 19.183594 29.300781 C 19.066406 29.566406 18.957031 29.839844 18.855469 30.117188 C 18.734375 30.386719 18.628906 30.660156 18.527344 30.933594 C 18.40625 31.207031 18.300781 31.476562 18.199219 31.757812 C 18.058594 32.074219 17.933594 32.398438 17.804688 32.722656 L 17.488281 33.386719 C 16.972656 34.226562 16.386719 35.042969 15.535156 35.578125 L 15.214844 35.757812 C 14.578125 35.925781 13.933594 36.210938 13.261719 36.105469 C 12.984375 36.046875 12.710938 35.96875 12.429688 35.925781 C 11.933594 35.652344 11.488281 35.3125 11.09375 34.902344 C 10.972656 34.667969 10.851562 34.433594 10.71875 34.203125 C 10.566406 33.089844 10.785156 31.984375 11.257812 30.972656 C 11.375 30.703125 11.484375 30.429688 11.589844 30.15625 C 11.707031 29.882812 11.816406 29.609375 11.914062 29.335938 C 12.035156 29.0625 12.140625 28.792969 12.242188 28.515625 C 12.359375 28.246094 12.472656 27.972656 12.570312 27.695312 C 12.6875 27.425781 12.800781 27.152344 12.902344 26.878906 C 13.015625 26.605469 13.128906 26.335938 13.230469 26.058594 C 13.34375 25.785156 13.457031 25.515625 13.558594 25.238281 C 13.675781 24.96875 13.785156 24.695312 13.886719 24.417969 C 14 24.148438 14.113281 23.875 14.210938 23.597656 C 14.632812 22.6875 14.988281 21.742188 15.355469 20.808594 C 15.472656 20.539062 15.585938 20.265625 15.6875 19.992188 C 15.800781 19.71875 15.914062 19.445312 16.011719 19.171875 C 16.128906 18.902344 16.242188 18.628906 16.339844 18.351562 C 16.460938 18.082031 16.570312 17.808594 16.671875 17.535156 C 16.789062 17.261719 16.898438 16.988281 17 16.714844 C 17.113281 16.441406 17.226562 16.171875 17.328125 15.894531 C 17.441406 15.621094 17.554688 15.351562 17.65625 15.078125 C 17.773438 14.804688 17.882812 14.53125 17.984375 14.253906 C 18.464844 13.125 18.878906 11.972656 19.191406 10.785156 C 19.425781 9.925781 19.554688 8.96875 19.226562 8.121094 C 18.6875 7.183594 17.898438 6.585938 16.847656 6.332031 C 15.796875 6.1875 14.703125 6.265625 13.722656 6.703125 C 13.5 6.804688 13.285156 6.914062 13.070312 7.03125 C 11.378906 8.09375 9.929688 9.746094 9.503906 11.746094 C 9.355469 12.214844 9.417969 12.71875 9.339844 13.203125 C 9.382812 13.863281 9.421875 14.527344 9.757812 15.113281 C 10.230469 15.914062 10.890625 16.511719 11.730469 16.910156 C 12.070312 17.054688 12.410156 17.207031 12.765625 17.3125 C 13.269531 17.574219 13.726562 17.910156 14.113281 18.324219 L 14.261719 18.675781 C 14.332031 18.851562 14.402344 19.023438 14.476562 19.195312 C 14.714844 20.75 13.652344 22.207031 12.269531 22.816406 C 11.007812 23.179688 9.628906 23.113281 8.363281 22.800781 C 8.09375 22.675781 7.820312 22.558594 7.542969 22.457031 C 7.269531 22.285156 6.988281 22.121094 6.703125 21.96875 C 5.414062 21.09375 4.480469 19.824219 3.703125 18.496094 C 3.542969 18.105469 3.394531 17.707031 3.214844 17.328125 C 2.765625 15.800781 2.59375 14.246094 2.699219 12.660156 C 2.917969 11.433594 3.085938 10.179688 3.546875 9.007812 C 3.722656 8.628906 3.875 8.234375 4.03125 7.847656 C 4.261719 7.46875 4.496094 7.089844 4.707031 6.699219 C 4.929688 6.375 5.148438 6.046875 5.367188 5.714844 C 6.574219 4.148438 8.007812 2.824219 9.664062 1.746094 C 10.3125 1.398438 10.964844 1.066406 11.628906 0.753906 C 11.960938 0.652344 12.285156 0.539062 12.613281 0.421875 Z M 179.488281 4.886719 C 180.3125 4.558594 181.207031 4.589844 182.078125 4.648438 C 182.605469 4.898438 183.058594 5.269531 183.445312 5.707031 L 183.59375 6.058594 C 183.660156 6.234375 183.734375 6.410156 183.8125 6.585938 C 183.863281 7.117188 183.75 7.632812 183.617188 8.144531 C 183.496094 8.472656 183.382812 8.804688 183.28125 9.140625 C 183.003906 9.667969 182.757812 10.207031 182.550781 10.765625 L 182.269531 11.246094 C 182.953125 11.367188 183.652344 11.332031 184.339844 11.378906 C 184.511719 11.449219 184.6875 11.519531 184.871094 11.578125 C 185.316406 11.867188 185.8125 12.1875 185.957031 12.742188 C 186.261719 13.429688 186.078125 14.195312 185.914062 14.894531 C 185.507812 15.832031 184.617188 16.359375 183.71875 16.742188 C 182.523438 17.035156 181.292969 16.921875 180.078125 16.941406 L 180.019531 17.3125 C 179.882812 17.585938 179.761719 17.863281 179.65625 18.148438 C 179.539062 18.417969 179.429688 18.691406 179.328125 18.96875 C 179.210938 19.238281 179.105469 19.511719 179.003906 19.785156 C 178.882812 20.058594 178.777344 20.332031 178.675781 20.605469 C 178.558594 20.878906 178.445312 21.152344 178.347656 21.425781 C 178.230469 21.695312 178.121094 21.96875 178.019531 22.246094 C 177.902344 22.515625 177.792969 22.789062 177.691406 23.066406 C 177.574219 23.335938 177.464844 23.609375 177.363281 23.882812 C 177.238281 24.164062 177.128906 24.453125 177.039062 24.746094 C 176.984375 24.800781 176.875 24.910156 176.820312 24.964844 C 178.25 25.023438 179.695312 24.835938 181.097656 25.164062 C 181.433594 25.335938 181.769531 25.503906 182.105469 25.675781 C 182.289062 25.964844 182.476562 26.25 182.664062 26.539062 C 182.660156 27.199219 182.78125 27.898438 182.511719 28.519531 C 182.378906 28.871094 182.152344 29.175781 181.953125 29.488281 C 181.523438 29.804688 181.09375 30.117188 180.609375 30.351562 C 179.226562 30.71875 177.78125 30.535156 176.367188 30.582031 C 174.945312 30.527344 173.488281 30.730469 172.097656 30.351562 C 171.234375 29.976562 170.480469 29.367188 170.074219 28.5 C 169.988281 27.8125 169.722656 27.113281 169.992188 26.429688 C 170.128906 25.664062 170.457031 24.964844 170.757812 24.253906 C 170.871094 23.980469 170.980469 23.707031 171.082031 23.433594 C 171.195312 23.160156 171.308594 22.890625 171.410156 22.613281 C 171.523438 22.339844 171.632812 22.070312 171.734375 21.792969 C 171.851562 21.523438 171.960938 21.25 172.0625 20.972656 C 172.179688 20.703125 172.289062 20.429688 172.390625 20.15625 C 172.84375 19.089844 173.222656 17.992188 173.710938 16.941406 C 172.613281 17.015625 171.28125 16.78125 170.734375 15.707031 C 170.660156 15.277344 170.46875 14.859375 170.546875 14.421875 C 170.613281 14.085938 170.691406 13.753906 170.730469 13.414062 C 171.132812 12.546875 171.886719 11.929688 172.753906 11.5625 C 173.703125 11.269531 174.695312 11.355469 175.671875 11.308594 C 176.222656 11.09375 176.214844 10.304688 176.488281 9.828125 C 176.605469 9.558594 176.714844 9.285156 176.816406 9.007812 C 176.933594 8.738281 177.046875 8.464844 177.148438 8.1875 C 177.265625 7.917969 177.375 7.640625 177.46875 7.363281 C 177.628906 7.03125 177.796875 6.699219 177.957031 6.371094 C 178.421875 5.832031 178.925781 5.324219 179.488281 4.886719 Z M 52.761719 11.050781 C 53.5625 10.972656 54.363281 11.023438 55.164062 11.046875 C 55.855469 11.289062 56.546875 11.53125 57.183594 11.902344 C 57.839844 12.488281 58.460938 13.121094 58.875 13.910156 C 59.066406 14.660156 59.308594 15.425781 59.230469 16.210938 C 59.121094 17.105469 58.824219 17.957031 58.527344 18.804688 C 57.636719 20.832031 56.84375 22.90625 56.039062 24.96875 C 57.511719 25.015625 59.003906 24.839844 60.453125 25.164062 C 60.992188 25.398438 61.449219 25.742188 61.824219 26.195312 C 62.164062 27.035156 62.019531 27.953125 61.785156 28.800781 C 61.359375 29.335938 60.871094 29.820312 60.28125 30.171875 C 59.9375 30.273438 59.601562 30.394531 59.269531 30.53125 C 56.675781 30.609375 54.074219 30.605469 51.476562 30.535156 C 50.925781 30.242188 50.339844 29.996094 49.878906 29.570312 C 49.542969 29.203125 49.320312 28.753906 49.089844 28.320312 C 49.070312 27.960938 49.019531 27.605469 48.933594 27.257812 C 49.039062 26.917969 49.070312 26.5625 49.089844 26.207031 L 49.1875 26.054688 C 49.265625 25.78125 49.355469 25.507812 49.4375 25.234375 C 49.679688 24.699219 49.894531 24.148438 50.105469 23.597656 C 50.222656 23.324219 50.332031 23.050781 50.433594 22.777344 C 50.550781 22.507812 50.660156 22.234375 50.761719 21.957031 C 50.878906 21.6875 50.992188 21.417969 51.089844 21.140625 C 51.207031 20.867188 51.316406 20.59375 51.417969 20.320312 C 51.535156 20.046875 51.644531 19.777344 51.75 19.5 C 52.109375 18.820312 52.257812 18.09375 52.1875 17.324219 C 51.921875 17.050781 51.628906 16.816406 51.300781 16.625 C 51.074219 16.609375 50.847656 16.589844 50.625 16.566406 C 49.273438 16.453125 48.238281 17.464844 47.515625 18.480469 C 47.324219 18.792969 47.152344 19.113281 46.976562 19.4375 C 45.691406 22.355469 44.585938 25.347656 43.382812 28.300781 C 43.171875 28.632812 42.964844 28.96875 42.78125 29.320312 C 42.234375 29.96875 41.585938 30.535156 40.78125 30.84375 C 40.484375 30.878906 40.199219 30.933594 39.914062 31.003906 C 39.488281 31.121094 39.078125 30.894531 38.660156 30.847656 C 38.128906 30.609375 37.683594 30.265625 37.316406 29.816406 C 37.265625 29.722656 37.15625 29.542969 37.109375 29.453125 C 36.96875 28.503906 37.09375 27.589844 37.476562 26.710938 C 37.597656 26.441406 37.710938 26.167969 37.8125 25.890625 C 37.929688 25.621094 38.039062 25.347656 38.140625 25.070312 C 38.253906 24.800781 38.367188 24.527344 38.464844 24.253906 C 38.582031 23.980469 38.691406 23.707031 38.792969 23.433594 C 38.910156 23.160156 39.019531 22.890625 39.121094 22.613281 C 39.238281 22.339844 39.347656 22.070312 39.449219 21.792969 C 39.566406 21.523438 39.675781 21.25 39.773438 20.972656 C 40.761719 18.515625 41.761719 16.058594 42.722656 13.585938 C 42.832031 13.371094 42.9375 13.152344 43.046875 12.933594 C 43.492188 12.21875 44.160156 11.722656 44.914062 11.371094 C 45.777344 11.339844 46.679688 11.222656 47.503906 11.5625 C 48.042969 11.890625 48.464844 12.355469 48.789062 12.894531 C 49.019531 12.726562 49.253906 12.570312 49.488281 12.40625 C 49.9375 12.160156 50.371094 11.882812 50.820312 11.636719 C 51.457031 11.40625 52.097656 11.175781 52.765625 11.050781 Z M 71.636719 11.238281 C 72.921875 10.945312 74.242188 10.996094 75.546875 11.039062 C 76.269531 11.125 76.976562 11.339844 77.664062 11.566406 C 78.367188 11.882812 79.011719 12.308594 79.644531 12.738281 C 80.039062 13.117188 80.425781 13.507812 80.808594 13.902344 C 81.019531 14.238281 81.246094 14.570312 81.472656 14.898438 C 81.644531 15.230469 81.808594 15.5625 81.980469 15.886719 C 82.199219 16.585938 82.363281 17.300781 82.492188 18.019531 C 82.535156 18.667969 82.507812 19.320312 82.511719 19.972656 C 82.558594 20.804688 82.230469 21.585938 82.148438 22.402344 C 81.96875 22.890625 81.800781 23.390625 81.644531 23.894531 C 80.832031 25.753906 79.722656 27.511719 78.167969 28.84375 C 77.261719 29.5 76.273438 30.046875 75.1875 30.351562 C 73.296875 30.6875 71.367188 30.5625 69.457031 30.546875 C 68.144531 30.40625 66.769531 30.175781 65.703125 29.339844 C 64.683594 28.464844 63.910156 27.417969 63.375 26.1875 C 63.320312 26.019531 63.265625 25.851562 63.203125 25.6875 C 62.609375 23.5 62.730469 21.175781 63.371094 19.015625 C 63.496094 18.742188 63.609375 18.464844 63.703125 18.179688 C 63.914062 17.734375 64.132812 17.296875 64.363281 16.863281 C 65.304688 15.316406 66.566406 13.996094 68.007812 12.90625 L 68.511719 12.566406 C 69.046875 12.273438 69.59375 12 70.144531 11.734375 C 70.644531 11.578125 71.144531 11.414062 71.636719 11.234375 Z M 90 11.972656 C 91.035156 11.542969 92.097656 11.113281 93.226562 11.035156 C 94.550781 11 95.910156 10.914062 97.171875 11.398438 C 98.167969 11.828125 99.097656 12.429688 99.828125 13.242188 C 101.019531 14.8125 101.34375 16.917969 100.832031 18.800781 C 100.703125 19.070312 100.589844 19.339844 100.488281 19.617188 C 100.371094 19.789062 100.257812 19.964844 100.152344 20.144531 C 99.929688 20.371094 99.707031 20.59375 99.484375 20.820312 C 99.257812 20.9375 99.035156 21.054688 98.8125 21.171875 C 97.734375 21.597656 96.386719 21.398438 95.636719 20.46875 C 95.289062 19.753906 95.5 18.945312 95.371094 18.191406 C 95.320312 17.898438 95.289062 17.601562 95.28125 17.300781 C 95.066406 16.90625 94.75 16.511719 94.277344 16.457031 C 93.652344 16.441406 92.972656 16.351562 92.421875 16.726562 C 91.640625 17.097656 91.113281 17.789062 90.632812 18.480469 C 90.5 18.691406 90.371094 18.902344 90.242188 19.117188 C 89.972656 19.691406 89.726562 20.289062 89.691406 20.929688 C 89.433594 21.949219 89.605469 23.109375 90.246094 23.953125 C 90.933594 24.671875 91.988281 24.796875 92.917969 24.957031 C 95.050781 24.996094 97.1875 24.957031 99.324219 24.976562 C 99.871094 25.035156 100.410156 25.1875 100.945312 25.328125 C 101.238281 25.546875 101.53125 25.765625 101.804688 26.015625 C 101.847656 26.105469 101.941406 26.292969 101.984375 26.382812 C 102.027344 26.710938 102.101562 27.027344 102.164062 27.351562 C 102.082031 27.839844 101.964844 28.324219 101.820312 28.796875 C 101.632812 29.019531 101.453125 29.25 101.285156 29.488281 C 101.054688 29.652344 100.828125 29.824219 100.609375 30.003906 L 100.285156 30.179688 C 99.6875 30.378906 99.085938 30.613281 98.445312 30.566406 C 95.359375 30.566406 92.277344 30.632812 89.199219 30.527344 C 88.976562 30.449219 88.75 30.382812 88.519531 30.332031 C 88.195312 30.191406 87.867188 30.0625 87.53125 29.941406 C 87.070312 29.652344 86.625 29.339844 86.199219 29 C 85.730469 28.625 85.421875 28.097656 85.015625 27.664062 C 84.726562 27.125 84.449219 26.578125 84.183594 26.023438 C 83.308594 23.417969 83.554688 20.558594 84.519531 18.015625 C 84.734375 17.574219 84.949219 17.136719 85.183594 16.703125 C 85.363281 16.4375 85.523438 16.164062 85.683594 15.886719 C 86.621094 14.613281 87.726562 13.507812 89 12.570312 C 89.335938 12.382812 89.667969 12.179688 90 11.972656 Z M 134.394531 11.054688 C 136.097656 10.964844 137.851562 10.914062 139.464844 11.570312 C 141.152344 12.3125 142.457031 13.484375 143.378906 15.082031 C 143.449219 15.242188 143.523438 15.402344 143.597656 15.5625 C 143.695312 15.84375 143.808594 16.121094 143.941406 16.394531 C 144.609375 18.6875 144.359375 21.144531 143.609375 23.390625 C 143.480469 23.664062 143.367188 23.9375 143.273438 24.222656 C 143.011719 24.777344 142.738281 25.324219 142.453125 25.863281 C 141.566406 27.3125 140.425781 28.613281 138.972656 29.515625 L 137.984375 30.011719 C 137.644531 30.113281 137.308594 30.226562 136.976562 30.355469 C 135.097656 30.6875 133.175781 30.5625 131.273438 30.546875 C 130.730469 30.574219 130.21875 30.351562 129.671875 30.355469 C 129.140625 30.15625 128.578125 30.023438 128.089844 29.726562 C 127.167969 29.175781 126.464844 28.347656 125.832031 27.5 C 125.601562 27.066406 125.382812 26.628906 125.164062 26.191406 C 124.488281 24.265625 124.496094 22.175781 124.832031 20.183594 C 124.90625 19.957031 124.957031 19.730469 125.011719 19.5 C 125.125 19.171875 125.230469 18.84375 125.335938 18.511719 C 125.652344 17.847656 125.972656 17.191406 126.328125 16.546875 L 126.671875 16.046875 C 126.839844 15.828125 127.007812 15.605469 127.164062 15.375 C 127.984375 14.496094 128.8125 13.601562 129.804688 12.90625 C 129.972656 12.792969 130.136719 12.679688 130.304688 12.5625 C 131.578125 11.8125 132.941406 11.308594 134.394531 11.054688 Z M 151.945312 11.234375 C 152.957031 10.90625 154.234375 10.800781 155.074219 11.574219 C 155.46875 11.890625 155.714844 12.34375 155.945312 12.78125 C 155.980469 13.484375 155.960938 14.191406 155.738281 14.863281 C 155.496094 15.40625 155.277344 15.957031 155.070312 16.511719 C 154.949219 16.777344 154.839844 17.054688 154.742188 17.328125 C 154.621094 17.597656 154.515625 17.871094 154.417969 18.148438 C 154.1875 18.691406 153.964844 19.238281 153.761719 19.789062 C 153.640625 20.058594 153.527344 20.332031 153.429688 20.609375 C 153.308594 20.878906 153.203125 21.152344 153.109375 21.433594 C 153.027344 21.605469 152.949219 21.78125 152.875 21.957031 L 152.722656 22.417969 C 152.667969 22.582031 152.617188 22.746094 152.558594 22.90625 C 152.5 23.070312 152.4375 23.230469 152.375 23.394531 C 152.230469 23.816406 152.191406 24.273438 152.441406 24.667969 C 152.835938 25.039062 153.390625 24.976562 153.894531 24.976562 C 154.648438 25.019531 155.378906 24.738281 156.042969 24.40625 C 156.800781 23.902344 157.390625 23.171875 157.644531 22.292969 C 157.757812 22.019531 157.867188 21.746094 157.96875 21.46875 C 158.085938 21.199219 158.195312 20.925781 158.296875 20.648438 C 158.414062 20.378906 158.523438 20.105469 158.625 19.828125 C 158.742188 19.558594 158.851562 19.285156 158.953125 19.007812 C 159.066406 18.738281 159.179688 18.464844 159.28125 18.191406 C 159.398438 17.917969 159.503906 17.648438 159.609375 17.367188 C 159.722656 17.097656 159.835938 16.824219 159.9375 16.550781 C 160.050781 16.277344 160.164062 16.007812 160.265625 15.730469 C 160.382812 15.457031 160.488281 15.183594 160.585938 14.902344 C 160.839844 14.347656 161.109375 13.796875 161.40625 13.261719 C 161.523438 13.09375 161.632812 12.921875 161.746094 12.75 C 162.25 12.15625 162.898438 11.71875 163.589844 11.371094 C 164.230469 11.328125 164.875 11.320312 165.519531 11.371094 C 166.042969 11.625 166.496094 11.992188 166.886719 12.425781 L 167.035156 12.777344 C 167.101562 12.953125 167.175781 13.125 167.253906 13.296875 C 167.347656 14.363281 166.859375 15.351562 166.550781 16.34375 C 166.429688 16.613281 166.316406 16.886719 166.214844 17.164062 C 166.097656 17.433594 165.988281 17.707031 165.886719 17.984375 C 165.769531 18.253906 165.660156 18.527344 165.558594 18.800781 C 165.441406 19.074219 165.332031 19.347656 165.230469 19.621094 C 165.113281 19.890625 165.003906 20.164062 164.902344 20.441406 C 164.785156 20.710938 164.675781 20.984375 164.578125 21.265625 C 164.03125 22.480469 163.554688 23.722656 163.082031 24.96875 C 164.726562 25.007812 166.40625 24.808594 168 25.328125 C 168.304688 25.621094 168.664062 25.894531 168.828125 26.304688 C 168.921875 26.613281 168.949219 26.941406 169.035156 27.253906 C 168.917969 27.773438 168.875 28.304688 168.703125 28.804688 C 168.398438 29.300781 167.996094 29.699219 167.503906 30.003906 C 167.277344 30.117188 167.050781 30.230469 166.828125 30.34375 C 165.773438 30.664062 164.65625 30.5625 163.566406 30.582031 C 162.097656 30.566406 160.628906 30.613281 159.160156 30.539062 C 158.546875 30.261719 158.035156 29.820312 157.597656 29.3125 L 157.558594 29.027344 C 157.21875 29.367188 156.871094 29.691406 156.515625 30.007812 C 156.292969 30.113281 156.070312 30.222656 155.847656 30.332031 C 155.675781 30.394531 155.503906 30.460938 155.332031 30.53125 C 153.285156 30.609375 151.234375 30.609375 149.1875 30.53125 C 149.011719 30.460938 148.835938 30.398438 148.660156 30.335938 C 148 30.039062 147.335938 29.699219 146.824219 29.171875 C 146.292969 28.660156 145.96875 27.992188 145.652344 27.335938 C 145.414062 26.539062 145.421875 25.710938 145.46875 24.886719 C 145.628906 24.113281 145.898438 23.363281 146.160156 22.613281 C 146.28125 22.347656 146.390625 22.070312 146.492188 21.796875 C 146.609375 21.523438 146.71875 21.253906 146.820312 20.976562 C 146.9375 20.703125 147.046875 20.433594 147.148438 20.15625 C 147.265625 19.882812 147.375 19.613281 147.476562 19.335938 C 147.59375 19.066406 147.703125 18.792969 147.804688 18.515625 C 147.921875 18.246094 148.03125 17.972656 148.132812 17.695312 C 148.25 17.425781 148.359375 17.152344 148.460938 16.875 C 148.578125 16.605469 148.6875 16.332031 148.789062 16.058594 C 148.902344 15.785156 149.015625 15.515625 149.117188 15.238281 C 149.234375 14.964844 149.34375 14.691406 149.4375 14.410156 C 149.648438 13.96875 149.871094 13.53125 150.089844 13.09375 C 150.574219 12.339844 151.191406 11.71875 151.945312 11.234375 Z M 71.589844 17.1875 C 72.175781 16.78125 72.863281 16.542969 73.566406 16.457031 C 73.964844 16.449219 74.339844 16.605469 74.730469 16.640625 C 75.386719 16.957031 75.917969 17.5 76.25 18.144531 C 76.746094 19.863281 76.378906 21.785156 75.367188 23.25 C 74.972656 23.882812 74.441406 24.371094 73.773438 24.710938 C 72.605469 25.183594 71.4375 25.1875 70.269531 24.722656 C 69.824219 24.40625 69.355469 24.050781 69.167969 23.515625 C 68.742188 22.226562 69 20.808594 69.589844 19.609375 C 70.0625 18.664062 70.71875 17.796875 71.589844 17.1875 Z M 134.015625 16.804688 C 134.691406 16.589844 135.421875 16.304688 136.132812 16.570312 C 137.015625 16.699219 137.667969 17.421875 138.058594 18.179688 C 138.449219 19.527344 138.273438 20.988281 137.714844 22.265625 C 137.59375 22.492188 137.464844 22.71875 137.328125 22.9375 C 137.21875 23.101562 137.113281 23.261719 137.007812 23.425781 C 136.683594 23.917969 136.257812 24.332031 135.75 24.625 C 135.171875 24.945312 134.515625 24.992188 133.871094 25.082031 C 132.875 25.007812 131.671875 24.839844 131.140625 23.867188 C 130.398438 22.53125 130.769531 20.902344 131.390625 19.59375 C 131.976562 18.441406 132.839844 17.382812 134.015625 16.800781 Z M 187.828125 24.683594 C 188.652344 24.164062 189.613281 24.066406 190.566406 24.164062 C 190.742188 24.234375 190.925781 24.300781 191.113281 24.359375 C 191.875 24.738281 192.511719 25.324219 192.953125 26.050781 C 193.367188 26.976562 193.457031 28.011719 193.125 28.976562 C 193.007812 29.199219 192.894531 29.425781 192.785156 29.652344 C 192.414062 30.070312 192.011719 30.460938 191.601562 30.839844 C 190.597656 31.355469 189.382812 31.367188 188.332031 31.007812 L 188 30.824219 C 187.074219 30.234375 186.503906 29.40625 186.28125 28.328125 C 186.253906 27.859375 186.273438 27.382812 186.28125 26.910156 C 186.355469 26.734375 186.421875 26.554688 186.488281 26.378906 C 186.59375 26.152344 186.703125 25.933594 186.8125 25.707031 C 187.144531 25.363281 187.484375 25.019531 187.828125 24.683594 Z M 187.828125 24.683594 " fill-opacity="1" fill-rule="evenodd"></path></g></svg>