<svg xmlns="http://www.w3.org/2000/svg" xmlns:xlink="http://www.w3.org/1999/xlink" x="0px" y="0px" viewBox="0 0 500 500" style="enable-background:new 0 0 500 500;" xml:space="preserve"> <g id="Background_Complete"> <g> <rect y="382.398" style="fill:#EBEBEB;" width="500" height="0.25"></rect> <rect x="416.779" y="398.494" style="fill:#EBEBEB;" width="33.122" height="0.25"></rect> <rect x="322.527" y="401.208" style="fill:#EBEBEB;" width="8.693" height="0.25"></rect> <rect x="396.586" y="389.208" style="fill:#EBEBEB;" width="19.192" height="0.25"></rect> <rect x="52.459" y="390.888" style="fill:#EBEBEB;" width="43.193" height="0.25"></rect> <rect x="104.556" y="390.888" style="fill:#EBEBEB;" width="6.333" height="0.25"></rect> <rect x="131.471" y="395.111" style="fill:#EBEBEB;" width="93.676" height="0.25"></rect> <path style="fill:#EBEBEB;" d="M237.014,337.8H43.915c-3.147,0-5.708-2.561-5.708-5.708V60.66c0-3.147,2.561-5.708,5.708-5.708 h193.099c3.146,0,5.707,2.561,5.707,5.708v271.432C242.721,335.239,240.16,337.8,237.014,337.8z M43.915,55.203 c-3.01,0-5.458,2.448-5.458,5.458v271.432c0,3.01,2.448,5.458,5.458,5.458h193.099c3.009,0,5.457-2.448,5.457-5.458V60.66 c0-3.009-2.448-5.458-5.457-5.458H43.915z"></path> <path style="fill:#EBEBEB;" d="M453.31,337.8H260.212c-3.147,0-5.707-2.561-5.707-5.708V60.66c0-3.147,2.561-5.708,5.707-5.708 H453.31c3.148,0,5.708,2.561,5.708,5.708v271.432C459.019,335.239,456.458,337.8,453.31,337.8z M260.212,55.203 c-3.009,0-5.457,2.448-5.457,5.458v271.432c0,3.01,2.448,5.458,5.457,5.458H453.31c3.01,0,5.458-2.448,5.458-5.458V60.66 c0-3.009-2.448-5.458-5.458-5.458H260.212z"></path> </g> <polygon style="fill:#F0F0F0;" points="393.93,146.307 285.086,109.545 285.002,109.459 227.498,50.52 181.382,92.64 180.708,91.902 227.538,49.129 285.634,108.675 393.553,145.124 437.848,84.188 438.656,84.775 "></polygon> <g> <path style="fill:#F0F0F0;" d="M55.613,236.788c0,2.971-2.409,5.38-5.38,5.38c-2.971,0-5.38-2.408-5.38-5.38s2.408-5.38,5.38-5.38 C53.205,231.408,55.613,233.817,55.613,236.788z"></path> <path style="fill:#F0F0F0;" d="M232.897,49.824c0,2.971-2.409,5.38-5.38,5.38s-5.38-2.409-5.38-5.38s2.409-5.38,5.38-5.38 S232.897,46.853,232.897,49.824z"></path> <path style="fill:#F0F0F0;" d="M443.631,84.481c0,2.971-2.409,5.38-5.38,5.38s-5.38-2.409-5.38-5.38s2.409-5.38,5.38-5.38 S443.631,81.51,443.631,84.481z"></path> <path style="fill:#F0F0F0;" d="M444.099,368.385c0,2.971-2.409,5.38-5.38,5.38c-2.971,0-5.38-2.409-5.38-5.38 s2.409-5.38,5.38-5.38C441.691,363.005,444.099,365.414,444.099,368.385z"></path> <path style="fill:#F0F0F0;" d="M290.74,109.11c0,2.971-2.409,5.38-5.38,5.38c-2.971,0-5.38-2.409-5.38-5.38s2.409-5.38,5.38-5.38 C288.331,103.73,290.74,106.139,290.74,109.11z"></path> </g> <polygon style="fill:#F0F0F0;" points="191.355,368.522 190.938,368.443 56.019,342.968 56.204,341.985 190.706,367.382 284.89,108.938 285.83,109.281 "></polygon> <rect x="84.661" y="122.926" transform="matrix(0.6629 -0.7487 0.7487 0.6629 -86.3443 115.552)" style="fill:#F0F0F0;" width="1" height="61.49"></rect> <polygon style="fill:#F0F0F0;" points="438.457,368.81 371.752,327.47 373.208,327.07 443.291,259.647 393.284,145.917 394.199,145.515 444.487,259.883 444.236,260.125 374.006,327.69 438.983,367.96 "></polygon> <polygon style="fill:#F0F0F0;" points="56.531,342.748 55.691,342.205 96.007,279.931 49.528,236.815 49.867,236.449 108.083,173.42 108.429,173.621 373.714,327.086 373.213,327.951 108.274,174.686 50.94,236.761 97.303,279.769 "></polygon> </g> <g id="Background_Simple" style="display:none;"> <g style="display:inline;"> <path style="fill:#407BFF;" d="M104.556,101.625c27.919-59.449,127.059-51.062,165.317-9.255 c38.258,41.806,50.696,68.599,85.208,52.983c34.512-15.616,78.518-11.44,81.043,38.164s-37.913,108.263-102.09,125.615 c-64.177,17.352-64.161,78.759-149.1,66.368c-46.31-6.756-47.365-56.86-40.825-98.301S72.177,170.569,104.556,101.625z"></path> <path style="opacity:0.9;fill:#FFFFFF;" d="M104.556,101.625c27.919-59.449,127.059-51.062,165.317-9.255 c38.258,41.806,50.696,68.599,85.208,52.983c34.512-15.616,78.518-11.44,81.043,38.164s-37.913,108.263-102.09,125.615 c-64.177,17.352-64.161,78.759-149.1,66.368c-46.31-6.756-47.365-56.86-40.825-98.301S72.177,170.569,104.556,101.625z"></path> </g> </g> <g id="Shadow_1_"> <ellipse id="_x3C_Path_x3E__359_" style="fill:#F5F5F5;" cx="250" cy="416.238" rx="193.889" ry="11.323"></ellipse> </g> <g id="World"> <g> <g> <g> <path style="fill:#407BFF;" d="M241,299.131c2.69,0.222,5.355,0.311,7.994,0.272c22.603-0.33,43.284-10.028,57.952-25.621 c12.159-12.925,20.189-29.906,21.765-48.966c0.041-0.494,0.076-0.988,0.11-1.477c0.657-10.197-0.598-20.085-3.46-29.309l0-0.006 c-8.765-28.196-32.552-50.215-62.717-55.819c-2.703-0.499-5.452-0.87-8.249-1.101c-6.754-0.559-13.38-0.274-19.775,0.767 c-18.953,3.071-35.913,12.758-48.182,26.795c-11.025,12.623-18.267,28.759-19.755,46.754c-0.797,9.64,0.123,19.027,2.503,27.851 C177.852,271.43,205.897,296.229,241,299.131z"></path> </g> <g style="opacity:0.7;"> <path style="fill:#FFFFFF;" d="M241,299.131c2.69,0.222,5.355,0.311,7.994,0.272c22.603-0.33,43.284-10.028,57.952-25.621 c12.159-12.925,20.189-29.906,21.765-48.966c0.041-0.494,0.076-0.988,0.11-1.477c0.657-10.197-0.598-20.085-3.46-29.309l0-0.006 c-8.765-28.196-32.552-50.215-62.717-55.819c-2.703-0.499-5.452-0.87-8.249-1.101c-6.754-0.559-13.38-0.274-19.775,0.767 c-18.953,3.071-35.913,12.758-48.182,26.795c-11.025,12.623-18.267,28.759-19.755,46.754c-0.797,9.64,0.123,19.027,2.503,27.851 C177.852,271.43,205.897,296.229,241,299.131z"></path> </g> <g> <path style="fill:#407BFF;enable-background:new ;" d="M186.815,237.943c-0.263,1.511-2.184,2.054-3.733,2.249 c-2.324,0.287-4.649,0.58-6.974,0.867c-1.097-2.889-4.516-2.914-6.922-1.789c8.665,32.16,36.71,56.958,71.813,59.86 c2.69,0.222,5.355,0.311,7.994,0.272c0.047-0.062,0.088-0.13,0.13-0.199c1.211-2.13-0.546-4.016-1.486-5.763 c-0.213-0.395-2.205-5.43-1.544-5.444c-2.136,0.044-4.278-0.233-6.332-0.819c-0.156-0.045-0.325-0.102-0.407-0.242 c-0.193-0.333,0.271-0.658,0.645-0.745c0.957-0.225,1.952-0.277,2.894-0.558c0.942-0.282,1.869-0.855,2.234-1.768 c0.367-0.917,0.096-1.968,0.306-2.934c0.256-1.178,1.215-2.104,2.302-2.626c1.049-0.504,2.23-0.686,3.358-0.895 c-2.456-1.337-0.669-4.124-2.595-5.985c-0.619-0.598-1.521-1.329-1.141-2.101c0.361-0.734,1.661-0.724,1.823-1.526 c0.113-0.562-0.478-1.024-1.037-1.15c-0.559-0.126-1.169-0.081-1.67-0.359c-0.704-0.39-0.939-1.431-0.472-2.086 c0.42-0.589,1.196-0.77,1.834-1.109c0.638-0.34,1.214-1.128,0.83-1.741c-0.09-0.144-0.225-0.257-0.369-0.346 c-1.041-0.645-2.403-0.106-3.42,0.575c-1.017,0.681-2.047,1.538-3.271,1.526c-0.28-0.461-0.082-1.143,0.401-1.382 c0.168-0.083,0.366-0.122,0.497-0.256c0.285-0.292,0.071-0.772-0.124-1.13c-0.918-1.687-1.125-3.747-0.561-5.583 c2.481,0.047,4.962,0.095,7.443,0.142c0.062-0.558,0.122-0.891,0.713-1.06c-1.664-1.99-3.48-3.835-4.952-6 c-0.176-0.259-0.369-0.537-0.664-0.643c-0.308-0.11-0.651-0.005-0.975-0.049c-1.074-0.147-1.247-1.614-1.137-2.692 c-0.151-0.327-0.679-0.185-0.877,0.115c-0.198,0.3-0.245,0.692-0.486,0.958c-0.361,0.398-1.005,0.357-1.507,0.163 c-1.745-0.672-2.667-2.936-1.889-4.636c0.093-0.202,0.214-0.404,0.407-0.515c0.425-0.243,0.939,0.056,1.421,0.143 c1.899,0.342,1.61-1.757,1.152-2.75c-0.62-1.346-2.469-2.213-3.812-2.557c-1.569-0.402-12.037-2.402-10.311-5.815 c0.162-0.32,0.478-0.537,0.806-0.681c0.997-0.437,2.149-0.314,3.197-0.609c1.047-0.296,2.064-1.386,1.608-2.374 c-0.183-0.396-0.563-0.669-0.775-1.05c-0.59-1.063,0.319-2.444-0.1-3.585c-0.193-0.525-0.639-0.912-0.919-1.396 c-0.28-0.484-0.327-1.213,0.151-1.504c0.535-0.325,1.269,0.159,1.84-0.098c0.6-0.269,0.554-1.251,0.012-1.624 c-0.542-0.373-1.306-0.231-1.851,0.138c-0.285,0.193-0.553,0.449-0.894,0.494c-0.611,0.081-1.068-0.527-1.38-1.059 c-0.495-0.846-0.991-1.691-1.487-2.537c-0.561,0.01-0.989,0.523-1.181,1.05c-0.192,0.527-0.229,1.102-0.447,1.623 c-1.052,2.508-4.87,2.209-4.375,5.641c1.029-0.124,1.98,1.035,1.657,2.02c-0.398,1.214-2.221,1.881-1.966,3.133 c0.089,0.435,0.435,0.788,0.505,1.227c0.193,1.212-1.681,1.657-2.486,1.933c-2.668,0.915-2.85-0.837-5.162-0.941 c-1.058-0.048-2.008,0.666-3.061,0.782c-0.969,0.106-1.932-0.303-2.905-0.247c-2.674,0.156-1.333,3.781-1.144,5.357 c-1.437-0.958-3.356,0.16-4.5,1.45c-1.756,1.981-1.592,1.632-3.917,1.72c-0.614,0.023-1.258,0.326-1.507,0.888 c-0.433,0.978,0.487,2.032,0.511,3.102c0.011,0.513-0.188,1.018-0.141,1.529c0.124,1.342,1.713,1.926,2.677,2.868 c0.843,0.824,1.243,2.078,1.031,3.238c-0.687,0.043-1.38-0.006-2.054-0.146c-0.402-0.777-0.805-1.554-1.207-2.331 c-0.356-0.687-0.733-1.4-1.358-1.855c-0.35-0.255-0.777-0.429-1.031-0.779c-0.507-0.697-0.097-1.653,0.023-2.506 c0.292-2.069-0.748-5.551-1.254-7.603c-0.54-2.188-1.993-3.048-2.521-5.068c-0.093-0.356-0.59-0.472-0.91-0.29 c-0.32,0.182-0.484,0.549-0.576,0.906c-0.212,0.827-0.132,1.726,0.22,2.504c-0.463-1.02-3.042,1.664-3.198,2.173 c-0.255,0.834,0.298,2.024,0.277,2.891c-0.053,2.15-0.573,3.359-2.795,1.776c-0.85-0.605-1.938-1.319-2.839-0.792 c0.193,0.585-0.2,1.242-0.749,1.52c-0.549,0.278-1.203,0.253-1.808,0.137c-0.408-0.078-0.835-0.211-1.096-0.533 c-0.14-0.172-0.226-0.391-0.401-0.528c-0.57-0.444-1.289,0.326-1.598,0.979"></path> <path style="fill:#407BFF;enable-background:new ;" d="M285.028,174.023c0.449,0.704-0.025,1.622-0.538,2.281 s-1.112,1.434-0.887,2.239c0.965,0.088,1.93,0.176,2.894,0.264c0.181,0.017,0.383,0.044,0.498,0.184 c0.117,0.143,0.101,0.349,0.078,0.533c-0.075,0.619-0.151,1.239-0.226,1.858c-0.609,0.475-1.196-1.022-1.954-0.872 c-0.335,0.066-0.506,0.426-0.69,0.714c-1.567,2.456-4.3,0.617-5.763-0.66c-1.699-1.482-4.159-1.578-6.416-1.603 c-0.802-0.007-1.703,0.021-2.272,0.597c-0.561,0.559-0.593,1.443-0.876,2.192c-0.485,1.296-1.729,2.146-2.433,3.34 c-2.46,4.172,1.963,7.379,5.724,6.244c1.949-0.588,1.613-0.929,3.606-0.357c0.831,0.238,1.848,0.034,2.357,0.956 c0.54,0.977-0.216,2.27-1.356,2.259c-1.118-0.011-2.195,0.163-3.205-0.372c0.379,1.318-0.039,2.821-0.144,4.222 c-1.276-0.297-2.539,1.283-1.968,2.462c0.635,0.01,1.493,0.248,1.44,0.881c-0.015,0.185-0.117,0.35-0.223,0.502 c-0.442,0.635-1.009,1.183-1.389,1.859c-0.583,1.039-0.579,4.151-2.068,4.524c-0.262,0.066-0.541,0.044-0.798,0.126 c-0.548,0.175-0.858,0.83-0.73,1.391c0.129,0.56,0.624,0.993,1.179,1.142c0.37,0.099,0.766,0.089,1.128,0.215 c1.922,0.67,0.234,2.568,0.695,3.508c0.221,0.451,3.431,2.481,3.833,2.551c-1.13,0.775-2.125,1.988-2.166,3.416 c-0.045,1.564,1.144,2.323,2.632,2.788c1.571,0.491,3.475,0.654,4.607,1.091c0.608,0.235,1.351,0.453,1.863,0.049 c0.64-0.506,0.499-1.695,1.237-2.041c0.234-0.11,0.504-0.1,0.762-0.125c1.51-0.144,2.717-1.733,2.448-3.227 c0.35-0.455,1.031-0.412,1.605-0.397c0.574,0.015,1.3-0.174,1.383-0.742c0.096-0.653-0.74-1.015-1.399-1.055 c-0.672-0.04-1.349,0.014-2.006,0.16c-0.491,0.109-1.02,0.266-1.478,0.06c-0.347-0.156-0.576-0.488-0.774-0.813 c-0.477-0.781-0.894-1.661-0.818-2.573c0.076-0.913,0.812-1.824,1.727-1.79c0.245,0.009,0.491,0.083,0.734,0.043 c0.623-0.101,0.893-0.867,0.856-1.497c-0.037-0.63-0.251-1.272-0.079-1.879c0.172-0.607,1.014-1.059,1.434-0.588 c0.354-0.807,0.587-1.982-0.203-2.37c-0.254-0.125-0.549-0.118-0.831-0.144c-1.738-0.163-4.088-2.518-2.156-3.857 c1.27-0.881,3.321,0.956,4.438-0.712c0.534-0.797,0.203-1.959,0.752-2.746c0.325-0.234,0.704,0.239,0.777,0.633 c0.229,1.245-0.25,2.596-1.211,3.419c0.977,0.57,2.522-0.08,3.185,0.836c0.655,0.904-0.315,2.476,0.551,3.182 c0.248,0.202,0.581,0.256,0.898,0.303c1.564,0.231,4.484-0.035,4.58,2.205c0.012,0.271-0.03,0.55,0.049,0.81 c0.24,0.789,1.313,0.864,2.134,0.782c0.422-0.807-0.128-1.748-0.493-2.583c-0.364-0.835-0.339-2.113,0.548-2.321 c0.635-0.149,1.374,0.396,1.909,0.023c0.248-0.173,0.362-0.502,0.629-0.644c0.646-0.344,1.192,0.651,1.888,0.874 c0.96,0.306,1.687-0.953,1.688-1.961c0.001-1.008-0.251-2.155,0.406-2.919c0.208-0.242,0.487-0.412,0.717-0.634 c0.706-0.685,0.845-1.749,0.945-2.727c0.159-1.562,6.324,2.484,6.714,2.549c2.964,0.495,4.784-2.445,6.815-4.055 c1.07-0.84,2.304-1.421,3.539-2.003c-8.44-27.147-31.172-48.466-58.856-55.004c-1.241-0.293-2.522-0.627-3.774-0.731 c0.382,1.889,1.549,4.872,0.282,6.665c-1.609,2.277-5.018,0.284-6.272,2.954c-0.042,0.682,1.094,0.57,1.619,1.006 c0.292,0.243,0.365,0.652,0.51,1.003c0.145,0.351,0.485,0.705,0.848,0.595c0.423,0.631-0.236,1.406-0.794,1.919 c-0.657,0.604-1.272,1.305-1.521,2.162c-0.518,1.786,0.656,3.559,1.408,5.26c0.622,1.405,0.972,2.913,1.318,4.41 c0.012-0.711,1.017-0.995,1.651-0.673c0.634,0.322,1.021,0.971,1.535,1.463c0.875,0.839,2.006,0.331,2.949,1.048 c1.173,0.888,1.922,2.484,3.37,2.723c1.755,0.295,3.03-1.577,3.809-3.172c1.929,1.022,3.121,3.487,5.3,3.65 c0.84,0.063,1.651-0.253,2.431-0.56c1.598-0.629,3.196-1.258,4.788-1.887c0.663-0.263,1.392-0.526,2.061-0.285 c0.792,0.275,1.194,1.135,1.508,1.904c0.344,0.837,0.688,1.675,1.033,2.512c0.139,0.347,0.282,0.724,0.192,1.083 c-0.098,0.387-0.431,0.653-0.767,0.871c-1.806,1.187-4.073,1.647-6.204,1.267c0.21,2.893,0.776,5.762,1.692,8.516 c-1.631-0.421-3.507,0.123-5.016-0.506"></path> <path style="fill:#407BFF;enable-background:new ;" d="M266.439,240.021c-0.611,0.728-1.502,1.283-2.452,1.259 c-0.586-0.015-1.145-0.244-1.725-0.326c-0.58-0.082-1.259,0.033-1.579,0.523c-0.409,0.626-0.021,1.449,0.365,2.09 c0.314,0.521,0.681,1.084,1.266,1.249c0.428,0.122,0.889,0.002,1.328,0.074c0.869,0.142,1.425,0.963,2.002,1.628 c0.577,0.665,1.518,1.264,2.285,0.832c0.505-0.284,0.722-0.921,1.212-1.23c1.195-0.753,2.665,0.883,3.748,0.266 c1.283-0.731,0.813-2.82,0.281-3.996c-0.538-1.191-1.634-2.11-2.553-3.002C268.017,236.867,268.381,237.707,266.439,240.021z"></path> <path style="fill:#407BFF;enable-background:new ;" d="M306.976,273.716c12.789-12.673,20.268-31.143,21.736-48.901 c0.041-0.494,0.076-0.988,0.11-1.477c-2.466-2.544-7.379-4.166-8.665,0.408c-0.507-0.036-0.61-0.338-0.996-0.624 c-0.606-0.45-1.458,0.16-1.798,0.834c-1.114,2.21-1.269,4.984-4.331,4.388c-3.652-0.71-1.176-2.274-2.366-4.288 c-0.172-0.292-0.474-0.478-0.712-0.719c-0.873-0.884-0.757-2.31-0.582-3.54c0.701,0.364,1.684-0.045,1.919-0.799 c0.089-0.284,0.09-0.611,0.283-0.839c0.413-0.488,1.266-0.031,1.465,0.578c0.198,0.608,0.046,1.279,0.178,1.905 c0.132,0.626,0.816,1.24,1.362,0.907c0.228-0.139,0.35-0.401,0.428-0.656c0.328-1.072,0.085-2.302-0.627-3.169 c0.602-0.16,1.055-0.762,1.042-1.385c-0.014-0.623-0.493-1.205-1.101-1.338c-0.889-0.195-2.16,0.33-2.52-0.506 c0.133,0.728-0.184,1.519-0.783,1.954c-2.358,1.713-7.662,0.187-7.133,5.21c0.085,0.807,0.366,1.594,0.348,2.405 c-0.018,0.811-0.464,1.708-1.261,1.863c1.432,1.155,0.908,3.8,2.446,4.81c0.724,0.475,1.777,0.363,2.385-0.253 c0.101-0.102,0.198-0.221,0.336-0.264c0.28-0.087,0.54,0.177,0.827,0.238c0.499,0.106,0.93-0.409,1.439-0.438 c0.71-0.04,1.096,0.81,1.222,1.509c0.126,0.7,0.315,1.557,0.999,1.748c0.233,0.065,0.485,0.033,0.719,0.099 c0.471,0.132,0.754,0.642,0.779,1.13c0.026,0.488-0.15,0.962-0.323,1.419c-0.295,0.298-0.822,0.116-1.107-0.192 c-0.285-0.308-0.456-0.718-0.785-0.979c-0.184-0.145-4.434,0.182-4.3-0.127c-0.632,1.463-0.951,4.665-3.147,3.849 c-0.775-0.288-1.566-0.812-2.359-0.577c0.377-1.034,0.742-2.072,1.094-3.114c-0.321-0.285-0.82,0.105-0.956,0.512 c-0.136,0.407-0.158,0.901-0.502,1.159c-0.241,0.181-0.567,0.183-0.869,0.177c-0.98-0.019-1.961-0.038-2.941-0.058 c-1.064-0.021-2.288,0.029-2.951,0.861c-0.754,0.946-0.32,2.398,0.484,3.302c0.193,0.217,0.42,0.456,0.399,0.746 c-0.019,0.262-0.234,0.46-0.423,0.642c-0.998,0.96-1.66,2.357-1.444,3.724c0.216,1.367,1.484,2.58,2.863,2.457 c0.53-0.047,1.189-0.226,1.502,0.205c0.184,0.253,0.178,0.662,0.463,0.791c0.359,0.162,0.66-0.289,0.918-0.586 c0.466-0.538,1.329-0.677,1.94-0.314c0.313,0.186,1.295,3.206,1.039,3.644c-0.587,1.005-3.371,0.61-4.459,0.658 c-0.421,0.019-0.891,0.06-1.167,0.378c-0.431,0.496-0.082,1.286,0.401,1.732s1.111,0.794,1.351,1.406 c0.14,0.356,0.124,0.751,0.107,1.132c-0.035,0.773-0.114,1.639-0.703,2.141c-0.275,0.235-0.632,0.358-0.908,0.592 c-0.629,0.536-0.674,1.505-0.455,2.301c0.219,0.797,0.646,1.531,0.798,2.344c0.324,1.728-0.624,3.604,0.062,5.222 c0.332,0.782,1.366,1.406,2.013,0.855c0.559-0.476,0.554-1.599,1.283-1.681c0.699-0.079,1.564,1.683,2.145,2.025 c0.459,0.271,1.385-0.176,2.228,0.435C306.1,272.085,306.239,273.178,306.976,273.716z"></path> <path style="fill:#407BFF;enable-background:new ;" d="M198.424,165.408c0.719-0.915,1.172-1.968,2.522-2.203 c1.839-0.321,2.535,0.71,1.73,2.454c-0.072,0.155-0.148,0.325-0.108,0.491c0.126,0.531,0.92,0.221,1.373-0.084 c1.057-0.714,2.401-0.667,3.53-0.17c0.268,0.118,0.766-4.927,0.503-5.507c-0.919-2.029-5.17-1.073-4.299-3.281 c1.591-0.034,3.221,0.174,4.818,0.29c0.087-0.768,0.175-1.535,0.262-2.303c-0.065,0.572,2.907,0.454,3.243,0.283 c1.308-0.664,0.953-3.046,3.301-2.659c2.971,0.49,3.141,6.328-0.238,5.376c-0.809,1.714-1.115,3.765-1.203,5.656 c-0.611-0.002-1.227-0.012-1.838-0.02c-0.304,0.418-0.394,0.992-0.225,1.485c1.466,1.032,3.58,1.051,5.071,0.048 c0.963,0.739,2.328,0.031,3.321-0.672c1.391,2.236,5.377,1.924,6.404-0.501c1.028-2.431-1.528-5.507-4.103-4.947 c-0.048-1.226-0.494-2.432-1.253-3.393c3.19,0.108,6.33-2.065,7.347-5.09c0.515-1.521,0.632-3.363,1.916-4.329 c0.569-0.432,1.291-0.612,1.887-1.006c1.332-0.896,1.723-2.649,1.933-4.244c0.136-1.067,0.237-2.137,0.301-3.211 c-18.953,3.071-35.913,12.758-48.182,26.795c-0.065,0.564-0.101,1.148,0.121,1.658c0.419,0.945,1.545,1.314,2.548,1.577 c3.899,1.03,6.393,0.805,9.095-2.227C198.28,165.587,198.353,165.498,198.424,165.408z"></path> </g> <g style="opacity:0.4;"> <path style="fill:#FFFFFF;enable-background:new ;" d="M186.815,237.943c-0.263,1.511-2.184,2.054-3.733,2.249 c-2.324,0.287-4.649,0.58-6.974,0.867c-1.097-2.889-4.516-2.914-6.922-1.789c8.665,32.16,36.71,56.958,71.813,59.86 c2.69,0.222,5.355,0.311,7.994,0.272c0.047-0.062,0.088-0.13,0.13-0.199c1.211-2.13-0.546-4.016-1.486-5.763 c-0.213-0.395-2.205-5.43-1.544-5.444c-2.136,0.044-4.278-0.233-6.332-0.819c-0.156-0.045-0.325-0.102-0.407-0.242 c-0.193-0.333,0.271-0.658,0.645-0.745c0.957-0.225,1.952-0.277,2.894-0.558c0.942-0.282,1.869-0.855,2.234-1.768 c0.367-0.917,0.096-1.968,0.306-2.934c0.256-1.178,1.215-2.104,2.302-2.626c1.049-0.504,2.23-0.686,3.358-0.895 c-2.456-1.337-0.669-4.124-2.595-5.985c-0.619-0.598-1.521-1.329-1.141-2.101c0.361-0.734,1.661-0.724,1.823-1.526 c0.113-0.562-0.478-1.024-1.037-1.15c-0.559-0.126-1.169-0.081-1.67-0.359c-0.704-0.39-0.939-1.431-0.472-2.086 c0.42-0.589,1.196-0.77,1.834-1.109c0.638-0.34,1.214-1.128,0.83-1.741c-0.09-0.144-0.225-0.257-0.369-0.346 c-1.041-0.645-2.403-0.106-3.42,0.575c-1.017,0.681-2.047,1.538-3.271,1.526c-0.28-0.461-0.082-1.143,0.401-1.382 c0.168-0.083,0.366-0.122,0.497-0.256c0.285-0.292,0.071-0.772-0.124-1.13c-0.918-1.687-1.125-3.747-0.561-5.583 c2.481,0.047,4.962,0.095,7.443,0.142c0.062-0.558,0.122-0.891,0.713-1.06c-1.664-1.99-3.48-3.835-4.952-6 c-0.176-0.259-0.369-0.537-0.664-0.643c-0.308-0.11-0.651-0.005-0.975-0.049c-1.074-0.147-1.247-1.614-1.137-2.692 c-0.151-0.327-0.679-0.185-0.877,0.115c-0.198,0.3-0.245,0.692-0.486,0.958c-0.361,0.398-1.005,0.357-1.507,0.163 c-1.745-0.672-2.667-2.936-1.889-4.636c0.093-0.202,0.214-0.404,0.407-0.515c0.425-0.243,0.939,0.056,1.421,0.143 c1.899,0.342,1.61-1.757,1.152-2.75c-0.62-1.346-2.469-2.213-3.812-2.557c-1.569-0.402-12.037-2.402-10.311-5.815 c0.162-0.32,0.478-0.537,0.806-0.681c0.997-0.437,2.149-0.314,3.197-0.609c1.047-0.296,2.064-1.386,1.608-2.374 c-0.183-0.396-0.563-0.669-0.775-1.05c-0.59-1.063,0.319-2.444-0.1-3.585c-0.193-0.525-0.639-0.912-0.919-1.396 c-0.28-0.484-0.327-1.213,0.151-1.504c0.535-0.325,1.269,0.159,1.84-0.098c0.6-0.269,0.554-1.251,0.012-1.624 c-0.542-0.373-1.306-0.231-1.851,0.138c-0.285,0.193-0.553,0.449-0.894,0.494c-0.611,0.081-1.068-0.527-1.38-1.059 c-0.495-0.846-0.991-1.691-1.487-2.537c-0.561,0.01-0.989,0.523-1.181,1.05c-0.192,0.527-0.229,1.102-0.447,1.623 c-1.052,2.508-4.87,2.209-4.375,5.641c1.029-0.124,1.98,1.035,1.657,2.02c-0.398,1.214-2.221,1.881-1.966,3.133 c0.089,0.435,0.435,0.788,0.505,1.227c0.193,1.212-1.681,1.657-2.486,1.933c-2.668,0.915-2.85-0.837-5.162-0.941 c-1.058-0.048-2.008,0.666-3.061,0.782c-0.969,0.106-1.932-0.303-2.905-0.247c-2.674,0.156-1.333,3.781-1.144,5.357 c-1.437-0.958-3.356,0.16-4.5,1.45c-1.756,1.981-1.592,1.632-3.917,1.72c-0.614,0.023-1.258,0.326-1.507,0.888 c-0.433,0.978,0.487,2.032,0.511,3.102c0.011,0.513-0.188,1.018-0.141,1.529c0.124,1.342,1.713,1.926,2.677,2.868 c0.843,0.824,1.243,2.078,1.031,3.238c-0.687,0.043-1.38-0.006-2.054-0.146c-0.402-0.777-0.805-1.554-1.207-2.331 c-0.356-0.687-0.733-1.4-1.358-1.855c-0.35-0.255-0.777-0.429-1.031-0.779c-0.507-0.697-0.097-1.653,0.023-2.506 c0.292-2.069-0.748-5.551-1.254-7.603c-0.54-2.188-1.993-3.048-2.521-5.068c-0.093-0.356-0.59-0.472-0.91-0.29 c-0.32,0.182-0.484,0.549-0.576,0.906c-0.212,0.827-0.132,1.726,0.22,2.504c-0.463-1.02-3.042,1.664-3.198,2.173 c-0.255,0.834,0.298,2.024,0.277,2.891c-0.053,2.15-0.573,3.359-2.795,1.776c-0.85-0.605-1.938-1.319-2.839-0.792 c0.193,0.585-0.2,1.242-0.749,1.52c-0.549,0.278-1.203,0.253-1.808,0.137c-0.408-0.078-0.835-0.211-1.096-0.533 c-0.14-0.172-0.226-0.391-0.401-0.528c-0.57-0.444-1.289,0.326-1.598,0.979"></path> <path style="fill:#FFFFFF;enable-background:new ;" d="M285.028,174.023c0.449,0.704-0.025,1.622-0.538,2.281 s-1.112,1.434-0.887,2.239c0.965,0.088,1.93,0.176,2.894,0.264c0.181,0.017,0.383,0.044,0.498,0.184 c0.117,0.143,0.101,0.349,0.078,0.533c-0.075,0.619-0.151,1.239-0.226,1.858c-0.609,0.475-1.196-1.022-1.954-0.872 c-0.335,0.066-0.506,0.426-0.69,0.714c-1.567,2.456-4.3,0.617-5.763-0.66c-1.699-1.482-4.159-1.578-6.416-1.603 c-0.802-0.007-1.703,0.021-2.272,0.597c-0.561,0.559-0.593,1.443-0.876,2.192c-0.485,1.296-1.729,2.146-2.433,3.34 c-2.46,4.172,1.963,7.379,5.724,6.244c1.949-0.588,1.613-0.929,3.606-0.357c0.831,0.238,1.848,0.034,2.357,0.956 c0.54,0.977-0.216,2.27-1.356,2.259c-1.118-0.011-2.195,0.163-3.205-0.372c0.379,1.318-0.039,2.821-0.144,4.222 c-1.276-0.297-2.539,1.283-1.968,2.462c0.635,0.01,1.493,0.248,1.44,0.881c-0.015,0.185-0.117,0.35-0.223,0.502 c-0.442,0.635-1.009,1.183-1.389,1.859c-0.583,1.039-0.579,4.151-2.068,4.524c-0.262,0.066-0.541,0.044-0.798,0.126 c-0.548,0.175-0.858,0.83-0.73,1.391c0.129,0.56,0.624,0.993,1.179,1.142c0.37,0.099,0.766,0.089,1.128,0.215 c1.922,0.67,0.234,2.568,0.695,3.508c0.221,0.451,3.431,2.481,3.833,2.551c-1.13,0.775-2.125,1.988-2.166,3.416 c-0.045,1.564,1.144,2.323,2.632,2.788c1.571,0.491,3.475,0.654,4.607,1.091c0.608,0.235,1.351,0.453,1.863,0.049 c0.64-0.506,0.499-1.695,1.237-2.041c0.234-0.11,0.504-0.1,0.762-0.125c1.51-0.144,2.717-1.733,2.448-3.227 c0.35-0.455,1.031-0.412,1.605-0.397c0.574,0.015,1.3-0.174,1.383-0.742c0.096-0.653-0.74-1.015-1.399-1.055 c-0.672-0.04-1.349,0.014-2.006,0.16c-0.491,0.109-1.02,0.266-1.478,0.06c-0.347-0.156-0.576-0.488-0.774-0.813 c-0.477-0.781-0.894-1.661-0.818-2.573c0.076-0.913,0.812-1.824,1.727-1.79c0.245,0.009,0.491,0.083,0.734,0.043 c0.623-0.101,0.893-0.867,0.856-1.497c-0.037-0.63-0.251-1.272-0.079-1.879c0.172-0.607,1.014-1.059,1.434-0.588 c0.354-0.807,0.587-1.982-0.203-2.37c-0.254-0.125-0.549-0.118-0.831-0.144c-1.738-0.163-4.088-2.518-2.156-3.857 c1.27-0.881,3.321,0.956,4.438-0.712c0.534-0.797,0.203-1.959,0.752-2.746c0.325-0.234,0.704,0.239,0.777,0.633 c0.229,1.245-0.25,2.596-1.211,3.419c0.977,0.57,2.522-0.08,3.185,0.836c0.655,0.904-0.315,2.476,0.551,3.182 c0.248,0.202,0.581,0.256,0.898,0.303c1.564,0.231,4.484-0.035,4.58,2.205c0.012,0.271-0.03,0.55,0.049,0.81 c0.24,0.789,1.313,0.864,2.134,0.782c0.422-0.807-0.128-1.748-0.493-2.583c-0.364-0.835-0.339-2.113,0.548-2.321 c0.635-0.149,1.374,0.396,1.909,0.023c0.248-0.173,0.362-0.502,0.629-0.644c0.646-0.344,1.192,0.651,1.888,0.874 c0.96,0.306,1.687-0.953,1.688-1.961c0.001-1.008-0.251-2.155,0.406-2.919c0.208-0.242,0.487-0.412,0.717-0.634 c0.706-0.685,0.845-1.749,0.945-2.727c0.159-1.562,6.324,2.484,6.714,2.549c2.964,0.495,4.784-2.445,6.815-4.055 c1.07-0.84,2.304-1.421,3.539-2.003c-8.44-27.147-31.172-48.466-58.856-55.004c-1.241-0.293-2.522-0.627-3.774-0.731 c0.382,1.889,1.549,4.872,0.282,6.665c-1.609,2.277-5.018,0.284-6.272,2.954c-0.042,0.682,1.094,0.57,1.619,1.006 c0.292,0.243,0.365,0.652,0.51,1.003c0.145,0.351,0.485,0.705,0.848,0.595c0.423,0.631-0.236,1.406-0.794,1.919 c-0.657,0.604-1.272,1.305-1.521,2.162c-0.518,1.786,0.656,3.559,1.408,5.26c0.622,1.405,0.972,2.913,1.318,4.41 c0.012-0.711,1.017-0.995,1.651-0.673c0.634,0.322,1.021,0.971,1.535,1.463c0.875,0.839,2.006,0.331,2.949,1.048 c1.173,0.888,1.922,2.484,3.37,2.723c1.755,0.295,3.03-1.577,3.809-3.172c1.929,1.022,3.121,3.487,5.3,3.65 c0.84,0.063,1.651-0.253,2.431-0.56c1.598-0.629,3.196-1.258,4.788-1.887c0.663-0.263,1.392-0.526,2.061-0.285 c0.792,0.275,1.194,1.135,1.508,1.904c0.344,0.837,0.688,1.675,1.033,2.512c0.139,0.347,0.282,0.724,0.192,1.083 c-0.098,0.387-0.431,0.653-0.767,0.871c-1.806,1.187-4.073,1.647-6.204,1.267c0.21,2.893,0.776,5.762,1.692,8.516 c-1.631-0.421-3.507,0.123-5.016-0.506"></path> <path style="fill:#FFFFFF;enable-background:new ;" d="M266.439,240.021c-0.611,0.728-1.502,1.283-2.452,1.259 c-0.586-0.015-1.145-0.244-1.725-0.326c-0.58-0.082-1.259,0.033-1.579,0.523c-0.409,0.626-0.021,1.449,0.365,2.09 c0.314,0.521,0.681,1.084,1.266,1.249c0.428,0.122,0.889,0.002,1.328,0.074c0.869,0.142,1.425,0.963,2.002,1.628 c0.577,0.665,1.518,1.264,2.285,0.832c0.505-0.284,0.722-0.921,1.212-1.23c1.195-0.753,2.665,0.883,3.748,0.266 c1.283-0.731,0.813-2.82,0.281-3.996c-0.538-1.191-1.634-2.11-2.553-3.002C268.017,236.867,268.381,237.707,266.439,240.021z"></path> <path style="fill:#FFFFFF;enable-background:new ;" d="M306.976,273.716c12.789-12.673,20.268-31.143,21.736-48.901 c0.041-0.494,0.076-0.988,0.11-1.477c-2.466-2.544-7.379-4.166-8.665,0.408c-0.507-0.036-0.61-0.338-0.996-0.624 c-0.606-0.45-1.458,0.16-1.798,0.834c-1.114,2.21-1.269,4.984-4.331,4.388c-3.652-0.71-1.176-2.274-2.366-4.288 c-0.172-0.292-0.474-0.478-0.712-0.719c-0.873-0.884-0.757-2.31-0.582-3.54c0.701,0.364,1.684-0.045,1.919-0.799 c0.089-0.284,0.09-0.611,0.283-0.839c0.413-0.488,1.266-0.031,1.465,0.578c0.198,0.608,0.046,1.279,0.178,1.905 c0.132,0.626,0.816,1.24,1.362,0.907c0.228-0.139,0.35-0.401,0.428-0.656c0.328-1.072,0.085-2.302-0.627-3.169 c0.602-0.16,1.055-0.762,1.042-1.385c-0.014-0.623-0.493-1.205-1.101-1.338c-0.889-0.195-2.16,0.33-2.52-0.506 c0.133,0.728-0.184,1.519-0.783,1.954c-2.358,1.713-7.662,0.187-7.133,5.21c0.085,0.807,0.366,1.594,0.348,2.405 c-0.018,0.811-0.464,1.708-1.261,1.863c1.432,1.155,0.908,3.8,2.446,4.81c0.724,0.475,1.777,0.363,2.385-0.253 c0.101-0.102,0.198-0.221,0.336-0.264c0.28-0.087,0.54,0.177,0.827,0.238c0.499,0.106,0.93-0.409,1.439-0.438 c0.71-0.04,1.096,0.81,1.222,1.509c0.126,0.7,0.315,1.557,0.999,1.748c0.233,0.065,0.485,0.033,0.719,0.099 c0.471,0.132,0.754,0.642,0.779,1.13c0.026,0.488-0.15,0.962-0.323,1.419c-0.295,0.298-0.822,0.116-1.107-0.192 c-0.285-0.308-0.456-0.718-0.785-0.979c-0.184-0.145-4.434,0.182-4.3-0.127c-0.632,1.463-0.951,4.665-3.147,3.849 c-0.775-0.288-1.566-0.812-2.359-0.577c0.377-1.034,0.742-2.072,1.094-3.114c-0.321-0.285-0.82,0.105-0.956,0.512 c-0.136,0.407-0.158,0.901-0.502,1.159c-0.241,0.181-0.567,0.183-0.869,0.177c-0.98-0.019-1.961-0.038-2.941-0.058 c-1.064-0.021-2.288,0.029-2.951,0.861c-0.754,0.946-0.32,2.398,0.484,3.302c0.193,0.217,0.42,0.456,0.399,0.746 c-0.019,0.262-0.234,0.46-0.423,0.642c-0.998,0.96-1.66,2.357-1.444,3.724c0.216,1.367,1.484,2.58,2.863,2.457 c0.53-0.047,1.189-0.226,1.502,0.205c0.184,0.253,0.178,0.662,0.463,0.791c0.359,0.162,0.66-0.289,0.918-0.586 c0.466-0.538,1.329-0.677,1.94-0.314c0.313,0.186,1.295,3.206,1.039,3.644c-0.587,1.005-3.371,0.61-4.459,0.658 c-0.421,0.019-0.891,0.06-1.167,0.378c-0.431,0.496-0.082,1.286,0.401,1.732s1.111,0.794,1.351,1.406 c0.14,0.356,0.124,0.751,0.107,1.132c-0.035,0.773-0.114,1.639-0.703,2.141c-0.275,0.235-0.632,0.358-0.908,0.592 c-0.629,0.536-0.674,1.505-0.455,2.301c0.219,0.797,0.646,1.531,0.798,2.344c0.324,1.728-0.624,3.604,0.062,5.222 c0.332,0.782,1.366,1.406,2.013,0.855c0.559-0.476,0.554-1.599,1.283-1.681c0.699-0.079,1.564,1.683,2.145,2.025 c0.459,0.271,1.385-0.176,2.228,0.435C306.1,272.085,306.239,273.178,306.976,273.716z"></path> <path style="fill:#FFFFFF;enable-background:new ;" d="M198.424,165.408c0.719-0.915,1.172-1.968,2.522-2.203 c1.839-0.321,2.535,0.71,1.73,2.454c-0.072,0.155-0.148,0.325-0.108,0.491c0.126,0.531,0.92,0.221,1.373-0.084 c1.057-0.714,2.401-0.667,3.53-0.17c0.268,0.118,0.766-4.927,0.503-5.507c-0.919-2.029-5.17-1.073-4.299-3.281 c1.591-0.034,3.221,0.174,4.818,0.29c0.087-0.768,0.175-1.535,0.262-2.303c-0.065,0.572,2.907,0.454,3.243,0.283 c1.308-0.664,0.953-3.046,3.301-2.659c2.971,0.49,3.141,6.328-0.238,5.376c-0.809,1.714-1.115,3.765-1.203,5.656 c-0.611-0.002-1.227-0.012-1.838-0.02c-0.304,0.418-0.394,0.992-0.225,1.485c1.466,1.032,3.58,1.051,5.071,0.048 c0.963,0.739,2.328,0.031,3.321-0.672c1.391,2.236,5.377,1.924,6.404-0.501c1.028-2.431-1.528-5.507-4.103-4.947 c-0.048-1.226-0.494-2.432-1.253-3.393c3.19,0.108,6.33-2.065,7.347-5.09c0.515-1.521,0.632-3.363,1.916-4.329 c0.569-0.432,1.291-0.612,1.887-1.006c1.332-0.896,1.723-2.649,1.933-4.244c0.136-1.067,0.237-2.137,0.301-3.211 c-18.953,3.071-35.913,12.758-48.182,26.795c-0.065,0.564-0.101,1.148,0.121,1.658c0.419,0.945,1.545,1.314,2.548,1.577 c3.899,1.03,6.393,0.805,9.095-2.227C198.28,165.587,198.353,165.498,198.424,165.408z"></path> </g> </g> </g> </g> <g id="People"> <g> <g> <path style="fill:#407BFF;" d="M50.234,133.288c0,4.41,2.4,8.266,5.965,10.321c1.748,1.012,3.778,1.59,5.945,1.59 c2.77,0,5.318-0.943,7.338-2.533c2.785-2.178,4.573-5.57,4.573-9.378c0-6.578-5.333-11.911-11.911-11.911 C55.567,121.377,50.234,126.71,50.234,133.288z"></path> <ellipse transform="matrix(0.9871 -0.1602 0.1602 0.9871 -20.548 11.6754)" style="opacity:0.3;fill:#FFFFFF;" cx="62.144" cy="133.288" rx="11.232" ry="11.232"></ellipse> <path style="fill:#407BFF;" d="M55.468,133.1c0.138,1.427,1.378,1.664,1.378,1.664s-0.286,0.756,0.049,1.664 c0.336,0.914,2.173,0.914,2.173,0.914s0.158,0.489,0.835,0.563c0.039,0.054,0.084,0.099,0.118,0.143 c0.079,0.118,0.168,0.242,0.262,0.36c0.227,1.807,0.183,3.714-0.701,4.682c0.005,0.005,0.015,0.01,0.02,0.02 c-0.77,0.084-1.546,0.188-2.311,0.311c-0.366,0.054-0.731,0.118-1.091,0.188c1.748,1.012,3.778,1.59,5.945,1.59 c2.77,0,5.318-0.943,7.338-2.533c-0.341-0.005-0.726-0.01-1.146-0.01c-0.622-0.005-1.323,0.005-2.089,0.02 c-0.005-0.015-0.01-0.03-0.02-0.045c-1.284-0.212-1.906-0.815-2.163-1.58c-0.128-0.38-0.158-0.8-0.143-1.235 c0.341-0.064,0.672-0.173,0.988-0.326c0.894-0.435,1.639-1.21,2.025-2.217c0.054-0.133,0.099-0.272,0.138-0.415 c0.267-1.012,0.38-2.291,0.257-3.546c0.331-0.198,0.691-0.543,0.81-1.146c0.237-1.21-0.845-1.496-0.845-1.496 s1.18-0.193,1.225-1.669c0.049-1.477-1.225-1.477-1.225-1.477s0.435-0.627-0.41-1.793c-0.84-1.16-2.01-0.449-2.01-0.449 s-0.889-1.397-2.336-1.057c-1.452,0.346-1.822,1.2-1.822,1.2s0-0.854-1.649-0.38c-1.649,0.479-1.447,2.375-1.447,2.375 s-1.106-0.563-1.679,0.627c-0.573,1.19,0.667,3.274,0.667,3.274S55.325,131.668,55.468,133.1z"></path> <path style="opacity:0.7;fill:#FFFFFF;" d="M50.234,133.288c0,4.41,2.4,8.266,5.965,10.321c1.748,1.012,3.778,1.59,5.945,1.59 c2.77,0,5.318-0.943,7.338-2.533c2.785-2.178,4.573-5.57,4.573-9.378c0-6.578-5.333-11.911-11.911-11.911 C55.567,121.377,50.234,126.71,50.234,133.288z"></path> </g> <g> <circle style="fill:#407BFF;" cx="56.111" cy="342.476" r="10.587"></circle> <path style="opacity:0.3;fill:#FFFFFF;" d="M66.096,342.478c0,2.304-0.781,4.429-2.094,6.119 c-1.83,2.348-4.684,3.863-7.892,3.863c-2.085,0-4.021-0.641-5.623-1.734c-2.629-1.795-4.359-4.819-4.359-8.248 c0-5.513,4.468-9.986,9.982-9.986S66.096,336.964,66.096,342.478z"></path> <path style="fill:#407BFF;" d="M64.003,348.596c-1.83,2.348-4.684,3.863-7.892,3.863c-2.085,0-4.021-0.641-5.623-1.734 c0.334-0.759,0.544-1.211,0.544-1.211c1.247-0.4,2.515-0.707,3.801-0.935c0.325-0.29,0.755-0.518,1.308-0.65 c0.268-0.803,0.11-1.681-0.075-2.274c-0.399-0.268-0.737-0.61-1.018-1.005c-0.198-0.145-0.377-0.325-0.54-0.531 c-0.307-0.127-2.432-1.115-2.542-4.596c-0.004-0.145,0-0.285,0.009-0.426c-0.658-0.066-1.343,0.14-0.869,1.479 c0.821,2.309-0.04,3.52-0.04,3.52c0.04-0.742-0.075-1.527-0.075-1.527c0,2.388-1.29,2.541-1.29,2.541s0.821-0.86-0.391-3.516 c-1.211-2.66-0.86-6.255,1.444-6.409c1.238-0.083,2.054,0.505,2.55,1.071c1.304-1.159,3.275-1.365,4.525-0.527 c0,0,2.072-0.505,2.656,0.039c0.127,0.118,0.031,0.391-0.219,0.751c0.527,0.351,0.97,0.887,1.159,1.712 c0.325,1.426-0.092,2.52-0.566,3.244c0.277,2.625-0.171,4.591-2.256,4.776c-0.004,0.066-0.009,0.132-0.013,0.193 c-0.004,0.092-0.009,0.184-0.009,0.268c-0.009,0.505,0.053,0.865,0.145,1.119c0.307,0.057,0.601,0.141,0.873,0.237 c1.87-0.004,3.959,0.198,3.959,0.198s0.009,0.004,0.022,0.013C63.7,348.346,63.84,348.456,64.003,348.596z"></path> <circle style="opacity:0.7;fill:#FFFFFF;" cx="56.111" cy="342.476" r="10.587"></circle> </g> <g> <ellipse transform="matrix(0.7071 -0.7071 0.7071 0.7071 -53.6691 389.9604)" style="fill:#407BFF;" cx="443.889" cy="259.765" rx="11.686" ry="11.686"></ellipse> <path style="opacity:0.3;fill:#FFFFFF;" d="M454.907,259.764c0,2.258-0.678,4.355-1.846,6.104 c-1.972,2.965-5.344,4.918-9.171,4.918c-2.544,0-4.884-0.862-6.749-2.316c-2.597-2.011-4.268-5.165-4.268-8.706 c0-6.085,4.932-11.017,11.017-11.017C449.974,248.747,454.907,253.679,454.907,259.764z"></path> <path style="fill:#407BFF;" d="M453.061,265.869c-1.972,2.965-5.344,4.918-9.171,4.918c-2.544,0-4.884-0.862-6.749-2.316 c-0.121-0.673,0.015-1.323,0.063-1.807c0.135-1.347,1.691-2.432,1.662-3.377c-0.029-0.945-1.594-2.161-0.581-2.703 s1.231-2.641,0.417-3.818c-0.673-0.775-1.168-2.001,0.063-3.58c0.765-0.979,1.88-1.444,3.004-1.633 c0.775-0.417,1.832-0.625,3.261-0.47c1.371,0.145,2.432,0.543,3.241,1.1c0.804,0.562,1.352,1.279,1.686,2.078 c0,0,1.211,2.321,0.349,4.772c-0.552,1.575,1.899,1.483,1.967,2.931c0.068,1.444-1.148,1.526-0.935,2.495 C451.433,264.905,452.276,265.322,453.061,265.869z"></path> <ellipse transform="matrix(0.7071 -0.7071 0.7071 0.7071 -53.6691 389.9604)" style="opacity:0.7;fill:#FFFFFF;" cx="443.889" cy="259.765" rx="11.686" ry="11.686"></ellipse> </g> </g> <g> <rect x="300.286" y="162.472" transform="matrix(0.9175 -0.3978 0.3978 0.9175 -36.0357 152.2228)" style="fill:#407BFF;" width="97.224" height="0.999"></rect> <rect x="199.613" y="86.847" transform="matrix(0.8503 -0.5263 0.5263 0.8503 -34.8178 123.751)" style="fill:#407BFF;" width="1" height="72.459"></rect> <rect x="93.463" y="266.39" transform="matrix(0.9788 -0.2051 0.2051 0.9788 -51.6664 35.2004)" style="fill:#407BFF;" width="101.09" height="1"></rect> <rect x="300.286" y="162.472" transform="matrix(0.9175 -0.3978 0.3978 0.9175 -36.0357 152.2228)" style="opacity:0.8;fill:#FFFFFF;" width="97.224" height="0.999"></rect> <rect x="343.694" y="232.285" transform="matrix(0.8474 -0.5309 0.5309 0.8474 -99.2734 226.3646)" style="fill:#407BFF;" width="1" height="107.227"></rect> <rect x="343.694" y="232.285" transform="matrix(0.8474 -0.5309 0.5309 0.8474 -99.2734 226.3646)" style="opacity:0.8;fill:#FFFFFF;" width="1" height="107.227"></rect> <rect x="199.613" y="86.847" transform="matrix(0.8503 -0.5263 0.5263 0.8503 -34.8178 123.751)" style="opacity:0.8;fill:#FFFFFF;" width="1" height="72.459"></rect> <rect x="93.463" y="266.39" transform="matrix(0.9788 -0.2051 0.2051 0.9788 -51.6664 35.2004)" style="opacity:0.8;fill:#FFFFFF;" width="101.09" height="1"></rect> <path style="fill:#407BFF;" d="M190.876,368.493l-96.873-91.069l13.699-103.588l0.102-0.115l72.989-81.92l0.183-0.025 l132.274-18.293l80.772,69.943l-0.029,0.261L373.116,331.75l-0.358,0.072L190.876,368.493z M95.063,277.047l96.123,90.364 l181.018-36.497l20.769-187.076l-80.032-69.302L181.296,92.741l-72.642,81.53L95.063,277.047z"></path> <path style="opacity:0.8;fill:#FFFFFF;" d="M190.876,368.493l-96.873-91.069l13.699-103.588l0.102-0.115l72.989-81.92l0.183-0.025 l132.274-18.293l80.772,69.943l-0.029,0.261L373.116,331.75l-0.358,0.072L190.876,368.493z M95.063,277.047l96.123,90.364 l181.018-36.497l20.769-187.076l-80.032-69.302L181.296,92.741l-72.642,81.53L95.063,277.047z"></path> <g> <polygon style="fill:#407BFF;" points="220.682,153.881 219.182,162.638 217.682,153.881 "></polygon> <path style="fill:#407BFF;" d="M223.524,153.881c0,2.398-1.944,4.342-4.342,4.342c-2.398,0-4.342-1.944-4.342-4.342 c0-2.398,1.944-4.342,4.342-4.342C221.58,149.539,223.524,151.483,223.524,153.881z"></path> <path style="opacity:0.3;fill:#FFFFFF;" d="M219.606,150.82c0.483,0.634,0.102,1.738-0.852,2.464 c-0.954,0.726-2.119,0.801-2.602,0.166c-0.483-0.634-0.102-1.738,0.852-2.464C217.958,150.26,219.123,150.185,219.606,150.82z"></path> </g> <g> <polygon style="fill:#407BFF;" points="305.798,182.31 304.298,191.067 302.798,182.31 "></polygon> <circle style="fill:#407BFF;" cx="304.298" cy="182.31" r="4.342"></circle> <path style="opacity:0.3;fill:#FFFFFF;" d="M304.723,179.249c0.483,0.635,0.102,1.738-0.852,2.464 c-0.954,0.727-2.119,0.801-2.602,0.167c-0.483-0.635-0.102-1.738,0.852-2.464C303.075,178.689,304.24,178.614,304.723,179.249z"></path> </g> <g> <polygon style="fill:#407BFF;" points="194.983,256.022 193.483,264.779 191.983,256.022 "></polygon> <circle style="fill:#407BFF;" cx="193.483" cy="256.022" r="4.342"></circle> <path style="opacity:0.3;fill:#FFFFFF;" d="M193.908,252.96c0.483,0.634,0.102,1.738-0.852,2.464 c-0.954,0.726-2.119,0.801-2.602,0.166s-0.102-1.738,0.852-2.464C192.259,252.4,193.424,252.326,193.908,252.96z"></path> </g> <g> <polygon style="fill:#407BFF;" points="317.229,240.466 315.729,249.223 314.229,240.466 "></polygon> <path style="fill:#407BFF;" d="M320.072,240.466c0,2.398-1.944,4.342-4.342,4.342c-2.398,0-4.342-1.944-4.342-4.342 c0-2.398,1.944-4.342,4.342-4.342C318.128,236.124,320.072,238.068,320.072,240.466z"></path> <path style="opacity:0.3;fill:#FFFFFF;" d="M316.154,237.404c0.483,0.634,0.102,1.738-0.852,2.464 c-0.954,0.726-2.119,0.801-2.602,0.166c-0.483-0.634-0.102-1.738,0.852-2.464C314.506,236.844,315.671,236.77,316.154,237.404z"></path> </g> </g> <g> <path style="fill:#407BFF;" d="M427.08,145.717c0,7.492-2.476,14.417-6.649,19.986c-1.483,1.986-3.192,3.796-5.078,5.38 c-1.685,1.458-3.532,2.74-5.506,3.821c-4.764,2.64-10.257,4.148-16.102,4.148c-4.915,0-9.59-1.068-13.789-2.992 c-0.39-0.163-0.78-0.352-1.156-0.553l-0.013-0.013c-2.351-1.156-4.55-2.614-6.536-4.299c-2.979-2.501-5.518-5.531-7.454-8.937 c-2.803-4.877-4.399-10.521-4.399-16.542c0-18.414,14.933-33.347,33.347-33.347C412.16,112.37,427.08,127.303,427.08,145.717z"></path> <ellipse transform="matrix(0.7071 -0.7071 0.7071 0.7071 12.2878 321.0966)" style="opacity:0.7;fill:#FFFFFF;" cx="393.742" cy="145.716" rx="32.371" ry="32.371"></ellipse> <g> <path style="fill:#E4897B;" d="M372.253,160.844l3.124-12.974c0,0,1.981-1.58,2.106-2.727c0.125-1.148-1.219-7.945-2.079-8.355 c-0.86-0.41-5.939,1.361-6.188,2.812c-0.248,1.451,1.757,7.159,2.158,7.624l-5.13,15.092L372.253,160.844z"></path> <path style="fill:#407BFF;" d="M374.757,153.405l-1.879,17.048c-2.892-2.428-5.357-5.369-7.237-8.677 c1.16-4.088,2.331-7.761,2.88-9.409c0.183-0.586,0.293-0.915,0.293-0.915l1.074,0.134l4.454,0.561l0.549,0.073L374.757,153.405z"></path> <path style="fill:#407BFF;" d="M383.262,164.388l-2.904,10.788c-0.378-0.159-0.757-0.342-1.123-0.537l-0.012-0.012 c-2.282-1.123-4.418-2.538-6.346-4.174c0.232-0.525,6.175-13.936,8.396-13.778L383.262,164.388z"></path> <path style="opacity:0.3;enable-background:new ;" d="M374.757,153.405l-1.879,17.048c-2.892-2.428-5.357-5.369-7.237-8.677 c1.16-4.088,2.331-7.761,2.88-9.409c0.183-0.586,0.293-0.915,0.293-0.915l1.074,0.134l4.454,0.561l0.549,0.073L374.757,153.405z"></path> <path style="opacity:0.3;enable-background:new ;" d="M383.262,164.388l-2.904,10.788c-0.378-0.159-0.757-0.342-1.123-0.537 l-0.012-0.012c-2.282-1.123-4.418-2.538-6.346-4.174c0.232-0.525,6.175-13.936,8.396-13.778L383.262,164.388z"></path> <polygon style="fill:#407BFF;" points="376.151,151.163 375.127,153.461 368.03,152.28 368.191,150.973 "></polygon> <path style="fill:#263238;" d="M413.438,134.582c-0.828,3.173,3.699,11.923,1.864,27.843 c-1.835,15.919-19.294,14.948-27.14,9.641c-7.846-5.307-6.489-34.106-3.79-39.785 C387.07,126.602,413.438,134.582,413.438,134.582z"></path> <g> <path style="fill:#407BFF;" d="M418.055,160.324c-0.171,0.464-0.318,0.915-0.476,1.379c-0.171,0.451-0.317,0.903-0.464,1.342 c-0.293,0.879-0.574,1.733-0.854,2.563c-0.561,1.66-1.062,3.246-1.537,4.735c-1.635,1.416-3.429,2.66-5.345,3.71 c-4.625,2.563-9.958,4.027-15.633,4.027c-4.771,0-9.311-1.037-13.387-2.905c-0.378-0.159-0.757-0.342-1.123-0.537 c0.012-0.317,0.012-0.647,0.012-0.952c0-0.317,0-0.622,0.012-0.927c0.012-0.915,0.049-1.77,0.073-2.575 c0.024-0.537,0.049-1.062,0.061-1.55c0.012-0.256,0.024-0.488,0.037-0.732c0.049-0.891,0.086-1.696,0.147-2.453 c0.012-0.244,0.037-0.488,0.049-0.72c0.049-0.708,0.11-1.342,0.159-1.928c0.366-3.698,0.854-5.162,1.172-5.748 c0.061-0.122,0.122-0.195,0.171-0.256c0.098-0.11,0.147-0.122,0.147-0.122s0.488-0.049,1.306-0.11 c2.16-0.183,6.639-0.5,10.69-0.476c0.073,0,0.159,0,0.232,0.012c0.537,0.012,1.074,0.037,1.611,0.073 c2.087,0.11,4.173,0.293,6.236,0.549c0.769,0.098,1.538,0.207,2.307,0.317c0.83,0.122,1.66,0.256,2.489,0.403 c0.11,0.024,0.232,0.037,0.342,0.061c3.063,0.525,6.089,1.208,9.079,2.075c0.83,0.232,1.659,0.476,2.477,0.744H418.055z"></path> <path style="opacity:0.3;enable-background:new ;" d="M418.042,160.324c0,0.012,0,0.012-0.012,0.024 c-0.159,0.451-0.317,0.903-0.452,1.355c-0.171,0.451-0.317,0.903-0.464,1.342c-0.293,0.879-0.574,1.733-0.854,2.563 c-0.561,1.66-1.062,3.246-1.537,4.735c-1.635,1.416-3.429,2.66-5.345,3.71c-4.625,2.563-9.958,4.027-15.633,4.027 c-4.771,0-9.311-1.037-13.387-2.905c-0.378-0.159-0.757-0.342-1.123-0.537l-0.012-0.012c0-0.317,0.012-0.635,0.024-0.94 c0-0.317,0-0.622,0.012-0.927c0.012-0.915,0.049-1.77,0.073-2.575c0.024-0.537,0.049-1.062,0.061-1.55 c0.012-0.256,0.024-0.488,0.037-0.732c0.037-0.891,0.086-1.696,0.147-2.453c0.012-0.244,0.037-0.488,0.049-0.72 c0.049-0.708,0.11-1.342,0.159-1.928c0.366-3.698,0.854-5.162,1.172-5.748c0.061-0.122,0.122-0.195,0.171-0.256 c0.098-0.11,0.147-0.122,0.147-0.122s0.488-0.049,1.306-0.11c2.16-0.183,6.639-0.5,10.69-0.476c0.073,0,0.159,0,0.232,0.012 c0.537,0.012,1.074,0.037,1.611,0.073c2.087,0.11,4.173,0.293,6.236,0.549c0.769,0.098,1.538,0.207,2.307,0.317 c0.83,0.122,1.66,0.256,2.489,0.403c0.11,0.024,0.232,0.037,0.342,0.061c3.063,0.525,6.089,1.208,9.079,2.075 C416.395,159.812,417.224,160.056,418.042,160.324z"></path> </g> <path style="fill:#FFFFFF;" d="M399.322,155.229c7.141,0.56,8.017,2.719,7.255,3.849c-0.762,1.13-10.437,10.587-13.35,16.922 C393.228,176,382.741,153.928,399.322,155.229z"></path> <path style="fill:#E4897B;" d="M395.634,162.425c7.069-0.905,9.193-3.924,9.193-3.924c-4.485-4.232-0.759-11.565-0.759-11.565 l-8.509,1.589c0.224,1.406,0.319,2.586,0.332,3.582c0.065,5.164-2.271,5.215-2.271,5.215 C392.128,160.119,395.634,162.425,395.634,162.425z"></path> <path style="opacity:0.2;enable-background:new ;" d="M395.56,148.525c0.224,1.406,0.319,2.586,0.332,3.582 c5.747,0,8.176-5.171,8.176-5.171L395.56,148.525z"></path> <g> <g> <path style="fill:#E4897B;" d="M400.263,124.733c-7.396-0.405-9.994,3.424-10.953,11.017 c-1.199,9.488,0.543,16.371,9.902,14.843C411.923,148.518,412.547,125.406,400.263,124.733z"></path> <path style="fill:#DE5753;" d="M394.114,135.598c0,0-1.131,1.876-2.32,2.95c0,0,0.578,1.041,1.904,0.943L394.114,135.598z"></path> <g> <path style="fill:#263238;" d="M398.674,135.242c-0.047,0.607,0.242,1.124,0.647,1.156c0.404,0.032,0.771-0.434,0.818-1.041 c0.048-0.607-0.242-1.124-0.646-1.156C399.088,134.169,398.722,134.635,398.674,135.242z"></path> <path style="fill:#263238;" d="M399.659,134.243l-1.279-0.621C398.38,133.622,398.95,134.784,399.659,134.243z"></path> </g> <g> <path style="fill:#263238;" d="M391.141,134.525c-0.047,0.607,0.242,1.124,0.646,1.156c0.405,0.031,0.771-0.435,0.818-1.041 c0.048-0.607-0.242-1.124-0.646-1.156C391.555,133.452,391.188,133.918,391.141,134.525z"></path> <path style="fill:#263238;" d="M392.126,133.526l-1.279-0.621C390.846,132.905,391.416,134.067,392.126,133.526z"></path> </g> <path style="fill:#263238;" d="M402.175,131.775c-0.107,0-0.211-0.049-0.278-0.142c-0.925-1.274-2.825-1.158-2.844-1.153 c-0.197,0.014-0.352-0.128-0.367-0.317c-0.014-0.189,0.128-0.353,0.316-0.367c0.093-0.006,2.297-0.152,3.45,1.435 c0.111,0.153,0.077,0.368-0.076,0.48C402.315,131.754,402.245,131.775,402.175,131.775z"></path> <path style="fill:#263238;" d="M390.689,130.321c-0.118,0-0.232-0.061-0.296-0.169c-0.096-0.163-0.042-0.374,0.122-0.47 c1.83-1.077,3.232-0.49,3.292-0.465c0.174,0.076,0.253,0.278,0.178,0.452c-0.075,0.173-0.275,0.252-0.449,0.179 c-0.049-0.02-1.161-0.466-2.673,0.426C390.808,130.305,390.748,130.321,390.689,130.321z"></path> <g> <path style="fill:#263238;" d="M394.617,142.461c0.379,0.915,0.722,2.616,0.722,2.616c0.16-0.003,0.32-0.007,0.479-0.018 c2.165-0.1,3.136-0.861,3.556-1.675c0.228-0.446,0.287-0.913,0.284-1.292c0.002-0.438-0.097-0.751-0.097-0.751 c-1.116,0.738-3.127,0.987-4.207,1.074C394.903,142.457,394.617,142.461,394.617,142.461z"></path> <path style="fill:#FFFFFF;" d="M395.354,142.415l0.233,0.766c2.039-0.099,3.461-0.442,4.071-1.09 c0.002-0.438-0.097-0.751-0.097-0.751C398.445,142.079,396.434,142.327,395.354,142.415z"></path> <path style="fill:#DE5753;" d="M395.818,145.058c2.165-0.1,3.136-0.861,3.556-1.675c-0.736,0.062-1.617,0.219-2.382,0.587 C396.406,144.249,396.049,144.654,395.818,145.058z"></path> </g> <path style="fill:#263238;" d="M407.664,137.642c0,0-3.125-6.266-2.345-10.929c0,0-14.329-6.791-15.868,8.047 c0,0-0.708-13.289,12.022-12.887c12.711,0.401,11.658,19.001,4.788,24.183C406.262,146.056,409.595,141.56,407.664,137.642z"></path> <path style="fill:#E4897B;" d="M406.37,139.137c0.115-1.188,1.454-3.136,3.655-2.773c2.278,0.376,3.113,5.141-2.65,5.96 C406.549,142.441,406.131,141.616,406.37,139.137z"></path> </g> <path style="fill:#263238;" d="M403.349,125.974c0,0-1.174,9.125,4.313,17.409c4.161,6.283-0.619,11.79-0.619,11.79 s7.384-4.703,7.644-11.79c0,0,6.102-16.949-6.564-21.519c0,0-0.052-3.817-8.309-3.091c-8.257,0.726-14.91,7.803-16.172,16.825 c-1.262,9.022,3.441,19.082,3.441,19.082S382.083,122.711,403.349,125.974z"></path> <path style="fill:#263238;" d="M403.825,126.125c-0.583,2.052-0.701,4.347-0.614,6.557c0.12,2.228,0.483,4.449,1.063,6.617 c0.57,2.17,1.401,4.273,2.474,6.249c1.098,1.953,2.427,3.827,4.184,5.258c-1.811-1.366-3.219-3.202-4.401-5.133 c-1.157-1.955-2.078-4.055-2.738-6.235c-0.668-2.176-1.123-4.424-1.331-6.706c-0.165-2.292-0.159-4.579,0.409-6.909 L403.825,126.125z"></path> </g> <g> <path style="fill:#407BFF;" d="M419.653,165.12c-1.44,1.928-3.099,3.685-4.93,5.223c-1.635,1.416-3.429,2.66-5.345,3.71 c0.11-0.427,0.256-0.854,0.403-1.281c1.269-3.588,3.514-6.858,5.333-9.14c1.501-1.879,2.721-3.1,2.917-3.283 c0.012-0.012,0.025-0.024,0.025-0.024C418.823,160.959,419.324,162.704,419.653,165.12z"></path> <path style="opacity:0.3;enable-background:new ;" d="M419.653,165.12c-1.44,1.928-3.099,3.685-4.93,5.223 c-1.635,1.416-3.429,2.66-5.345,3.71c0.11-0.427,0.256-0.854,0.403-1.281c1.269-3.588,3.514-6.858,5.333-9.14 c1.501-1.879,2.721-3.1,2.917-3.283c0.012-0.012,0.025-0.024,0.025-0.024C418.823,160.959,419.324,162.704,419.653,165.12z"></path> </g> </g> </g> <g> <circle style="fill:#407BFF;" cx="312.095" cy="76.01" r="18.196"></circle> <path style="opacity:0.3;fill:#FFFFFF;" d="M329.253,76.013c0,4.511-1.743,8.608-4.587,11.671 c-3.131,3.372-7.604,5.484-12.568,5.484c-5.326,0-10.079-2.422-13.224-6.224c-2.467-2.965-3.938-6.774-3.938-10.931 c0-9.483,7.68-17.162,17.163-17.162C321.573,58.851,329.253,66.53,329.253,76.013z"></path> <path style="fill:#407BFF;" d="M324.667,87.684c-3.131,3.372-7.604,5.484-12.568,5.484c-5.326,0-10.079-2.422-13.224-6.224 c0.09-0.038,0.181-0.068,0.271-0.091c0.219-0.309,0.483-0.603,0.822-0.86c0-0.045,0-0.09,0.007-0.143l0.302-0.053 c0.498-0.294,1.109-0.49,1.878-0.49c0.181,0,0.362,0.007,0.558,0.03l1.071-0.196c0,0-0.007,0.106-0.022,0.294 c1.358,0.106,3.425,0.234,5.779,0.392c0.536-0.407,0.867-0.92,1.064-1.501c0.204-0.611,0.241-1.283,0.204-1.977 c-0.83-0.038-1.652-0.257-2.399-0.634c-1.32-0.679-2.414-1.856-2.965-3.372c-0.076-0.204-0.136-0.407-0.189-0.619 c-0.445-1.848-0.551-4.262-0.091-6.48c0-0.007,0-0.007,0-0.015c-0.061,0-0.121,0.008-0.181,0c-0.09-0.015-0.151-0.09-0.151-0.189 c0-0.015,0.008-0.03,0.008-0.045c0.023-0.113,0.121-0.181,0.226-0.166c0.015,0,0.03-0.007,0.053-0.007 c-0.136-1.448,0.076-2.904,0.287-3.878c-0.596-1.049-0.596-3.093-0.03-3.915c0.641-0.92,0.143-0.423,1.826-0.566 c1.682-0.143,0.664-1.637,1.735-1.652c1.071-0.015,0.852,0.656,2.165,1.154c1.313,0.498,0.83-0.996,2.323-1.139 c1.494-0.143,1.705,0.996,2.776,1.282c1.071,0.279,1.283,0,2.067,0s0.852,2.278,1.184,2.701c0.332,0.43,0.883-0.211,1.592,0.958 c0.091,0.151,0.128,0.339,0.128,0.558c0,1.509-1.886,4.383-1.886,4.383c-0.083,0.664-0.211,1.373-0.385,2.127 c0.566,0.543,0.724,1.441,0.34,2.263c-0.37,0.747-0.951,1.358-1.66,1.773c-0.37,0.785-0.739,1.411-1.079,1.886 c-0.475,2.618-0.702,5.711,0.189,7.665C319.725,86.741,322.622,87.14,324.667,87.684z"></path> <circle style="opacity:0.5;fill:#FFFFFF;" cx="312.095" cy="76.01" r="18.196"></circle> </g> <g> <ellipse transform="matrix(0.7071 -0.7071 0.7071 0.7071 -203.1065 242.3846)" style="fill:#407BFF;" cx="191.031" cy="366.364" rx="18.196" ry="18.196"></ellipse> <path style="opacity:0.2;fill:#FFFFFF;" d="M208.193,366.363c0,4.911-2.067,9.339-5.371,12.455c-3.07,2.92-7.227,4.7-11.791,4.7 c-3.606,0-6.948-1.109-9.709-3.01c-4.496-3.093-7.446-8.276-7.446-14.145c0-9.475,7.68-17.155,17.155-17.155 C200.505,349.208,208.193,356.888,208.193,366.363z"></path> <path style="fill:#407BFF;" d="M202.821,378.818c-3.07,2.92-7.227,4.7-11.791,4.7c-3.606,0-6.948-1.109-9.709-3.01 c1.245-0.173,2.557-0.332,3.893-0.468c1.034-2.248,0.77-5.824,0.219-8.849c-0.385-0.551-0.815-1.275-1.237-2.18 c-0.83-0.475-1.494-1.184-1.916-2.044c-0.445-0.951-0.272-1.984,0.385-2.618c-0.355-1.547-0.543-2.95-0.558-4.127l-0.076,0.038 c0,0-1.381-5.326,3.779-7.28c5.16-1.954,10.373,1.539,10.373,1.539s1.117-2.082,2.452-1.539c1.132,0.46,0.528,1.939,0.317,2.391 c0.143-0.226,0.498-0.709,1.169-1.018c0.913-0.415,2.173,0.747-0.656,3.576c-0.287,0.287-0.634,0.528-1.011,0.724 c0.166,1.124,0.264,2.512,0.076,3.863c0.528,2.557,0.415,5.348-0.106,7.476c-0.061,0.249-0.128,0.491-0.219,0.717 c-0.633,1.758-1.893,3.116-3.425,3.893c-0.86,0.445-1.811,0.694-2.769,0.739c-0.045,0.8,0.008,1.577,0.234,2.278 c0.226,0.672,0.619,1.267,1.23,1.735c2.723-0.189,5.107-0.324,6.676-0.453c-0.015-0.226-0.03-0.34-0.03-0.34l1.237,0.226 C201.901,378.728,202.391,378.743,202.821,378.818z"></path> <ellipse transform="matrix(0.7071 -0.7071 0.7071 0.7071 -203.1065 242.3846)" style="opacity:0.5;fill:#FFFFFF;" cx="191.031" cy="366.364" rx="18.196" ry="18.196"></ellipse> </g> <g> <ellipse transform="matrix(0.2298 -0.9732 0.9732 0.2298 -86.0731 239.3487)" style="fill:#407BFF;" cx="108.179" cy="174.053" rx="18.196" ry="18.196"></ellipse> <path style="opacity:0.2;fill:#FFFFFF;" d="M125.34,174.052c0,4.391-1.652,8.396-4.36,11.429 c-3.146,3.516-7.717,5.733-12.802,5.733c-3.78,0-7.272-1.222-10.101-3.289c-4.277-3.123-7.054-8.178-7.054-13.873 c0-9.475,7.68-17.155,17.155-17.155S125.34,164.577,125.34,174.052z"></path> <path style="fill:#407BFF;" d="M120.979,185.481c-3.146,3.516-7.717,5.733-12.802,5.733c-3.78,0-7.272-1.222-10.101-3.289 l6.805-2.097c0.128,0.143,0.249,0.302,0.377,0.468c0.287-0.053,0.581-0.113,0.875-0.166c0.543-0.098,1.086-0.173,1.637-0.257 c0.4-0.664,0.604-1.388,0.679-2.105c-0.573,0.03-0.936,0.038-0.936,0.038c0.189-0.679-0.822-2.09-0.822-2.09l-0.339,1.863 c0,0-0.686-0.113-1.147-0.4c-0.453-0.287-1.049-2.316-1.049-2.316s-1.177,1.977-1.434,2.429c-0.264,0.46-0.943,0-0.943,0 s-0.452-1.712,0.113-3.478c0.573-1.773-1.2-1.72-1.2-1.72s0,0.747-0.453,1.946c-0.46,1.199-0.46,1.826-0.46,2.542 c0,0.717,0.061,1.222-0.452,1.222c-0.521,0-0.573-0.453-0.521-1.222c0.06-0.77-0.739-1.516-0.279-2.143 c0.453-0.626,0.113-2.346,0.113-2.346c-0.287,1.2-1.599,1.147-1.826,1.999c-0.234,0.86,0.626,2.06,0.226,2.49 c-0.4,0.43-1.086,0-1.086,0s0.573-0.943,0.173-1.494c-0.4-0.543-1.034-0.822-0.747-1.939c0.287-1.124,0.8-1.109,0.634-2.346 c-0.174-1.237-0.747-1.162,0-1.622c0.739-0.453,1.713-2.625,1.713-3.568c0-0.943-0.4-3.108,1.199-3.87 c1.599-0.762,1.999-1.35,1.713-3.365c-0.287-2.022,1.253-1.871,3.199-1.471c0,0,0.966-1.539,1.879-1.252 c0.913,0.279,1.599,0.113,1.795-0.4c0.189-0.521,2.716-0.46,3.093,0c0.377,0.453,1.735,0.8,2.558,0.453 c0.822-0.34,3.01,1.026,2.942,1.939c-0.068,0.92-0.053,1.433,1.124,1.954c1.169,0.521,1.396,0.792,1.909,2.837 c0.513,2.044-0.339,2.867,0.687,3.659c1.026,0.785,0.913,3.945,0.973,4.919c0.053,0.966,0,2.052,0,2.052s0,0-0.287,0.083 c-0.287,0.076-0.513-1.056-0.46-1.893c0.061-0.8-1.735-1.969-1.886-2.067c0.038,0.083,0.362,0.777,0.573,1.328 c0.226,0.581,0.287,2.097,0.226,3.063c-0.053,0.973,1.086,1.509,1.086,1.509l-1.252,0.626c0,0-0.973-2.075-0.641-3.153 c0.332-1.079-0.619-2.044-0.619-2.044v2.044c0,0-0.339,0.732-0.852,1.705c-0.513,0.973,0.4,1.26,0.543,1.773 c0.136,0.513-1.124,0.543-1.124,0.543l-0.234-1.23l-0.43,1.23c-0.453,0.332-1.396,0.573-2.474,0.754 c0.06,0.943,0.256,1.554,0.498,1.954c0.407-0.023,0.815-0.045,1.222-0.06c0.807-0.008,1.645,0.008,2.452,0.038h0.015 C118.603,185.315,119.968,185.406,120.979,185.481z"></path> <ellipse transform="matrix(0.2298 -0.9732 0.9732 0.2298 -86.0731 239.3487)" style="opacity:0.5;fill:#FFFFFF;" cx="108.179" cy="174.053" rx="18.196" ry="18.196"></ellipse> </g> <g> <circle style="fill:#407BFF;" cx="179.8" cy="90.774" r="30.522"></circle> <path style="opacity:0.7;fill:#FFFFFF;" d="M209.324,90.775c0,6.76-2.29,13-6.14,17.99c-1.05,1.37-2.22,2.65-3.51,3.82 c-1.18,1.08-2.44,2.06-3.79,2.92c-0.05,0.05-0.11,0.09-0.17,0.11c-1.05,0.69-2.14,1.3-3.28,1.84c-3.83,1.82-8.12,2.84-12.63,2.84 c-8.99,0-17.06-4.04-22.47-10.39l-0.01-0.01c-4.4-5.16-7.05-11.83-7.05-19.12c0-16.28,13.25-29.52,29.53-29.52 C196.074,61.255,209.324,74.495,209.324,90.775z"></path> <g id="_x3C_Group_x3E__4_"> <path style="fill:#EBB376;" d="M186.667,90.774c0.652-1.445,1.113-0.818,2.992,0.632c1.879,1.451,2.176,2.759,2.176,4.297 c0,1.538-0.297,4.604-0.297,4.604l4.879,5.473l-2.209,3.33l-5.67-6.396c0,0-2.802-2.11-3.264-4.484 C184.813,95.857,186.667,90.774,186.667,90.774z"></path> <g> <path style="fill:#263238;" d="M186.022,89.132l3.996,7.175c0.18,0.324,0.139,0.726-0.104,1.006l-3.1,3.579 c-0.391,0.452-1.109,0.391-1.419-0.12l-3.582-5.903L186.022,89.132z"></path> <polygon style="opacity:0.4;fill:#407BFF;" points="185.802,89.904 189.329,96.549 185.971,100.505 182.359,94.637 "></polygon> </g> <path style="fill:#407BFF;" d="M195.885,115.505c0.03,0.15,0.05,0.29,0.07,0.43c-0.08-0.1-0.16-0.21-0.24-0.32 c-1.05,0.69-2.14,1.3-3.28,1.84c0.26-2.03,0.55-3.86,0.81-5.39c0.23-1.4,0.44-2.55,0.6-3.36c0.15-0.81,0.25-1.28,0.27-1.36v-0.01 c0.35,0.06,0.7,0.17,1.05,0.34c1.53,0.75,3.04,2.54,4.51,4.91C198.494,113.665,197.234,114.645,195.885,115.505z"></path> <g> <path style="fill:#407BFF;" d="M195.954,115.935c-0.08-0.1-0.16-0.21-0.24-0.32c-1.05,0.69-2.14,1.3-3.28,1.84 c-3.83,1.82-8.12,2.84-12.63,2.84c-8.99,0-17.06-4.04-22.47-10.39c0.51-0.12,1.03-0.23,1.55-0.33c0.05-0.01,0.11-0.02,0.16-0.03 c0.1-0.02,0.2-0.04,0.31-0.06c1.35-0.26,2.73-0.49,4.11-0.69c0.01-0.01,0.02-0.01,0.03-0.01c0.6-0.09,1.21-0.17,1.81-0.25 c0.8-0.11,1.6-0.2,2.39-0.29c0.06-0.01,0.13-0.02,0.19-0.02c1.83-0.21,3.66-0.38,5.44-0.51c0.59-0.04,1.17-0.08,1.74-0.11h0.01 c0.75-0.05,1.49-0.1,2.22-0.14c0.73-0.04,1.46-0.07,2.16-0.1c0.29-0.01,0.58-0.02,0.87-0.03c0.87-0.03,1.71-0.05,2.51-0.07 c2.63-0.06,4.94-0.06,6.78-0.04c0.43,0.01,0.84,0.01,1.22,0.02c0.69,0.01,1.28,0.03,1.76,0.05c0.98,0.02,1.52,0.05,1.52,0.05 c0.12,0.44,0.24,0.9,0.35,1.37c0,0,0,0,0,0.01c0.51,2.05,0.98,4.33,1.42,6.78C195.914,115.655,195.934,115.795,195.954,115.935z "></path> <path style="opacity:0.2;enable-background:new ;" d="M195.954,115.935c-0.08-0.1-0.16-0.21-0.24-0.32 c-1.05,0.69-2.14,1.3-3.28,1.84c-3.83,1.82-8.12,2.84-12.63,2.84c-8.99,0-17.06-4.04-22.47-10.39c-0.24,0.05-0.48,0.1-0.72,0.15 c0.23-0.05,0.47-0.11,0.71-0.16c0.52-0.11,1.04-0.22,1.56-0.32c0.05-0.01,0.11-0.02,0.16-0.03c0.1-0.02,0.2-0.04,0.31-0.06 c1.35-0.26,2.73-0.49,4.11-0.69c0.01-0.01,0.02-0.01,0.03-0.01c0.6-0.09,1.21-0.17,1.81-0.25c0.8-0.11,1.6-0.2,2.39-0.29 c0.06-0.01,0.13-0.02,0.19-0.02c1.83-0.21,3.66-0.38,5.44-0.51c0.58-0.04,1.16-0.08,1.73-0.12c0.76-0.05,1.5-0.09,2.24-0.13 c0.73-0.04,1.46-0.07,2.16-0.1c0.29-0.01,0.58-0.02,0.87-0.03c0.86-0.03,1.7-0.06,2.5-0.08c2.64-0.05,4.95-0.05,6.79-0.04 c0.44,0.01,0.84,0.01,1.22,0.02c0.68,0.01,1.26,0.03,1.74,0.04c0.99,0.03,1.54,0.06,1.54,0.06v0.01 c0.12,0.44,0.24,0.9,0.35,1.37c0,0,0,0,0,0.01c0.51,2.05,0.98,4.33,1.42,6.78C195.914,115.655,195.934,115.795,195.954,115.935z "></path> </g> <path style="fill:#EBB376;" d="M167.648,108.207c3.246,2.95,11.2,1.859,11.2,1.859s4.964-1.359,3.922-2.91 c-2.924-0.483-4.34-1.848-4.925-3.594c-0.339-1.017-0.39-2.161-0.297-3.34c0.042-0.619,0.136-1.246,0.246-1.865l-9.833-7.281 C169.25,95.882,170.827,104.723,167.648,108.207z"></path> <path style="opacity:0.2;enable-background:new ;" d="M170.234,95.704c0.39,5.9,5.239,7.527,7.612,7.858 c-0.339-1.017-0.39-2.161-0.297-3.34L170.234,95.704z"></path> <g> <path style="fill:#263238;" d="M187.201,77.055c0,0,1.396,9.183-3.478,12.715c-4.874,3.532-4.874-13.563-4.874-13.563 L187.201,77.055z"></path> <path style="fill:#EBB376;" d="M169.573,97.068c2.365,3.399,6.222,4.289,9.57,3.23c2.153-0.678,4.094-2.17,5.298-4.315 c0.161-0.28,0.305-0.576,0.441-0.882c2.399-5.611,3.162-15.427-2.772-19.106c-4.213-2.653-9.791-1.39-12.444,2.831 c-0.763,1.195-1.221,2.56-1.356,3.976C167.581,89.363,166.843,93.186,169.573,97.068z"></path> <path style="fill:#263238;" d="M177.874,86.308c-0.126,0.519,0.113,1.005,0.465,1.064c0.352,0.06,0.699-0.327,0.792-0.854 c0.094-0.527-0.121-1.007-0.465-1.064C178.323,85.396,177.969,85.772,177.874,86.308z"></path> <path style="fill:#263238;" d="M183.863,87.33c-0.126,0.519,0.121,1.007,0.465,1.064c0.344,0.058,0.699-0.327,0.792-0.854 c0.093-0.527-0.121-1.007-0.465-1.064C184.312,86.419,183.95,86.828,183.863,87.33z"></path> <path style="fill:#D58745;" d="M181.915,87.266c0.354,1.728,0.945,3.399,1.757,4.965c-0.827,0.401-1.788,0.416-2.627,0.041 L181.915,87.266z"></path> <path style="fill:#263238;" d="M176.347,84.051c0.112,0.036,0.235,0.009,0.322-0.07c0.572-0.563,1.376-0.823,2.169-0.702 c0.168,0.041,0.338-0.061,0.38-0.23c0.041-0.168-0.061-0.338-0.23-0.379c0,0-0.001,0-0.001,0 c-0.999-0.179-2.022,0.138-2.746,0.849c-0.13,0.115-0.142,0.313-0.027,0.443c0.002,0.002,0.003,0.004,0.005,0.006 C176.257,84.002,176.3,84.03,176.347,84.051z"></path> <path style="fill:#263238;" d="M186.789,85.705c0.054,0.033,0.118,0.049,0.181,0.044c0.167-0.046,0.265-0.218,0.22-0.385 c-0.001-0.002-0.001-0.005-0.002-0.007c-0.262-0.984-0.986-1.779-1.941-2.131c-0.166-0.05-0.341,0.043-0.391,0.209l0,0.001 c-0.046,0.166,0.047,0.338,0.21,0.392l0,0c0.746,0.3,1.306,0.934,1.511,1.712C186.619,85.623,186.697,85.683,186.789,85.705z"></path> <path style="fill:#263238;" d="M174.469,75.501v2.931c-1.009,0.389-1.71,1.388-1.413,2.579c0.636,2.543-1.202,6.142-3.249,7.417 c0,0,0.071-1.06-0.848-0.918c-0.918,0.141-1.342,5.651,0.071,8.477c0,0-2.331-2.684-3.108-8.618 c-0.719-5.488-0.348-9.943,0.997-11.867H174.469z"></path> <path style="fill:#EBB376;" d="M164.556,87.651c0.47,1.595,1.554,2.939,3.014,3.736c1.94,1.042,3.39-0.58,3.258-2.663 c-0.135-1.851-1.286-4.681-3.435-4.843C165.245,83.719,164.004,85.686,164.556,87.651z"></path> <path style="fill:#263238;" d="M174.469,78.432c0,0,1.905,1.888,3.753,0.506c0,0,2.092,1.743,3.799,0.506 c0,0,0.934,1.58,2.465,1.77c1.531,0.19,1.536-1.391,1.536-1.391s2.42,1.391,3.314,0.741c0.894-0.65-0.488-3.251-0.488-3.251 s1.138-0.614,0.406-2.705c-0.731-2.091-4.112-1.603-4.112-1.603s0.13-1.951-2.228-3.983c-2.357-2.032-3.761,0.488-3.761,0.488 s-2.284-3.089-5.114-2.682c-2.829,0.406-2.504,2.357-2.504,2.357s-3.251-2.032-4.714,0c-1.463,2.032,0,3.007,0,3.007 s-3.251,1.092-3.089,3.31c0.163,2.218,1.83,1.893,1.83,1.893s-0.936,1.057,1.178,1.951c2.113,0.894,4.097-1.3,4.097-1.3 s-0.823,1.259,0.698,2.113C173.056,81.011,174.469,78.432,174.469,78.432z"></path> <g> <path style="fill:#263238;" d="M180.911,94.24c-0.758,0.637-1.847,1.988-1.847,1.988c-0.14-0.077-0.281-0.153-0.416-0.237 c-1.875-1.087-2.386-2.21-2.383-3.126c0.003-0.501,0.167-0.943,0.344-1.277c0.201-0.39,0.432-0.621,0.432-0.621 c0.65,1.17,2.32,2.318,3.237,2.893C180.659,94.104,180.911,94.24,180.911,94.24z"></path> <path style="fill:#FFFFFF;" d="M180.277,93.859l-0.56,0.572c-1.764-1.028-2.867-1.988-3.11-2.844 c0.201-0.39,0.432-0.621,0.432-0.621C177.69,92.136,179.36,93.284,180.277,93.859z"></path> <path style="fill:#DE5753;" d="M178.648,95.991c-1.875-1.087-2.386-2.21-2.383-3.126c0.625,0.395,1.334,0.941,1.843,1.619 C178.498,95.002,178.629,95.526,178.648,95.991z"></path> </g> </g> <path style="fill:#407BFF;" d="M178.849,110.066c0,0-11.471-7.794-15.122-8.231c-3.652-0.437-3.001,4.115-3.001,4.115 s-2.818-0.001-1.734,3.467c1.084,3.468,16.664,5.381,22.421,3.666c5.756-1.715,9.176-4.943,8.225-7.989 c-0.951-3.046-3.615-0.437-3.615-0.437s-1.548-2.869-3.777-2.198C180.016,103.132,178.849,110.066,178.849,110.066z"></path> <path style="fill:#407BFF;" d="M203.184,108.765c-1.05,1.37-2.22,2.65-3.51,3.82c-1.18,1.08-2.44,2.06-3.79,2.92 c0.03,0.15,0.05,0.29,0.07,0.43c-0.08-0.1-0.16-0.21-0.24-0.32c-0.76-1.02-1.64-2.26-2.47-3.55c-1.04-1.66-1.99-3.39-2.41-4.82 v-0.01c-0.14-0.45-0.22-0.86-0.24-1.24l-0.95-1.32l0.31-0.36l2.52-2.96l0.55-0.64l1.08,1.41c0,0,1.39-0.5,5.84,3.33 C201.085,106.435,202.244,107.675,203.184,108.765z"></path> </g> </g> <g> <circle style="fill:#407BFF;" cx="95.437" cy="278.664" r="28.858"></circle> <path style="opacity:0.7;fill:#FFFFFF;" d="M123.292,278.661c0,6.66-2.34,12.78-6.26,17.57c-1.18,1.45-2.5,2.78-3.95,3.97 c-0.46,0.38-0.94,0.75-1.44,1.1c-1.35,0.98-2.8,1.83-4.32,2.55c-3.61,1.71-7.64,2.67-11.89,2.67c-5.11,0-9.9-1.38-14.01-3.8 c-1.06-0.61-2.07-1.3-3.03-2.05h-0.01c-0.05-0.04-0.1-0.08-0.15-0.13c-1.13-0.87-2.19-1.85-3.15-2.9 c-4.66-4.97-7.5-11.65-7.5-18.98c0-15.36,12.49-27.86,27.85-27.86C110.802,250.801,123.292,263.301,123.292,278.661z"></path> <g> <path style="fill:#263238;" d="M113.082,300.201c-0.46,0.38-0.94,0.75-1.44,1.1c-1.35,0.98-2.8,1.83-4.32,2.55 c-3.61,1.71-7.64,2.67-11.89,2.67c-5.11,0-9.9-1.38-14.01-3.8c-1.06-0.61-2.07-1.3-3.03-2.05h-0.01 c-0.05-0.04-0.1-0.08-0.15-0.13c0.02-0.07,0.03-0.12,0.05-0.19v-0.01c0.24-0.9,0.47-1.84,0.68-2.82c0.3-1.32,0.57-2.69,0.81-4.12 c0.61-3.7,0.97-7.71,0.84-11.78c-0.49-14.75,2.19-20.16,8.22-23.05c0.27-0.13,0.55-0.27,0.85-0.39c1.42-0.6,2.86-0.71,4.25-0.53 c0,0,0,0,0.01,0c5.16,0.7,9.64,5.51,9.64,5.51s1,1.37,2.36,3.99c2.44,4.71,6.03,13.46,6.93,25.44v0.01 C113.062,295.011,113.142,297.541,113.082,300.201z"></path> <path style="fill:#407BFF;" d="M112.872,292.601v-0.01c-1.08-0.79-2.09-1.35-2.91-1.52c0,0-5.88-0.57-10.99-0.53 c-0.56,0.02-1.13,0.05-1.69,0.08c-2.62,0.14-5.24,0.41-7.83,0.8c-0.76,0.11-1.52,0.23-2.27,0.37c-2.5,0.41-4.97,0.95-7.41,1.61 c-1.17,0.31-2.33,0.65-3.49,1.02c-0.43,0.54-0.82,1.67-1.2,3.22c0.96,1.05,2.02,2.03,3.15,2.9c0.05,0.05,0.1,0.09,0.15,0.13h0.01 c0.96,0.75,1.97,1.44,3.03,2.05c4.11,2.42,8.9,3.8,14.01,3.8c4.25,0,8.28-0.96,11.89-2.67c1.52-0.72,2.97-1.57,4.32-2.55 c0.5-0.35,0.98-0.72,1.44-1.1c1.45-1.19,2.77-2.52,3.95-3.97C115.672,294.891,114.212,293.571,112.872,292.601z"></path> <path style="opacity:0.2;fill:#FFFFFF;enable-background:new ;" d="M112.872,292.601v-0.01c-1.08-0.79-2.09-1.35-2.91-1.52 c0,0-5.88-0.57-10.99-0.53c-0.56,0.02-1.13,0.05-1.69,0.08c-2.62,0.14-5.24,0.41-7.83,0.8c-0.76,0.11-1.52,0.23-2.27,0.37 c-2.5,0.41-4.97,0.95-7.41,1.61c-1.17,0.31-2.33,0.65-3.49,1.02c-0.43,0.54-0.82,1.67-1.2,3.22c0.96,1.05,2.02,2.03,3.15,2.9 c0.05,0.05,0.1,0.09,0.15,0.13h0.01c0.96,0.75,1.97,1.44,3.03,2.05c4.11,2.42,8.9,3.8,14.01,3.8c4.25,0,8.28-0.96,11.89-2.67 c1.52-0.72,2.97-1.57,4.32-2.55c0.5-0.35,0.98-0.72,1.44-1.1c1.45-1.19,2.77-2.52,3.95-3.97 C115.672,294.891,114.212,293.571,112.872,292.601z"></path> <path style="fill:#EEC1BB;" d="M96.81,296.348c-6.476-0.831-8.423-3.6-8.423-3.6c2.647-2.493,2.167-6.175,1.491-8.472 c-0.367-1.271-0.798-2.118-0.798-2.118l7.796,1.458c-0.204,1.287-0.293,2.371-0.301,3.283c-0.016,1.002,0.073,1.792,0.22,2.411 c0.53,2.33,1.857,2.362,1.857,2.362C100.019,294.23,96.81,296.348,96.81,296.348z"></path> <path style="opacity:0.2;enable-background:new ;" d="M96.573,286.899c-0.016,1.002,0.073,1.792,0.22,2.411 c-3.095-0.407-5.441-2.884-6.916-5.034c-0.367-1.271-0.798-2.118-0.798-2.118l7.796,1.458 C96.671,284.903,96.581,285.987,96.573,286.899z"></path> <g> <path style="fill:#EEC1BB;" d="M95.286,262.032c6.779,0.251,8.826,3.962,9.064,10.966c0.297,8.753-1.869,14.884-10.276,12.705 C82.657,282.743,84.029,261.614,95.286,262.032z"></path> <path style="fill:#D4827D;" d="M99.982,272.456c0,0,0.874,1.806,1.868,2.885c0,0-0.615,0.9-1.815,0.701L99.982,272.456z"></path> <path style="fill:#263238;" d="M92.981,268.334c-0.083,0-0.166-0.028-0.233-0.087c-0.147-0.129-0.162-0.353-0.033-0.5 c1.199-1.367,3.219-1.045,3.303-1.031c0.192,0.032,0.322,0.214,0.29,0.406c-0.031,0.193-0.211,0.323-0.407,0.292 c-0.016-0.003-1.718-0.266-2.654,0.8C93.177,268.294,93.079,268.334,92.981,268.334z"></path> <path style="fill:#263238;" d="M103.578,267.973c-0.071,0-0.144-0.022-0.206-0.067c-1.288-0.928-2.323-0.62-2.366-0.607 c-0.188,0.057-0.384-0.044-0.444-0.23c-0.059-0.186,0.041-0.383,0.225-0.443c0.057-0.021,1.404-0.443,2.999,0.706 c0.159,0.114,0.194,0.335,0.08,0.494C103.796,267.921,103.688,267.972,103.578,267.973z"></path> <g> <path style="fill:#263238;" d="M98.948,278.672c-0.422,0.803-0.878,2.325-0.878,2.325c-0.146-0.016-0.291-0.033-0.435-0.057 c-1.966-0.273-2.788-1.049-3.103-1.826c-0.171-0.426-0.185-0.857-0.151-1.202c0.035-0.4,0.152-0.676,0.152-0.676 c0.956,0.767,2.769,1.163,3.746,1.333C98.687,278.644,98.948,278.672,98.948,278.672z"></path> <path style="fill:#FFFFFF;" d="M98.279,278.569l-0.277,0.679c-1.851-0.261-3.119-0.694-3.621-1.336 c0.035-0.4,0.152-0.676,0.152-0.676C95.489,278.003,97.302,278.398,98.279,278.569z"></path> <path style="fill:#DE5753;" d="M97.634,280.94c-1.966-0.273-2.788-1.049-3.103-1.826c0.666,0.119,1.456,0.336,2.123,0.735 C97.165,280.153,97.457,280.552,97.634,280.94z"></path> </g> <path style="fill:#263238;" d="M87.454,273.182c0,0,3.376-5.452,3.055-9.77c0,0,13.637-4.99,13.794,8.67 c0,0,1.762-12.059-9.882-12.761c-11.625-0.701-12.226,16.348-6.396,21.651C88.026,280.973,85.364,276.593,87.454,273.182z"></path> <path style="fill:#EEC1BB;" d="M88.508,274.654c-0.005-1.093-1.063-2.982-3.101-2.836c-2.109,0.151-3.27,4.427,1.916,5.658 C88.068,277.652,88.518,276.935,88.508,274.654z"></path> <path style="fill:#263238;" d="M91.479,257.552c3.666-1.018,13.441-1.154,15.749,8.961l-1.358,0.679 c0,0-3.258-1.765-7.331-2.172c0,0-0.815-1.493-1.901-2.715c0,0,0.136,1.629,0,2.579c0,0-6.376,0.934-9.232,3.53 c-4.48,4.073-4.752,6.652-4.752,6.652S79.548,260.866,91.479,257.552z"></path> <path style="fill:#263238;" d="M108.179,266.417c-0.102,0-0.198-0.064-0.232-0.167c-1.159-3.478-3.143-5.928-5.897-7.283 c-5.026-2.473-10.973-0.458-11.033-0.438c-0.127,0.048-0.267-0.023-0.311-0.15c-0.044-0.127,0.023-0.267,0.151-0.311 c0.062-0.022,6.201-2.103,11.409,0.46c2.876,1.415,4.943,3.962,6.146,7.567c0.043,0.128-0.027,0.267-0.155,0.309 C108.23,266.413,108.204,266.417,108.179,266.417z"></path> <path style="fill:#263238;" d="M93.991,271.755c0,0,1.587-1.35,2.339,0.466C96.33,272.221,95.16,271.625,93.991,271.755z"></path> <path style="fill:#263238;" d="M101.531,272.758c0,0,0.879-1.839,2.047-0.537C103.578,272.221,102.238,272.257,101.531,272.758z "></path> </g> </g> </g> <g> <ellipse transform="matrix(0.7071 -0.7071 0.7071 0.7071 -122.5997 360.4981)" style="fill:#407BFF;" cx="373.86" cy="328.24" rx="35.764" ry="35.764"></ellipse> <path style="opacity:0.7;fill:#FFFFFF;" d="M408.623,328.235c0,5.61-1.33,10.91-3.71,15.61c-0.47,0.94-0.99,1.85-1.54,2.74 c-0.43,0.69-0.88,1.37-1.37,2.03c-2.03,2.81-4.48,5.3-7.25,7.39c-0.63,0.48-1.28,0.93-1.95,1.37c-2.67,1.75-5.6,3.13-8.71,4.09 c-3.24,1-6.67,1.54-10.23,1.54c-5.12,0-9.99-1.11-14.37-3.11c-0.56-0.26-1.12-0.53-1.67-0.81v-0.01 c-3.11-1.62-5.95-3.71-8.42-6.16c-2.42-2.39-4.49-5.14-6.13-8.15c-0.46-0.86-0.89-1.75-1.28-2.65h-0.01 c-1.86-4.25-2.89-8.95-2.89-13.88c0-19.16,15.6-34.76,34.77-34.76C393.033,293.475,408.623,309.075,408.623,328.235z"></path> <g id="_x3C_Group_x3E__2_"> <path style="fill:#9F5B53;" d="M356.513,326.865c-0.45,0.86-2.15,2.6-2.15,2.6l-3,14.19l-1.96,9.26 c-2.42-2.39-4.49-5.14-6.13-8.15c0.24-0.75,0.5-1.53,0.75-2.32c2.12-6.58,4.56-14.2,4.74-14.95c0.32-1.34-0.85-7.91-0.58-9.12 c0.28-1.2,6.27-2.62,7.57-2.6C357.053,315.795,356.953,326.015,356.513,326.865z"></path> <path style="fill:#407BFF;" d="M361.203,342.495c0,0,0,0.02-0.01,0.05l-1.26,12.93l-0.44,4.42c-0.56-0.26-1.12-0.53-1.67-0.81 v-0.01c-3.11-1.62-5.95-3.71-8.42-6.16c-2.42-2.39-4.49-5.14-6.13-8.15c-0.46-0.86-0.89-1.75-1.28-2.65l2.03,0.33l7.34,1.21 l1.58,0.26l-1.85,8.97C351.093,352.885,357.823,343.515,361.203,342.495z"></path> <path style="opacity:0.3;" d="M361.203,342.495c0,0,0,0.02-0.01,0.05l-1.26,12.93l-0.44,4.42c-0.56-0.26-1.12-0.53-1.67-0.81 v-0.01c-3.11-1.62-5.95-3.71-8.42-6.16c-2.42-2.39-4.49-5.14-6.13-8.15c-0.46-0.86-0.89-1.75-1.28-2.65l2.03,0.33l7.34,1.21 l1.58,0.26l-1.85,8.97C351.093,352.885,357.823,343.515,361.203,342.495z"></path> <g> <path style="fill:#407BFF;" d="M404.913,343.845c-0.47,0.94-0.99,1.85-1.54,2.74c-0.43,0.69-0.88,1.37-1.37,2.03 c-2.03,2.81-4.48,5.3-7.25,7.39c-0.63,0.48-1.28,0.93-1.95,1.37c-2.67,1.75-5.6,3.13-8.71,4.09c-3.24,1-6.67,1.54-10.23,1.54 c-5.12,0-9.99-1.11-14.37-3.11c-0.56-0.26-1.12-0.53-1.67-0.81v-0.01c1.4-9.99,3.19-15.95,3.37-16.53 c0.01-0.03,0.01-0.05,0.01-0.05c3.6-1.03,7.28-1.78,11-2.24c0.06,0,0.11-0.01,0.17-0.01c0.01,0,0.01,0,0.01,0 c5.34-0.42,10.72-0.54,16.09-0.34h0.05c3.72,0.1,7.42,0.46,11.09,1.1C400.093,341.205,402.553,342.225,404.913,343.845z"></path> <path style="opacity:0.3;" d="M404.913,343.845c-0.47,0.94-0.99,1.85-1.54,2.74c-0.43,0.69-0.88,1.37-1.37,2.03 c-2.03,2.81-4.48,5.3-7.25,7.39c-0.63,0.48-1.28,0.93-1.95,1.37c-2.67,1.75-5.6,3.13-8.71,4.09c-3.24,1-6.67,1.54-10.23,1.54 c-5.12,0-9.99-1.11-14.37-3.11c-0.56-0.26-1.12-0.53-1.67-0.81v-0.01c1.4-9.99,3.19-15.95,3.37-16.53 c0.01-0.03,0.01-0.05,0.01-0.05c3.6-1.03,7.28-1.78,11-2.24c0.06,0,0.11-0.01,0.17-0.01c0.01,0,0.01,0,0.01,0 c5.34-0.42,10.72-0.54,16.09-0.34h0.05c3.72,0.1,7.42,0.46,11.09,1.1C400.093,341.205,402.553,342.225,404.913,343.845z"></path> <path style="opacity:0.8;fill:#FFFFFF;" d="M394.753,356.005c-0.63,0.48-1.28,0.93-1.95,1.37c-2.67,1.75-5.6,3.13-8.71,4.09 c-3.24,1-6.67,1.54-10.23,1.54c-5.12,0-9.99-1.11-14.37-3.11c-0.56-0.26-1.12-0.53-1.67-0.81v-0.01 c0.05-0.29,0.09-0.58,0.13-0.86c0.58-0.9,1.24-1.82,1.98-2.74c3.58-4.57,8.62-9.18,11.17-11.41c0.71,0.88,1.92,1.63,3.89,2.02 c3.28,0.64,7.03-0.89,10.14-2.74c1.4,1.39,3.51,3.6,5.45,6.01c1.46,1.82,2.81,3.75,3.69,5.54 C394.453,355.275,394.613,355.645,394.753,356.005z"></path> </g> <path style="fill:#9F5B53;" d="M388.523,339.951c0,0-4.073,5.025-11.841,5.373c-6.734,0.297-4.483-5.025-4.483-5.025 c2.466-0.645,3.838-1.801,4.534-3.214c0.87-1.811,0.614-4.053,0.061-6.253c-0.041-0.154-0.082-0.307-0.123-0.461l9.835-8.76 C385.596,326.882,384.778,336.523,388.523,339.951z"></path> <path style="opacity:0.2;enable-background:new ;" d="M384.89,329.338c-0.522,3.377-4.626,6.704-8.157,7.747 c0.87-1.811,0.614-4.053,0.061-6.253l8.146-6.243C385.218,326.166,385.207,327.772,384.89,329.338z"></path> <g> <path style="fill:#263238;" d="M378.517,310.236c2.335,2.636,0.22,5.555-7.464,9.005c-1.734-4.026-0.498-10.668,1.983-11.784 C375.518,306.34,376.479,307.949,378.517,310.236z"></path> <path style="fill:#9F5B53;" d="M389.317,318.595c-2.067,6.822-2.934,10.913-7.266,13.641 c-6.524,4.096-14.319-1.098-14.333-8.403c-0.004-6.559,3.372-16.619,10.798-17.763c5.303-0.844,10.286,2.77,11.13,8.072 C389.883,315.632,389.771,317.156,389.317,318.595z"></path> <path style="fill:#263238;" d="M378.53,318.041c-0.134,0.563-0.543,0.949-0.91,0.86c-0.367-0.089-0.554-0.609-0.42-1.172 c0.134-0.563,0.535-0.949,0.902-0.868C378.469,316.941,378.623,317.477,378.53,318.041z"></path> <path style="fill:#263238;" d="M372.123,316.531c-0.134,0.563-0.543,0.949-0.91,0.86c-0.367-0.089-0.562-0.609-0.428-1.181 c0.134-0.571,0.543-0.949,0.91-0.86C372.062,315.44,372.257,315.968,372.123,316.531z"></path> <path style="fill:#892B29;" d="M374.15,317.292c-1.08,1.563-2.371,2.97-3.836,4.181c0.797,1.172,2.577,1.141,2.577,1.141 L374.15,317.292z"></path> <path style="fill:#263238;" d="M380.758,316.436c0.071,0.026,0.149,0.028,0.221,0.004c0.172-0.075,0.253-0.274,0.181-0.447 c-0.416-1.016-1.301-1.764-2.372-2.005c-0.177-0.036-0.351,0.078-0.387,0.256c-0.002,0.008-0.003,0.016-0.004,0.024 c-0.024,0.184,0.098,0.354,0.279,0.391l0,0c0.84,0.204,1.531,0.8,1.855,1.602C380.579,316.348,380.661,316.412,380.758,316.436z "></path> <path style="fill:#263238;" d="M369.719,313.681c0.128,0.029,0.262-0.016,0.346-0.116c0.528-0.687,1.352-1.079,2.218-1.056 c0.187,0.018,0.354-0.118,0.375-0.304c0.018-0.184-0.113-0.35-0.296-0.375c-1.096-0.046-2.147,0.44-2.821,1.306 c-0.118,0.143-0.099,0.355,0.044,0.473c0.001,0.001,0.003,0.002,0.004,0.003C369.627,313.643,369.671,313.666,369.719,313.681z"></path> <path style="fill:#263238;" d="M388.014,311.805c-3.499,0.342-3.93,3.925-0.636,11.671c4.011-1.775,7.623-7.493,6.548-9.991 C392.851,310.989,391.07,311.512,388.014,311.805z"></path> <path style="fill:#9F5B53;" d="M391.302,324.914c-0.88,1.564-2.344,2.715-4.071,3.201c-2.291,0.62-3.416-1.435-2.767-3.587 c0.587-1.94,2.492-4.601,4.781-4.269C391.533,320.589,392.372,322.991,391.302,324.914z"></path> <path style="fill:#263238;" d="M381.291,308.922c0,0-0.733,7.173,5.808,9.309c6.541,2.135,9.023-1.611,9.023-1.611 s-1.062-0.109-1.672-0.281c0,0,2.801-2.859,1.684-6.598c-1.117-3.74-6.889-8.81-12.255-8.326c0,0-4.249-2.978-9.546-1.475 c-5.297,1.503-5.967,7.546-5.967,7.546s0.699-3.596,3.102-4.039c0,0-4.523,6.62-1.028,9.583 C370.439,313.03,372.667,305.951,381.291,308.922z"></path> <g> <path style="fill:#263238;" d="M371.662,325.21c0.59,0.824,1.328,2.439,1.328,2.439c0.159-0.041,0.317-0.081,0.473-0.13 c2.134-0.603,2.925-1.588,3.155-2.497c0.124-0.498,0.073-0.977-0.018-1.354c-0.1-0.437-0.272-0.726-0.272-0.726 c-0.94,0.996-2.887,1.711-3.942,2.05C371.946,325.139,371.662,325.21,371.662,325.21z"></path> <path style="fill:#FFFFFF;" d="M372.386,324.993l0.41,0.709c2.009-0.573,3.346-1.246,3.803-2.033 c-0.1-0.437-0.272-0.726-0.272-0.726C375.388,323.938,373.442,324.654,372.386,324.993z"></path> <path style="fill:#DE5753;" d="M373.463,327.519c2.134-0.603,2.925-1.588,3.155-2.497c-0.719,0.233-1.561,0.595-2.237,1.139 C373.862,326.576,373.6,327.062,373.463,327.519z"></path> </g> </g> </g> </g> </g> <g id="Speech_bubble"> <g> <path style="fill:#407BFF;" d="M267.944,159.909l-13.699-0.655c-2.037-0.097-3.609-1.828-3.512-3.864l0.655-13.699 c0.097-2.037,1.828-3.609,3.865-3.512l13.699,0.655c2.037,0.098,3.609,1.828,3.512,3.865l-0.655,13.699 C271.711,158.434,269.981,160.007,267.944,159.909z"></path> <path style="opacity:0.6;fill:#FFFFFF;enable-background:new ;" d="M267.599,145.174c-1.373-2.488-4.261-1.696-5.82,0.112 c-1.38-1.948-4.179-3.013-5.783-0.667c-2.704,3.955,2.287,7.978,4.659,9.573c0.269,0.183,0.491,0.334,0.677,0.453 c0.196-0.101,0.432-0.23,0.717-0.386C264.561,152.897,269.913,149.369,267.599,145.174z"></path> <path style="fill:#407BFF;" d="M263.438,158.058c0,0-3.068,6.19-9.354,7.87c0,0,3.519-1.812,3.571-8.411L263.438,158.058z"></path> </g> </g> <g id="Character"> <g> <path style="fill:#EBB376;" d="M279.506,223.325c0,0,7.939-7.943,10.497-13.598c0,0-0.966-3.163-0.059-4.798 c0.907-1.635,6.194-6.335,7.606-5.339c1.411,0.996,3.455,4.937,2.61,6.59c-0.845,1.652-6.03,5.034-6.03,5.034 s-6.427,12.891-10.408,15.801C279.74,229.924,279.506,223.325,279.506,223.325z"></path> <path style="fill:#263238;" d="M259.43,199.453c4.625,0.602,9.9,23.02,13.592,25.13c3.692,2.11,13.274-10.281,13.274-10.281 l4.396,5.014c0,0-12.659,17.639-17.67,16.068c-5.011-1.571-14.435-18.977-14.435-18.977L259.43,199.453z"></path> <path style="opacity:0.05;fill:#FFFFFF;enable-background:new ;" d="M259.43,199.453c4.625,0.602,9.9,23.02,13.592,25.13 c3.692,2.11,13.274-10.281,13.274-10.281l4.396,5.014c0,0-12.659,17.639-17.67,16.068c-5.011-1.571-14.435-18.977-14.435-18.977 L259.43,199.453z"></path> <polygon style="fill:#EBB376;" points="287.492,406.243 281.418,407.316 278.927,399.034 276.654,391.433 283.658,388.987 285.691,398.122 "></polygon> <path style="fill:#263238;" d="M280.048,407.156c-0.103-0.672,8.217-1.6,8.217-1.6s5.97,4.255,11.092,4.543 c5.121,0.289,2.894,3.724-2.601,4.694c-5.495,0.97-9.689,1.711-13.594,2.4C279.258,417.883,281.111,414.126,280.048,407.156z"></path> <g> <path style="fill:#407BFF;" d="M292.353,406.945c-1.137,0-2.588-0.378-2.981-0.488c-0.027-0.007-0.051-0.019-0.072-0.035l0,0l0,0 c-0.022-0.016-0.041-0.036-0.056-0.061l0,0c0-0.001,0-0.001,0-0.001c-0.01-0.016-0.018-0.034-0.024-0.052c0,0,0,0,0-0.001h0 c-0.009-0.033-0.011-0.067-0.006-0.099c0.016-0.094,0.369-2.131,1.401-2.791c0.328-0.211,0.687-0.262,1.069-0.159 c0.406,0.111,0.629,0.313,0.663,0.597c0.052,0.437-0.458,0.974-1.064,1.45c0.684-0.19,1.399-0.297,1.88-0.125 c0.256,0.093,0.436,0.254,0.538,0.479c0.21,0.467,0.092,0.754-0.045,0.913C293.42,406.848,292.926,406.945,292.353,406.945z M290.1,406.186c1.304,0.3,2.89,0.487,3.222,0.099c0.029-0.034,0.117-0.136-0.023-0.444c-0.052-0.115-0.145-0.195-0.286-0.246 C292.362,405.359,290.986,405.818,290.1,406.186z M291.314,403.647c-0.162,0-0.315,0.047-0.462,0.142 c-0.563,0.36-0.925,1.346-1.1,2.018c1.137-0.679,2.201-1.526,2.157-1.9c-0.014-0.117-0.22-0.19-0.342-0.223 C291.48,403.66,291.396,403.647,291.314,403.647z"></path> </g> <polygon style="opacity:0.2;enable-background:new ;" points="285.724,398.31 278.957,399.201 276.669,391.516 283.665,389.028 "></polygon> <polygon style="fill:#EBB376;" points="246.942,408.846 240.774,408.846 239.761,400.257 238.844,392.377 246.166,391.186 246.581,400.536 "></polygon> <path style="fill:#263238;" d="M239.452,408.451c0.016-0.68,8.37-0.147,8.37-0.147s5.14,5.228,10.132,6.403 c4.993,1.175,2.203,4.171-3.377,4.171c-5.58,0-9.839,0-13.804,0C236.809,418.877,239.287,415.499,239.452,408.451z"></path> <g> <path style="fill:#407BFF;" d="M252.219,410.442c-1.168,0-3.023-0.85-3.463-1.059c-0.029-0.013-0.054-0.033-0.074-0.057l0,0 h-0.001c-0.012-0.014-0.021-0.03-0.03-0.046c-0.024-0.052-0.029-0.112-0.008-0.169c0.029-0.083,0.731-2.033,1.864-2.504 c0.359-0.15,0.723-0.139,1.081,0.029c0.381,0.181,0.565,0.417,0.549,0.703c-0.025,0.439-0.621,0.88-1.3,1.242 c0.707-0.07,1.43-0.05,1.874,0.205c0.235,0.135,0.386,0.326,0.446,0.565c0.126,0.495-0.04,0.758-0.202,0.891 C252.782,410.384,252.523,410.442,252.219,410.442z M249.52,409.243c1.231,0.521,2.761,0.982,3.156,0.658 c0.034-0.029,0.138-0.114,0.055-0.442c-0.031-0.122-0.109-0.217-0.239-0.292C251.89,408.822,250.458,409.035,249.52,409.243z M251.015,406.942c-0.112,0-0.224,0.024-0.338,0.071c-0.617,0.257-1.145,1.165-1.434,1.796c1.238-0.47,2.433-1.12,2.455-1.496 c0.007-0.117-0.183-0.225-0.298-0.279C251.271,406.973,251.143,406.942,251.015,406.942z"></path> </g> <polygon style="opacity:0.2;enable-background:new ;" points="246.581,400.726 239.761,400.427 238.844,392.462 246.166,391.228 "></polygon> <g> <path style="fill:#407BFF;" d="M286.296,393.49l-9.985,1.76c-10.076-25.104-17.244-46.059-22.305-63.449 c-2.726-9.383-4.851-17.727-6.483-25.132l0.456,27.329v62.081h-10.14c-24.666-117.633-7.185-144.515-7.185-144.515l29.508-5.043 c1.122,4.404,1.97,11.544,2.471,16.514l1.331,9.757l11.535,59.564L286.296,393.49z"></path> </g> <polygon style="fill:#407BFF;" points="274.746,394.016 287.131,389.91 286.964,395.178 276.72,398.445 "></polygon> <polygon style="fill:#407BFF;" points="236.515,394.589 249.426,392.699 248.345,397.858 237.69,399.294 "></polygon> <path style="fill:#263238;" d="M257.502,187.188c-0.044,0-0.089-0.012-0.129-0.036c-3.764-2.274-7.121-10.626-7.263-10.98 c-0.051-0.128,0.012-0.273,0.14-0.325c0.128-0.049,0.273,0.011,0.325,0.14c0.034,0.085,3.436,8.549,7.057,10.737 c0.118,0.071,0.156,0.225,0.085,0.343C257.669,187.145,257.587,187.188,257.502,187.188z"></path> <path style="fill:#263238;" d="M227.233,165.249c0,0,1.468-4.989,11.265-5.842c9.797-0.852,14.674,8.804,12.363,15.978 c0,0,2.061,9.768,6.015,12.632c0,0-18.853,8.522-28.375,8.57c-2.118,0.01-6.646-10.506-7.23-18.088 C220.709,171.199,222.913,165.482,227.233,165.249z"></path> <polygon style="fill:#263238;" points="230.653,247.155 230.653,251.561 260.745,249.253 260.745,244.043 "></polygon> <polygon style="opacity:0.3;fill:#FFFFFF;enable-background:new ;" points="230.653,247.155 230.653,251.561 260.745,249.253 260.745,244.043 "></polygon> <rect x="247.418" y="245.402" transform="matrix(0.996 -0.0892 0.0892 0.996 -21.1144 23.3532)" style="fill:#FFFFFF;" width="6.606" height="5.01"></rect> <g> <rect x="239.456" y="245.336" transform="matrix(0.9987 -0.0511 0.0511 0.9987 -12.4068 12.5886)" style="fill:#407BFF;" width="1.494" height="7.613"></rect> </g> <g> <rect x="257.84" y="243.317" transform="matrix(0.9987 -0.0509 0.0509 0.9987 -12.2502 13.4903)" style="fill:#407BFF;" width="1.494" height="7.613"></rect> </g> <path style="fill:#263238;" d="M260.87,244.573l-30.1,2.6c-0.29-4.55-0.58-8.45-1.27-12.82c-0.44-2.8-1.05-5.8-1.93-9.29 c-0.68-2.73-1.53-5.77-2.61-9.25c-0.05-0.19-0.11-0.38-0.17-0.57c-0.62-1.99-5.03-0.47-5.43-2.86 c-1.74-10.64,9.74-11.42,13.97-12.12c4.46-0.79,8.99-1.27,13.52-1.42c5.85-0.05,12.58,0.61,12.58,0.61s0.96,0.23,1.56,6.44 C261.54,211.713,262.08,223.373,260.87,244.573z"></path> <path style="fill:#EBB376;" d="M244.364,205.486c-7.418-0.949-9.647-4.118-9.647-4.118c4.707-4.441,0.796-12.135,0.796-12.135 l8.929,1.667c-0.235,1.475-0.335,2.713-0.349,3.759c-0.068,5.419,2.383,5.472,2.383,5.472 C248.043,203.067,244.364,205.486,244.364,205.486z"></path> <path style="opacity:0.2;enable-background:new ;" d="M244.442,190.9c-0.235,1.475-0.335,2.713-0.349,3.759 c-6.031,0-8.58-5.426-8.58-5.426L244.442,190.9z"></path> <g> <path style="fill:#EBB376;" d="M237.596,165.91c7.581-1.717,10.941,1.789,13.265,9.476c2.905,9.606,2.311,17.033-7.64,17.094 C229.707,192.564,225.006,168.761,237.596,165.91z"></path> <path style="fill:#D58745;" d="M245.865,176.072c0,0,1.499,1.742,2.918,2.645c0,0-0.415,1.178-1.804,1.31L245.865,176.072z"></path> <g> <path style="fill:#263238;" d="M241.084,176.503c0.156,0.62-0.053,1.206-0.466,1.31c-0.413,0.104-0.874-0.314-1.029-0.934 c-0.156-0.619,0.053-1.206,0.466-1.309C240.468,175.465,240.929,175.883,241.084,176.503z"></path> <path style="fill:#263238;" d="M239.89,175.642l1.214-0.867C241.105,174.775,240.719,176.077,239.89,175.642z"></path> </g> <g> <path style="fill:#263238;" d="M248.753,174.439c0.156,0.619-0.053,1.206-0.466,1.309c-0.413,0.104-0.874-0.314-1.03-0.934 c-0.156-0.619,0.053-1.206,0.466-1.309C248.136,173.402,248.597,173.82,248.753,174.439z"></path> <path style="fill:#263238;" d="M247.558,173.579l1.214-0.867C248.773,172.712,248.387,174.014,247.558,173.579z"></path> </g> <path style="fill:#263238;" d="M236.794,173.538c-0.054,0-0.109-0.012-0.16-0.038c-0.18-0.089-0.253-0.306-0.164-0.485 c0.914-1.846,3.221-2.082,3.319-2.091c0.195-0.019,0.375,0.128,0.394,0.326c0.019,0.199-0.127,0.376-0.326,0.395 c-0.02,0.002-2.005,0.211-2.738,1.691C237.056,173.464,236.928,173.538,236.794,173.538z"></path> <path style="fill:#263238;" d="M245.262,170.078c-0.119,0-0.236-0.059-0.306-0.167c-0.107-0.167-0.061-0.39,0.106-0.499 c0.056-0.036,1.406-0.89,3.489-0.096c0.187,0.071,0.281,0.28,0.209,0.467c-0.071,0.187-0.281,0.282-0.467,0.21 c-1.724-0.657-2.793-0.001-2.838,0.028C245.395,170.059,245.328,170.078,245.262,170.078z"></path> <path style="fill:#263238;" d="M246.549,183.259c-0.231,1.013-0.288,2.833-0.288,2.833c-0.166,0.025-0.332,0.049-0.499,0.065 c-2.257,0.277-3.396-0.341-3.973-1.109c-0.314-0.422-0.457-0.895-0.521-1.287c-0.078-0.453-0.031-0.794-0.031-0.794 c1.284,0.568,3.408,0.472,4.541,0.374C246.253,183.305,246.549,183.259,246.549,183.259z"></path> <path style="fill:#FFFFFF;" d="M245.778,183.342l-0.106,0.833c-2.127,0.255-3.658,0.15-4.403-0.413 c-0.078-0.453-0.031-0.794-0.031-0.794C242.521,183.536,244.645,183.441,245.778,183.342z"></path> <path style="fill:#DE5753;" d="M245.762,186.158c-2.257,0.277-3.396-0.341-3.973-1.109c0.773-0.065,1.712-0.057,2.567,0.189 C245.011,185.424,245.452,185.78,245.762,186.158z"></path> <path style="fill:#263238;" d="M232.205,180.564c0,0,2.134-7.032,0.508-11.719c0,0,13.633-9.54,17.828,5.541 c0,0-1.599-13.873-14.7-11.223c-13.08,2.646-8.727,21.703-0.71,25.86C235.132,189.023,230.894,184.956,232.205,180.564z"></path> <path style="fill:#EBB376;" d="M233.806,181.883c-0.327-1.209-2.055-2.99-4.269-2.228c-2.291,0.788-2.318,5.865,3.788,5.701 C234.201,185.333,234.488,184.406,233.806,181.883z"></path> </g> <path style="fill:#263238;" d="M232.713,168.845c0,0,7.856-2.891,12.279-0.712c0,0-4.767-4.278-12.837-0.251L232.713,168.845z"></path> <path style="fill:#EBB376;" d="M227.839,202.191c0,0,8.71,7.067,16.818,6.953c8.109-0.114,10.958-9.233,10.958-9.233 S243.039,196.188,227.839,202.191z"></path> <path style="opacity:0.2;enable-background:new ;" d="M254.006,331.801c-2.726-9.383-4.851-17.727-6.483-25.132 c0,0,0.164-14.389,1.906-26.207C249.429,280.462,253.751,314.266,254.006,331.801z"></path> <path style="fill:#EBB376;" d="M203.471,217.848c0,0-5.968-9.514-7.2-15.596c0,0,1.647-2.868,1.128-4.664 c-0.519-1.796-4.626-7.557-6.223-6.901c-1.598,0.656-4.469,4.042-4.014,5.842c0.455,1.799,4.755,6.252,4.755,6.252 s3.39,14,6.622,17.724C201.771,224.228,203.471,217.848,203.471,217.848z"></path> <path style="fill:#263238;" d="M219.723,207.166c3.035-0.42,9.157,5.501,8.225,10.623c-0.932,5.121-9.508,19.518-16.125,18.398 c-9.35-1.582-19.624-26.228-19.624-26.228l5.131-4.472c0,0,12.106,20.971,14.493,20.561 C214.209,225.637,219.723,207.166,219.723,207.166z"></path> <path style="opacity:0.05;fill:#FFFFFF;enable-background:new ;" d="M219.723,207.166c3.035-0.42,9.157,5.501,8.225,10.623 c-0.932,5.121-9.508,19.518-16.125,18.398c-9.35-1.582-19.624-26.228-19.624-26.228l5.131-4.472c0,0,12.106,20.971,14.493,20.561 C214.209,225.637,219.723,207.166,219.723,207.166z"></path> <polygon style="fill:#263238;" points="190.104,208.452 197.593,203.958 198.78,205.896 191.713,212.15 "></polygon> <polygon style="fill:#263238;" points="284.626,214.165 290.692,221.671 291.747,219.316 286.296,212.978 "></polygon> <g> <path style="fill:#407BFF;" d="M287.658,204.009l9.586-11.676c0.332-0.405,0.938-0.443,1.318-0.084l4.273,4.034 c0.344,0.325,0.379,0.86,0.08,1.227l-9.734,11.944c-0.343,0.421-0.977,0.446-1.352,0.055l-4.125-4.302 C287.387,204.877,287.367,204.362,287.658,204.009z"></path> <path style="opacity:0.3;enable-background:new ;" d="M287.658,204.009l9.586-11.676c0.332-0.405,0.938-0.443,1.318-0.084 l4.273,4.034c0.344,0.325,0.379,0.86,0.08,1.227l-9.734,11.944c-0.343,0.421-0.977,0.446-1.352,0.055l-4.125-4.302 C287.387,204.877,287.367,204.362,287.658,204.009z"></path> <path style="fill:#407BFF;" d="M287.272,203.539l9.586-11.675c0.332-0.405,0.938-0.443,1.318-0.084l4.273,4.034 c0.344,0.325,0.379,0.861,0.08,1.228l-9.734,11.944c-0.343,0.421-0.977,0.446-1.352,0.054l-4.125-4.302 C287.001,204.407,286.982,203.893,287.272,203.539z"></path> <polygon style="opacity:0.6;fill:#FFFFFF;enable-background:new ;" points="297.244,192.333 301.982,196.916 292.712,208.32 288.099,203.476 "></polygon> </g> </g> </g> </svg>